<?xml version="1.0" encoding="utf-8" ?><!DOCTYPE svg PUBLIC "-//W3C//DTD SVG 1.1//EN" "http://www.w3.org/Graphics/SVG/1.1/DTD/svg11.dtd"><svg width="280px" height="280px" viewBox="-6 0 274 280" version="1.1" xmlns="http://www.w3.org/2000/svg" xmlns:xlink="http://www.w3.org/1999/xlink"><desc>Py-Avataaars</desc> <g id="x37" stroke="none" stroke-width="1" fill="none" fill-rule="evenodd"><defs><circle id="x22" cx="120" cy="120" r="120"/><path id="x23" d="M12,160 C12,226.27417 65.72583,280 132,280 C198.27417,280 252,226.27417 252,160 L264,160 L264,-1.42108547e-14 L-3.19744231e-14,-1.42108547e-14 L-3.19744231e-14,160 L12,160 Z"/><path id="x26" d="M124,144.610951 L124,163 L128,163 L128,163 C167.764502,163 200,195.235498 200,235 L200,244 L0,244 L0,235 C-4.86974701e-15,195.235498 32.235498,163 72,163 L72,163 L76,163 L76,144.610951 C58.7626345,136.422372 46.3722246,119.687011 44.3051388,99.8812385 C38.4803105,99.0577866 34,94.0521096 34,88 L34,74 C34,68.0540074 38.3245733,63.1180731 44,62.1659169 L44,56 L44,56 C44,25.072054 69.072054,5.68137151e-15 100,0 L100,0 L100,0 C130.927946,-5.68137151e-15 156,25.072054 156,56 L156,62.1659169 C161.675427,63.1180731 166,68.0540074 166,74 L166,88 C166,94.0521096 161.51969,99.0577866 155.694861,99.8812385 C153.627775,119.687011 141.237365,136.422372 124,144.610951 Z"/></defs><g id="x35" transform="translate(-825,-1100)"><g transform="translate(825,1100)"> <g id="x36" stroke-width="1" fill-rule="evenodd" mask="url('#py-avataaars-path-b9e43a97-c908-4d1b-bb48-2a961fdc8690')"><g id="x34" transform="translate(32,36)"><mask id="x25" fill="#FFFFFF"><use xlink:href="#x26"/></mask><use fill="#D0C6AC" xlink:href="#x26"/><g id="x19" mask="url('#x25')" fill="#EDB98A"><g transform="translate(0,0)" id="x20"><rect x="0" y="0" width="264" height="280"/></g></g> <path id="x33" d="M156,79 L156,102 C156,132.927946 130.927946,158 100,158 C69.072054,158 44,132.927946 44,102 L44,79 L44,94 C44,124.927946 69.072054,150 100,150 C130.927946,150 156,124.927946 156,94 L156,79 Z" fill-opacity="0.1" fill="#000000" mask="url('#x25')"/></g><g id="x56" transform="translate(0,170)"><defs><path id="x24" d="M165.624032,29.2681342 C202.760022,32.1373245 232,63.1798426 232,101.051724 L232,110 L32,110 L32,101.051724 C32,62.8348009 61.7752018,31.5722494 99.3929298,29.1967444 C99.1342224,30.2735458 99,31.3767131 99,32.5 C99,44.3741221 113.998461,54 132.5,54 C151.001539,54 166,44.3741221 166,32.5 C166,31.4015235 165.871641,30.3222877 165.624025,29.2681336 Z"/></defs><mask id="x32" fill="#FFFFFF"><use xlink:href="#x24"/></mask><use id="x55" fill="#E6E6E6" fill-rule="evenodd" xlink:href="#x24"/><g id="py-avataaars-clothes-clothe-color-palette-blue_03" mask="url('#x32')" fill-rule="evenodd" fill="#25557C"><rect id="x57" x="0" y="0" width="264" height="110"/></g><g id="py-avataaars-clothes-graphics-x0-outline" mask="url('#x32'" stroke-width="1" fill-rule="evenodd"><g transform="translate(77,58)" id="x0"><g transform="translate(36,1)"><path id="py-avataaars-clothes-graphics-x0-outline-boo1" d="M36.3353853,17.0393673 C36.1551375,18.0777567 35.8927571,19.1087846 35.3466862,20.0285256 C34.6274709,21.2401241 33.3213404,21.7355025 32.5643885,22.8466397 C31.3705799,24.5990841 32.9555173,27.1231756 31.7781352,28.6842237 C30.5119611,30.3630542 27.6359878,29.346749 26.5163205,31.5755188 C25.3358307,33.925968 27.0535122,37.0679834 25.5729054,39.4058749 C24.1038415,39.0369393 23.6514462,33.5197923 21.3841422,37.0389708 C19.9319488,39.2928559 20.9126566,40.513981 18.7354764,37.2741024 C17.9789685,36.1486754 17.1247893,35.1384326 15.6392989,35.8810671 C14.5955488,36.4024269 14.3806721,38.7178013 13.4297097,38.9672226 C11.0962556,39.5786511 11.0105713,33.3500473 10.2172146,32.1709255 C9.78124586,31.523123 9.3750224,31.1394645 8.59986813,30.8939404 C7.92815655,30.6808931 6.73124021,31.1087199 6.17495825,30.7934791 C5.13032022,30.2019696 4.98914092,28.23821 4.94962847,27.1963565 C4.8759311,25.2572791 5.52544468,23.2770647 4.98958488,21.3579064 C4.53896541,19.7461945 3.1027546,18.7545717 2.63348882,17.1753366 C0.0993647654,8.64045187 11.6836147,3.89495204 18.2986197,3.63037495 C26.0390634,3.32033043 37.3356273,7.85191686 36.3353853,17.0393673 M38.172936,11.7240091 C36.716747,8.28277481 33.5180147,5.54736808 30.2580159,3.71135026 C28.6748543,2.82018878 26.955841,2.16285976 25.1728973,1.77140691 C23.531577,1.41069869 21.6150014,1.64842836 20.0482663,1.19462018 C18.728373,0.811827785 17.9097107,-0.0477230086 16.3562944,0.00207464445 C14.238161,0.0696262433 12.0370069,1.17426809 10.1879133,2.08751375 C6.5279065,3.89538507 3.41663437,6.23630778 1.4618782,9.83126531 C-0.636277062,13.6895009 -0.437382953,17.1865952 1.81083082,20.7832848 C3.95648981,24.2167247 0.837226393,29.045365 3.97824385,32.3086268 C5.29902504,33.6808769 6.59938407,32.6801606 7.84957562,33.3409538 C8.81163708,33.8493229 8.77123671,36.8034063 9.03805671,37.6694524 C10.2385247,41.5623298 14.5524847,43.0692501 16.5436456,38.8602659 C17.4830651,41.2128802 21.1990108,43.6239527 22.9291232,40.5460247 C24.0106099,41.9455552 25.8832335,42.541395 27.3123409,41.3414881 C28.6557641,40.2130299 28.8040467,37.585879 28.8724166,35.9984164 C28.9261357,34.7604034 28.3747373,33.2339971 29.3261438,32.3402375 C30.3734455,31.3559761 32.5204364,31.7708122 33.6951548,30.5011885 C35.0359141,29.0518603 34.4849597,27.3552759 34.5879584,25.6288129 C34.6922891,23.8828639 35.0035051,24.3280116 36.2980926,23.0670485 C39.1833891,20.2567287 39.6717451,15.2600755 38.172936,11.7240091" fill="#FFFFFF"/><path id="py-avataaars-clothes-graphics-x0-outline-boo2" d="M14.4199416,28.1214878 C16.4409104,26.2992475 16.0109503,20.7236412 15.8441352,18.1620823 C15.5281264,13.3012213 12.4886458,14.7535905 10.6384079,17.7811955 C9.23849255,20.072024 5.8716471,23.7758196 7.38120621,26.6576793 C8.58337131,28.9535919 12.5610889,29.793746 14.4199416,28.1214878" fill="#FFFFFF"/><path id="py-avataaars-clothes-graphics-x0-outline-boo3" d="M27.7905585,19.2735023 C26.7563456,17.3532744 26.3690889,17.0619469 25.1393718,15.4887787 C24.3486011,14.4775769 23.2406052,12.6869687 21.7361817,13.0471169 C19.1541926,13.6660822 20.2075808,19.6585611 20.238428,21.4487472 C20.2617717,22.8065864 19.9608037,24.2138247 21.0892255,25.1768941 C22.2443259,26.1627631 24.1422588,26.073676 25.5295464,25.8676357 C29.7877025,25.2338929 29.5913646,22.6136348 27.7905585,19.2735023" fill="#FFFFFF"/><path id="py-avataaars-clothes-graphics-x0-outline-boo4" d="M19.2396436,31.8300192 C18.9563137,31.7944779 19.3174042,31.4678578 19.3591799,31.2433628 C19.5473771,31.8574625 19.6855263,31.8862554 19.2396436,31.8300192 M20.2848621,27.5191742 C17.6678865,24.7492021 12.711061,33.9166085 16.2049116,34.9450569 C17.0098167,35.1821488 17.604189,34.5815458 18.3598733,34.4767215 C19.4596896,34.3242088 20.3837174,34.9635023 21.3333895,33.9548492 C22.8244907,32.3712368 21.5203459,28.8566969 20.2848621,27.5191742" fill="#FFFFFF"/></g></g></g></g><g id="x49" transform="translate(76,82)" fill="#000000"><g id="x42" transform="translate(2,52)" fill="#000000" fill-opacity="0.7"><rect id="x41" x="42" y="18" width="24" height="6" rx="3"/></g><g id="x40" transform="translate(28,40)" fill-opacity="0.16"><path id="x39" d="M16,8 C16,12.418278 21.372583,16 28,16 L28,16 C34.627417,16 40,12.418278 40,8"/></g><g id="x45" transform="translate(0,8)" fill-opacity="0.6"><path id="x44" d="M27.2409577,20.3455337 C26.462715,21.3574913 26,22.6247092 26,24 C26,27.3137085 28.6862915,30 32,30 C35.3137085,30 38,27.3137085 38,24 C38,23.7097898 37.9793961,23.4243919 37.9395713,23.1451894 C37.9474218,22.9227843 37.9097825,22.6709538 37.8153518,22.4071242 C37.7703692,22.2814477 37.7221152,22.1572512 37.6706873,22.0345685 C37.3370199,21.0717264 36.7650456,20.2202109 36.0253277,19.550585 C33.898886,17.3173253 30.5064735,16 26.9975803,16 C22.1644225,16 18.006676,18.648508 16.1601674,22.4473116 C15.6201012,23.5583844 16.5467928,24.3002944 17.4375392,23.5716412 C19.8737584,21.5787519 23.2572061,20.3437884 26.9975803,20.3437884 C27.0788767,20.3437884 27.1600045,20.3443718 27.2409577,20.3455337 Z"/><path id="x43" d="M85.2409577,20.3455337 C84.462715,21.3574913 84,22.6247092 84,24 C84,27.3137085 86.6862915,30 90,30 C93.3137085,30 96,27.3137085 96,24 C96,23.7097898 95.9793961,23.4243919 95.9395713,23.1451894 C95.9474218,22.9227843 95.9097825,22.6709538 95.8153518,22.4071242 C95.7703692,22.2814477 95.7221152,22.1572512 95.6706873,22.0345685 C95.3370199,21.0717264 94.7650456,20.2202109 94.0253277,19.550585 C91.898886,17.3173253 88.5064735,16 84.9975803,16 C80.1644225,16 76.006676,18.648508 74.1601674,22.4473116 C73.6201012,23.5583844 74.5467928,24.3002944 75.4375392,23.5716412 C77.8737584,21.5787519 81.2572061,20.3437884 84.9975803,20.3437884 C85.0788767,20.3437884 85.1600045,20.3443718 85.2409577,20.3455337 Z"/></g><g id="x48" fill-opacity="0.6" fill-rule="nonzero"><path id="x47" d="M15.5914402,14.1619718 C20.0874642,7.83556966 29.6031809,4.65350252 39.3473715,7.79575991 C40.3986323,8.13476518 41.5256656,7.55736801 41.8646708,6.50610724 C42.2036761,5.45484647 41.6262789,4.32781316 40.5750182,3.98880789 C29.1665516,0.309863172 17.8358054,4.09887835 12.3309495,11.8448183 C11.6910852,12.7451779 11.9022584,13.9937761 12.8026181,14.6336404 C13.7029777,15.2735046 14.9515759,15.0623314 15.5914402,14.1619718 Z"/><path id="x46" d="M73.6376405,21.1577995 C77.5525501,15.6490895 88.2853148,12.56006 97.5304219,14.8304032 C98.6031199,15.0938282 99.6862617,14.4377829 99.9496867,13.3650849 C100.213112,12.2923868 99.5570664,11.2092451 98.4843684,10.9458201 C87.7477584,8.30920485 75.3194947,11.8862211 70.3771498,18.840646 C69.7372855,19.7410057 69.9484587,20.9896038 70.8488184,21.6294681 C71.749178,22.2693324 72.9977762,22.0581591 73.6376405,21.1577995 Z" transform="translate(85.007549, 16.038421) scale(-1, 1) translate(-85.007549, -16.038421)"/></g></g><g id="x1" stroke-width="1" fill-rule="evenodd"><defs><rect id="x27" x="0" y="0" width="264" height="280"/><path id="x21" d="M133.506381,81.3351151 C137.363649,83.3307002 140,87.3574737 140,92 L140,105 C140,111.018625 135.569129,116.002364 129.791419,116.867187 C128.048193,137.114792 115.530782,154.282984 98,162.610951 L98,162.610951 L98,181 L102,181 C119.490913,181 135.525121,187.236892 148,197.608051 L148,74 C148,53.5654643 139.717268,35.0654643 126.325902,21.6740982 C112.934536,8.28273213 94.4345357,-3.55271368e-15 74,0 C33.1309285,7.10542736e-15 -7.10542736e-15,33.1309285 0,74 L0,257.716445 C13.5691766,255.775526 24,244.105888 24,230 L24,184.423101 C30.9346808,182.200199 38.3271796,181 46,181 L50,181 L50,162.610951 C38.7726252,157.277407 29.6015372,148.317951 24,137.245847 L24,75.2659587 C33.1467898,72.2910056 42.777598,68.0170651 52.3415164,62.4953343 C67.7445474,53.6023901 80.4313947,42.9409152 89.0661426,32.3970356 C90.8310687,37.5951441 93.1752556,42.8009742 96.1104311,47.8848473 C104.877881,63.0705152 117.224186,74.2337047 130,79.9170491 L130,80.1659169 C130.400422,80.233095 130.794121,80.3201038 131.18005,80.4258987 C131.954509,80.7493055 132.730185,81.0524853 133.506381,81.3351151 Z"/></defs><mask id="x31" fill="#FFFFFF"><use xlink:href="#x27"/></mask><g id="x4"/><g id="x6" mask="url('#x31')"><g transform="translate(-1,0)"><g id="x5" stroke-width="1" fill="none" fill-rule="evenodd" transform="translate(59,18)"><mask id="x30" fill="#FFFFFF"><use xlink:href="#x21"/></mask><use id="x3" fill="#944F23" xlink:href="#x21"/><g id="x7" mask="url('#x30')" fill="#2C1B18"><g transform="translate(0,0) " id="x8"><rect x="0" y="0" width="264" height="280"/></g></g></g><path id="x2" d="M192.506381,99.3351151 C197.3745,101.107702 202.263079,102.071957 207,102.148232 L207,102.148232 L207,92 C207,71.5654643 198.717268,53.0654643 185.325902,39.6740982 C198.717268,53.0654643 207,71.5654643 207,92 L207,215.608051 C194.525121,205.236892 178.490913,199 161,199 L157,199 L157,180.610951 L157,180.610951 C174.530782,172.282984 187.048193,155.114792 188.791419,134.867187 C194.569129,134.002364 199,129.018625 199,123 L199,110 C199,105.357474 196.363649,101.3307 192.506381,99.3351151 Z M190.18005,98.4258987 C189.794121,98.3201038 189.400422,98.233095 189,98.1659169 L189,97.9170491 C189.392974,98.0918644 189.786355,98.2614951 190.18005,98.4258987 Z M83,155.245847 C88.6015372,166.317951 97.7726252,175.277407 109,180.610951 L109,199 L105,199 C97.3271796,199 89.9346808,200.200199 83,202.423101 L83,155.245847 Z" fill-opacity="0.24" fill="#000000" fill-rule="evenodd"/><g id="x11" transform="translate(49,72)"><defs><path id="x28" d="M83.9980103,74.839711 C83.4569991,75.6087366 82.761047,76.2496937 81.949688,76.6891498 C73.0477917,81.5102869 63.8767499,77.3322546 58.8763101,77.6298353 C56.459601,77.7739966 53.3405442,79.4153191 52.2155358,77.6791014 C50.9768736,75.7669804 55.0680827,65.2207224 64.7214121,63.4643353 C71.7310704,62.1893309 81.4972391,63.6024033 83.9980103,66.9380109 C86.4987814,63.6024033 96.2649453,62.1893309 103.274279,63.4643353 C112.927938,65.2207224 117.019147,75.7669804 115.780485,77.6791014 C114.655476,79.4153191 111.53642,77.7739966 109.119711,77.6298353 C104.118941,77.3322546 94.948229,81.5102869 86.0463327,76.6891498 C85.2349736,76.2496937 84.5390216,75.6087366 83.9980103,74.839711 Z"/></defs><mask id="x29" fill="#FFFFFF"><use xlink:href="#x28"/></mask><use id="x9" fill="#28354B" fill-rule="evenodd" xlink:href="#x28"/><g id="x58" mask="url('#x29')" fill="#B58143"><g transform="translate(-32,0)" id="x10"><rect x="0" y="0" width="264" height="244"/></g></g></g><g id="x18" fill="none" transform="translate(62,85)" stroke-width="1"><defs><filter id="x38" x="-0.8%" y="-2.4%" width="101.5%" height="109.8%" filterUnits="objectBoundingBox"><feOffset dx="0" dy="2" in="SourceAlpha" result="shadowOffsetOuter1"/><feColorMatrix values="0 0 0 0 0 0 0 0 0 0 0 0 0 0 0 0 0 0 0.2 0" type="matrix" in="shadowOffsetOuter1" result="shadowMatrixOuter1"/><feMerge><feMergeNode in="shadowMatrixOuter1"/><feMergeNode in="SourceGraphic"/></feMerge></filter></defs><g id="x12" filter="url('#x38')" transform="translate(8,8)" fill="#D6EAF2"><path id="x17" d="M46.2491397,7.27516667 C48.6207695,7.2975 49.7419096,7.69183333 50.1459601,10.1651667 C50.5553446,12.6705 50.1572949,15.4871667 49.6852359,17.9548333 C48.9648125,21.7228333 47.7666627,25.4145 44.9776475,28.1685 C43.5084639,29.6188333 41.7165732,30.7748333 39.8106684,31.5641667 C38.7985419,31.9835 37.7297416,32.2861667 36.6612747,32.5158333 C36.3489024,32.5828333 33.6822357,32.9501667 35.3177735,32.7635 C31.5009631,33.1991667 27.3601122,33.1818333 24.1723805,30.7525 C20.6396056,28.0601667 18.2203032,23.7998333 17.1565036,19.5561667 C16.5340925,17.0731667 15.2262624,11.1345 17.6158944,9.14916667 C20.3532365,6.8745 46.2491397,7.27516667 46.2491397,7.27516667 L46.2491397,7.27516667 Z M22.2178029,0.4905 C16.7774562,0.677833333 13.1466691,1.63383333 10.4633337,7.06916667 C5.54571911,17.0301667 13.9627711,31.9688333 23.352278,36.0395 C34.3293166,40.7991667 46.5921826,35.5318333 52.3955746,26.0058333 C55.4689587,20.9621667 57.0224862,13.3231667 56.9224737,7.50383333 C56.7951245,0.0765 51.6071427,-0.1295 45.5090472,0.0338333333 L22.2178029,0.4905 Z"/><path id="x16" d="M79.6805515,7.27256667 C77.3089217,7.29523333 76.1877816,7.68923333 75.7837311,10.1625667 C75.3743466,12.6679 75.7723963,15.4845667 76.244122,17.9522333 C76.9648787,21.7202333 78.1630285,25.4119 80.9520437,28.1659 C82.4212273,29.6162333 84.213118,30.7722333 86.1190228,31.5619 C87.1311493,31.9809 88.1999496,32.2835667 89.2684165,32.5132333 C89.5807888,32.5802333 92.2471221,32.9479 90.6119177,32.7609 C94.4287281,33.1965667 98.569579,33.1792333 101.757311,30.7499 C105.290086,28.0575667 107.709388,23.7975667 108.773188,19.5539 C109.395599,17.0705667 110.703095,11.1322333 108.313797,9.14656667 C105.576455,6.8719 79.6805515,7.27256667 79.6805515,7.27256667 L79.6805515,7.27256667 Z M103.711555,0.4879 C109.152235,0.675233333 112.783022,1.63156667 115.466357,7.06656667 C120.383639,17.0275667 111.96692,31.9662333 102.577413,36.0372333 C91.6003746,40.7965667 79.3375086,35.5292333 73.5337832,26.0035667 C70.4607325,20.9595667 68.907205,13.3205667 69.0068841,7.50123333 C69.1345667,0.0739 74.3225485,-0.1321 80.420644,0.0315666667 L103.711555,0.4879 Z"/><path id="x15" d="M13.1969483,4.9267 C9.78501392,5.11836667 5.88606327,5.16436667 2.69005822,6.63936667 C-0.69461078,8.20136667 -1.2176675,11.7387 3.04920921,12.2260333 C4.97094906,12.4457 6.89488267,12.0827 8.78716336,11.7450333 C10.336903,11.4683667 12.4419791,11.5580333 13.9064752,10.9657 C16.6355213,9.86236667 16.4603333,4.74003333 13.1969483,4.9267"/><path id="x14" d="M112.73467,4.9267 C116.146606,5.11836667 120.045559,5.16436667 123.241565,6.63936667 C126.626236,8.20136667 127.149293,11.7387 122.882414,12.2260333 C120.960673,12.4457 119.036739,12.0827 117.144457,11.7450333 C115.594717,11.4683667 113.489639,11.5580333 112.025143,10.9657 C109.295782,9.86236667 109.471283,4.74003333 112.73467,4.9267"/><path id="x13" d="M73.1094302,7.01263333 C71.1631869,4.71263333 66.0912197,3.38463333 62.8914864,3.38463333 C59.6914198,3.38463333 54.7681378,4.71263333 52.8222279,7.01263333 C51.8407719,8.1723 51.8074344,9.72396667 53.5083137,10.4509667 C55.6262451,11.3566333 57.5174814,9.7143 59.2126933,8.8553 C61.3809643,7.75663333 64.7120473,7.8773 66.7189648,8.8553 C68.4271783,9.68796667 70.3050797,11.3566333 72.4233444,10.4509667 C74.1242237,9.72396667 74.0908862,8.1723 73.1094302,7.01263333"/></g></g> </g></g></g> </g></g></g></g></svg>