<?xml version="1.0" encoding="utf-8" ?><!DOCTYPE svg PUBLIC "-//W3C//DTD SVG 1.1//EN" "http://www.w3.org/Graphics/SVG/1.1/DTD/svg11.dtd"><svg width="280px" height="280px" viewBox="-6 0 274 280" version="1.1" xmlns="http://www.w3.org/2000/svg" xmlns:xlink="http://www.w3.org/1999/xlink"><desc>Py-Avataaars</desc> <g id="x34" stroke="none" stroke-width="1" fill="none" fill-rule="evenodd"><defs><circle id="x22" cx="120" cy="120" r="120"/><path id="x20" d="M12,160 C12,226.27417 65.72583,280 132,280 C198.27417,280 252,226.27417 252,160 L264,160 L264,-1.42108547e-14 L-3.19744231e-14,-1.42108547e-14 L-3.19744231e-14,160 L12,160 Z"/><path id="x23" d="M124,144.610951 L124,163 L128,163 L128,163 C167.764502,163 200,195.235498 200,235 L200,244 L0,244 L0,235 C-4.86974701e-15,195.235498 32.235498,163 72,163 L72,163 L76,163 L76,144.610951 C58.7626345,136.422372 46.3722246,119.687011 44.3051388,99.8812385 C38.4803105,99.0577866 34,94.0521096 34,88 L34,74 C34,68.0540074 38.3245733,63.1180731 44,62.1659169 L44,56 L44,56 C44,25.072054 69.072054,5.68137151e-15 100,0 L100,0 L100,0 C130.927946,-5.68137151e-15 156,25.072054 156,56 L156,62.1659169 C161.675427,63.1180731 166,68.0540074 166,74 L166,88 C166,94.0521096 161.51969,99.0577866 155.694861,99.8812385 C153.627775,119.687011 141.237365,136.422372 124,144.610951 Z"/></defs><g id="x32" transform="translate(-825,-1100)"><g transform="translate(825,1100)"> <g id="x33" stroke-width="1" fill-rule="evenodd" mask="url('#py-avataaars-path-c86ac5c3-c6c5-46b7-a3e5-bc0388bfa76d')"><g id="x31" transform="translate(32,36)"><mask id="x16" fill="#FFFFFF"><use xlink:href="#x23"/></mask><use fill="#D0C6AC" xlink:href="#x23"/><g id="x12" mask="url('#x16')" fill="#614335"><g transform="translate(0,0)" id="x11"><rect x="0" y="0" width="264" height="280"/></g></g> <path id="x30" d="M156,79 L156,102 C156,132.927946 130.927946,158 100,158 C69.072054,158 44,132.927946 44,102 L44,79 L44,94 C44,124.927946 69.072054,150 100,150 C130.927946,150 156,124.927946 156,94 L156,79 Z" fill-opacity="0.1" fill="#000000" mask="url('#x16')"/></g><g id="x56" transform="translate(0,170)"><defs><path id="x21" d="M94,29.6883435 L94,74 L170,74 L170,29.6883435 C179.362956,30.9893126 188.149952,34.0907916 196.00002,38.6318143 L196,110 L187,110 L77,110 L68,110 L68,38.6318027 C75.8500482,34.0907916 84.6370437,30.9893126 94,29.6883435 Z"/></defs><mask id="x27" fill="#FFFFFF"><use xlink:href="#x21"/></mask><use id="x53" fill="#B7C1DB" fill-rule="evenodd" xlink:href="#x21"/><g id="py-avataaars-clothes-clothe-color-palette-blue_02" mask="url('#x27')" fill-rule="evenodd" fill="#5199E4"><rect id="x57" x="0" y="0" width="264" height="110"/></g> <circle id="x55" fill="#F4F4F4" fill-rule="evenodd" cx="81" cy="83" r="5"/><circle id="x54" fill="#F4F4F4" fill-rule="evenodd" cx="183" cy="83" r="5"/></g><g id="x52" transform="translate(76,82)" fill="#000000"><g id="x43" transform="translate(2,52)"><defs><path id="x18" d="M34.0082051,15.1361102 C35.1280248,29.123916 38.2345159,40.9925405 53.9961505,40.9999965 C69.757785,41.0074525 72.9169073,29.0566179 73.9942614,15.0063928 C74.0809675,13.8756222 73.1738581,12.9999965 72.0369872,12.9999965 C65.3505138,12.9999965 62.6703194,14.9936002 53.9894323,14.9999965 C45.3085452,15.0063928 40.7567994,12.9999965 36.0924943,12.9999965 C34.9490269,12.9999965 33.8961688,13.7366502 34.0082051,15.1361102 Z"/><rect id="x19" x="39" y="2" width="31" height="16" rx="5"/></defs><mask id="x28" fill="#FFFFFF"><use xlink:href="#x18" transform="translate(54.0, 27.0) scale(1, -1) translate(-54.0, -27.0)"/></mask><use id="x42" fill-opacity="0.7" fill="#000000" fill-rule="evenodd" transform="translate(54.0, 27.0) scale(1, -1) translate(-54.0, -27.0)" xlink:href="#x18"/><use id="x40" stroke-width="1" fill-rule="evenodd" mask="url('#x28')" fill="#FFFFFF" xlink:href="#x19"/><g id="x39" stroke-width="1" fill-rule="evenodd" mask="url('#x28')" fill="#FF4F6D"><g id="x41" transform="translate(38,32)"><circle cx="11" cy="11" r="11"/><circle cx="21" cy="11" r="11"/></g></g></g><g id="x38" transform="translate(28,40)" fill-opacity="0.16"><path id="x37" d="M16,8 C16,12.418278 21.372583,16 28,16 L28,16 C34.627417,16 40,12.418278 40,8"/></g><g id="x48" transform="translate(0,8)"><defs><path id="x13" d="M14,14.0481187 C23.6099827,14.0481187 28,18.4994466 28,11.5617716 C28,4.62409673 21.7319865,0 14,0 C6.2680135,0 0,4.62409673 0,11.5617716 C0,18.4994466 4.39001726,14.0481187 14,14.0481187 Z"/><path id="x14" d="M14,14.0481187 C23.6099827,14.0481187 28,18.4994466 28,11.5617716 C28,4.62409673 21.7319865,0 14,0 C6.2680135,0 0,4.62409673 0,11.5617716 C0,18.4994466 4.39001726,14.0481187 14,14.0481187 Z"/></defs><g id="x47" transform="translate(16,13)"><mask id="x24" fill="#FFFFFF"><use xlink:href="#x13"/></mask><use id="x44" fill="#FFFFFF" xlink:href="#x13"/><circle fill-opacity="0.7" fill="#000000" mask="url('#x24')" cx="14" cy="10" r="6"/></g><g id="x46" transform="translate(68,13)"><mask id="x29" fill="#FFFFFF"><use xlink:href="#x14"/></mask><use id="x45" fill="#FFFFFF" xlink:href="#x14"/><circle fill-opacity="0.7" fill="#000000" mask="url('#x29')" cx="14" cy="10" r="6"/></g></g><g id="x51" fill-opacity="0.6"><path id="x50" d="M44.8565785,12.2282877 C44.8578785,12.2192877 44.8578785,12.2192877 44.8565785,12.2282877 M17.5862288,7.89238094 C15.2441598,8.3302947 13.0866155,9.78806858 12.1523766,12.0987479 C11.8009169,12.967391 11.3917103,14.9243181 11.7083227,15.8073302 C11.8284629,16.14295 12.0332321,16.1008692 12.9555234,16.0430509 C14.643791,15.9369937 16.9330912,13.6622369 18.7484684,13.2557982 C21.2753939,12.6899315 23.9825295,13.1148447 26.4961798,13.6882381 C30.8109365,14.6725177 36.4854008,17.7875215 40.9461842,16.1699775 C41.2783949,16.0495512 45.6210294,12.9225732 44.3685187,12.2769925 C43.9238011,11.9068186 41.1370145,12.0854053 40.6216067,11.9988489 C38.2277647,11.5971998 35.7297127,10.9345131 33.373373,10.3265657 C28.2329017,9.00016592 22.9666484,6.88073171 17.5862288,7.89238094" transform="translate(28.094701, 12.127505) rotate(17.0) translate(-28.094701, -12.127505)"/><path id="x49" d="M100.918293,12.2094196 C100.919593,12.2004196 100.919593,12.2004196 100.918293,12.2094196 M73.5862288,7.89238094 C71.2441598,8.3302947 69.0866155,9.78806858 68.1523766,12.0987479 C67.8009169,12.967391 67.3917103,14.9243181 67.7083227,15.8073302 C67.8284629,16.14295 68.0332321,16.1008692 68.9555234,16.0430509 C70.643791,15.9369937 72.9330912,13.6622369 74.7484684,13.2557982 C77.2753939,12.6899315 79.9825295,13.1148447 82.4961798,13.6882381 C86.8109365,14.6725177 92.4854008,17.7875215 96.9461842,16.1699775 C97.2783949,16.0495512 101.621029,12.9225732 100.368519,12.2769925 C99.9238011,11.9068186 97.1370145,12.0854053 96.6216067,11.9988489 C94.2277647,11.5971998 91.7297127,10.9345131 89.373373,10.3265657 C84.2329017,9.00016592 78.9666484,6.88073171 73.5862288,7.89238094" transform="translate(84.094701, 12.127505) scale(-1, 1) rotate(17.0) translate(-84.094701, -12.127505)"/></g></g><g id="x0" stroke-width="1" fill-rule="evenodd"><defs><rect id="x17" x="0" y="0" width="264" height="280"/><filter id="x35" x="-0.8%" y="-2.0%" width="101.5%" height="108.0%" filterUnits="objectBoundingBox"><feOffset dx="0" dy="2" in="SourceAlpha" result="shadowOffsetOuter1"/><feColorMatrix values="0 0 0 0 0 0 0 0 0 0 0 0 0 0 0 0 0 0 0.16 0" type="matrix" in="shadowOffsetOuter1" result="shadowMatrixOuter1"/><feMerge><feMergeNode in="shadowMatrixOuter1"/><feMergeNode in="SourceGraphic"/></feMerge></filter></defs><mask id="x26" fill="#FFFFFF"><use xlink:href="#x17"/></mask><g id="x1"/><g id="x2" mask="url('#x26')"><g transform="translate(-1,0)"><g id="x5" transform="translate(49,72)"><defs><path id="x15" d='M105.017591,94.1296214 C101.150441,99.7213834 98.257542,95.9467308 94.1374777,92.8762163 C91.6567227,91.0272796 87.9608129,88.7275108 84.5044337,88.8410391 C81.0477114,88.7275108 77.3518016,91.0272796 74.8710466,92.8762163 C70.7509822,95.9467308 67.8580835,99.7213834 63.9909333,94.1296214 C61.0884259,89.9323547 62.3028943,82.8739117 65.014944,78.9027173 C68.8738581,73.2512381 74.1088724,75.9847769 79.9622738,75.3400279 C81.5538829,75.1648137 83.1526985,74.7228407 84.5044337,74 C85.856169,74.7228407 87.4546414,75.1648137 89.0462504,75.3400279 C94.899995,75.9847769 100.134666,73.2512381 103.993923,78.9027173 C106.70563,82.8739117 107.920098,89.9323547 105.017591,94.1296214 M140.39109,26 C136.966521,40.0748212 135.393023,54.4337754 132.909944,68.6711471 C132.392536,71.6390145 131.826063,74.5963095 131.224594,77.5496398 C131.098329,78.1697764 130.973781,80.4725746 130.362704,80.7643064 C128.511632,81.6484223 124.739149,76.9466834 123.730409,75.8851496 C121.196893,73.219256 118.684993,70.5292442 115.599415,68.437233 C109.364783,64.2102603 102.065485,61.7108818 94.4700836,61.117837 C91.2922091,60.8693859 86.9951134,61.3025234 84.000116,63.1104016 C81.0051185,61.3025234 76.7080229,60.8693859 73.5298053,61.117837 C65.9344039,61.7108818 58.6351055,64.2102603 52.4004739,68.437233 C49.3148957,70.5292442 46.8033387,73.219256 44.2694796,75.8851496 C43.2607395,76.9466834 39.4882573,81.6484223 37.6371849,80.7643064 C37.0261079,80.4725746 36.9015594,78.1697764 36.7752954,77.5496398 C36.1738255,74.5963095 35.6073527,71.6390145 35.0899445,68.6711471 C32.6072086,54.4337754 31.0337113,40.0748212 27.6091415,26 C26.6127533,26 25.7385119,44.7478165 25.6273446,46.4945731 C25.174784,53.5889755 24.6463963,60.5254529 25.3216346,67.6261326 C26.485803,79.8749043 27.6993791,95.2339402 37.032627,104.58753 C45.4659003,113.039493 57.7103052,114.806417 68.2713185,120.141327 C69.631059,120.828202 71.4347824,121.676306 73.3798667,122.37111 C75.4289129,123.934171 79.4926946,125 84.1740722,125 C89.0846465,125 93.3155222,123.827456 95.2540874,122.137856 C96.9548781,121.49261 98.5180822,120.752874 99.7285704,120.141327 C110.288776,114.805245 122.533989,113.039493 130.967262,104.58753 C140.30051,95.2339402 141.514086,79.8749043 142.678597,67.6261326 C143.353493,60.5254529 142.825105,53.5889755 142.372887,46.4945731 C142.261377,44.7478165 141.387136,26 140.39109,26 Z' /></defs><mask id="x25" fill="#FFFFFF"><use xlink:href="#x15"/></mask><use id="x4" fill="#252E32" fill-rule="evenodd" xlink:href="#x15"/><g id="color-facial-hair-brown_dark" mask="url('#x25')" fill="#4A312C"><g transform="translate(-32,0)" id="x3"><rect x="0" y="0" width="264" height="244"/></g></g></g><g id="x10" fill="none" transform="translate(62,85)" stroke-width="1"><defs><filter id="x36" x="-0.8%" y="-2.0%" width="101.5%" height="108.0%" filterUnits="objectBoundingBox"><feOffset dx="0" dy="2" in="SourceAlpha" result="shadowOffsetOuter1"/><feColorMatrix values="0 0 0 0 0 0 0 0 0 0 0 0 0 0 0 0 0 0 0.16 0" type="matrix" in="shadowOffsetOuter1" result="shadowMatrixOuter1"/><feMerge><feMergeNode in="shadowMatrixOuter1"/><feMergeNode in="SourceGraphic"/></feMerge></filter></defs><g id="x6" filter="url('#x36')" transform="translate(5,2)"><path id="x7" d="M66,11.1111111 C54.9625586,11.1111111 53.3705645,2.0266011 30.6705882,0.740740741 C7.98552275,-0.283199952 0.815225204,6.4494855 0.776470588,11.1111111 C0.813236892,15.4042795 -0.352293566,26.5612661 14.3647059,39.6296296 C29.1367705,55.1420807 44.2704162,49.8818301 49.6941176,44.8148148 C55.1352081,42.4731118 61.3403442,21.4596351 66,21.4814815 C70.6596558,21.5033279 76.8647919,42.4731118 82.3058824,44.8148148 C87.7295838,49.8818301 102.86323,55.1420807 117.635294,39.6296296 C132.352294,26.5612661 131.186763,15.4042795 131.223529,11.1111111 C131.184775,6.4494855 124.014477,-0.283199952 101.329412,0.740740741 C78.6294355,2.0266011 77.0374414,11.1111111 66,11.1111111 Z" fill="#F4F4F4" fill-rule="nonzero"/><path id="x8" d="M55.1294118,21.4814815 C55.5103632,13.8233491 42.2156493,5.64243259 27.9529412,5.92592593 C13.6973442,6.22450879 11.8417942,15.3786982 11.6470588,18.8888889 C11.2982286,27.0220633 20.014463,45.3037598 36.1058824,44.8148148 C52.1972736,44.305848 54.9092435,26.5344305 55.1294118,21.4814815 Z" fill="#2F383B" fill-rule="nonzero"/><path id="x9" d="M120.352941,21.4814815 C120.733893,13.8233491 107.439179,5.64243259 93.1764706,5.92592593 C78.9208736,6.22450879 77.0653236,15.3786982 76.8705882,18.8888889 C76.521758,27.0220633 85.2379924,45.3037598 101.329412,44.8148148 C117.420803,44.305848 120.132773,26.5344305 120.352941,21.4814815 Z" fill="#2F383B" fill-rule="nonzero" transform="translate(98.611765, 25.370370) scale(-1, 1) translate(-98.611765, -25.370370)"/></g></g> </g></g></g> </g></g></g></g></svg>