<?xml version="1.0" encoding="utf-8" ?><!DOCTYPE svg PUBLIC "-//W3C//DTD SVG 1.1//EN" "http://www.w3.org/Graphics/SVG/1.1/DTD/svg11.dtd"><svg width="280px" height="280px" viewBox="-6 0 274 280" version="1.1" xmlns="http://www.w3.org/2000/svg" xmlns:xlink="http://www.w3.org/1999/xlink"><desc>Py-Avataaars</desc> <g id="x36" stroke="none" stroke-width="1" fill="none" fill-rule="evenodd"><defs><circle id="x24" cx="120" cy="120" r="120"/><path id="x25" d="M12,160 C12,226.27417 65.72583,280 132,280 C198.27417,280 252,226.27417 252,160 L264,160 L264,-1.42108547e-14 L-3.19744231e-14,-1.42108547e-14 L-3.19744231e-14,160 L12,160 Z"/><path id="x26" d="M124,144.610951 L124,163 L128,163 L128,163 C167.764502,163 200,195.235498 200,235 L200,244 L0,244 L0,235 C-4.86974701e-15,195.235498 32.235498,163 72,163 L72,163 L76,163 L76,144.610951 C58.7626345,136.422372 46.3722246,119.687011 44.3051388,99.8812385 C38.4803105,99.0577866 34,94.0521096 34,88 L34,74 C34,68.0540074 38.3245733,63.1180731 44,62.1659169 L44,56 L44,56 C44,25.072054 69.072054,5.68137151e-15 100,0 L100,0 L100,0 C130.927946,-5.68137151e-15 156,25.072054 156,56 L156,62.1659169 C161.675427,63.1180731 166,68.0540074 166,74 L166,88 C166,94.0521096 161.51969,99.0577866 155.694861,99.8812385 C153.627775,119.687011 141.237365,136.422372 124,144.610951 Z"/></defs><g id="x34" transform="translate(-825,-1100)"><g transform="translate(825,1100)"> <g id="x35" stroke-width="1" fill-rule="evenodd" mask="url('#py-avataaars-path-916b8220-964b-4d91-bd1c-37f25022e77d')"><g id="x33" transform="translate(32,36)"><mask id="x22" fill="#FFFFFF"><use xlink:href="#x26"/></mask><use fill="#D0C6AC" xlink:href="#x26"/><g id="x14" mask="url('#x22')" fill="#FFDBB4"><g transform="translate(0,0)" id="x15"><rect x="0" y="0" width="264" height="280"/></g></g> <path id="x32" d="M156,79 L156,102 C156,132.927946 130.927946,158 100,158 C69.072054,158 44,132.927946 44,102 L44,79 L44,94 C44,124.927946 69.072054,150 100,150 C130.927946,150 156,124.927946 156,94 L156,79 Z" fill-opacity="0.1" fill="#000000" mask="url('#x22')"/></g><g id="x62" transform="translate(0,170)"><defs><path id="x19" d="M133.960472,0.294916112 C170.936473,3.32499816 200,34.2942856 200,72.0517235 L200,81 L0,81 L0,72.0517235 C1.22536245e-14,33.9525631 29.591985,2.76498122 67.0454063,0.219526408 C67.0152598,0.593114549 67,0.969227185 67,1.34762511 C67,13.2107177 81.9984609,22.8276544 100.5,22.8276544 C119.001539,22.8276544 134,13.2107177 134,1.34762511 C134,0.994669088 133.986723,0.64370138 133.960472,0.294916112 Z"/></defs><g id="x53" transform="translate(32,29)"><mask id="x28" fill="#FFFFFF"><use xlink:href="#x19"/></mask><use id="x59" fill="#E6E6E6" xlink:href="#x19"/><g id="x58" mask="url('#x28')" fill="#262E33"><g transform="translate(-32,-29)" id="x61"><rect x="0" y="0" width="264" height="110"/></g></g><g id="x54" opacity="0.6" mask="url('#x28')" fill-opacity="0.16" fill="#000000"><g transform="translate(60,-25)" id="x57"><ellipse cx="40.5" cy="27.8476251" rx="39.6351047" ry="26.9138272"/></g></g></g><g id="x60" transform="translate(32,28)"><path id="x55" d="M68.784807,1.12222847 C30.512317,2.80409739 -1.89486556e-14,34.3646437 -1.42108547e-14,73.0517235 L0,73.0517235 L0,82 L69.3616767,82 C65.9607412,69.9199941 64,55.7087296 64,40.5 C64,26.1729736 65.7399891,12.7311115 68.784807,1.12222847 Z M131.638323,82 L200,82 L200,73.0517235 C200,34.7067641 170.024954,3.36285166 132.228719,1.17384225 C135.265163,12.7709464 137,26.1942016 137,40.5 C137,55.7087296 135.039259,69.9199941 131.638323,82 Z" fill="#3A4C5A"/><path id="x56" d="M149,58 L158.555853,50.83311 L158.555853,50.83311 C159.998897,49.7508275 161.987779,49.7682725 163.411616,50.8757011 L170,56 L149,58 Z" fill="#E6E6E6"/><path id="x52" d="M69,1.13686838e-13 C65,19.3333333 66.6666667,46.6666667 74,82 L58,82 L44,46 L50,37 L44,31 L63,1 C65.027659,0.369238637 67.027659,0.0359053037 69,1.13686838e-13 Z" fill="#2F4351"/><path id="x51" d="M151,1.13686838e-13 C147,19.3333333 148.666667,46.6666667 156,82 L140,82 L126,46 L132,37 L126,31 L145,1 C147.027659,0.369238637 149.027659,0.0359053037 151,1.13686838e-13 Z" fill="#2F4351" transform="translate(141,41) scale(-1, 1) translate(-141,-41)"/></g></g><g id="x50" transform="translate(76,82)" fill="#000000"><g id="x43" transform="translate(2,52)"><defs><path id="x16" d="M29,15.6086957 C30.410031,25.2313711 41.062182,33 54,33 C66.9681454,33 77.6461342,25.183301 79,14.7391304 C79.1012093,14.3397326 78.775269,13 76.826087,13 C56.838426,13 41.7395748,13 31.173913,13 C29.3833142,13 28.870211,14.2404669 29,15.6086957 Z"/><rect id="x17" x="39" y="2" width="31" height="16" rx="5"/></defs><mask id="x27" fill="#FFFFFF"><use xlink:href="#x16"/></mask><use id="x42" fill-opacity="0.7" fill="#000000" fill-rule="evenodd" xlink:href="#x16"/><use id="x41" stroke-width="1" fill-rule="evenodd" mask="url('#x27')" fill="#FFFFFF" xlink:href="#x17"/><path id="x40" d="M65.9841079,23.7466656 C65.9945954,23.8296335 66,23.9141856 66,24 L66,33 C66,39.0751322 61.0751322,44 55,44 L54,44 C47.9248678,44 43,39.0751322 43,33 L43,24 L43,24 C43,23.9141856 43.0054046,23.8296335 43.0158921,23.7466656 C43.0053561,23.6651805 43,23.5829271 43,23.5 C43,21.5670034 45.9101491,20 49.5,20 C51.510438,20 53.3076958,20.4914717 54.5,21.2634601 C55.6923042,20.4914717 57.489562,20 59.5,20 C63.0898509,20 66,21.5670034 66,23.5 C66,23.5829271 65.9946439,23.6651805 65.9841079,23.7466656 Z" fill="#FF4F6D" fill-rule="evenodd"/></g><g id="x39" transform="translate(28,40)" fill-opacity="0.16"><path id="x38" d="M16,8 C16,12.418278 21.372583,16 28,16 L28,16 C34.627417,16 40,12.418278 40,8"/></g><g id="x46" transform="translate(0,8)" fill-opacity="0.8" fill-rule="nonzero" fill="#FF5353"><path id="x45" d="M35.9583333,10 C33.4074091,10 30.8837273,11.9797894 29.5,13.8206358 C28.1106364,11.9797894 25.5925909,10 23.0416667,10 C17.5523182,10 14,13.3341032 14,17.6412715 C14,23.3708668 18.4118636,26.771228 23.0416667,30.376724 C24.695,31.6133636 27.8223436,34.7777086 28.2083333,35.470905 C28.5943231,36.1641015 30.3143077,36.1885229 30.7916667,35.470905 C31.2690257,34.7532872 34.3021818,31.6133636 35.9583333,30.376724 C40.5853182,26.771228 45,23.3708668 45,17.6412715 C45,13.3341032 41.4476818,10 35.9583333,10 Z"/><path id="x44" d="M88.9583333,10 C86.4074091,10 83.8837273,11.9797894 82.5,13.8206358 C81.1106364,11.9797894 78.5925909,10 76.0416667,10 C70.5523182,10 67,13.3341032 67,17.6412715 C67,23.3708668 71.4118636,26.771228 76.0416667,30.376724 C77.695,31.6133636 80.8223436,34.7777086 81.2083333,35.470905 C81.5943231,36.1641015 83.3143077,36.1885229 83.7916667,35.470905 C84.2690257,34.7532872 87.3021818,31.6133636 88.9583333,30.376724 C93.5853182,26.771228 98,23.3708668 98,17.6412715 C98,13.3341032 94.4476818,10 88.9583333,10 Z"/></g><g id="x49" fill-opacity="0.6" fill-rule="nonzero"><path id="x48" d="M15.5914402,14.1619718 C20.0874642,7.83556966 29.6031809,4.65350252 39.3473715,7.79575991 C40.3986323,8.13476518 41.5256656,7.55736801 41.8646708,6.50610724 C42.2036761,5.45484647 41.6262789,4.32781316 40.5750182,3.98880789 C29.1665516,0.309863172 17.8358054,4.09887835 12.3309495,11.8448183 C11.6910852,12.7451779 11.9022584,13.9937761 12.8026181,14.6336404 C13.7029777,15.2735046 14.9515759,15.0623314 15.5914402,14.1619718 Z"/><path id="x47" d="M73.6376405,21.1577995 C77.5525501,15.6490895 88.2853148,12.56006 97.5304219,14.8304032 C98.6031199,15.0938282 99.6862617,14.4377829 99.9496867,13.3650849 C100.213112,12.2923868 99.5570664,11.2092451 98.4843684,10.9458201 C87.7477584,8.30920485 75.3194947,11.8862211 70.3771498,18.840646 C69.7372855,19.7410057 69.9484587,20.9896038 70.8488184,21.6294681 C71.749178,22.2693324 72.9977762,22.0581591 73.6376405,21.1577995 Z" transform="translate(85.007549, 16.038421) scale(-1, 1) translate(-85.007549, -16.038421)"/></g></g><g id="x0" stroke-width="1" fill-rule="evenodd"><defs><rect id="x21" x="0" y="0" width="264" height="280"/><path id="x23" d="M65.1802189,77.7372986 C67.3631845,76.1045334 80.4065113,75.4786511 82.757829,74.0894494 C83.4916461,73.6553857 84.0610723,73.215719 84.4997781,72.7800074 C84.938814,73.215719 85.5085703,73.6553857 86.2423874,74.0894494 C88.593375,75.4786511 101.636702,76.1045334 103.819667,77.7372986 C106.030032,79.3908276 107.643571,83.1846831 107.466966,86.15095 C107.255041,89.7101408 103.361486,98.2028927 93.6723269,99.1811016 C91.5576925,96.8281927 88.2368647,95.3104528 84.4997781,95.3104528 C80.7633517,95.3104528 77.4421938,96.8281927 75.3275594,99.1811016 C65.6387308,98.2028927 61.7451757,89.7101408 61.5332501,86.15095 C61.3566455,83.1846831 62.9701849,79.3908276 65.1802189,77.7372986 M103.141638,94.9063813 C103.142958,94.9057221 103.144609,94.905063 103.145929,94.9047334 C103.144278,94.905063 103.142958,94.9057221 103.141638,94.9063813 M65.8453747,94.9014375 C65.8493359,94.9030855 65.8565982,94.9057221 65.8618798,94.9076997 C65.8565982,94.9057221 65.8509864,94.9034151 65.8453747,94.9014375 M144.86259,55.9853335 C144.47439,50.0303878 143.277769,44.1519058 142.233986,38.2862777 C141.952739,36.7072349 140.423706,26 139.734783,26 C139.502391,35.1094058 138.701893,44.0803858 137.669664,53.1393651 C137.361018,55.8475668 137.037848,58.5564277 136.825262,61.2741874 C136.653609,63.4695546 136.959614,66.1220564 136.427819,68.2455739 C135.749129,70.9524573 132.348087,73.4783984 129.702978,74.410795 C123.102915,76.7373371 117.597802,67.1077689 111.960977,64.2911336 C104.643272,60.6347152 92.0637391,59.7639895 84.5816434,64.5297918 C76.9361472,59.7639895 64.356614,60.6347152 57.0389092,64.2911336 C51.4024147,67.1077689 45.8969708,76.7373371 39.2972383,74.410795 C36.6521296,73.4783984 33.2504268,70.9524573 32.572397,68.2455739 C32.0402723,66.1220564 32.346277,63.4695546 32.174954,61.2741874 C31.9623682,58.5564277 31.6388681,55.8475668 31.3302226,53.1393651 C30.2983232,44.0803858 29.4974953,35.1094058 29.2654335,26 C28.5761802,26 27.0468169,36.7072349 26.7658999,38.2862777 C25.7221169,44.1519058 24.5258266,50.0303878 24.1376265,55.9853335 C23.738533,62.1047422 24.2148704,68.1674622 25.4695887,74.1632765 C26.0687242,77.0277016 26.7685407,79.8756475 27.518863,82.7041478 C28.352701,85.8467429 27.198994,91.9661516 27.5723395,95.1921317 C28.2787581,101.29572 31.1542781,113.199679 34.3833375,118.45096 C35.9440605,120.989096 37.7734867,122.573742 39.816489,124.619148 C41.7825775,126.58809 42.6038717,129.640049 44.7260985,131.73687 C48.6820428,135.645092 54.4456266,137.971304 60.3656788,138.543134 C65.6773527,143.050212 74.505605,146 84.4997781,146 C94.4946114,146 103.322534,143.050212 108.634538,138.543134 C114.55393,137.971304 120.317843,135.645092 124.274118,131.73687 C126.396015,129.640049 127.217309,126.58809 129.183727,124.619148 C131.2264,122.573742 133.055826,120.989096 134.616879,118.45096 C137.845608,113.199679 140.721458,101.29572 141.427547,95.1921317 C141.800892,91.9661516 140.647185,85.8467429 141.481353,82.7041478 C142.231676,79.8756475 142.931162,77.0277016 143.530628,74.1632765 C144.784686,68.1674622 145.261353,62.1047422 144.86259,55.9853335 Z"/><path id="x20" d="M185.831676,73.928751 C187.588868,74.9173665 188.980206,84.8279256 189.047535,88.6176558 C189.08965,90.9562115 189.127358,99.8740101 186.654049,99.1031293 C185.901013,98.868423 184.751682,94.1472484 184.58821,91.3840965 C184.424737,88.6209446 182.855069,79.2200034 180.446757,74.8947261 C179.896491,73.9063366 178.320781,72.1708928 179.001547,71.3348066 C179.846064,70.2980597 180.666198,70.8995898 181.697184,71.3146953 C182.8124,71.7641482 185.6344,73.8180261 185.831676,73.928751 Z M186.636742,70.9565876 C185.890663,71.9188016 180.795829,69.217693 178.671174,68.0439722 C160.825581,58.1840558 157.361562,55.0486831 129.245707,55.4578453 C101.129853,55.8670074 81.8674779,69.0400225 80.7839818,70.3874406 C80.0301584,71.3248831 79.0677773,73.8279219 78.2764086,80.8005402 C77.48504,87.7731584 78.4952061,100.277789 75.6304859,100.262618 C73.1915094,100.249702 72.6608912,76.4770353 73.7137309,67.0463924 C73.8753757,65.5984852 74.4983655,63.0083957 74.0474223,61.7058802 C73.6532986,60.5682485 71.7253768,60.5705662 72.0331217,58.6750651 C72.3829065,56.5173393 74.5584694,57.5890837 75.5060085,56.5574014 C77.3005851,54.602966 74.5321945,54.1404306 74.0730403,52.4306721 C73.3905494,49.8892108 75.3628102,49.2336489 77.1396512,48.4310821 C79.1060001,47.5437559 78.8504766,48.3231462 80.4463492,46.5849138 C78.3147968,45.0224912 77.543628,42.8939014 80.4624425,41.7519655 C81.7019616,41.2669159 84.9268789,41.9089031 85.8980654,41.1801698 C86.1512899,40.9901231 86.251463,39.9008308 86.4074703,39.6780059 C87.9583471,37.4593592 87.5757186,35.8532324 87.4183976,33.3624282 C87.2889936,31.3242265 87.3064008,29.4532263 89.7466834,29.2496048 C91.3750712,29.1138571 92.6993269,30.4441843 94.1582415,30.835866 C95.7767762,31.2705896 95.1688403,31.5877757 96.4369334,30.7150174 C98.6630755,29.1817309 97.1479982,26.1942888 98.913344,24.4120212 C101.335891,21.9662454 102.923881,25.5513084 104.868882,25.8218105 C109.09126,26.4101607 107.736132,22.1218586 110.235861,20.5504965 C113.223647,18.6738677 113.512672,22.8012592 115.378847,22.948264 C116.996068,23.0750722 119.907657,19.9545311 121.317306,19.3731338 C125.499944,17.6471518 127.572378,22.5039387 131.554013,21.8844657 C134.443268,21.434843 135.223305,21.067662 137.830761,22.7115333 C140.361692,24.3070651 140.96306,23.1664535 143.828996,23.1436082 C145.853806,23.128378 147.093982,24.8202575 148.787729,24.9967295 C149.632467,25.085131 150.441078,24.2050888 151.347562,24.2603811 C154.58496,24.4567186 154.789576,28.6430444 157.361562,29.7955753 C159.711524,30.8487786 162.474332,29.3691289 164.806559,29.0953159 C170.497048,28.4275036 166.60015,33.7425217 166.760755,36.914713 C168.994451,37.4358517 171.261648,35.3509661 173.485163,35.7347015 C176.986623,36.3392753 175.664995,39.9680424 174.853429,42.4144804 C177.279589,42.3707762 183.612828,39.6776748 185.184725,43.1220237 C185.995306,44.8980006 184.106797,47.2689496 184.13767,49.0743937 C184.181023,51.615855 186.048513,53.7186196 186.709327,56.1240021 C187.601032,59.3710203 188.871834,68.0740038 186.636742,70.9565876 Z"/></defs><mask id="x31" fill="#FFFFFF"><use xlink:href="#x21"/></mask><g id="x1"/><g id="x4" mask="url('#x31')"><g transform="translate(-1,0)"><g id="x8" transform="translate(49,72)"><defs><path id="x18" d="M65.1802189,77.7372986 C67.3631845,76.1045334 80.4065113,75.4786511 82.757829,74.0894494 C83.4916461,73.6553857 84.0610723,73.215719 84.4997781,72.7800074 C84.938814,73.215719 85.5085703,73.6553857 86.2423874,74.0894494 C88.593375,75.4786511 101.636702,76.1045334 103.819667,77.7372986 C106.030032,79.3908276 107.643571,83.1846831 107.466966,86.15095 C107.255041,89.7101408 103.361486,98.2028927 93.6723269,99.1811016 C91.5576925,96.8281927 88.2368647,95.3104528 84.4997781,95.3104528 C80.7633517,95.3104528 77.4421938,96.8281927 75.3275594,99.1811016 C65.6387308,98.2028927 61.7451757,89.7101408 61.5332501,86.15095 C61.3566455,83.1846831 62.9701849,79.3908276 65.1802189,77.7372986 M103.141638,94.9063813 C103.142958,94.9057221 103.144609,94.905063 103.145929,94.9047334 C103.144278,94.905063 103.142958,94.9057221 103.141638,94.9063813 M65.8453747,94.9014375 C65.8493359,94.9030855 65.8565982,94.9057221 65.8618798,94.9076997 C65.8565982,94.9057221 65.8509864,94.9034151 65.8453747,94.9014375 M144.86259,55.9853335 C144.47439,50.0303878 143.277769,44.1519058 142.233986,38.2862777 C141.952739,36.7072349 140.423706,26 139.734783,26 C139.502391,35.1094058 138.701893,44.0803858 137.669664,53.1393651 C137.361018,55.8475668 137.037848,58.5564277 136.825262,61.2741874 C136.653609,63.4695546 136.959614,66.1220564 136.427819,68.2455739 C135.749129,70.9524573 132.348087,73.4783984 129.702978,74.410795 C123.102915,76.7373371 117.597802,67.1077689 111.960977,64.2911336 C104.643272,60.6347152 92.0637391,59.7639895 84.5816434,64.5297918 C76.9361472,59.7639895 64.356614,60.6347152 57.0389092,64.2911336 C51.4024147,67.1077689 45.8969708,76.7373371 39.2972383,74.410795 C36.6521296,73.4783984 33.2504268,70.9524573 32.572397,68.2455739 C32.0402723,66.1220564 32.346277,63.4695546 32.174954,61.2741874 C31.9623682,58.5564277 31.6388681,55.8475668 31.3302226,53.1393651 C30.2983232,44.0803858 29.4974953,35.1094058 29.2654335,26 C28.5761802,26 27.0468169,36.7072349 26.7658999,38.2862777 C25.7221169,44.1519058 24.5258266,50.0303878 24.1376265,55.9853335 C23.738533,62.1047422 24.2148704,68.1674622 25.4695887,74.1632765 C26.0687242,77.0277016 26.7685407,79.8756475 27.518863,82.7041478 C28.352701,85.8467429 27.198994,91.9661516 27.5723395,95.1921317 C28.2787581,101.29572 31.1542781,113.199679 34.3833375,118.45096 C35.9440605,120.989096 37.7734867,122.573742 39.816489,124.619148 C41.7825775,126.58809 42.6038717,129.640049 44.7260985,131.73687 C48.6820428,135.645092 54.4456266,137.971304 60.3656788,138.543134 C65.6773527,143.050212 74.505605,146 84.4997781,146 C94.4946114,146 103.322534,143.050212 108.634538,138.543134 C114.55393,137.971304 120.317843,135.645092 124.274118,131.73687 C126.396015,129.640049 127.217309,126.58809 129.183727,124.619148 C131.2264,122.573742 133.055826,120.989096 134.616879,118.45096 C137.845608,113.199679 140.721458,101.29572 141.427547,95.1921317 C141.800892,91.9661516 140.647185,85.8467429 141.481353,82.7041478 C142.231676,79.8756475 142.931162,77.0277016 143.530628,74.1632765 C144.784686,68.1674622 145.261353,62.1047422 144.86259,55.9853335 Z"/></defs><mask id="x30" fill="#FFFFFF"><use xlink:href="#x18"/></mask><use id="x7" fill="#5E7AA9" fill-rule="evenodd" xlink:href="#x18"/><g id="x63" mask="url('#x30')" fill="#B58143"><g transform="translate(-32,0)" id="x6"><rect x="0" y="0" width="264" height="244"/></g></g></g> <g id="x2" stroke-width="1" fill-rule="evenodd" transform="translate(1,0)"><mask id="x29" fill="#FFFFFF"><use xlink:href="#x20"/></mask><use id="x3" fill="#2E3257" xlink:href="#x20"/><g id="x5-pastel_pink" mask="url('#x29')" fill="#F59797"><g transform="translate(0,0) " id="x5"><rect x="0" y="0" width="264" height="280"/></g></g> </g><g id="x13" fill="none" transform="translate(62,85)" stroke-width="1"><defs><filter id="x37" x="-0.8%" y="-2.0%" width="101.5%" height="108.0%" filterUnits="objectBoundingBox"><feOffset dx="0" dy="2" in="SourceAlpha" result="shadowOffsetOuter1"/><feColorMatrix values="0 0 0 0 0 0 0 0 0 0 0 0 0 0 0 0 0 0 0.16 0" type="matrix" in="shadowOffsetOuter1" result="shadowMatrixOuter1"/><feMerge><feMergeNode in="shadowMatrixOuter1"/><feMergeNode in="SourceGraphic"/></feMerge></filter></defs><g id="x9" filter="url('#x37')" transform="translate(5,2)"><path id="x10" d="M66,11.1111111 C54.9625586,11.1111111 53.3705645,2.0266011 30.6705882,0.740740741 C7.98552275,-0.283199952 0.815225204,6.4494855 0.776470588,11.1111111 C0.813236892,15.4042795 -0.352293566,26.5612661 14.3647059,39.6296296 C29.1367705,55.1420807 44.2704162,49.8818301 49.6941176,44.8148148 C55.1352081,42.4731118 61.3403442,21.4596351 66,21.4814815 C70.6596558,21.5033279 76.8647919,42.4731118 82.3058824,44.8148148 C87.7295838,49.8818301 102.86323,55.1420807 117.635294,39.6296296 C132.352294,26.5612661 131.186763,15.4042795 131.223529,11.1111111 C131.184775,6.4494855 124.014477,-0.283199952 101.329412,0.740740741 C78.6294355,2.0266011 77.0374414,11.1111111 66,11.1111111 Z" fill="#F4F4F4" fill-rule="nonzero"/><path id="x11" d="M55.1294118,21.4814815 C55.5103632,13.8233491 42.2156493,5.64243259 27.9529412,5.92592593 C13.6973442,6.22450879 11.8417942,15.3786982 11.6470588,18.8888889 C11.2982286,27.0220633 20.014463,45.3037598 36.1058824,44.8148148 C52.1972736,44.305848 54.9092435,26.5344305 55.1294118,21.4814815 Z" fill="#2F383B" fill-rule="nonzero"/><path id="x12" d="M120.352941,21.4814815 C120.733893,13.8233491 107.439179,5.64243259 93.1764706,5.92592593 C78.9208736,6.22450879 77.0653236,15.3786982 76.8705882,18.8888889 C76.521758,27.0220633 85.2379924,45.3037598 101.329412,44.8148148 C117.420803,44.305848 120.132773,26.5344305 120.352941,21.4814815 Z" fill="#2F383B" fill-rule="nonzero" transform="translate(98.611765, 25.370370) scale(-1, 1) translate(-98.611765, -25.370370)"/></g></g> </g></g></g> </g></g></g></g></svg>