<?xml version="1.0" encoding="utf-8" ?><!DOCTYPE svg PUBLIC "-//W3C//DTD SVG 1.1//EN" "http://www.w3.org/Graphics/SVG/1.1/DTD/svg11.dtd"><svg width="280px" height="280px" viewBox="-6 0 274 280" version="1.1" xmlns="http://www.w3.org/2000/svg" xmlns:xlink="http://www.w3.org/1999/xlink"><desc>Py-Avataaars</desc> <g id="x40" stroke="none" stroke-width="1" fill="none" fill-rule="evenodd"><defs><circle id="x27" cx="120" cy="120" r="120"/><path id="x28" d="M12,160 C12,226.27417 65.72583,280 132,280 C198.27417,280 252,226.27417 252,160 L264,160 L264,-1.42108547e-14 L-3.19744231e-14,-1.42108547e-14 L-3.19744231e-14,160 L12,160 Z"/><path id="x19" d="M124,144.610951 L124,163 L128,163 L128,163 C167.764502,163 200,195.235498 200,235 L200,244 L0,244 L0,235 C-4.86974701e-15,195.235498 32.235498,163 72,163 L72,163 L76,163 L76,144.610951 C58.7626345,136.422372 46.3722246,119.687011 44.3051388,99.8812385 C38.4803105,99.0577866 34,94.0521096 34,88 L34,74 C34,68.0540074 38.3245733,63.1180731 44,62.1659169 L44,56 L44,56 C44,25.072054 69.072054,5.68137151e-15 100,0 L100,0 L100,0 C130.927946,-5.68137151e-15 156,25.072054 156,56 L156,62.1659169 C161.675427,63.1180731 166,68.0540074 166,74 L166,88 C166,94.0521096 161.51969,99.0577866 155.694861,99.8812385 C153.627775,119.687011 141.237365,136.422372 124,144.610951 Z"/></defs><g id="x38" transform="translate(-825,-1100)"><g transform="translate(825,1100)"> <g id="x39" stroke-width="1" fill-rule="evenodd" mask="url('#py-avataaars-path-7186ddd2-28b2-4f0d-b8fd-201c33a0d556')"><g id="x37" transform="translate(32,36)"><mask id="x21" fill="#FFFFFF"><use xlink:href="#x19"/></mask><use fill="#D0C6AC" xlink:href="#x19"/><g id="py-avataaars-skin-dark_brown" mask="url('#x21')" fill="#AE5D29"><g transform="translate(0,0)" id="x18"><rect x="0" y="0" width="264" height="280"/></g></g> <path id="x36" d="M156,79 L156,102 C156,132.927946 130.927946,158 100,158 C69.072054,158 44,132.927946 44,102 L44,79 L44,94 C44,124.927946 69.072054,150 100,150 C130.927946,150 156,124.927946 156,94 L156,79 Z" fill-opacity="0.1" fill="#000000" mask="url('#x21')"/></g><g id="x55" transform="translate(0,170)"><defs><path id="x23" d="M171.319631,29.9364358 C205.706337,35.3665707 232,65.13854 232,101.051724 L232,110 L32,110 L32,101.051724 C32,65.1380521 58.2943778,35.3657617 92.6817711,29.9362145 C93.5835973,35.0053598 96.116393,39.8238432 100.236125,43.5389794 L100.236125,43.5389794 L129.321203,69.7676333 C130.843316,71.1402598 133.156684,71.1402598 134.678797,69.7676333 L134.678797,69.7676333 L163.763875,43.5389794 C164.189462,43.1551884 164.601167,42.7562772 164.998197,42.3430127 C168.414164,38.7873666 170.517305,34.4520434 171.319628,29.9364354 Z"/></defs><mask id="x30" fill="#FFFFFF"><use xlink:href="#x23"/></mask><use id="x54" fill="#E6E6E6" fill-rule="evenodd" xlink:href="#x23"/><g id="py-avataaars-clothes-clothe-color-palette-pastel_blue" mask="url('#x30')" fill-rule="evenodd" fill="#B1E2FF"><rect id="x56" x="0" y="0" width="264" height="110"/></g></g><g id="x53" transform="translate(76,82)" fill="#000000"><g id="x46" transform="translate(2,52)" fill-opacity="0.7" fill="#000000"><path id="x45" d="M40.0582943,16.6539438 C40.7076459,23.6831146 46.7016363,28.3768187 54,28.3768187 C61.3416045,28.3768187 67.3633339,23.627332 67.9526838,16.5287605 C67.9840218,16.1513016 67.0772329,15.8529531 66.6289111,16.077395 C61.0902255,18.8502083 56.8805885,20.2366149 54,20.2366149 C51.1558456,20.2366149 47.0072148,18.8804569 41.5541074,16.168141 C41.0473376,15.9160792 40.0197139,16.2363147 40.0582943,16.6539438 Z" transform="translate(54.005357, 22.188409) scale(1, -1) translate(-54.005357, -22.188409)"/></g><g id="x44" transform="translate(28,40)" fill-opacity="0.16"><path id="x43" d="M16,8 C16,12.418278 21.372583,16 28,16 L28,16 C34.627417,16 40,12.418278 40,8"/></g><g id="x49" transform="translate(0,8)" fill-opacity="0.6"><path id="x48" d="M16.1601674,32.4473116 C18.006676,28.648508 22.1644225,26 26.9975803,26 C31.8136766,26 35.9591217,28.629842 37.8153518,32.4071242 C38.3667605,33.5291977 37.5821037,34.4474817 36.790607,33.7670228 C34.3395063,31.6597833 30.8587163,30.3437884 26.9975803,30.3437884 C23.2572061,30.3437884 19.8737584,31.5787519 17.4375392,33.5716412 C16.5467928,34.3002944 15.6201012,33.5583844 16.1601674,32.4473116 Z" transform="translate(27,30) scale(1, -1) translate(-27,-30)"/><path id="x47" d="M74.1601674,32.4473116 C76.006676,28.648508 80.1644225,26 84.9975803,26 C89.8136766,26 93.9591217,28.629842 95.8153518,32.4071242 C96.3667605,33.5291977 95.5821037,34.4474817 94.790607,33.7670228 C92.3395063,31.6597833 88.8587163,30.3437884 84.9975803,30.3437884 C81.2572061,30.3437884 77.8737584,31.5787519 75.4375392,33.5716412 C74.5467928,34.3002944 73.6201012,33.5583844 74.1601674,32.4473116 Z" transform="translate(85,30) scale(1, -1) translate(-85,-30)"/></g><g id="x52" fill-opacity="0.6"><path id="x51" d="M22.7663531,1.57844898 L23.6772984,1.17582144 C28.9190996,-0.905265751 36.8645466,-0.0328729562 41.7227321,2.29911638 C42.2897848,2.57148957 41.9021563,3.4519421 41.3211012,3.40711006 C26.4021788,2.25602197 16.3582869,11.5525942 12.9460869,17.8470939 C12.8449215,18.0337142 12.5391523,18.05489 12.4635344,17.8808353 C10.156283,12.5620676 16.9134476,3.89614725 22.7663531,1.57844898 Z"/><path id="x50" d="M86.535177,12.0246305 C92.3421916,12.2928751 101.730304,16.5124899 101.488432,22.3684172 C101.480419,22.5600881 101.1989,22.6442368 101.06135,22.496811 C98.306449,19.5374968 78.7459953,16.5471364 71.8564209,18.1317995 C71.2258949,18.2770375 70.7468448,17.6550104 71.1462176,17.2056651 C74.5683263,13.3574126 81.3327077,11.7792465 86.535177,12.0246305 Z" transform="translate(86.246508, 17.285912) rotate(5.0) translate(-86.246508, -17.285912)"/></g></g><g id="x0"><defs><rect id="x22" x="0" y="0" width="264" height="280"/><path id="x25" d="M129.659138,38.3566287 C132.459581,45.3577056 134,52.9989608 134,61 L134,69 L2,69 L2,61 C2,52.9748603 3.54971254,45.3116754 6.36620203,38.2933809 C-0.0371821146,24.8304767 -1.28053094,13.7727805 2.63615554,5.12029235 C10.141056,2.84355825 18.8342301,4.64979084 28.7156778,10.5389901 C38.4862647,3.88774159 50.289117,-4.77047603e-15 63,-7.10542736e-15 L73,-7.10542736e-15 C85.7221104,-9.44244112e-15 97.5345852,3.89461262 107.310208,10.5566215 C117.203883,4.65339747 125.906912,2.84128775 133.419297,5.12029235 C137.342115,13.7863263 136.088729,24.8651051 129.659138,38.3566287 Z"/><path id="x29" d="M28.7156857,10.5389848 C18.758718,17.3171083 10.9122881,26.9651756 6.36620203,38.2933809 C-0.0371821146,24.8304767 -1.28053094,13.7727805 2.63615554,5.12029235 C10.1410556,2.84355836 18.8342292,4.64979066 28.7156763,10.5389892 Z M129.659138,38.3566287 C125.120833,27.0109143 117.273404,17.34646 107.310208,10.5566215 C117.203883,4.65339747 125.906912,2.84128775 133.419297,5.12029235 C137.342115,13.7863263 136.088729,24.8651051 129.659138,38.3566287 Z"/><path id="x26" d="M21.8615933,15.9591438 C17.3889306,20.0465694 13.5271638,24.7913314 10.4291788,30.040544 C7.50356643,21.9322189 7.00287124,16.3214118 8.92709323,13.2081228 C11.5782173,12.0615989 15.8897174,12.9786059 21.8615933,15.9591438 Z M125.352616,29.6737564 C122.278044,24.5465519 118.471613,19.9084198 114.077736,15.903773 C119.880509,13.0520429 124.083178,12.1889392 126.68574,13.3144617 C128.572308,16.3668294 128.127934,21.8199276 125.352616,29.6737564 Z"/><filter id="x42" x="-0.7%" y="-1.7%" width="101.4%" height="106.8%" filterUnits="objectBoundingBox" ><feOffset dx="0" dy="2" in="SourceAlpha" result="shadowOffsetOuter1"/><feColorMatrix values="0 0 0 0 0 0 0 0 0 0 0 0 0 0 0 0 0 0 0.1 0" type="matrix" in="shadowOffsetOuter1"/></filter><path id="x20" d="M67.2846026,61.4514246 C83.229708,49.8171415 105.159178,44 133.073012,44 C160.985408,44 182.871592,49.8165424 198.731564,61.4496271 L198.731562,61.4496305 C200.786183,62.956669 202.000006,65.3523289 202.000006,67.900394 L202.000004,98.3697692 C202.000004,100.578907 200.209144,102.369768 198.000006,102.369768 C197.244444,102.369768 196.504332,102.155773 195.865355,101.752558 C179.223261,91.2508526 158.536251,86 133.804323,86 C108.883259,86 87.640395,91.3314713 70.0757313,101.994414 L70.0757317,101.994414 C68.1873241,103.140806 65.7271332,102.539283 64.5807417,100.650875 C64.2008775,100.02514 64.0000054,99.3071624 64.0000054,98.5751499 L64,67.914014 C64,65.358892 65.2205159,62.9574773 67.2846026,61.4514246 Z"/></defs><mask id="x32" fill="#FFFFFF"><use xlink:href="#x22"/></mask><g id="x2"/><g id="x7" transform="translate(-1,0)"><g id="x6" stroke-width="1" fill-rule="evenodd" transform="translate(65,4)"><mask id="x33" fill="#FFFFFF"><use xlink:href="#x25"/></mask><use id="x4" fill="#D8D8D8" xlink:href="#x25"/><g id="x8" mask="url('#x33')" fill-rule="evenodd" fill="#FFFFFF"><rect id="x9" x="0" y="0" width="264" height="280"/></g> <mask id="x31" fill="#FFFFFF"><use xlink:href="#x29"/></mask><use id="x1" fill-opacity="0.24" fill="#000000" xlink:href="#x29"/><mask id="x34" fill="#FFFFFF"><use xlink:href="#x26"/></mask><use id="x3" fill-opacity="0.3" fill="#FFFFFF" xlink:href="#x26"/></g><g id="x5"><use fill="#000000" fill-opacity="1" filter="url('#x20')" xlink:href="#x20"/><use fill="#F4F4F4" fill-rule="evenodd" xlink:href="#x20"/></g><g id="x12" transform="translate(49,72)"><defs><path id="x24" d="M101.428403,98.1685688 C98.9148372,100.462621 96.23722,101.494309 92.8529444,100.772863 C92.2705777,100.648833 89.8963391,96.2345713 83.9998344,96.2345713 C78.1033297,96.2345713 75.7294253,100.648833 75.1467245,100.772863 C71.7624488,101.494309 69.0848316,100.462621 66.5712661,98.1685688 C61.8461772,93.855604 57.9166219,87.9081858 60.2778299,81.4191814 C61.5083844,78.0369425 63.5097479,74.3237342 67.1506257,73.2459109 C71.0384163,72.0955419 76.4968931,73.2439051 80.4147542,72.4582708 C81.6840664,72.2035248 83.0706538,71.7508657 83.9998344,71 C84.929015,71.7508657 86.3159365,72.2035248 87.5845805,72.4582708 C91.5027758,73.2439051 96.9612525,72.0955419 100.849043,73.2459109 C104.489921,74.3237342 106.491284,78.0369425 107.722173,81.4191814 C110.083381,87.9081858 106.153826,93.855604 101.428403,98.1685688 M140.081033,26 C136.670693,34.4002532 137.987774,44.8580348 137.356666,53.6758724 C136.844038,60.8431942 135.33712,71.5857526 128.972858,76.214531 C125.718361,78.5816138 119.79436,82.5598986 115.54187,81.4501943 C112.614539,80.6863848 112.302182,72.290096 108.455284,69.1469801 C104.09172,65.5823153 98.6429854,64.0160432 93.1491481,64.2578722 C90.7785381,64.3622683 85.9841367,64.3374908 83.9999331,66.1604584 C82.0157295,64.3374908 77.2216647,64.3622683 74.8510547,64.2578722 C69.3568808,64.0160432 63.9081467,65.5823153 59.5445817,69.1469801 C55.6976839,72.290096 55.3856641,80.6863848 52.4583326,81.4501943 C48.2058427,82.5598986 42.2818421,78.5816138 39.0270077,76.214531 C32.6624096,71.5857526 31.1561652,60.8431942 30.642864,53.6758724 C30.0120926,44.8580348 31.3291729,34.4002532 27.9188335,26 C26.2597768,26 27.3540339,42.1288693 27.3540339,42.1288693 L27.3540339,62.4851205 C27.3856735,77.7732046 36.935095,100.655445 58.1080116,109.393004 C63.2861266,111.52982 75.0153111,115 83.9999331,115 C92.9845551,115 104.71374,111.860188 109.891855,109.723371 C131.064771,100.985813 140.614193,77.7732046 140.646169,62.4851205 L140.646169,42.1288693 C140.646169,42.1288693 141.740089,26 140.081033,26"/></defs><mask id="x35" fill="#FFFFFF"><use xlink:href="#x24"/></mask><use id="x11" fill="#331B0C" fill-rule="evenodd" xlink:href="#x24"/><g id="x57" mask="url('#x35')" fill="#ECDCBF"><g transform="translate(-32,0)" id="x10"><rect x="0" y="0" width="264" height="244"/></g></g></g><g id="x17" fill="none" transform="translate(62,85)" stroke-width="1"><defs><filter id="x41" x="-0.8%" y="-2.4%" width="101.5%" height="109.8%" filterUnits="objectBoundingBox"><feOffset dx="0" dy="2" in="SourceAlpha" result="shadowOffsetOuter1"/><feColorMatrix values="0 0 0 0 0 0 0 0 0 0 0 0 0 0 0 0 0 0 0.2 0" type="matrix" in="shadowOffsetOuter1" result="shadowMatrixOuter1"/><feMerge><feMergeNode in="shadowMatrixOuter1"/><feMergeNode in="SourceGraphic"/></feMerge></filter></defs><g id="x13" filter="url('#x41')" transform="translate(6,7)" fill="#252C2F"><path id="x16" d="M34,41 L31.2421498,41 C17.3147125,41 9,33.3359286 9,20.5 C9,10.127 10.8170058,0 32.5299306,0 L35.4700694,0 C57.1829942,0 59,10.127 59,20.5 C59,32.5686429 48.7212748,41 34,41 Z M32.3853606,6 C13,6 13,12.8410159 13,21.5015498 C13,28.5719428 16.116254,37 30.9709365,37 L34,37 C46.3649085,37 55,30.6270373 55,21.5015498 C55,12.8410159 55,6 35.6146394,6 L32.3853606,6 Z" fill-rule="nonzero"/><path id="x15" d="M96,41 L93.2421498,41 C79.3147125,41 71,33.3359286 71,20.5 C71,10.127 72.8170058,0 94.5299306,0 L97.4700694,0 C119.182994,0 121,10.127 121,20.5 C121,32.5686429 110.721275,41 96,41 Z M94.3853606,6 C75,6 75,12.8410159 75,21.5015498 C75,28.5719428 78.1194833,37 92.9709365,37 L96,37 C108.364909,37 117,30.6270373 117,21.5015498 C117,12.8410159 117,6 97.6146394,6 L94.3853606,6 Z" fill-rule="nonzero"/><path id="x14" d="M2.95454545,5.77156439 C3.64590909,5.09629136 11.2095455,0 32.5,0 C50.3513636,0 54.1302273,1.85267217 59.8502273,4.6518809 L60.2689233,4.85850899 C60.6666014,4.99901896 62.7002447,5.68982981 65.0790606,5.76579519 C67.2462948,5.67278567 69.1000195,5.08540191 69.641698,4.89719767 C76.1703915,1.7220864 82.5610971,0 97.5,0 C118.790455,0 126.354091,5.09629136 127.045455,5.77156439 C128.679318,5.77156439 130,7.06150904 130,8.65734659 L130,11.5431288 C130,13.1389663 128.679318,14.428911 127.045455,14.428911 C127.045455,14.428911 120.143997,14.428911 120.143997,17.3146932 C120.143997,20.2004754 118.181818,13.1389663 118.181818,11.5431288 L118.181818,8.73240251 C114.578575,7.35340151 108.128411,4.78617535 97.5,4.78617535 C85.6584651,4.78617535 79.7610984,6.88602813 74.7022935,8.97112368 L74.7588636,9.10752861 L74.7563667,11.0937608 L72.5391666,16.4436339 L69.8004908,15.3608351 C69.5558969,15.2641292 69.0281396,15.090392 68.2963505,14.9099044 C66.256272,14.4067419 64.1589087,14.253569 62.3040836,14.6343084 C61.6235903,14.7739931 60.9922286,14.9836085 60.4128127,15.266732 L57.7704824,16.5578701 L55.1266751,11.3962031 L55.2440909,9.10175705 L55.3248203,8.90683855 C50.9620526,6.87386374 46.9392639,4.78617535 32.5,4.78617535 C21.8721459,4.78617535 15.422131,7.3524397 11.8181818,8.7314671 L11.8181818,11.5431288 C11.8181818,13.1389663 8.86363636,20.2004754 8.86363636,17.3146932 C8.86363636,14.428911 2.95454545,14.428911 2.95454545,14.428911 C1.32363636,14.428911 0,13.1389663 0,11.5431288 L0,8.65734659 C0,7.06150904 1.32363636,5.77156439 2.95454545,5.77156439 Z" fill-rule="nonzero"/></g></g> </g></g> </g></g></g></g></svg>