<?xml version="1.0" encoding="utf-8" ?><!DOCTYPE svg PUBLIC "-//W3C//DTD SVG 1.1//EN" "http://www.w3.org/Graphics/SVG/1.1/DTD/svg11.dtd"><svg width="280px" height="280px" viewBox="-6 0 274 280" version="1.1" xmlns="http://www.w3.org/2000/svg" xmlns:xlink="http://www.w3.org/1999/xlink"><desc>Py-Avataaars</desc> <g id="x34" stroke="none" stroke-width="1" fill="none" fill-rule="evenodd"><defs><circle id="x22" cx="120" cy="120" r="120"/><path id="x18" d="M12,160 C12,226.27417 65.72583,280 132,280 C198.27417,280 252,226.27417 252,160 L264,160 L264,-1.42108547e-14 L-3.19744231e-14,-1.42108547e-14 L-3.19744231e-14,160 L12,160 Z"/><path id="x25" d="M124,144.610951 L124,163 L128,163 L128,163 C167.764502,163 200,195.235498 200,235 L200,244 L0,244 L0,235 C-4.86974701e-15,195.235498 32.235498,163 72,163 L72,163 L76,163 L76,144.610951 C58.7626345,136.422372 46.3722246,119.687011 44.3051388,99.8812385 C38.4803105,99.0577866 34,94.0521096 34,88 L34,74 C34,68.0540074 38.3245733,63.1180731 44,62.1659169 L44,56 L44,56 C44,25.072054 69.072054,5.68137151e-15 100,0 L100,0 L100,0 C130.927946,-5.68137151e-15 156,25.072054 156,56 L156,62.1659169 C161.675427,63.1180731 166,68.0540074 166,74 L166,88 C166,94.0521096 161.51969,99.0577866 155.694861,99.8812385 C153.627775,119.687011 141.237365,136.422372 124,144.610951 Z"/></defs><g id="x32" transform="translate(-825,-1100)"><g transform="translate(825,1100)"> <g id="x33" stroke-width="1" fill-rule="evenodd" mask="url('#py-avataaars-path-51b2bdc8-af57-45cc-86df-87eeb3c63694')"><g id="x31" transform="translate(32,36)"><mask id="x17" fill="#FFFFFF"><use xlink:href="#x25"/></mask><use fill="#D0C6AC" xlink:href="#x25"/><g id="x16" mask="url('#x17')" fill="#614335"><g transform="translate(0,0)" id="x15"><rect x="0" y="0" width="264" height="280"/></g></g> <path id="x30" d="M156,79 L156,102 C156,132.927946 130.927946,158 100,158 C69.072054,158 44,132.927946 44,102 L44,79 L44,94 C44,124.927946 69.072054,150 100,150 C130.927946,150 156,124.927946 156,94 L156,79 Z" fill-opacity="0.1" fill="#000000" mask="url('#x17')"/></g><g id="x55" transform="translate(0,170)"><defs><path id="x21" d="M108,13.0708856 C90.0813006,15.075938 76.2798424,20.5518341 76.004203,34.6449676 C50.1464329,45.5680933 32,71.1646257 32,100.999485 L32,100.999485 L32,110 L232,110 L232,100.999485 C232,71.1646257 213.853567,45.5680933 187.995797,34.6449832 C187.720158,20.5518341 173.918699,15.075938 156,13.0708856 L156,32 L156,32 C156,45.254834 145.254834,56 132,56 L132,56 C118.745166,56 108,45.254834 108,32 L108,13.0708856 Z"/></defs><mask id="x29" fill="#FFFFFF"><use xlink:href="#x21"/></mask><use id="x54" fill="#B7C1DB" fill-rule="evenodd" xlink:href="#x21"/><g id="py-avataaars-clothes-clothe-color-palette-pastel_yellow" mask="url('#x29')" fill-rule="evenodd" fill="#FFFFB1"><rect id="x56" x="0" y="0" width="264" height="110"/></g> <path id="x52" d="M102,61.7390531 L102,110 L95,110 L95,58.1502625 C97.2037542,59.4600576 99.5467694,60.6607878 102,61.7390531 Z M169,58.1502625 L169,98.5 C169,100.432997 167.432997,102 165.5,102 C163.567003,102 162,100.432997 162,98.5 L162,61.7390531 C164.453231,60.6607878 166.796246,59.4600576 169,58.1502625 Z" fill="#F4F4F4" fill-rule="evenodd" mask="url('#x29')"/><path id="x53" d="M90.9601329,12.7243537 C75.9093095,15.5711782 65.5,21.2428847 65.5,32.3076923 C65.5,52.0200095 98.5376807,68 132,68 C165.462319,68 198.5,52.0200095 198.5,32.3076923 C198.5,21.2428847 188.09069,15.5711782 173.039867,12.7243537 C182.124921,16.0744598 188,21.7060546 188,31.0769231 C188,51.4689754 160.178795,68 132,68 C103.821205,68 76,51.4689754 76,31.0769231 C76,21.7060546 81.8750795,16.0744598 90.9601329,12.7243537 Z" fill-opacity="0.16" fill="#000000" fill-rule="evenodd" mask="url('#x29')"/></g><g id="x51" transform="translate(76,82)" fill="#000000"><g id="x41" transform="translate(2,52)"><defs><path id="x23" d="M35.117844,15.1280772 C36.1757121,24.6198025 44.2259873,32 54,32 C63.8042055,32 71.8740075,24.574136 72.8917593,15.0400546 C72.9736685,14.272746 72.1167429,13 71.042767,13 C56.1487536,13 44.7379213,13 37.0868244,13 C36.0066168,13 35.0120058,14.1784435 35.117844,15.1280772 Z"/><rect id="x20" x="39" y="2" width="31" height="16" rx="5"/></defs><mask id="x26" fill="#FFFFFF"><use xlink:href="#x23"/></mask><use id="x40" fill-opacity="0.7" fill="#000000" fill-rule="evenodd" xlink:href="#x23"/><use id="x39" stroke-width="1" fill-rule="evenodd" mask="url('#x26')" fill="#FFFFFF" xlink:href="#x20"/><g id="x38" stroke-width="1" fill-rule="evenodd" mask="url('#x26')" fill="#FF4F6D"><g transform="translate(38,24)"><circle cx="11" cy="11" r="11"/><circle cx="21" cy="11" r="11"/></g></g></g><g id="x37" transform="translate(28,40)" fill-opacity="0.16"><path id="x36" d="M16,8 C16,12.418278 21.372583,16 28,16 L28,16 C34.627417,16 40,12.418278 40,8"/></g><g id="x46" transform="translate(0,8)"><circle id="x43" fill="#FFFFFF" cx="30" cy="22" r="14"/><circle id="x42" fill="#FFFFFF" cx="82" cy="22" r="14"/><circle id="x45" fill-opacity="0.7" fill="#000000" cx="30" cy="14" r="6"/><circle id="x44" fill-opacity="0.7" fill="#000000" cx="82" cy="14" r="6"/></g><g id="x50" fill-opacity="0.6"><g id="x49" transform="translate(12,6)"><path id="x48" d="M3.63024536,11.1585767 C7.54515501,5.64986673 18.2779197,2.56083721 27.5230268,4.83118046 C28.5957248,5.0946055 29.6788665,4.43856013 29.9422916,3.36586212 C30.2057166,2.2931641 29.5496712,1.21002236 28.4769732,0.94659732 C17.7403633,-1.69001789 5.31209962,1.88699832 0.369754639,8.84142326 C-0.270109626,9.74178291 -0.0589363917,10.9903811 0.84142326,11.6302454 C1.74178291,12.2701096 2.9903811,12.0589364 3.63024536,11.1585767 Z" fill-rule="nonzero"/><path id="x47" d="M61.6302454,11.1585767 C65.545155,5.64986673 76.2779197,2.56083721 85.5230268,4.83118046 C86.5957248,5.0946055 87.6788665,4.43856013 87.9422916,3.36586212 C88.2057166,2.2931641 87.5496712,1.21002236 86.4769732,0.94659732 C75.7403633,-1.69001789 63.3120996,1.88699832 58.3697546,8.84142326 C57.7298904,9.74178291 57.9410636,10.9903811 58.8414233,11.6302454 C59.7417829,12.2701096 60.9903811,12.0589364 61.6302454,11.1585767 Z" fill-rule="nonzero" transform="translate(73.000154, 6.039198) scale(-1, 1) translate(-73.000154, -6.039198)"/></g></g></g><g id="x0" stroke-width="1" fill-rule="evenodd"><defs><rect id="x24" x="0" y="0" width="264" height="280"/><path id="x19" d="M59,102.340285 C59,118.921045 59,145.474283 59,182 C59,186.418278 62.581722,190 67,190 L109,190 L109,180.610951 C91.4692178,172.282984 78.9518066,155.114792 77.2085808,134.867187 C71.4308707,134.002364 67,129.018625 67,123 L67,110 C67,106.509412 68.4903619,103.366917 70.8694649,101.174135 C82.4088376,98.5552525 94.9706808,93.6376395 107.341516,86.4953343 C119.473269,79.4910638 129.843979,71.2579416 137.820938,62.752196 C134.394107,70.6604321 130.244513,77.5880409 125.372156,83.5350224 C138.047336,78.0120855 146.677812,69.1324394 151.263585,56.8960843 C151.64142,57.8180234 152.034942,58.738913 152.444252,59.6582378 C162.699828,82.6926393 180.317578,99.018563 198.205873,104.403108 C198.718861,106.513486 199,108.48395 199,110 L199,123 C199,129.018625 194.569129,134.002364 188.791419,134.867187 C187.048193,155.114792 174.530782,172.282984 157,180.610951 L157,190 L175,190 C192.673112,190 207,175.673112 207,158 C207,133.944314 207,115.902549 207,103.874706 C207,103.807916 206.990567,103.721208 206.971823,103.615272 C206.82774,91.3536714 206.623862,84.2237818 206.360189,82.2256031 C201.576875,45.9764505 170.555563,18 133,18 C96.9151011,18 66.8627142,43.8282542 60,78 C54.4771525,78 50,83.5964406 50,90.5 C50,95.0507583 51.6949619,99.1431718 54.8534901,101.273154 C55.7582038,101.883256 57.323834,102.197638 58.9999994,102.340287 Z"/></defs><mask id="x28" fill="#FFFFFF"><use xlink:href="#x24"/></mask><g id="x1"/><g id="x6" mask="url('#x28')"><g transform="translate(-1,0)"><g id="x5" stroke-width="1" fill-rule="evenodd"><mask id="x27" fill="#FFFFFF"><use xlink:href="#x19"/></mask><use id="x4" fill="#944F23" xlink:href="#x19"/><g id="x7-silver_gray" mask="url('#x27')" fill="#E8E1E1"><g transform="translate(0,0) " id="x7"><rect x="0" y="0" width="264" height="280"/></g></g> </g><g id="x2" opacity="0.44" stroke-width="1" fill-rule="evenodd" transform="translate(50,18)" fill-opacity="0.16"><path id="x3" d="M11.8989604,84.7749122 C25.7109099,83.0145308 41.6792969,77.5379209 57.3415164,68.4953343 C69.4732686,61.4910638 79.8439791,53.2579416 87.8209384,44.752196 C84.3941075,52.6604321 80.2445133,59.5880409 75.3721558,65.5350224 C88.0473359,60.0120855 96.6778122,51.1324394 101.263585,38.8960843 C101.64142,39.8180234 102.034942,40.738913 102.444252,41.6582378 C114.38223,68.4713761 136.296003,86.1944823 157,88.1510343 L157,88.1510343 L157,74 C157,33.1309285 123.869071,-7.50752664e-15 83,0 C46.9151011,6.62868839e-15 16.8627142,25.8282542 10.3212729,60.0063288 C10.214595,60.0021202 10.1074956,60 10,60 C4.4771525,60 0,65.5964406 0,72.5 C0,78.9816827 3.9466744,84.3111215 8.99999442,84.9382803 L8.99999434,85.0927525 C9.31629342,85.0638362 9.63387297,85.0328725 9.95270131,84.9998631 C9.96845895,84.9999543 9.98422521,85 10,85 C10.6492988,85 11.2841443,84.9226474 11.8989604,84.7749122 Z" fill="#FFFFFF"/></g><g id="x14" fill="none" transform="translate(62,85)" stroke-width="1"><defs><filter id="x35" x="-0.8%" y="-2.4%" width="101.5%" height="109.8%" filterUnits="objectBoundingBox"><feOffset dx="0" dy="2" in="SourceAlpha" result="shadowOffsetOuter1"/><feColorMatrix values="0 0 0 0 0 0 0 0 0 0 0 0 0 0 0 0 0 0 0.2 0" type="matrix" in="shadowOffsetOuter1" result="shadowMatrixOuter1"/><feMerge><feMergeNode in="shadowMatrixOuter1"/><feMergeNode in="SourceGraphic"/></feMerge></filter></defs><g id="x8" filter="url('#x35')" transform="translate(8,8)" fill="#D6EAF2"><path id="x13" d="M46.2491397,7.27516667 C48.6207695,7.2975 49.7419096,7.69183333 50.1459601,10.1651667 C50.5553446,12.6705 50.1572949,15.4871667 49.6852359,17.9548333 C48.9648125,21.7228333 47.7666627,25.4145 44.9776475,28.1685 C43.5084639,29.6188333 41.7165732,30.7748333 39.8106684,31.5641667 C38.7985419,31.9835 37.7297416,32.2861667 36.6612747,32.5158333 C36.3489024,32.5828333 33.6822357,32.9501667 35.3177735,32.7635 C31.5009631,33.1991667 27.3601122,33.1818333 24.1723805,30.7525 C20.6396056,28.0601667 18.2203032,23.7998333 17.1565036,19.5561667 C16.5340925,17.0731667 15.2262624,11.1345 17.6158944,9.14916667 C20.3532365,6.8745 46.2491397,7.27516667 46.2491397,7.27516667 L46.2491397,7.27516667 Z M22.2178029,0.4905 C16.7774562,0.677833333 13.1466691,1.63383333 10.4633337,7.06916667 C5.54571911,17.0301667 13.9627711,31.9688333 23.352278,36.0395 C34.3293166,40.7991667 46.5921826,35.5318333 52.3955746,26.0058333 C55.4689587,20.9621667 57.0224862,13.3231667 56.9224737,7.50383333 C56.7951245,0.0765 51.6071427,-0.1295 45.5090472,0.0338333333 L22.2178029,0.4905 Z"/><path id="x12" d="M79.6805515,7.27256667 C77.3089217,7.29523333 76.1877816,7.68923333 75.7837311,10.1625667 C75.3743466,12.6679 75.7723963,15.4845667 76.244122,17.9522333 C76.9648787,21.7202333 78.1630285,25.4119 80.9520437,28.1659 C82.4212273,29.6162333 84.213118,30.7722333 86.1190228,31.5619 C87.1311493,31.9809 88.1999496,32.2835667 89.2684165,32.5132333 C89.5807888,32.5802333 92.2471221,32.9479 90.6119177,32.7609 C94.4287281,33.1965667 98.569579,33.1792333 101.757311,30.7499 C105.290086,28.0575667 107.709388,23.7975667 108.773188,19.5539 C109.395599,17.0705667 110.703095,11.1322333 108.313797,9.14656667 C105.576455,6.8719 79.6805515,7.27256667 79.6805515,7.27256667 L79.6805515,7.27256667 Z M103.711555,0.4879 C109.152235,0.675233333 112.783022,1.63156667 115.466357,7.06656667 C120.383639,17.0275667 111.96692,31.9662333 102.577413,36.0372333 C91.6003746,40.7965667 79.3375086,35.5292333 73.5337832,26.0035667 C70.4607325,20.9595667 68.907205,13.3205667 69.0068841,7.50123333 C69.1345667,0.0739 74.3225485,-0.1321 80.420644,0.0315666667 L103.711555,0.4879 Z"/><path id="x11" d="M13.1969483,4.9267 C9.78501392,5.11836667 5.88606327,5.16436667 2.69005822,6.63936667 C-0.69461078,8.20136667 -1.2176675,11.7387 3.04920921,12.2260333 C4.97094906,12.4457 6.89488267,12.0827 8.78716336,11.7450333 C10.336903,11.4683667 12.4419791,11.5580333 13.9064752,10.9657 C16.6355213,9.86236667 16.4603333,4.74003333 13.1969483,4.9267"/><path id="x10" d="M112.73467,4.9267 C116.146606,5.11836667 120.045559,5.16436667 123.241565,6.63936667 C126.626236,8.20136667 127.149293,11.7387 122.882414,12.2260333 C120.960673,12.4457 119.036739,12.0827 117.144457,11.7450333 C115.594717,11.4683667 113.489639,11.5580333 112.025143,10.9657 C109.295782,9.86236667 109.471283,4.74003333 112.73467,4.9267"/><path id="x9" d="M73.1094302,7.01263333 C71.1631869,4.71263333 66.0912197,3.38463333 62.8914864,3.38463333 C59.6914198,3.38463333 54.7681378,4.71263333 52.8222279,7.01263333 C51.8407719,8.1723 51.8074344,9.72396667 53.5083137,10.4509667 C55.6262451,11.3566333 57.5174814,9.7143 59.2126933,8.8553 C61.3809643,7.75663333 64.7120473,7.8773 66.7189648,8.8553 C68.4271783,9.68796667 70.3050797,11.3566333 72.4233444,10.4509667 C74.1242237,9.72396667 74.0908862,8.1723 73.1094302,7.01263333"/></g></g> </g></g></g> </g></g></g></g></svg>