<?xml version="1.0" encoding="utf-8" ?><!DOCTYPE svg PUBLIC "-//W3C//DTD SVG 1.1//EN" "http://www.w3.org/Graphics/SVG/1.1/DTD/svg11.dtd"><svg width="280px" height="280px" viewBox="-6 0 274 280" version="1.1" xmlns="http://www.w3.org/2000/svg" xmlns:xlink="http://www.w3.org/1999/xlink"><desc>Py-Avataaars</desc> <g id="x23" stroke="none" stroke-width="1" fill="none" fill-rule="evenodd"><defs><circle id="x15" cx="120" cy="120" r="120"/><path id="x13" d="M12,160 C12,226.27417 65.72583,280 132,280 C198.27417,280 252,226.27417 252,160 L264,160 L264,-1.42108547e-14 L-3.19744231e-14,-1.42108547e-14 L-3.19744231e-14,160 L12,160 Z"/><path id="x10" d="M124,144.610951 L124,163 L128,163 L128,163 C167.764502,163 200,195.235498 200,235 L200,244 L0,244 L0,235 C-4.86974701e-15,195.235498 32.235498,163 72,163 L72,163 L76,163 L76,144.610951 C58.7626345,136.422372 46.3722246,119.687011 44.3051388,99.8812385 C38.4803105,99.0577866 34,94.0521096 34,88 L34,74 C34,68.0540074 38.3245733,63.1180731 44,62.1659169 L44,56 L44,56 C44,25.072054 69.072054,5.68137151e-15 100,0 L100,0 L100,0 C130.927946,-5.68137151e-15 156,25.072054 156,56 L156,62.1659169 C161.675427,63.1180731 166,68.0540074 166,74 L166,88 C166,94.0521096 161.51969,99.0577866 155.694861,99.8812385 C153.627775,119.687011 141.237365,136.422372 124,144.610951 Z"/></defs><g id="x21" transform="translate(-825,-1100)"><g transform="translate(825,1100)"> <g id="x22" stroke-width="1" fill-rule="evenodd" mask="url('#py-avataaars-path-d4b566ea-dca0-416f-82ab-2483297fe73b')"><g id="x20" transform="translate(32,36)"><mask id="x12" fill="#FFFFFF"><use xlink:href="#x10"/></mask><use fill="#D0C6AC" xlink:href="#x10"/><g id="x7" mask="url('#x12')" fill="#FD9841"><g transform="translate(0,0)" id="x8"><rect x="0" y="0" width="264" height="280"/></g></g> <path id="x19" d="M156,79 L156,102 C156,132.927946 130.927946,158 100,158 C69.072054,158 44,132.927946 44,102 L44,79 L44,94 C44,124.927946 69.072054,150 100,150 C130.927946,150 156,124.927946 156,94 L156,79 Z" fill-opacity="0.1" fill="#000000" mask="url('#x12')"/></g><g id="x39" transform="translate(0,170)"><defs><path id="x11" d="M108,13.0708856 C90.0813006,15.075938 76.2798424,20.5518341 76.004203,34.6449676 C50.1464329,45.5680933 32,71.1646257 32,100.999485 L32,100.999485 L32,110 L232,110 L232,100.999485 C232,71.1646257 213.853567,45.5680933 187.995797,34.6449832 C187.720158,20.5518341 173.918699,15.075938 156,13.0708856 L156,32 L156,32 C156,45.254834 145.254834,56 132,56 L132,56 C118.745166,56 108,45.254834 108,32 L108,13.0708856 Z"/></defs><mask id="x16" fill="#FFFFFF"><use xlink:href="#x11"/></mask><use id="x38" fill="#B7C1DB" fill-rule="evenodd" xlink:href="#x11"/><g id="py-avataaars-clothes-clothe-color-palette-gray_02" mask="url('#x16')" fill-rule="evenodd" fill="#929598"><rect id="x40" x="0" y="0" width="264" height="110"/></g> <path id="x36" d="M102,61.7390531 L102,110 L95,110 L95,58.1502625 C97.2037542,59.4600576 99.5467694,60.6607878 102,61.7390531 Z M169,58.1502625 L169,98.5 C169,100.432997 167.432997,102 165.5,102 C163.567003,102 162,100.432997 162,98.5 L162,61.7390531 C164.453231,60.6607878 166.796246,59.4600576 169,58.1502625 Z" fill="#F4F4F4" fill-rule="evenodd" mask="url('#x16')"/><path id="x37" d="M90.9601329,12.7243537 C75.9093095,15.5711782 65.5,21.2428847 65.5,32.3076923 C65.5,52.0200095 98.5376807,68 132,68 C165.462319,68 198.5,52.0200095 198.5,32.3076923 C198.5,21.2428847 188.09069,15.5711782 173.039867,12.7243537 C182.124921,16.0744598 188,21.7060546 188,31.0769231 C188,51.4689754 160.178795,68 132,68 C103.821205,68 76,51.4689754 76,31.0769231 C76,21.7060546 81.8750795,16.0744598 90.9601329,12.7243537 Z" fill-opacity="0.16" fill="#000000" fill-rule="evenodd" mask="url('#x16')"/></g><g id="x35" transform="translate(76,82)" fill="#000000"><g id="x28" transform="translate(2,52)" fill-opacity="0.6" fill-rule="nonzero" fill="#000000"><path id="x27" d="M40,16 C40,21.371763 46.1581544,25 54,25 C61.8418456,25 68,21.371763 68,16 C68,14.8954305 67.050301,14 66,14 C64.7072748,14 64.1302316,14.9051755 64,16 C62.7575758,18.9378973 59.6832595,20.7163149 54,21 C48.3167405,20.7163149 45.2424242,18.9378973 44,16 C43.8697684,14.9051755 43.2927252,14 42,14 C40.949699,14 40,14.8954305 40,16 Z"/></g><g id="x26" transform="translate(28,40)" fill-opacity="0.16"><path id="x25" d="M16,8 C16,12.418278 21.372583,16 28,16 L28,16 C34.627417,16 40,12.418278 40,8"/></g><g id="x31" transform="translate(0,8)" fill-opacity="0.6"><path id="x30" d="M16.1601674,32.4473116 C18.006676,28.648508 22.1644225,26 26.9975803,26 C31.8136766,26 35.9591217,28.629842 37.8153518,32.4071242 C38.3667605,33.5291977 37.5821037,34.4474817 36.790607,33.7670228 C34.3395063,31.6597833 30.8587163,30.3437884 26.9975803,30.3437884 C23.2572061,30.3437884 19.8737584,31.5787519 17.4375392,33.5716412 C16.5467928,34.3002944 15.6201012,33.5583844 16.1601674,32.4473116 Z" transform="translate(27,30) scale(1, -1) translate(-27,-30)"/><path id="x29" d="M74.1601674,32.4473116 C76.006676,28.648508 80.1644225,26 84.9975803,26 C89.8136766,26 93.9591217,28.629842 95.8153518,32.4071242 C96.3667605,33.5291977 95.5821037,34.4474817 94.790607,33.7670228 C92.3395063,31.6597833 88.8587163,30.3437884 84.9975803,30.3437884 C81.2572061,30.3437884 77.8737584,31.5787519 75.4375392,33.5716412 C74.5467928,34.3002944 73.6201012,33.5583844 74.1601674,32.4473116 Z" transform="translate(85,30) scale(1, -1) translate(-85,-30)"/></g><g id="x34" fill-opacity="0.6" fill-rule="nonzero"><path id="x33" d="M15.5914402,14.1619718 C20.0874642,7.83556966 29.6031809,4.65350252 39.3473715,7.79575991 C40.3986323,8.13476518 41.5256656,7.55736801 41.8646708,6.50610724 C42.2036761,5.45484647 41.6262789,4.32781316 40.5750182,3.98880789 C29.1665516,0.309863172 17.8358054,4.09887835 12.3309495,11.8448183 C11.6910852,12.7451779 11.9022584,13.9937761 12.8026181,14.6336404 C13.7029777,15.2735046 14.9515759,15.0623314 15.5914402,14.1619718 Z"/><path id="x32" d="M73.6376405,21.1577995 C77.5525501,15.6490895 88.2853148,12.56006 97.5304219,14.8304032 C98.6031199,15.0938282 99.6862617,14.4377829 99.9496867,13.3650849 C100.213112,12.2923868 99.5570664,11.2092451 98.4843684,10.9458201 C87.7477584,8.30920485 75.3194947,11.8862211 70.3771498,18.840646 C69.7372855,19.7410057 69.9484587,20.9896038 70.8488184,21.6294681 C71.749178,22.2693324 72.9977762,22.0581591 73.6376405,21.1577995 Z" transform="translate(85.007549, 16.038421) scale(-1, 1) translate(-85.007549, -16.038421)"/></g></g><g id="x0" stroke-width="1" fill-rule="evenodd"><defs><rect id="x14" x="0" y="0" width="264" height="280"/><path id="x9" d="M66.0421575,77.0749852 C71.6795257,45.2058307 99.5129755,21 133,21 L133,21 L133,21 C170.555363,21 201,51.444637 201,89 L201,119.751022 C201.875211,129.554379 202.693946,136.422143 203.456205,140.354314 C204.833317,147.458254 209.150269,145.115419 209.150269,155.220201 C209.150269,165.324983 204.822005,168.720206 204.803237,177.705482 C204.784469,186.690758 220.200444,193.836185 220.200444,205.242606 C220.200444,216.649027 213.126079,270.475928 142.577598,270.475928 C127.507235,270.475928 114.670509,266.188589 104.06742,257.613911 C104.750275,264.103957 105.394468,271.565987 106,280 L59,280 C59.9324304,256.228591 51.7156549,242.936205 51.7156549,216.44564 C51.7156549,189.955074 65.3525844,151.427541 65,142 C65.019981,141.417741 65.0406721,140.728417 65.0620734,139.932027 C65.0208303,138.959828 65,137.982347 65,137 L65,89 L65,89 C65,85.0240875 65.3412247,81.1278723 65.9959868,77.3390417 C65.9973236,77.2261704 65.9986613,77.1131564 66,77 C66.0140661,77.0249783 66.0281186,77.0499734 66.0421575,77.0749852 Z M132.5,53 L132.5,53 C102.400481,53 78,77.4004811 78,107.5 L78,107.5 L78,130.5 C78,160.599519 102.400481,185 132.5,185 L133.5,185 C163.599519,185 188,160.599519 188,130.5 L188,107.5 C188,77.4004811 163.599519,53 133.5,53 L133.5,53 L132.5,53 Z"/><filter id="x24" x="-0.8%" y="-2.0%" width="101.5%" height="108.0%" filterUnits="objectBoundingBox"><feOffset dx="0" dy="2" in="SourceAlpha" result="shadowOffsetOuter1"/><feColorMatrix values="0 0 0 0 0 0 0 0 0 0 0 0 0 0 0 0 0 0 0.16 0" type="matrix" in="shadowOffsetOuter1" result="shadowMatrixOuter1"/><feMerge><feMergeNode in="shadowMatrixOuter1"/><feMergeNode in="SourceGraphic"/></feMerge></filter></defs><mask id="x18" fill="#FFFFFF"><use xlink:href="#x14"/></mask><g id="x2"/><g id="x4" mask="url('#x18')"><g transform="translate(-1,0)"><mask id="x17" fill="#FFFFFF"><use xlink:href="#x9"/></mask><use id="x3" stroke="none" fill="#3B6BAD" fill-rule="evenodd" xlink:href="#x9"/><g id="x5" mask="url('#x17')" fill-rule="evenodd" fill="#FFFFFF"><rect id="x6" x="0" y="0" width="264" height="280"/></g> <path id="x41" d="M72.0744416,104.959767 C71.3690172,101.246903 71,97.4161983 71,93.5 C71,59.5344879 98.7583455,32 133,32 C167.241654,32 195,59.5344879 195,93.5 C195,97.4161983 194.630983,101.246903 193.925558,104.959767 C192.341315,72.6827942 165.669927,47 133,47 C100.330073,47 73.6586845,72.6827942 72.0744428,104.959774 Z" stroke="none" fill-opacity="0.5" fill="#FFFFFF" fill-rule="evenodd" mask="url('#x17')"/><path id="x1" d="M187.929085,104.69543 C188.631457,108.187732 189,111.800827 189,115.5 L189,138.5 C189,168.599519 164.599519,193 134.5,193 L131.5,193 C101.400481,193 77,168.599519 77,138.5 L77,115.5 L77,115.5 C77,111.800827 77.3685433,108.187732 78.0709154,104.69543 C78.0238287,105.624341 78,106.559388 78,107.5 L78,107.5 L78,130.5 C78,160.599519 102.400481,185 132.5,185 L133.5,185 C163.599519,185 188,160.599519 188,130.5 L188,130.5 L188,107.5 C188,106.559388 187.976171,105.624341 187.929085,104.69543 Z M114.16682,206.995462 C120.651206,211.981028 135.663493,213.708321 152.404574,210.756416 C169.145655,207.804512 182.661822,201.046883 187.049987,194.144193 C187.118291,194.396526 187.175421,194.652296 187.221114,194.911435 C188.930607,204.606451 173.985409,215.345413 153.84008,218.897578 C133.694752,222.449742 115.977919,217.469978 114.268426,207.774963 C114.222732,207.515823 114.188938,207.255938 114.166824,206.995464 Z M126.034638,235.921439 C134.227056,241.574977 150.421729,241.843835 167.103682,235.772101 C183.785635,229.700366 196.018656,219.084674 198.660388,209.487828 C198.803116,209.80837 198.935124,210.134883 199.056117,210.46731 C203.582768,222.904181 190.979008,238.909268 170.904831,246.215671 C150.830654,253.522074 130.887742,249.363007 126.361091,236.926135 C126.240098,236.593709 126.131343,236.258733 126.034643,235.921442 Z" stroke="none" fill-opacity="0.16" fill="#000000" fill-rule="evenodd" opacity="0.9" mask="url('#x17')"/> </g></g></g> </g></g></g></g></svg>