<?xml version="1.0" encoding="utf-8" ?><!DOCTYPE svg PUBLIC "-//W3C//DTD SVG 1.1//EN" "http://www.w3.org/Graphics/SVG/1.1/DTD/svg11.dtd"><svg width="280px" height="280px" viewBox="-6 0 274 280" version="1.1" xmlns="http://www.w3.org/2000/svg" xmlns:xlink="http://www.w3.org/1999/xlink"><desc>Py-Avataaars</desc> <g id="x35" stroke="none" stroke-width="1" fill="none" fill-rule="evenodd"><defs><circle id="x21" cx="120" cy="120" r="120"/><path id="x22" d="M12,160 C12,226.27417 65.72583,280 132,280 C198.27417,280 252,226.27417 252,160 L264,160 L264,-1.42108547e-14 L-3.19744231e-14,-1.42108547e-14 L-3.19744231e-14,160 L12,160 Z"/><path id="x23" d="M124,144.610951 L124,163 L128,163 L128,163 C167.764502,163 200,195.235498 200,235 L200,244 L0,244 L0,235 C-4.86974701e-15,195.235498 32.235498,163 72,163 L72,163 L76,163 L76,144.610951 C58.7626345,136.422372 46.3722246,119.687011 44.3051388,99.8812385 C38.4803105,99.0577866 34,94.0521096 34,88 L34,74 C34,68.0540074 38.3245733,63.1180731 44,62.1659169 L44,56 L44,56 C44,25.072054 69.072054,5.68137151e-15 100,0 L100,0 L100,0 C130.927946,-5.68137151e-15 156,25.072054 156,56 L156,62.1659169 C161.675427,63.1180731 166,68.0540074 166,74 L166,88 C166,94.0521096 161.51969,99.0577866 155.694861,99.8812385 C153.627775,119.687011 141.237365,136.422372 124,144.610951 Z"/></defs><g id="x33" transform="translate(-825,-1100)"><g transform="translate(825,1100)"> <g id="x34" stroke-width="1" fill-rule="evenodd" mask="url('#py-avataaars-path-20073ce3-4d2f-4e09-8472-d38ee92f12d9')"><g id="x32" transform="translate(32,36)"><mask id="x26" fill="#FFFFFF"><use xlink:href="#x23"/></mask><use fill="#D0C6AC" xlink:href="#x23"/><g id="x17" mask="url('#x26')" fill="#614335"><g transform="translate(0,0)" id="x16"><rect x="0" y="0" width="264" height="280"/></g></g> <path id="x31" d="M156,79 L156,102 C156,132.927946 130.927946,158 100,158 C69.072054,158 44,132.927946 44,102 L44,79 L44,94 C44,124.927946 69.072054,150 100,150 C130.927946,150 156,124.927946 156,94 L156,79 Z" fill-opacity="0.1" fill="#000000" mask="url('#x26')"/></g><g id="x54" transform="translate(0,170)"><defs><path id="x20" d="M94,29.6883435 L94,74 L170,74 L170,29.6883435 C179.362956,30.9893126 188.149952,34.0907916 196.00002,38.6318143 L196,110 L187,110 L77,110 L68,110 L68,38.6318027 C75.8500482,34.0907916 84.6370437,30.9893126 94,29.6883435 Z"/></defs><mask id="x29" fill="#FFFFFF"><use xlink:href="#x20"/></mask><use id="x51" fill="#B7C1DB" fill-rule="evenodd" xlink:href="#x20"/><g id="py-avataaars-clothes-clothe-color-palette-pastel_yellow" mask="url('#x29')" fill-rule="evenodd" fill="#FFFFB1"><rect id="x55" x="0" y="0" width="264" height="110"/></g> <circle id="x53" fill="#F4F4F4" fill-rule="evenodd" cx="81" cy="83" r="5"/><circle id="x52" fill="#F4F4F4" fill-rule="evenodd" cx="183" cy="83" r="5"/></g><g id="x50" transform="translate(76,82)" fill="#000000"><g id="x43" transform="translate(2,52)"><g id="x42" opacity="0.6" stroke-width="1" transform="translate(28,6)" fill-opacity="0.6" fill="#000000"><path id="x56" d="M16.1906378,10.106319 C16.0179484,4.99553347 11.7923466,0.797193688 6.29352385,0 C9.66004124,1.95870633 11.9804619,5.49520667 11.9804619,9.67694348 C11.9804619,15.344608 6.50694731,20.2451296 0.176591694,20.2451296 C0.11761218,20.2451296 0.0587475828,20.2447983 0,20.244138 L8.8963743e-11,20.244138 C1.35764479,20.7317259 2.83995964,21 4.39225962,21 C9.71395931,21 14.2131224,17.8469699 15.6863572,13.5136402 C18.1609431,15.6698775 21.8629994,17.0394229 26,17.0394229 C30.1370006,17.0394229 33.8390569,15.6698775 36.3136428,13.5136402 C37.7868776,17.8469699 42.2860407,21 47.6077404,21 C49.1600404,21 50.6423552,20.7317259 52,20.244138 L52,20.244138 C51.9412524,20.2447983 51.8823878,20.2451296 51.8234083,20.2451296 C45.4930527,20.2451296 40.0195381,15.344608 40.0195381,9.67694348 C40.0195381,5.49520667 42.3399588,1.95870633 45.7064761,0 C40.2076534,0.797193688 35.9820516,4.99553347 35.8093622,10.106319 C33.2452605,11.8422828 29.7948543,12.9056086 26,12.9056086 C22.2051457,12.9056086 18.7547395,11.8422828 16.1906378,10.106319 Z"/></g><circle id="x41" fill-opacity="0.2" fill="#FF4646" cx="17" cy="15" r="9"/><circle id="x40" fill-opacity="0.2" fill="#FF4646" cx="91" cy="15" r="9"/></g><g id="x39" transform="translate(28,40)" fill-opacity="0.16"><path id="x38" d="M16,8 C16,12.418278 21.372583,16 28,16 L28,16 C34.627417,16 40,12.418278 40,8"/></g><g id="x46" transform="translate(0,8)" fill-opacity="0.6"><path id="x45" d="M16.1601674,32.4473116 C18.006676,28.648508 22.1644225,26 26.9975803,26 C31.8136766,26 35.9591217,28.629842 37.8153518,32.4071242 C38.3667605,33.5291977 37.5821037,34.4474817 36.790607,33.7670228 C34.3395063,31.6597833 30.8587163,30.3437884 26.9975803,30.3437884 C23.2572061,30.3437884 19.8737584,31.5787519 17.4375392,33.5716412 C16.5467928,34.3002944 15.6201012,33.5583844 16.1601674,32.4473116 Z" transform="translate(27,30) scale(1, -1) translate(-27,-30)"/><path id="x44" d="M74.1601674,32.4473116 C76.006676,28.648508 80.1644225,26 84.9975803,26 C89.8136766,26 93.9591217,28.629842 95.8153518,32.4071242 C96.3667605,33.5291977 95.5821037,34.4474817 94.790607,33.7670228 C92.3395063,31.6597833 88.8587163,30.3437884 84.9975803,30.3437884 C81.2572061,30.3437884 77.8737584,31.5787519 75.4375392,33.5716412 C74.5467928,34.3002944 73.6201012,33.5583844 74.1601674,32.4473116 Z" transform="translate(85,30) scale(1, -1) translate(-85,-30)"/></g><g id="x49" fill-opacity="0.6"><path id="x48" d="M44.8565785,12.2282877 C44.8578785,12.2192877 44.8578785,12.2192877 44.8565785,12.2282877 M17.5862288,7.89238094 C15.2441598,8.3302947 13.0866155,9.78806858 12.1523766,12.0987479 C11.8009169,12.967391 11.3917103,14.9243181 11.7083227,15.8073302 C11.8284629,16.14295 12.0332321,16.1008692 12.9555234,16.0430509 C14.643791,15.9369937 16.9330912,13.6622369 18.7484684,13.2557982 C21.2753939,12.6899315 23.9825295,13.1148447 26.4961798,13.6882381 C30.8109365,14.6725177 36.4854008,17.7875215 40.9461842,16.1699775 C41.2783949,16.0495512 45.6210294,12.9225732 44.3685187,12.2769925 C43.9238011,11.9068186 41.1370145,12.0854053 40.6216067,11.9988489 C38.2277647,11.5971998 35.7297127,10.9345131 33.373373,10.3265657 C28.2329017,9.00016592 22.9666484,6.88073171 17.5862288,7.89238094" transform="translate(28.094701, 12.127505) rotate(17.0) translate(-28.094701, -12.127505)"/><path id="x47" d="M100.918293,12.2094196 C100.919593,12.2004196 100.919593,12.2004196 100.918293,12.2094196 M73.5862288,7.89238094 C71.2441598,8.3302947 69.0866155,9.78806858 68.1523766,12.0987479 C67.8009169,12.967391 67.3917103,14.9243181 67.7083227,15.8073302 C67.8284629,16.14295 68.0332321,16.1008692 68.9555234,16.0430509 C70.643791,15.9369937 72.9330912,13.6622369 74.7484684,13.2557982 C77.2753939,12.6899315 79.9825295,13.1148447 82.4961798,13.6882381 C86.8109365,14.6725177 92.4854008,17.7875215 96.9461842,16.1699775 C97.2783949,16.0495512 101.621029,12.9225732 100.368519,12.2769925 C99.9238011,11.9068186 97.1370145,12.0854053 96.6216067,11.9988489 C94.2277647,11.5971998 91.7297127,10.9345131 89.373373,10.3265657 C84.2329017,9.00016592 78.9666484,6.88073171 73.5862288,7.89238094" transform="translate(84.094701, 12.127505) scale(-1, 1) rotate(17.0) translate(-84.094701, -12.127505)"/></g></g><g id="x0"><defs><rect id="x18" x="0" y="0" width="264" height="280"/><path id="x24" d="M120,54 L20,54 L20,155 C20,160.522847 15.5228475,165 10,165 C4.4771525,165 6.76353751e-16,160.522847 0,155 L0,54 L0,44 C-2.9759565e-15,19.699471 19.699471,4.46393476e-15 44,0 L96,0 C120.300529,-4.46393476e-15 140,19.699471 140,44 L140,54 L140,155 C140,160.522847 135.522847,165 130,165 C124.477153,165 120,160.522847 120,155 L120,54 Z"/><filter id="x36" x="-0.8%" y="-2.8%" width="101.7%" height="111.1%" filterUnits="objectBoundingBox"><feOffset dx="0" dy="2" in="SourceAlpha" result="shadowOffsetOuter1"/><feColorMatrix values="0 0 0 0 0 0 0 0 0 0 0 0 0 0 0 0 0 0 0.1 0" type="matrix" in="shadowOffsetOuter1"/></filter><rect id="x25" x="74" y="50" width="118" height="36" rx="8"/></defs><mask id="x30" fill="#FFFFFF"><use xlink:href="#x25"/></mask><g id="x1"/><g id="x6" transform="translate(-1,0)"><g id="x5" stroke-width="1" fill-rule="evenodd" transform="translate(63,20)"><path id="x2" d="M1,48 L23.6714286,48 L23.6714286,153.664286 C23.6714286,159.924828 18.5962564,165 12.3357143,165 C6.07517216,165 1,159.924828 1,153.664286 L1,48 Z M116.328571,48 L139,48 L139,153.664286 C139,159.924828 133.924828,165 127.664286,165 C121.403744,165 116.328571,159.924828 116.328571,153.664286 L116.328571,48 Z" fill="#F4F4F4"/><mask id="x28" fill="#FFFFFF"><use xlink:href="#x24"/></mask><use id="x3" fill="#D8D8D8" xlink:href="#x24"/><g id="py-avataaars-top-hat-color-pastel_green" mask="url('#x28')" fill-rule="evenodd" fill="#A7FFC4"><rect id="x7" x="0" y="0" width="264" height="280"/></g> </g><g id="x4"><use fill="#000000" fill-opacity="1" filter="url('#x24')" xlink:href="#x25"/><use fill="#F4F4F4" fill-rule="evenodd" xlink:href="#x25"/></g><g id="x10" transform="translate(49,72)"><defs><path id="x19" d='M105.017591,94.1296214 C101.150441,99.7213834 98.257542,95.9467308 94.1374777,92.8762163 C91.6567227,91.0272796 87.9608129,88.7275108 84.5044337,88.8410391 C81.0477114,88.7275108 77.3518016,91.0272796 74.8710466,92.8762163 C70.7509822,95.9467308 67.8580835,99.7213834 63.9909333,94.1296214 C61.0884259,89.9323547 62.3028943,82.8739117 65.014944,78.9027173 C68.8738581,73.2512381 74.1088724,75.9847769 79.9622738,75.3400279 C81.5538829,75.1648137 83.1526985,74.7228407 84.5044337,74 C85.856169,74.7228407 87.4546414,75.1648137 89.0462504,75.3400279 C94.899995,75.9847769 100.134666,73.2512381 103.993923,78.9027173 C106.70563,82.8739117 107.920098,89.9323547 105.017591,94.1296214 M140.39109,26 C136.966521,40.0748212 135.393023,54.4337754 132.909944,68.6711471 C132.392536,71.6390145 131.826063,74.5963095 131.224594,77.5496398 C131.098329,78.1697764 130.973781,80.4725746 130.362704,80.7643064 C128.511632,81.6484223 124.739149,76.9466834 123.730409,75.8851496 C121.196893,73.219256 118.684993,70.5292442 115.599415,68.437233 C109.364783,64.2102603 102.065485,61.7108818 94.4700836,61.117837 C91.2922091,60.8693859 86.9951134,61.3025234 84.000116,63.1104016 C81.0051185,61.3025234 76.7080229,60.8693859 73.5298053,61.117837 C65.9344039,61.7108818 58.6351055,64.2102603 52.4004739,68.437233 C49.3148957,70.5292442 46.8033387,73.219256 44.2694796,75.8851496 C43.2607395,76.9466834 39.4882573,81.6484223 37.6371849,80.7643064 C37.0261079,80.4725746 36.9015594,78.1697764 36.7752954,77.5496398 C36.1738255,74.5963095 35.6073527,71.6390145 35.0899445,68.6711471 C32.6072086,54.4337754 31.0337113,40.0748212 27.6091415,26 C26.6127533,26 25.7385119,44.7478165 25.6273446,46.4945731 C25.174784,53.5889755 24.6463963,60.5254529 25.3216346,67.6261326 C26.485803,79.8749043 27.6993791,95.2339402 37.032627,104.58753 C45.4659003,113.039493 57.7103052,114.806417 68.2713185,120.141327 C69.631059,120.828202 71.4347824,121.676306 73.3798667,122.37111 C75.4289129,123.934171 79.4926946,125 84.1740722,125 C89.0846465,125 93.3155222,123.827456 95.2540874,122.137856 C96.9548781,121.49261 98.5180822,120.752874 99.7285704,120.141327 C110.288776,114.805245 122.533989,113.039493 130.967262,104.58753 C140.30051,95.2339402 141.514086,79.8749043 142.678597,67.6261326 C143.353493,60.5254529 142.825105,53.5889755 142.372887,46.4945731 C142.261377,44.7478165 141.387136,26 140.39109,26 Z' /></defs><mask id="x27" fill="#FFFFFF"><use xlink:href="#x19"/></mask><use id="x9" fill="#252E32" fill-rule="evenodd" xlink:href="#x19"/><g id="color-facial-hair-blonde_golden" mask="url('#x27')" fill="#D6B370"><g transform="translate(-32,0)" id="x8"><rect x="0" y="0" width="264" height="244"/></g></g></g><g id="x15" fill="none" transform="translate(62,85)" stroke-width="1"><defs><filter id="x37" x="-0.8%" y="-2.4%" width="101.5%" height="109.8%" filterUnits="objectBoundingBox"><feOffset dx="0" dy="2" in="SourceAlpha" result="shadowOffsetOuter1"/><feColorMatrix values="0 0 0 0 0 0 0 0 0 0 0 0 0 0 0 0 0 0 0.2 0" type="matrix" in="shadowOffsetOuter1" result="shadowMatrixOuter1"/><feMerge><feMergeNode in="shadowMatrixOuter1"/><feMergeNode in="SourceGraphic"/></feMerge></filter></defs><g id="x11" filter="url('#x37')" transform="translate(6,7)" fill="#252C2F"><path id="x14" d="M34,41 L31.2421498,41 C17.3147125,41 9,33.3359286 9,20.5 C9,10.127 10.8170058,0 32.5299306,0 L35.4700694,0 C57.1829942,0 59,10.127 59,20.5 C59,32.5686429 48.7212748,41 34,41 Z M32.3853606,6 C13,6 13,12.8410159 13,21.5015498 C13,28.5719428 16.116254,37 30.9709365,37 L34,37 C46.3649085,37 55,30.6270373 55,21.5015498 C55,12.8410159 55,6 35.6146394,6 L32.3853606,6 Z" fill-rule="nonzero"/><path id="x13" d="M96,41 L93.2421498,41 C79.3147125,41 71,33.3359286 71,20.5 C71,10.127 72.8170058,0 94.5299306,0 L97.4700694,0 C119.182994,0 121,10.127 121,20.5 C121,32.5686429 110.721275,41 96,41 Z M94.3853606,6 C75,6 75,12.8410159 75,21.5015498 C75,28.5719428 78.1194833,37 92.9709365,37 L96,37 C108.364909,37 117,30.6270373 117,21.5015498 C117,12.8410159 117,6 97.6146394,6 L94.3853606,6 Z" fill-rule="nonzero"/><path id="x12" d="M2.95454545,5.77156439 C3.64590909,5.09629136 11.2095455,0 32.5,0 C50.3513636,0 54.1302273,1.85267217 59.8502273,4.6518809 L60.2689233,4.85850899 C60.6666014,4.99901896 62.7002447,5.68982981 65.0790606,5.76579519 C67.2462948,5.67278567 69.1000195,5.08540191 69.641698,4.89719767 C76.1703915,1.7220864 82.5610971,0 97.5,0 C118.790455,0 126.354091,5.09629136 127.045455,5.77156439 C128.679318,5.77156439 130,7.06150904 130,8.65734659 L130,11.5431288 C130,13.1389663 128.679318,14.428911 127.045455,14.428911 C127.045455,14.428911 120.143997,14.428911 120.143997,17.3146932 C120.143997,20.2004754 118.181818,13.1389663 118.181818,11.5431288 L118.181818,8.73240251 C114.578575,7.35340151 108.128411,4.78617535 97.5,4.78617535 C85.6584651,4.78617535 79.7610984,6.88602813 74.7022935,8.97112368 L74.7588636,9.10752861 L74.7563667,11.0937608 L72.5391666,16.4436339 L69.8004908,15.3608351 C69.5558969,15.2641292 69.0281396,15.090392 68.2963505,14.9099044 C66.256272,14.4067419 64.1589087,14.253569 62.3040836,14.6343084 C61.6235903,14.7739931 60.9922286,14.9836085 60.4128127,15.266732 L57.7704824,16.5578701 L55.1266751,11.3962031 L55.2440909,9.10175705 L55.3248203,8.90683855 C50.9620526,6.87386374 46.9392639,4.78617535 32.5,4.78617535 C21.8721459,4.78617535 15.422131,7.3524397 11.8181818,8.7314671 L11.8181818,11.5431288 C11.8181818,13.1389663 8.86363636,20.2004754 8.86363636,17.3146932 C8.86363636,14.428911 2.95454545,14.428911 2.95454545,14.428911 C1.32363636,14.428911 0,13.1389663 0,11.5431288 L0,8.65734659 C0,7.06150904 1.32363636,5.77156439 2.95454545,5.77156439 Z" fill-rule="nonzero"/></g></g> </g></g> </g></g></g></g></svg>