<?xml version="1.0" encoding="utf-8" ?><!DOCTYPE svg PUBLIC "-//W3C//DTD SVG 1.1//EN" "http://www.w3.org/Graphics/SVG/1.1/DTD/svg11.dtd"><svg width="280px" height="280px" viewBox="-6 0 274 280" version="1.1" xmlns="http://www.w3.org/2000/svg" xmlns:xlink="http://www.w3.org/1999/xlink"><desc>Py-Avataaars</desc> <g id="x41" stroke="none" stroke-width="1" fill="none" fill-rule="evenodd"><defs><circle id="x20" cx="120" cy="120" r="120"/><path id="x28" d="M12,160 C12,226.27417 65.72583,280 132,280 C198.27417,280 252,226.27417 252,160 L264,160 L264,-1.42108547e-14 L-3.19744231e-14,-1.42108547e-14 L-3.19744231e-14,160 L12,160 Z"/><path id="x26" d="M124,144.610951 L124,163 L128,163 L128,163 C167.764502,163 200,195.235498 200,235 L200,244 L0,244 L0,235 C-4.86974701e-15,195.235498 32.235498,163 72,163 L72,163 L76,163 L76,144.610951 C58.7626345,136.422372 46.3722246,119.687011 44.3051388,99.8812385 C38.4803105,99.0577866 34,94.0521096 34,88 L34,74 C34,68.0540074 38.3245733,63.1180731 44,62.1659169 L44,56 L44,56 C44,25.072054 69.072054,5.68137151e-15 100,0 L100,0 L100,0 C130.927946,-5.68137151e-15 156,25.072054 156,56 L156,62.1659169 C161.675427,63.1180731 166,68.0540074 166,74 L166,88 C166,94.0521096 161.51969,99.0577866 155.694861,99.8812385 C153.627775,119.687011 141.237365,136.422372 124,144.610951 Z"/></defs><g id="x39" transform="translate(-825,-1100)"><g transform="translate(825,1100)"> <g id="x40" stroke-width="1" fill-rule="evenodd" mask="url('#py-avataaars-path-2c2f4436-c0a6-418b-95f1-416acce5c455')"><g id="x38" transform="translate(32,36)"><mask id="x30" fill="#FFFFFF"><use xlink:href="#x26"/></mask><use fill="#D0C6AC" xlink:href="#x26"/><g id="x18" mask="url('#x30')" fill="#FFDBB4"><g transform="translate(0,0)" id="x19"><rect x="0" y="0" width="264" height="280"/></g></g> <path id="x37" d="M156,79 L156,102 C156,132.927946 130.927946,158 100,158 C69.072054,158 44,132.927946 44,102 L44,79 L44,94 C44,124.927946 69.072054,150 100,150 C130.927946,150 156,124.927946 156,94 L156,79 Z" fill-opacity="0.1" fill="#000000" mask="url('#x30')"/></g><g id="x67" transform="translate(0,170)"><defs><path id="x24" d="M133.960472,0.294916112 C170.936473,3.32499816 200,34.2942856 200,72.0517235 L200,81 L0,81 L0,72.0517235 C1.22536245e-14,33.9525631 29.591985,2.76498122 67.0454063,0.219526408 C67.0152598,0.593114549 67,0.969227185 67,1.34762511 C67,13.2107177 81.9984609,22.8276544 100.5,22.8276544 C119.001539,22.8276544 134,13.2107177 134,1.34762511 C134,0.994669088 133.986723,0.64370138 133.960472,0.294916112 Z"/></defs><g id="x58" transform="translate(32,29)"><mask id="x36" fill="#FFFFFF"><use xlink:href="#x24"/></mask><use id="x64" fill="#E6E6E6" xlink:href="#x24"/><g id="x63" mask="url('#x36')" fill="#262E33"><g transform="translate(-32,-29)" id="x66"><rect x="0" y="0" width="264" height="110"/></g></g><g id="x59" opacity="0.6" mask="url('#x36')" fill-opacity="0.16" fill="#000000"><g transform="translate(60,-25)" id="x62"><ellipse cx="40.5" cy="27.8476251" rx="39.6351047" ry="26.9138272"/></g></g></g><g id="x65" transform="translate(32,28)"><path id="x60" d="M68.784807,1.12222847 C30.512317,2.80409739 -1.89486556e-14,34.3646437 -1.42108547e-14,73.0517235 L0,73.0517235 L0,82 L69.3616767,82 C65.9607412,69.9199941 64,55.7087296 64,40.5 C64,26.1729736 65.7399891,12.7311115 68.784807,1.12222847 Z M131.638323,82 L200,82 L200,73.0517235 C200,34.7067641 170.024954,3.36285166 132.228719,1.17384225 C135.265163,12.7709464 137,26.1942016 137,40.5 C137,55.7087296 135.039259,69.9199941 131.638323,82 Z" fill="#3A4C5A"/><path id="x61" d="M149,58 L158.555853,50.83311 L158.555853,50.83311 C159.998897,49.7508275 161.987779,49.7682725 163.411616,50.8757011 L170,56 L149,58 Z" fill="#E6E6E6"/><path id="x57" d="M69,1.13686838e-13 C65,19.3333333 66.6666667,46.6666667 74,82 L58,82 L44,46 L50,37 L44,31 L63,1 C65.027659,0.369238637 67.027659,0.0359053037 69,1.13686838e-13 Z" fill="#2F4351"/><path id="x56" d="M151,1.13686838e-13 C147,19.3333333 148.666667,46.6666667 156,82 L140,82 L126,46 L132,37 L126,31 L145,1 C147.027659,0.369238637 149.027659,0.0359053037 151,1.13686838e-13 Z" fill="#2F4351" transform="translate(141,41) scale(-1, 1) translate(-141,-41)"/></g></g><g id="x55" transform="translate(76,82)" fill="#000000"><g id="x48" transform="translate(2,52)"><defs><path id="x21" d="M35.117844,15.1280772 C36.1757121,24.6198025 44.2259873,32 54,32 C63.8042055,32 71.8740075,24.574136 72.8917593,15.0400546 C72.9736685,14.272746 72.1167429,13 71.042767,13 C56.1487536,13 44.7379213,13 37.0868244,13 C36.0066168,13 35.0120058,14.1784435 35.117844,15.1280772 Z"/><rect id="x27" x="39" y="2" width="31" height="16" rx="5"/></defs><mask id="x31" fill="#FFFFFF"><use xlink:href="#x21"/></mask><use id="x47" fill-opacity="0.7" fill="#000000" fill-rule="evenodd" xlink:href="#x21"/><use id="x46" stroke-width="1" fill-rule="evenodd" mask="url('#x31')" fill="#FFFFFF" xlink:href="#x27"/><g id="x45" stroke-width="1" fill-rule="evenodd" mask="url('#x31')" fill="#FF4F6D"><g transform="translate(38,24)"><circle cx="11" cy="11" r="11"/><circle cx="21" cy="11" r="11"/></g></g></g><g id="x44" transform="translate(28,40)" fill-opacity="0.16"><path id="x43" d="M16,8 C16,12.418278 21.372583,16 28,16 L28,16 C34.627417,16 40,12.418278 40,8"/></g><g id="x51" transform="translate(0,8)" fill-opacity="0.6"><circle id="x50" cx="30" cy="22" r="6"/><path id="x49" d="M70.4123979,24.204889 C72.2589064,20.4060854 76.4166529,17.7575774 81.2498107,17.7575774 C86.065907,17.7575774 90.2113521,20.3874194 92.0675822,24.1647016 C92.618991,25.2867751 91.8343342,26.2050591 91.0428374,25.5246002 C88.5917368,23.4173607 85.1109468,22.1013658 81.2498107,22.1013658 C77.5094365,22.1013658 74.1259889,23.3363293 71.6897696,25.3292186 C70.7990233,26.0578718 69.8723316,25.3159619 70.4123979,24.204889 Z" transform="translate(81.252230, 21.757577) rotate(-4.0) translate(-81.252230, -21.757577)"/></g><g id="x54" fill-opacity="0.6" fill-rule="nonzero"><path id="x53" d="M15.6114904,15.1845247 C19.8515017,9.41618792 22.4892046,9.70087612 28.9238518,14.5564693 C29.1057771,14.6937504 29.2212592,14.7812575 29.5936891,15.063789 C34.4216439,18.7263562 36.7081807,20 40,20 C41.1045695,20 42,19.1045695 42,18 C42,16.8954305 41.1045695,16 40,16 C37.9337712,16 36.0986396,14.9777974 32.011227,11.8770179 C31.6358269,11.5922331 31.5189458,11.5036659 31.3332441,11.3635351 C27.5737397,8.52660822 25.3739873,7.28738405 22.6379899,6.99208688 C18.9538127,6.59445233 15.5799484,8.47367246 12.3885096,12.8154753 C11.7343147,13.7054768 11.9254737,14.9572954 12.8154753,15.6114904 C13.7054768,16.2656853 14.9572954,16.0745263 15.6114904,15.1845247 Z"/><path id="x52" d="M73.6114904,15.1845247 C77.8515017,9.41618792 80.4892046,9.70087612 86.9238518,14.5564693 C87.1057771,14.6937504 87.2212592,14.7812575 87.5936891,15.063789 C92.4216439,18.7263562 94.7081807,20 98,20 C99.1045695,20 100,19.1045695 100,18 C100,16.8954305 99.1045695,16 98,16 C95.9337712,16 94.0986396,14.9777974 90.011227,11.8770179 C89.6358269,11.5922331 89.5189458,11.5036659 89.3332441,11.3635351 C85.5737397,8.52660822 83.3739873,7.28738405 80.6379899,6.99208688 C76.9538127,6.59445233 73.5799484,8.47367246 70.3885096,12.8154753 C69.7343147,13.7054768 69.9254737,14.9572954 70.8154753,15.6114904 C71.7054768,16.2656853 72.9572954,16.0745263 73.6114904,15.1845247 Z" transform="translate(84.999934, 13.470064) scale(-1, 1) translate(-84.999934, -13.470064)"/></g></g><g id="x0" stroke-width="1" fill-rule="evenodd"><defs><rect id="x25" x="0" y="0" width="264" height="280"/><path id="x23" d="M222.384814,182.806274 C217.011239,188.518122 211.648364,192.127879 211.831204,198 C212.148076,209.888877 255.439069,245.051165 216.999964,267.00001 L16.0053198,267 C-22.4337677,245.051165 20.8572256,209.888877 21.1740982,198 C21.3569373,192.127879 15.9940628,188.518122 10.6204878,182.806274 C5.24691269,177.094426 -0.137362978,169.280486 0.00267373922,155 C0.944497502,125.971596 31.3716806,128.588232 31.2026676,109 C31.3716806,89.9992744 19.8139454,82.1607482 31.2026676,46 C42.8395963,9.53932757 72.9165934,0.768171773 116.002651,0.0159928999 L116.002651,0 C116.16951,0.002426813 116.336177,0.0049705256 116.502651,0.0076322645 C116.669125,0.0049705256 116.835791,0.002426813 117.002651,0 L117.002651,0.0159928999 C160.088708,0.768171773 190.165705,9.53932757 201.802634,46 C213.191356,82.1607482 201.633621,89.9992744 201.802634,109 C201.633621,128.588232 232.060804,125.971596 233.002628,155 C233.142665,169.280486 227.758389,177.094426 222.384814,182.806274 Z M182.884023,95.3249541 C161.364085,83.7373848 142.890027,67.1442914 130.845581,48.302359 C112.763849,73.9237118 76.5299076,78.5347548 51.2240944,94.679971 C51.0770557,95.4306015 51,96.2063021 51,97 L51,110 C51,116.018625 55.4308707,121.002364 61.2085808,121.867187 C62.9518066,142.114792 75.4692178,159.282984 93,167.610951 L93,186 L89,186 L89,186 C49.235498,186 17,218.235498 17,258 L17,267 L217,267 L217,258 C217,218.235498 184.764502,186 145,186 L141,186 L141,167.610951 C158.530782,159.282984 171.048193,142.114792 172.791419,121.867187 C178.569129,121.002364 183,116.018625 183,110 L183,97 C183,96.4315537 182.960475,95.8723389 182.884023,95.3249541 Z"/><path id="x22" d="M222.384814,182.806274 C217.011239,188.518122 211.648364,192.127879 211.831204,198 C212.148076,209.888877 255.439069,245.051165 216.999964,267.00001 L16.0053198,267 C-22.4337677,245.051165 20.8572256,209.888877 21.1740982,198 C21.3569373,192.127879 15.9940628,188.518122 10.6204878,182.806274 C5.24691269,177.094426 -0.137362978,169.280486 0.00267373922,155 C0.944497502,125.971596 31.3716806,128.588232 31.2026676,109 C31.3716806,89.9992744 19.8139454,82.1607482 31.2026676,46 C42.8395963,9.53932757 72.9165934,0.768171773 116.002651,0.0159928999 L116.002651,0 C116.16951,0.002426813 116.336177,0.0049705256 116.502651,0.0076322645 C116.669125,0.0049705256 116.835791,0.002426813 117.002651,0 L117.002651,0.0159928999 C160.088708,0.768171773 190.165705,9.53932757 201.802634,46 C213.191356,82.1607482 201.633621,89.9992744 201.802634,109 C201.633621,128.588232 232.060804,125.971596 233.002628,155 C233.142665,169.280486 227.758389,177.094426 222.384814,182.806274 Z M93,186 L89,186 L89,186 C49.235498,186 17,218.235498 17,258 L17,267 L217,267 L217,258 C217,218.235498 184.764502,186 145,186 L141,186 L141,140 L93,140 L93,186 Z"/></defs><mask id="x35" fill="#FFFFFF"><use xlink:href="#x25"/></mask><g id="x4"/><g id="x7" mask="url('#x35')"><g transform="translate(-1,0)"><g id="x6" stroke-width="1" fill="none" fill-rule="evenodd" transform="translate(16,13)"><mask id="x33" fill="#FFFFFF"><use xlink:href="#x23"/></mask><use fill="#314756" xlink:href="#x23"/><g id="x8" mask="url('#x33')" fill="#2C1B18"><g transform="translate(0,0) " id="x9"><rect x="0" y="0" width="264" height="280"/></g></g> </g><g id="x3" stroke-width="1" fill="none" fill-rule="evenodd" transform="translate(16,13)"><mask id="x32" fill="#FFFFFF"><use xlink:href="#x22"/></mask><g id="x1"/><path id="x2" d="M30.0988695,115.056827 C27.7250732,118.08281 24.5296181,122.528485 24.3618393,122.19381 C26.2345006,119.810609 27.3747977,117.011661 27.3409475,113.436088 C27.517612,95.334874 15.4366324,87.8674306 27.3409475,53.4185647 C28.0096512,51.5090274 29.1070085,49.7044671 30.585889,48.0048838 C20.2433352,82.4586863 31.3685109,90.3556196 31.2026676,109 C31.2224682,111.294844 30.8223327,113.284923 30.0988695,115.056827 Z M202.419413,48.0048838 C203.898293,49.7044671 204.995651,51.5090274 205.664354,53.4185647 C215.822041,82.8130155 208.516445,92.5627534 206.263744,106.036479 C205.964379,106.841192 206.195125,107.789747 205.880216,108.603009 C175.207016,98.1454461 147.589972,78.5596292 131.494917,55.6119279 C108.710969,85.0357527 58.3544031,85.3732378 33.6737341,110.936101 C34.0607045,110.391798 34.4280855,109.884956 34.7584999,109.446288 C57.2940449,79.527377 108.24688,80.3241416 130.845581,48.302359 C146.243536,72.3904102 172.664446,92.9495135 202.009146,103.926748 C202.310417,103.073073 202.089664,102.077381 202.376063,101.232679 C204.483829,87.4002546 211.215481,77.3069293 202.419413,48.0048838 Z" fill-opacity="0.16" fill="#000000" mask="url('#x32')"/></g><path id="x5" d="M50.7584999,122.446288 C73.2940449,92.527377 124.24688,93.3241416 146.845581,61.302359 C162.243536,85.3904102 188.664446,105.949514 218.009146,116.926748 C218.310417,116.073073 218.089664,115.077381 218.376063,114.232679 C220.531197,100.089398 227.520377,89.8551619 217.802634,59 C206.165705,22.5393276 176.088708,13.7681718 133.002651,13.0159929 C132.336177,13.0049705 132.16951,13.0024268 132.002651,13 C88.9165934,13.7681718 58.8395963,22.5393276 47.2026676,59 C35.8139454,95.1607482 47.3716806,102.999274 47.2026676,122 C47.2350518,125.753256 46.1441426,128.691293 44.3525888,131.192923 C44.5361111,131.59459 48.5061717,125.436551 50.7584999,122.446288 Z" fill-opacity="0.1" fill="#FFFFFF" fill-rule="evenodd"/><g id="x12" transform="translate(49,72)"><defs><path id="x29" d="M65.1802189,77.7372986 C67.3631845,76.1045334 80.4065113,75.4786511 82.757829,74.0894494 C83.4916461,73.6553857 84.0610723,73.215719 84.4997781,72.7800074 C84.938814,73.215719 85.5085703,73.6553857 86.2423874,74.0894494 C88.593375,75.4786511 101.636702,76.1045334 103.819667,77.7372986 C106.030032,79.3908276 107.643571,83.1846831 107.466966,86.15095 C107.255041,89.7101408 103.361486,98.2028927 93.6723269,99.1811016 C91.5576925,96.8281927 88.2368647,95.3104528 84.4997781,95.3104528 C80.7633517,95.3104528 77.4421938,96.8281927 75.3275594,99.1811016 C65.6387308,98.2028927 61.7451757,89.7101408 61.5332501,86.15095 C61.3566455,83.1846831 62.9701849,79.3908276 65.1802189,77.7372986 M103.141638,94.9063813 C103.142958,94.9057221 103.144609,94.905063 103.145929,94.9047334 C103.144278,94.905063 103.142958,94.9057221 103.141638,94.9063813 M65.8453747,94.9014375 C65.8493359,94.9030855 65.8565982,94.9057221 65.8618798,94.9076997 C65.8565982,94.9057221 65.8509864,94.9034151 65.8453747,94.9014375 M144.86259,55.9853335 C144.47439,50.0303878 143.277769,44.1519058 142.233986,38.2862777 C141.952739,36.7072349 140.423706,26 139.734783,26 C139.502391,35.1094058 138.701893,44.0803858 137.669664,53.1393651 C137.361018,55.8475668 137.037848,58.5564277 136.825262,61.2741874 C136.653609,63.4695546 136.959614,66.1220564 136.427819,68.2455739 C135.749129,70.9524573 132.348087,73.4783984 129.702978,74.410795 C123.102915,76.7373371 117.597802,67.1077689 111.960977,64.2911336 C104.643272,60.6347152 92.0637391,59.7639895 84.5816434,64.5297918 C76.9361472,59.7639895 64.356614,60.6347152 57.0389092,64.2911336 C51.4024147,67.1077689 45.8969708,76.7373371 39.2972383,74.410795 C36.6521296,73.4783984 33.2504268,70.9524573 32.572397,68.2455739 C32.0402723,66.1220564 32.346277,63.4695546 32.174954,61.2741874 C31.9623682,58.5564277 31.6388681,55.8475668 31.3302226,53.1393651 C30.2983232,44.0803858 29.4974953,35.1094058 29.2654335,26 C28.5761802,26 27.0468169,36.7072349 26.7658999,38.2862777 C25.7221169,44.1519058 24.5258266,50.0303878 24.1376265,55.9853335 C23.738533,62.1047422 24.2148704,68.1674622 25.4695887,74.1632765 C26.0687242,77.0277016 26.7685407,79.8756475 27.518863,82.7041478 C28.352701,85.8467429 27.198994,91.9661516 27.5723395,95.1921317 C28.2787581,101.29572 31.1542781,113.199679 34.3833375,118.45096 C35.9440605,120.989096 37.7734867,122.573742 39.816489,124.619148 C41.7825775,126.58809 42.6038717,129.640049 44.7260985,131.73687 C48.6820428,135.645092 54.4456266,137.971304 60.3656788,138.543134 C65.6773527,143.050212 74.505605,146 84.4997781,146 C94.4946114,146 103.322534,143.050212 108.634538,138.543134 C114.55393,137.971304 120.317843,135.645092 124.274118,131.73687 C126.396015,129.640049 127.217309,126.58809 129.183727,124.619148 C131.2264,122.573742 133.055826,120.989096 134.616879,118.45096 C137.845608,113.199679 140.721458,101.29572 141.427547,95.1921317 C141.800892,91.9661516 140.647185,85.8467429 141.481353,82.7041478 C142.231676,79.8756475 142.931162,77.0277016 143.530628,74.1632765 C144.784686,68.1674622 145.261353,62.1047422 144.86259,55.9853335 Z"/></defs><mask id="x34" fill="#FFFFFF"><use xlink:href="#x29"/></mask><use id="x11" fill="#5E7AA9" fill-rule="evenodd" xlink:href="#x29"/><g id="x68" mask="url('#x34')" fill="#B58143"><g transform="translate(-32,0)" id="x10"><rect x="0" y="0" width="264" height="244"/></g></g></g><g id="x17" fill="none" transform="translate(62,85)" stroke-width="1"><defs><filter id="x42" x="-0.8%" y="-2.0%" width="101.5%" height="108.0%" filterUnits="objectBoundingBox"><feOffset dx="0" dy="2" in="SourceAlpha" result="shadowOffsetOuter1"/><feColorMatrix values="0 0 0 0 0 0 0 0 0 0 0 0 0 0 0 0 0 0 0.16 0" type="matrix" in="shadowOffsetOuter1" result="shadowMatrixOuter1"/><feMerge><feMergeNode in="shadowMatrixOuter1"/><feMergeNode in="SourceGraphic"/></feMerge></filter></defs><g id="x13" filter="url('#x42')" transform="translate(5,2)"><path id="x14" d="M66,11.1111111 C54.9625586,11.1111111 53.3705645,2.0266011 30.6705882,0.740740741 C7.98552275,-0.283199952 0.815225204,6.4494855 0.776470588,11.1111111 C0.813236892,15.4042795 -0.352293566,26.5612661 14.3647059,39.6296296 C29.1367705,55.1420807 44.2704162,49.8818301 49.6941176,44.8148148 C55.1352081,42.4731118 61.3403442,21.4596351 66,21.4814815 C70.6596558,21.5033279 76.8647919,42.4731118 82.3058824,44.8148148 C87.7295838,49.8818301 102.86323,55.1420807 117.635294,39.6296296 C132.352294,26.5612661 131.186763,15.4042795 131.223529,11.1111111 C131.184775,6.4494855 124.014477,-0.283199952 101.329412,0.740740741 C78.6294355,2.0266011 77.0374414,11.1111111 66,11.1111111 Z" fill="#F4F4F4" fill-rule="nonzero"/><path id="x15" d="M55.1294118,21.4814815 C55.5103632,13.8233491 42.2156493,5.64243259 27.9529412,5.92592593 C13.6973442,6.22450879 11.8417942,15.3786982 11.6470588,18.8888889 C11.2982286,27.0220633 20.014463,45.3037598 36.1058824,44.8148148 C52.1972736,44.305848 54.9092435,26.5344305 55.1294118,21.4814815 Z" fill="#2F383B" fill-rule="nonzero"/><path id="x16" d="M120.352941,21.4814815 C120.733893,13.8233491 107.439179,5.64243259 93.1764706,5.92592593 C78.9208736,6.22450879 77.0653236,15.3786982 76.8705882,18.8888889 C76.521758,27.0220633 85.2379924,45.3037598 101.329412,44.8148148 C117.420803,44.305848 120.132773,26.5344305 120.352941,21.4814815 Z" fill="#2F383B" fill-rule="nonzero" transform="translate(98.611765, 25.370370) scale(-1, 1) translate(-98.611765, -25.370370)"/></g></g> </g></g></g> </g></g></g></g></svg>