<?xml version="1.0" encoding="utf-8" ?><!DOCTYPE svg PUBLIC "-//W3C//DTD SVG 1.1//EN" "http://www.w3.org/Graphics/SVG/1.1/DTD/svg11.dtd"><svg width="280px" height="280px" viewBox="-6 0 274 280" version="1.1" xmlns="http://www.w3.org/2000/svg" xmlns:xlink="http://www.w3.org/1999/xlink"><desc>Py-Avataaars</desc> <g id="x40" stroke="none" stroke-width="1" fill="none" fill-rule="evenodd"><defs><circle id="x28" cx="120" cy="120" r="120"/><path id="x22" d="M12,160 C12,226.27417 65.72583,280 132,280 C198.27417,280 252,226.27417 252,160 L264,160 L264,-1.42108547e-14 L-3.19744231e-14,-1.42108547e-14 L-3.19744231e-14,160 L12,160 Z"/><path id="x29" d="M124,144.610951 L124,163 L128,163 L128,163 C167.764502,163 200,195.235498 200,235 L200,244 L0,244 L0,235 C-4.86974701e-15,195.235498 32.235498,163 72,163 L72,163 L76,163 L76,144.610951 C58.7626345,136.422372 46.3722246,119.687011 44.3051388,99.8812385 C38.4803105,99.0577866 34,94.0521096 34,88 L34,74 C34,68.0540074 38.3245733,63.1180731 44,62.1659169 L44,56 L44,56 C44,25.072054 69.072054,5.68137151e-15 100,0 L100,0 L100,0 C130.927946,-5.68137151e-15 156,25.072054 156,56 L156,62.1659169 C161.675427,63.1180731 166,68.0540074 166,74 L166,88 C166,94.0521096 161.51969,99.0577866 155.694861,99.8812385 C153.627775,119.687011 141.237365,136.422372 124,144.610951 Z"/></defs><g id="x38" transform="translate(-825,-1100)"><g transform="translate(825,1100)"> <g id="x39" stroke-width="1" fill-rule="evenodd" mask="url('#py-avataaars-path-1d133261-35c3-41f0-9b09-a4f189b7d069')"><g id="x37" transform="translate(32,36)"><mask id="x19" fill="#FFFFFF"><use xlink:href="#x29"/></mask><use fill="#D0C6AC" xlink:href="#x29"/><g id="x16" mask="url('#x19')" fill="#D08B5B"><g transform="translate(0,0)" id="x15"><rect x="0" y="0" width="264" height="280"/></g></g> <path id="x36" d="M156,79 L156,102 C156,132.927946 130.927946,158 100,158 C69.072054,158 44,132.927946 44,102 L44,79 L44,94 C44,124.927946 69.072054,150 100,150 C130.927946,150 156,124.927946 156,94 L156,79 Z" fill-opacity="0.1" fill="#000000" mask="url('#x19')"/></g><g id="x67" transform="translate(0,170)"><defs><path id="x26" d="M133.960472,0.294916112 C170.936473,3.32499816 200,34.2942856 200,72.0517235 L200,81 L0,81 L0,72.0517235 C1.22536245e-14,33.9525631 29.591985,2.76498122 67.0454063,0.219526408 C67.0152598,0.593114549 67,0.969227185 67,1.34762511 C67,13.2107177 81.9984609,22.8276544 100.5,22.8276544 C119.001539,22.8276544 134,13.2107177 134,1.34762511 C134,0.994669088 133.986723,0.64370138 133.960472,0.294916112 Z"/></defs><g id="x58" transform="translate(32,29)"><mask id="x33" fill="#FFFFFF"><use xlink:href="#x26"/></mask><use id="x64" fill="#E6E6E6" xlink:href="#x26"/><g id="x63" mask="url('#x33')" fill="#262E33"><g transform="translate(-32,-29)" id="x66"><rect x="0" y="0" width="264" height="110"/></g></g><g id="x59" opacity="0.6" mask="url('#x33')" fill-opacity="0.16" fill="#000000"><g transform="translate(60,-25)" id="x62"><ellipse cx="40.5" cy="27.8476251" rx="39.6351047" ry="26.9138272"/></g></g></g><g id="x65" transform="translate(32,28)"><path id="x60" d="M68.784807,1.12222847 C30.512317,2.80409739 -1.89486556e-14,34.3646437 -1.42108547e-14,73.0517235 L0,73.0517235 L0,82 L69.3616767,82 C65.9607412,69.9199941 64,55.7087296 64,40.5 C64,26.1729736 65.7399891,12.7311115 68.784807,1.12222847 Z M131.638323,82 L200,82 L200,73.0517235 C200,34.7067641 170.024954,3.36285166 132.228719,1.17384225 C135.265163,12.7709464 137,26.1942016 137,40.5 C137,55.7087296 135.039259,69.9199941 131.638323,82 Z" fill="#3A4C5A"/><path id="x61" d="M149,58 L158.555853,50.83311 L158.555853,50.83311 C159.998897,49.7508275 161.987779,49.7682725 163.411616,50.8757011 L170,56 L149,58 Z" fill="#E6E6E6"/><path id="x57" d="M69,1.13686838e-13 C65,19.3333333 66.6666667,46.6666667 74,82 L58,82 L44,46 L50,37 L44,31 L63,1 C65.027659,0.369238637 67.027659,0.0359053037 69,1.13686838e-13 Z" fill="#2F4351"/><path id="x56" d="M151,1.13686838e-13 C147,19.3333333 148.666667,46.6666667 156,82 L140,82 L126,46 L132,37 L126,31 L145,1 C147.027659,0.369238637 149.027659,0.0359053037 151,1.13686838e-13 Z" fill="#2F4351" transform="translate(141,41) scale(-1, 1) translate(-141,-41)"/></g></g><g id="x55" transform="translate(76,82)" fill="#000000"><g id="x48" transform="translate(2,52)"><defs><path id="x18" d="M34.0082051,12.6020819 C35.1280248,23.0929366 38.2345159,31.9944054 53.9961505,31.9999974 C69.757785,32.0055894 72.9169073,23.0424631 73.9942614,12.5047938 C74.0809675,11.6567158 73.1738581,10.9999965 72.0369872,10.9999965 C65.3505138,10.9999965 62.6703194,12.4951994 53.9894323,12.4999966 C45.3085452,12.5047938 40.7567994,10.9999965 36.0924943,10.9999965 C34.9490269,10.9999965 33.8961688,11.5524868 34.0082051,12.6020819 Z"/><path id="x23" d="M59.9170416,36 L60,36 C60,39.3137085 62.6862915,42 66,42 C69.3137085,42 72,39.3137085 72,36 L72,35 L72,31 C72,27.6862915 69.3137085,25 66,25 L66,25 L42,25 L42,25 C38.6862915,25 36,27.6862915 36,31 L36,31 L36,35 L36,38 C36,41.3137085 38.6862915,44 42,44 C45.3137085,44 48,41.3137085 48,38 L48,36 L48.0829584,36 C48.5590365,33.1622867 51.0270037,31 54,31 C56.9729963,31 59.4409635,33.1622867 59.9170416,36 Z"/><filter id="x41" x="-1.4%" y="-2.6%" width="102.8%" height="105.3%" filterUnits="objectBoundingBox"><feOffset in="SourceAlpha" dx="0" dy="-1" result="shadowOffsetInner1"/><feComposite in="shadowOffsetInner1" in2="SourceAlpha" operator="arithmetic" k2="-1" k3="1" result="shadowInnerInner1"/><feColorMatrix values="0 0 0 0 0 0 0 0 0 0 0 0 0 0 0 0 0 0 0.1 0" type="matrix" in="shadowInnerInner1"/></filter><rect id="x21" x="39" y="2" width="31" height="16" rx="5"/></defs><mask id="x31" fill="#FFFFFF"><use xlink:href="#x18" transform="translate(54.0, 21.5) scale(1, -1) translate(-54.0, -21.5)"/></mask><use id="x47" fill-opacity="0.7" fill="#000000" fill-rule="evenodd" transform="translate(54.0, 21.5) scale(1, -1) translate(-54.0, -21.5)" xlink:href="#x18"/><use id="x46" stroke-width="1" fill-rule="evenodd" mask="url('#x31')" fill="#FFFFFF" xlink:href="#x21"/><g id="x45"><use fill="#000000" fill-opacity="1" filter="url('#x41')" xlink:href="#x23"/><use fill="#88C553" fill-rule="evenodd" xlink:href="#x23"/></g></g><g id="x44" transform="translate(28,40)" fill-opacity="0.16"><path id="x43" d="M16,8 C16,12.418278 21.372583,16 28,16 L28,16 C34.627417,16 40,12.418278 40,8"/></g><g id="x51" transform="translate(0,8)"><circle id="x68" fill="#FFFFFF" cx="82" cy="22" r="12"/><circle id="x49" fill-opacity="0.7" fill="#000000" cx="82" cy="22" r="6"/><path id="x50" d="M16.1601674,25.4473116 C18.006676,21.648508 22.1644225,19 26.9975803,19 C31.8136766,19 35.9591217,21.629842 37.8153518,25.4071242 C38.3667605,26.5291977 37.5821037,27.4474817 36.790607,26.7670228 C34.3395063,24.6597833 30.8587163,23.3437884 26.9975803,23.3437884 C23.2572061,23.3437884 19.8737584,24.5787519 17.4375392,26.5716412 C16.5467928,27.3002944 15.6201012,26.5583844 16.1601674,25.4473116 Z" fill-opacity="0.6" fill="#000000"/></g><g id="x54" fill-opacity="0.6" fill-rule="nonzero"><path id="x53" d="M15.9726042,19.4088529 C17.452356,11.0203704 30.0622688,5.22829657 39.2106453,8.9774793 C40.2254706,9.39337449 41.4016967,8.94600219 41.8378196,7.97824531 C42.2739426,7.01048842 41.8048116,5.88881678 40.7899862,5.47292159 C29.3457328,0.782843812 13.9550264,7.85221132 12.0280273,18.7760684 C11.84479,19.8148122 12.5792704,20.798534 13.6685352,20.9732726 C14.7578,21.1480113 15.7893668,20.4475967 15.9726042,19.4088529 Z" transform="translate(27.000414, 12.500000) scale(-1, -1) translate(-27.000414, -12.500000)"/><path id="x52" d="M73.9726042,19.4088529 C75.452356,11.0203704 88.0622688,5.22829657 97.2106453,8.9774793 C98.2254706,9.39337449 99.4016967,8.94600219 99.8378196,7.97824531 C100.273943,7.01048842 99.8048116,5.88881678 98.7899862,5.47292159 C87.3457328,0.782843812 71.9550264,7.85221132 70.0280273,18.7760684 C69.84479,19.8148122 70.5792704,20.798534 71.6685352,20.9732726 C72.7578,21.1480113 73.7893668,20.4475967 73.9726042,19.4088529 Z" transform="translate(85.000414, 12.500000) scale(1, -1) translate(-85.000414, -12.500000)"/></g></g><g id="x0" stroke-width="1" fill-rule="evenodd"><defs><rect id="x24" x="0" y="0" width="264" height="280"/><path id="x20" d="M222.384814,182.806274 C217.011239,188.518122 211.648364,192.127879 211.831204,198 C212.148076,209.888877 255.439069,245.051165 216.999964,267.00001 L16.0053198,267 C-22.4337677,245.051165 20.8572256,209.888877 21.1740982,198 C21.3569373,192.127879 15.9940628,188.518122 10.6204878,182.806274 C5.24691269,177.094426 -0.137362978,169.280486 0.00267373922,155 C0.944497502,125.971596 31.3716806,128.588232 31.2026676,109 C31.3716806,89.9992744 19.8139454,82.1607482 31.2026676,46 C42.8395963,9.53932757 72.9165934,0.768171773 116.002651,0.0159928999 L116.002651,0 C116.16951,0.002426813 116.336177,0.0049705256 116.502651,0.0076322645 C116.669125,0.0049705256 116.835791,0.002426813 117.002651,0 L117.002651,0.0159928999 C160.088708,0.768171773 190.165705,9.53932757 201.802634,46 C213.191356,82.1607482 201.633621,89.9992744 201.802634,109 C201.633621,128.588232 232.060804,125.971596 233.002628,155 C233.142665,169.280486 227.758389,177.094426 222.384814,182.806274 Z M182.884023,95.3249541 C161.364085,83.7373848 142.890027,67.1442914 130.845581,48.302359 C112.763849,73.9237118 76.5299076,78.5347548 51.2240944,94.679971 C51.0770557,95.4306015 51,96.2063021 51,97 L51,110 C51,116.018625 55.4308707,121.002364 61.2085808,121.867187 C62.9518066,142.114792 75.4692178,159.282984 93,167.610951 L93,186 L89,186 L89,186 C49.235498,186 17,218.235498 17,258 L17,267 L217,267 L217,258 C217,218.235498 184.764502,186 145,186 L141,186 L141,167.610951 C158.530782,159.282984 171.048193,142.114792 172.791419,121.867187 C178.569129,121.002364 183,116.018625 183,110 L183,97 C183,96.4315537 182.960475,95.8723389 182.884023,95.3249541 Z"/><path id="x27" d="M222.384814,182.806274 C217.011239,188.518122 211.648364,192.127879 211.831204,198 C212.148076,209.888877 255.439069,245.051165 216.999964,267.00001 L16.0053198,267 C-22.4337677,245.051165 20.8572256,209.888877 21.1740982,198 C21.3569373,192.127879 15.9940628,188.518122 10.6204878,182.806274 C5.24691269,177.094426 -0.137362978,169.280486 0.00267373922,155 C0.944497502,125.971596 31.3716806,128.588232 31.2026676,109 C31.3716806,89.9992744 19.8139454,82.1607482 31.2026676,46 C42.8395963,9.53932757 72.9165934,0.768171773 116.002651,0.0159928999 L116.002651,0 C116.16951,0.002426813 116.336177,0.0049705256 116.502651,0.0076322645 C116.669125,0.0049705256 116.835791,0.002426813 117.002651,0 L117.002651,0.0159928999 C160.088708,0.768171773 190.165705,9.53932757 201.802634,46 C213.191356,82.1607482 201.633621,89.9992744 201.802634,109 C201.633621,128.588232 232.060804,125.971596 233.002628,155 C233.142665,169.280486 227.758389,177.094426 222.384814,182.806274 Z M93,186 L89,186 L89,186 C49.235498,186 17,218.235498 17,258 L17,267 L217,267 L217,258 C217,218.235498 184.764502,186 145,186 L141,186 L141,140 L93,140 L93,186 Z"/></defs><mask id="x34" fill="#FFFFFF"><use xlink:href="#x24"/></mask><g id="x4"/><g id="x7" mask="url('#x34')"><g transform="translate(-1,0)"><g id="x6" stroke-width="1" fill="none" fill-rule="evenodd" transform="translate(16,13)"><mask id="x35" fill="#FFFFFF"><use xlink:href="#x20"/></mask><use fill="#314756" xlink:href="#x20"/><g id="x8" mask="url('#x35')" fill="#ECDCBF"><g transform="translate(0,0) " id="x9"><rect x="0" y="0" width="264" height="280"/></g></g> </g><g id="x3" stroke-width="1" fill="none" fill-rule="evenodd" transform="translate(16,13)"><mask id="x32" fill="#FFFFFF"><use xlink:href="#x27"/></mask><g id="x1"/><path id="x2" d="M30.0988695,115.056827 C27.7250732,118.08281 24.5296181,122.528485 24.3618393,122.19381 C26.2345006,119.810609 27.3747977,117.011661 27.3409475,113.436088 C27.517612,95.334874 15.4366324,87.8674306 27.3409475,53.4185647 C28.0096512,51.5090274 29.1070085,49.7044671 30.585889,48.0048838 C20.2433352,82.4586863 31.3685109,90.3556196 31.2026676,109 C31.2224682,111.294844 30.8223327,113.284923 30.0988695,115.056827 Z M202.419413,48.0048838 C203.898293,49.7044671 204.995651,51.5090274 205.664354,53.4185647 C215.822041,82.8130155 208.516445,92.5627534 206.263744,106.036479 C205.964379,106.841192 206.195125,107.789747 205.880216,108.603009 C175.207016,98.1454461 147.589972,78.5596292 131.494917,55.6119279 C108.710969,85.0357527 58.3544031,85.3732378 33.6737341,110.936101 C34.0607045,110.391798 34.4280855,109.884956 34.7584999,109.446288 C57.2940449,79.527377 108.24688,80.3241416 130.845581,48.302359 C146.243536,72.3904102 172.664446,92.9495135 202.009146,103.926748 C202.310417,103.073073 202.089664,102.077381 202.376063,101.232679 C204.483829,87.4002546 211.215481,77.3069293 202.419413,48.0048838 Z" fill-opacity="0.16" fill="#000000" mask="url('#x32')"/></g><path id="x5" d="M50.7584999,122.446288 C73.2940449,92.527377 124.24688,93.3241416 146.845581,61.302359 C162.243536,85.3904102 188.664446,105.949514 218.009146,116.926748 C218.310417,116.073073 218.089664,115.077381 218.376063,114.232679 C220.531197,100.089398 227.520377,89.8551619 217.802634,59 C206.165705,22.5393276 176.088708,13.7681718 133.002651,13.0159929 C132.336177,13.0049705 132.16951,13.0024268 132.002651,13 C88.9165934,13.7681718 58.8395963,22.5393276 47.2026676,59 C35.8139454,95.1607482 47.3716806,102.999274 47.2026676,122 C47.2350518,125.753256 46.1441426,128.691293 44.3525888,131.192923 C44.5361111,131.59459 48.5061717,125.436551 50.7584999,122.446288 Z" fill-opacity="0.1" fill="#FFFFFF" fill-rule="evenodd"/><g id="x12" transform="translate(49,72)"><defs><path id="x25" d="M101.428403,98.1685688 C98.9148372,100.462621 96.23722,101.494309 92.8529444,100.772863 C92.2705777,100.648833 89.8963391,96.2345713 83.9998344,96.2345713 C78.1033297,96.2345713 75.7294253,100.648833 75.1467245,100.772863 C71.7624488,101.494309 69.0848316,100.462621 66.5712661,98.1685688 C61.8461772,93.855604 57.9166219,87.9081858 60.2778299,81.4191814 C61.5083844,78.0369425 63.5097479,74.3237342 67.1506257,73.2459109 C71.0384163,72.0955419 76.4968931,73.2439051 80.4147542,72.4582708 C81.6840664,72.2035248 83.0706538,71.7508657 83.9998344,71 C84.929015,71.7508657 86.3159365,72.2035248 87.5845805,72.4582708 C91.5027758,73.2439051 96.9612525,72.0955419 100.849043,73.2459109 C104.489921,74.3237342 106.491284,78.0369425 107.722173,81.4191814 C110.083381,87.9081858 106.153826,93.855604 101.428403,98.1685688 M140.081033,26 C136.670693,34.4002532 137.987774,44.8580348 137.356666,53.6758724 C136.844038,60.8431942 135.33712,71.5857526 128.972858,76.214531 C125.718361,78.5816138 119.79436,82.5598986 115.54187,81.4501943 C112.614539,80.6863848 112.302182,72.290096 108.455284,69.1469801 C104.09172,65.5823153 98.6429854,64.0160432 93.1491481,64.2578722 C90.7785381,64.3622683 85.9841367,64.3374908 83.9999331,66.1604584 C82.0157295,64.3374908 77.2216647,64.3622683 74.8510547,64.2578722 C69.3568808,64.0160432 63.9081467,65.5823153 59.5445817,69.1469801 C55.6976839,72.290096 55.3856641,80.6863848 52.4583326,81.4501943 C48.2058427,82.5598986 42.2818421,78.5816138 39.0270077,76.214531 C32.6624096,71.5857526 31.1561652,60.8431942 30.642864,53.6758724 C30.0120926,44.8580348 31.3291729,34.4002532 27.9188335,26 C26.2597768,26 27.3540339,42.1288693 27.3540339,42.1288693 L27.3540339,62.4851205 C27.3856735,77.7732046 36.935095,100.655445 58.1080116,109.393004 C63.2861266,111.52982 75.0153111,115 83.9999331,115 C92.9845551,115 104.71374,111.860188 109.891855,109.723371 C131.064771,100.985813 140.614193,77.7732046 140.646169,62.4851205 L140.646169,42.1288693 C140.646169,42.1288693 141.740089,26 140.081033,26"/></defs><mask id="x30" fill="#FFFFFF"><use xlink:href="#x25"/></mask><use id="x11" fill="#331B0C" fill-rule="evenodd" xlink:href="#x25"/><g id="x69" mask="url('#x30')" fill="#A55728"><g transform="translate(-32,0)" id="x10"><rect x="0" y="0" width="264" height="244"/></g></g></g><g id="x14" fill="none" transform="translate(62,85)"><defs><path id="x17" d="M80.4646192,16.3941179 C84.3801509,8.45869677 92.552602,3 102,3 C110.919691,3 118.702887,7.86591082 122.839921,15.0880638 C123.050197,15.0306504 123.271519,15 123.5,15 L131.5,15 C132.880712,15 134,16.1192881 134,17.5 C134,18.8807119 132.880712,20 131.5,20 L124.963126,20 C125.637355,22.2145921 126,24.5649459 126,27 C126,40.254834 115.254834,51 102,51 C88.745166,51 78,40.254834 78,27 C78,25.5781066 78.1236513,24.1850936 78.3607874,22.8311273 C78.2762458,18.4553035 74.9135957,15 70.8624171,15 C67.1256697,15 63.9747186,17.9397535 63.4417635,21.8300629 C63.8073299,23.4951922 64,25.2250958 64,27 C64,40.254834 53.254834,51 40,51 C26.745166,51 16,40.254834 16,27 C16,24.5649459 16.3626451,22.2145921 17.0368738,20 L10.5,20 C9.11928813,20 8,18.8807119 8,17.5 C8,16.1192881 9.11928813,15 10.5,15 L10.5,15 L18.5,15 C18.728481,15 18.9498033,15.0306504 19.1600793,15.0880638 C23.2971127,7.86591082 31.0803092,3 40,3 C49.3521568,3 57.4549431,8.34919095 61.415666,16.15488 C63.4929212,13.0392725 66.9494432,11 70.8624171,11 C74.8746823,11 78.4070368,13.1440781 80.4646192,16.3941179 Z M40,47 C51.045695,47 60,38.045695 60,27 C60,15.954305 51.045695,7 40,7 C28.954305,7 20,15.954305 20,27 C20,38.045695 28.954305,47 40,47 Z M102,47 C113.045695,47 122,38.045695 122,27 C122,15.954305 113.045695,7 102,7 C90.954305,7 82,15.954305 82,27 C82,38.045695 90.954305,47 102,47 Z"/><filter id="x42" x="-0.8%" y="-2.1%" width="101.6%" height="108.3%" filterUnits="objectBoundingBox" ><feOffset in="SourceAlpha" dx="0" dy="2" result="shadowOffsetOuter1"/><feColorMatrix in="shadowOffsetOuter1" values="0 0 0 0 0 0 0 0 0 0 0 0 0 0 0 0 0 0 0.1 0" type="matrix"/></filter></defs><g id="x13"><use fill="#000000" fill-opacity="1" filter="url('#x42')" xlink:href="#x17"/><use fill="#252C2F" fill-rule="evenodd" xlink:href="#x17"/></g></g> </g></g></g> </g></g></g></g></svg>