<?xml version="1.0" encoding="utf-8" ?><!DOCTYPE svg PUBLIC "-//W3C//DTD SVG 1.1//EN" "http://www.w3.org/Graphics/SVG/1.1/DTD/svg11.dtd"><svg width="280px" height="280px" viewBox="-6 0 274 280" version="1.1" xmlns="http://www.w3.org/2000/svg" xmlns:xlink="http://www.w3.org/1999/xlink"><desc>Py-Avataaars</desc> <g id="x39" stroke="none" stroke-width="1" fill="none" fill-rule="evenodd"><defs><circle id="x23" cx="120" cy="120" r="120"/><path id="x29" d="M12,160 C12,226.27417 65.72583,280 132,280 C198.27417,280 252,226.27417 252,160 L264,160 L264,-1.42108547e-14 L-3.19744231e-14,-1.42108547e-14 L-3.19744231e-14,160 L12,160 Z"/><path id="x22" d="M124,144.610951 L124,163 L128,163 L128,163 C167.764502,163 200,195.235498 200,235 L200,244 L0,244 L0,235 C-4.86974701e-15,195.235498 32.235498,163 72,163 L72,163 L76,163 L76,144.610951 C58.7626345,136.422372 46.3722246,119.687011 44.3051388,99.8812385 C38.4803105,99.0577866 34,94.0521096 34,88 L34,74 C34,68.0540074 38.3245733,63.1180731 44,62.1659169 L44,56 L44,56 C44,25.072054 69.072054,5.68137151e-15 100,0 L100,0 L100,0 C130.927946,-5.68137151e-15 156,25.072054 156,56 L156,62.1659169 C161.675427,63.1180731 166,68.0540074 166,74 L166,88 C166,94.0521096 161.51969,99.0577866 155.694861,99.8812385 C153.627775,119.687011 141.237365,136.422372 124,144.610951 Z"/></defs><g id="x37" transform="translate(-825,-1100)"><g transform="translate(825,1100)"> <g id="x38" stroke-width="1" fill-rule="evenodd" mask="url('#py-avataaars-path-5fdb6ca9-bdaa-40af-a809-783981c5d61d')"><g id="x36" transform="translate(32,36)"><mask id="x19" fill="#FFFFFF"><use xlink:href="#x22"/></mask><use fill="#D0C6AC" xlink:href="#x22"/><g id="x16" mask="url('#x19')" fill="#FFDBB4"><g transform="translate(0,0)" id="x17"><rect x="0" y="0" width="264" height="280"/></g></g> <path id="x35" d="M156,79 L156,102 C156,132.927946 130.927946,158 100,158 C69.072054,158 44,132.927946 44,102 L44,79 L44,94 C44,124.927946 69.072054,150 100,150 C130.927946,150 156,124.927946 156,94 L156,79 Z" fill-opacity="0.1" fill="#000000" mask="url('#x19')"/></g><g id="x68" transform="translate(0,170)"><defs><path id="x20" d="M133.960472,0.294916112 C170.936473,3.32499816 200,34.2942856 200,72.0517235 L200,81 L0,81 L0,72.0517235 C1.22536245e-14,33.9525631 29.591985,2.76498122 67.0454063,0.219526408 C67.0152598,0.593114549 67,0.969227185 67,1.34762511 C67,13.2107177 81.9984609,22.8276544 100.5,22.8276544 C119.001539,22.8276544 134,13.2107177 134,1.34762511 C134,0.994669088 133.986723,0.64370138 133.960472,0.294916112 Z"/></defs><g id="x59" transform="translate(32,29)"><mask id="x30" fill="#FFFFFF"><use xlink:href="#x20"/></mask><use id="x65" fill="#E6E6E6" xlink:href="#x20"/><g id="x64" mask="url('#x30')" fill="#262E33"><g transform="translate(-32,-29)" id="x67"><rect x="0" y="0" width="264" height="110"/></g></g><g id="x60" opacity="0.6" mask="url('#x30')" fill-opacity="0.16" fill="#000000"><g transform="translate(60,-25)" id="x63"><ellipse cx="40.5" cy="27.8476251" rx="39.6351047" ry="26.9138272"/></g></g></g><g id="x66" transform="translate(32,28)"><path id="x61" d="M68.784807,1.12222847 C30.512317,2.80409739 -1.89486556e-14,34.3646437 -1.42108547e-14,73.0517235 L0,73.0517235 L0,82 L69.3616767,82 C65.9607412,69.9199941 64,55.7087296 64,40.5 C64,26.1729736 65.7399891,12.7311115 68.784807,1.12222847 Z M131.638323,82 L200,82 L200,73.0517235 C200,34.7067641 170.024954,3.36285166 132.228719,1.17384225 C135.265163,12.7709464 137,26.1942016 137,40.5 C137,55.7087296 135.039259,69.9199941 131.638323,82 Z" fill="#3A4C5A"/><path id="x62" d="M149,58 L158.555853,50.83311 L158.555853,50.83311 C159.998897,49.7508275 161.987779,49.7682725 163.411616,50.8757011 L170,56 L149,58 Z" fill="#E6E6E6"/><path id="x58" d="M69,1.13686838e-13 C65,19.3333333 66.6666667,46.6666667 74,82 L58,82 L44,46 L50,37 L44,31 L63,1 C65.027659,0.369238637 67.027659,0.0359053037 69,1.13686838e-13 Z" fill="#2F4351"/><path id="x57" d="M151,1.13686838e-13 C147,19.3333333 148.666667,46.6666667 156,82 L140,82 L126,46 L132,37 L126,31 L145,1 C147.027659,0.369238637 149.027659,0.0359053037 151,1.13686838e-13 Z" fill="#2F4351" transform="translate(141,41) scale(-1, 1) translate(-141,-41)"/></g></g><g id="x56" transform="translate(76,82)" fill="#000000"><g id="x48" transform="translate(2,52)"><defs><path id="x28" d="M34.0082051,12.6020819 C35.1280248,23.0929366 38.2345159,31.9944054 53.9961505,31.9999974 C69.757785,32.0055894 72.9169073,23.0424631 73.9942614,12.5047938 C74.0809675,11.6567158 73.1738581,10.9999965 72.0369872,10.9999965 C65.3505138,10.9999965 62.6703194,12.4951994 53.9894323,12.4999966 C45.3085452,12.5047938 40.7567994,10.9999965 36.0924943,10.9999965 C34.9490269,10.9999965 33.8961688,11.5524868 34.0082051,12.6020819 Z"/><path id="x25" d="M59.9170416,36 L60,36 C60,39.3137085 62.6862915,42 66,42 C69.3137085,42 72,39.3137085 72,36 L72,35 L72,31 C72,27.6862915 69.3137085,25 66,25 L66,25 L42,25 L42,25 C38.6862915,25 36,27.6862915 36,31 L36,31 L36,35 L36,38 C36,41.3137085 38.6862915,44 42,44 C45.3137085,44 48,41.3137085 48,38 L48,36 L48.0829584,36 C48.5590365,33.1622867 51.0270037,31 54,31 C56.9729963,31 59.4409635,33.1622867 59.9170416,36 Z"/><filter id="x41" x="-1.4%" y="-2.6%" width="102.8%" height="105.3%" filterUnits="objectBoundingBox"><feOffset in="SourceAlpha" dx="0" dy="-1" result="shadowOffsetInner1"/><feComposite in="shadowOffsetInner1" in2="SourceAlpha" operator="arithmetic" k2="-1" k3="1" result="shadowInnerInner1"/><feColorMatrix values="0 0 0 0 0 0 0 0 0 0 0 0 0 0 0 0 0 0 0.1 0" type="matrix" in="shadowInnerInner1"/></filter><rect id="x26" x="39" y="2" width="31" height="16" rx="5"/></defs><mask id="x34" fill="#FFFFFF"><use xlink:href="#x28" transform="translate(54.0, 21.5) scale(1, -1) translate(-54.0, -21.5)"/></mask><use id="x47" fill-opacity="0.7" fill="#000000" fill-rule="evenodd" transform="translate(54.0, 21.5) scale(1, -1) translate(-54.0, -21.5)" xlink:href="#x28"/><use id="x46" stroke-width="1" fill-rule="evenodd" mask="url('#x34')" fill="#FFFFFF" xlink:href="#x26"/><g id="x45"><use fill="#000000" fill-opacity="1" filter="url('#x41')" xlink:href="#x25"/><use fill="#88C553" fill-rule="evenodd" xlink:href="#x25"/></g></g><g id="x44" transform="translate(28,40)" fill-opacity="0.16"><path id="x43" d="M16,8 C16,12.418278 21.372583,16 28,16 L28,16 C34.627417,16 40,12.418278 40,8"/></g><g id="x51" transform="translate(0,8)" fill-opacity="0.6"><circle id="x50" cx="30" cy="22" r="6"/><path id="x49" d="M70.4123979,24.204889 C72.2589064,20.4060854 76.4166529,17.7575774 81.2498107,17.7575774 C86.065907,17.7575774 90.2113521,20.3874194 92.0675822,24.1647016 C92.618991,25.2867751 91.8343342,26.2050591 91.0428374,25.5246002 C88.5917368,23.4173607 85.1109468,22.1013658 81.2498107,22.1013658 C77.5094365,22.1013658 74.1259889,23.3363293 71.6897696,25.3292186 C70.7990233,26.0578718 69.8723316,25.3159619 70.4123979,24.204889 Z" transform="translate(81.252230, 21.757577) rotate(-4.0) translate(-81.252230, -21.757577)"/></g><g id="x55" fill-opacity="0.6"><g id="x54" transform="translate(12,0)"><path id="x53" d="M3.97579559,17.1279169 C5.47099148,7.60476158 18.0585488,1.10867597 27.1635167,5.30104271 C28.1668367,5.76301969 29.3546946,5.32417444 29.8166716,4.32085442 C30.2786486,3.3175344 29.8398033,2.12967649 28.8364833,1.66769952 C17.3488212,-3.62177466 1.93575948,4.3324746 0.0242044059,16.507492 C-0.147121205,17.5986938 0.598585765,18.6221744 1.68978754,18.7935 C2.78098932,18.9648257 3.80446998,18.2191187 3.97579559,17.1279169 Z" fill-rule="nonzero"/><path id="x52" d="M61.9757956,17.1279169 C63.4709915,7.60476158 76.0585488,1.10867597 85.1635167,5.30104271 C86.1668367,5.76301969 87.3546946,5.32417444 87.8166716,4.32085442 C88.2786486,3.3175344 87.8398033,2.12967649 86.8364833,1.66769952 C75.3488212,-3.62177466 59.9357595,4.3324746 58.0242044,16.507492 C57.8528788,17.5986938 58.5985858,18.6221744 59.6897875,18.7935 C60.7809893,18.9648257 61.80447,18.2191187 61.9757956,17.1279169 Z" fill-rule="nonzero" transform="translate(73.000097, 9.410436) scale(-1, 1) translate(-73.000097, -9.410436)"/></g></g></g><g id="x0"><defs><rect id="x21" x="0" y="0" width="264" height="280"/><path id="x24" d="M66,0 L66,0 C102.450793,-6.69590214e-15 132,29.5492065 132,66 L132,71 L0,71 L0,66 C-4.46393476e-15,29.5492065 29.5492065,6.69590214e-15 66,0 Z"/><filter id="x42" x="-0.7%" y="-1.7%" width="101.4%" height="106.8%" filterUnits="objectBoundingBox" ><feOffset dx="0" dy="2" in="SourceAlpha" result="shadowOffsetOuter1"/><feColorMatrix values="0 0 0 0 0 0 0 0 0 0 0 0 0 0 0 0 0 0 0.1 0" type="matrix" in="shadowOffsetOuter1"/></filter><path id="x27" d="M67.2846026,61.4514246 C83.229708,49.8171415 105.159178,44 133.073012,44 C160.985408,44 182.871592,49.8165424 198.731564,61.4496271 L198.731562,61.4496305 C200.786183,62.956669 202.000006,65.3523289 202.000006,67.900394 L202.000004,98.3697692 C202.000004,100.578907 200.209144,102.369768 198.000006,102.369768 C197.244444,102.369768 196.504332,102.155773 195.865355,101.752558 C179.223261,91.2508526 158.536251,86 133.804323,86 C108.883259,86 87.640395,91.3314713 70.0757313,101.994414 L70.0757317,101.994414 C68.1873241,103.140806 65.7271332,102.539283 64.5807417,100.650875 C64.2008775,100.02514 64.0000054,99.3071624 64.0000054,98.5751499 L64,67.914014 C64,65.358892 65.2205159,62.9574773 67.2846026,61.4514246 Z"/></defs><mask id="x32" fill="#FFFFFF"><use xlink:href="#x21"/></mask><g id="x2"/><g id="x6" transform="translate(-1,0)"><g id="x5" stroke-width="1" fill-rule="evenodd" transform="translate(67,12)"><circle id="x1" fill="#F4F4F4" cx="66" cy="8" r="20"/><mask id="x33" fill="#FFFFFF"><use xlink:href="#x24"/></mask><use id="x3" fill="#D8D8D8" xlink:href="#x24"/><g id="py-avataaars-top-hat-color-pastel_orange" mask="url('#x33')" fill-rule="evenodd" fill="#FFDEB5"><rect id="x7" x="0" y="0" width="264" height="280"/></g> </g><g id="x4"><use fill="#000000" fill-opacity="1" filter="url('#x27')" xlink:href="#x27"/><use fill="#F4F4F4" fill-rule="evenodd" xlink:href="#x27"/></g><g id="x10" transform="translate(49,72)"><defs><path id="x18" d="M65.1802189,77.7372986 C67.3631845,76.1045334 80.4065113,75.4786511 82.757829,74.0894494 C83.4916461,73.6553857 84.0610723,73.215719 84.4997781,72.7800074 C84.938814,73.215719 85.5085703,73.6553857 86.2423874,74.0894494 C88.593375,75.4786511 101.636702,76.1045334 103.819667,77.7372986 C106.030032,79.3908276 107.643571,83.1846831 107.466966,86.15095 C107.255041,89.7101408 103.361486,98.2028927 93.6723269,99.1811016 C91.5576925,96.8281927 88.2368647,95.3104528 84.4997781,95.3104528 C80.7633517,95.3104528 77.4421938,96.8281927 75.3275594,99.1811016 C65.6387308,98.2028927 61.7451757,89.7101408 61.5332501,86.15095 C61.3566455,83.1846831 62.9701849,79.3908276 65.1802189,77.7372986 M103.141638,94.9063813 C103.142958,94.9057221 103.144609,94.905063 103.145929,94.9047334 C103.144278,94.905063 103.142958,94.9057221 103.141638,94.9063813 M65.8453747,94.9014375 C65.8493359,94.9030855 65.8565982,94.9057221 65.8618798,94.9076997 C65.8565982,94.9057221 65.8509864,94.9034151 65.8453747,94.9014375 M144.86259,55.9853335 C144.47439,50.0303878 143.277769,44.1519058 142.233986,38.2862777 C141.952739,36.7072349 140.423706,26 139.734783,26 C139.502391,35.1094058 138.701893,44.0803858 137.669664,53.1393651 C137.361018,55.8475668 137.037848,58.5564277 136.825262,61.2741874 C136.653609,63.4695546 136.959614,66.1220564 136.427819,68.2455739 C135.749129,70.9524573 132.348087,73.4783984 129.702978,74.410795 C123.102915,76.7373371 117.597802,67.1077689 111.960977,64.2911336 C104.643272,60.6347152 92.0637391,59.7639895 84.5816434,64.5297918 C76.9361472,59.7639895 64.356614,60.6347152 57.0389092,64.2911336 C51.4024147,67.1077689 45.8969708,76.7373371 39.2972383,74.410795 C36.6521296,73.4783984 33.2504268,70.9524573 32.572397,68.2455739 C32.0402723,66.1220564 32.346277,63.4695546 32.174954,61.2741874 C31.9623682,58.5564277 31.6388681,55.8475668 31.3302226,53.1393651 C30.2983232,44.0803858 29.4974953,35.1094058 29.2654335,26 C28.5761802,26 27.0468169,36.7072349 26.7658999,38.2862777 C25.7221169,44.1519058 24.5258266,50.0303878 24.1376265,55.9853335 C23.738533,62.1047422 24.2148704,68.1674622 25.4695887,74.1632765 C26.0687242,77.0277016 26.7685407,79.8756475 27.518863,82.7041478 C28.352701,85.8467429 27.198994,91.9661516 27.5723395,95.1921317 C28.2787581,101.29572 31.1542781,113.199679 34.3833375,118.45096 C35.9440605,120.989096 37.7734867,122.573742 39.816489,124.619148 C41.7825775,126.58809 42.6038717,129.640049 44.7260985,131.73687 C48.6820428,135.645092 54.4456266,137.971304 60.3656788,138.543134 C65.6773527,143.050212 74.505605,146 84.4997781,146 C94.4946114,146 103.322534,143.050212 108.634538,138.543134 C114.55393,137.971304 120.317843,135.645092 124.274118,131.73687 C126.396015,129.640049 127.217309,126.58809 129.183727,124.619148 C131.2264,122.573742 133.055826,120.989096 134.616879,118.45096 C137.845608,113.199679 140.721458,101.29572 141.427547,95.1921317 C141.800892,91.9661516 140.647185,85.8467429 141.481353,82.7041478 C142.231676,79.8756475 142.931162,77.0277016 143.530628,74.1632765 C144.784686,68.1674622 145.261353,62.1047422 144.86259,55.9853335 Z"/></defs><mask id="x31" fill="#FFFFFF"><use xlink:href="#x18"/></mask><use id="x9" fill="#5E7AA9" fill-rule="evenodd" xlink:href="#x18"/><g id="x69" mask="url('#x31')" fill="#B58143"><g transform="translate(-32,0)" id="x8"><rect x="0" y="0" width="264" height="244"/></g></g></g><g id="x15" fill="none" transform="translate(62,85)" stroke-width="1"><defs><filter id="x40" x="-0.8%" y="-2.0%" width="101.5%" height="108.0%" filterUnits="objectBoundingBox"><feOffset dx="0" dy="2" in="SourceAlpha" result="shadowOffsetOuter1"/><feColorMatrix values="0 0 0 0 0 0 0 0 0 0 0 0 0 0 0 0 0 0 0.16 0" type="matrix" in="shadowOffsetOuter1" result="shadowMatrixOuter1"/><feMerge><feMergeNode in="shadowMatrixOuter1"/><feMergeNode in="SourceGraphic"/></feMerge></filter></defs><g id="x11" filter="url('#x40')" transform="translate(5,2)"><path id="x12" d="M66,11.1111111 C54.9625586,11.1111111 53.3705645,2.0266011 30.6705882,0.740740741 C7.98552275,-0.283199952 0.815225204,6.4494855 0.776470588,11.1111111 C0.813236892,15.4042795 -0.352293566,26.5612661 14.3647059,39.6296296 C29.1367705,55.1420807 44.2704162,49.8818301 49.6941176,44.8148148 C55.1352081,42.4731118 61.3403442,21.4596351 66,21.4814815 C70.6596558,21.5033279 76.8647919,42.4731118 82.3058824,44.8148148 C87.7295838,49.8818301 102.86323,55.1420807 117.635294,39.6296296 C132.352294,26.5612661 131.186763,15.4042795 131.223529,11.1111111 C131.184775,6.4494855 124.014477,-0.283199952 101.329412,0.740740741 C78.6294355,2.0266011 77.0374414,11.1111111 66,11.1111111 Z" fill="#F4F4F4" fill-rule="nonzero"/><path id="x13" d="M55.1294118,21.4814815 C55.5103632,13.8233491 42.2156493,5.64243259 27.9529412,5.92592593 C13.6973442,6.22450879 11.8417942,15.3786982 11.6470588,18.8888889 C11.2982286,27.0220633 20.014463,45.3037598 36.1058824,44.8148148 C52.1972736,44.305848 54.9092435,26.5344305 55.1294118,21.4814815 Z" fill="#2F383B" fill-rule="nonzero"/><path id="x14" d="M120.352941,21.4814815 C120.733893,13.8233491 107.439179,5.64243259 93.1764706,5.92592593 C78.9208736,6.22450879 77.0653236,15.3786982 76.8705882,18.8888889 C76.521758,27.0220633 85.2379924,45.3037598 101.329412,44.8148148 C117.420803,44.305848 120.132773,26.5344305 120.352941,21.4814815 Z" fill="#2F383B" fill-rule="nonzero" transform="translate(98.611765, 25.370370) scale(-1, 1) translate(-98.611765, -25.370370)"/></g></g> </g></g> </g></g></g></g></svg>