<?xml version="1.0" encoding="utf-8" ?><!DOCTYPE svg PUBLIC "-//W3C//DTD SVG 1.1//EN" "http://www.w3.org/Graphics/SVG/1.1/DTD/svg11.dtd"><svg width="280px" height="280px" viewBox="-6 0 274 280" version="1.1" xmlns="http://www.w3.org/2000/svg" xmlns:xlink="http://www.w3.org/1999/xlink"><desc>Py-Avataaars</desc> <g id="x49" stroke="none" stroke-width="1" fill="none" fill-rule="evenodd"><defs><circle id="x27" cx="120" cy="120" r="120"/><path id="x26" d="M12,160 C12,226.27417 65.72583,280 132,280 C198.27417,280 252,226.27417 252,160 L264,160 L264,-1.42108547e-14 L-3.19744231e-14,-1.42108547e-14 L-3.19744231e-14,160 L12,160 Z"/><path id="x29" d="M124,144.610951 L124,163 L128,163 L128,163 C167.764502,163 200,195.235498 200,235 L200,244 L0,244 L0,235 C-4.86974701e-15,195.235498 32.235498,163 72,163 L72,163 L76,163 L76,144.610951 C58.7626345,136.422372 46.3722246,119.687011 44.3051388,99.8812385 C38.4803105,99.0577866 34,94.0521096 34,88 L34,74 C34,68.0540074 38.3245733,63.1180731 44,62.1659169 L44,56 L44,56 C44,25.072054 69.072054,5.68137151e-15 100,0 L100,0 L100,0 C130.927946,-5.68137151e-15 156,25.072054 156,56 L156,62.1659169 C161.675427,63.1180731 166,68.0540074 166,74 L166,88 C166,94.0521096 161.51969,99.0577866 155.694861,99.8812385 C153.627775,119.687011 141.237365,136.422372 124,144.610951 Z"/></defs><g id="x47" transform="translate(-825,-1100)"><g transform="translate(825,1100)"> <g id="x48" stroke-width="1" fill-rule="evenodd" mask="url('#py-avataaars-path-006cd376-c90a-4712-899c-7ac73a4933d6')"><g id="x46" transform="translate(32,36)"><mask id="x34" fill="#FFFFFF"><use xlink:href="#x29"/></mask><use fill="#D0C6AC" xlink:href="#x29"/><g id="x20" mask="url('#x34')" fill="#EDB98A"><g transform="translate(0,0)" id="x21"><rect x="0" y="0" width="264" height="280"/></g></g> <path id="x45" d="M156,79 L156,102 C156,132.927946 130.927946,158 100,158 C69.072054,158 44,132.927946 44,102 L44,79 L44,94 C44,124.927946 69.072054,150 100,150 C130.927946,150 156,124.927946 156,94 L156,79 Z" fill-opacity="0.1" fill="#000000" mask="url('#x34')"/></g><g id="x73" transform="translate(0,170)"><defs><path id="x35" d="M165.624032,29.2681342 C202.760022,32.1373245 232,63.1798426 232,101.051724 L232,110 L32,110 L32,101.051724 C32,62.8348009 61.7752018,31.5722494 99.3929298,29.1967444 C99.1342224,30.2735458 99,31.3767131 99,32.5 C99,44.3741221 113.998461,54 132.5,54 C151.001539,54 166,44.3741221 166,32.5 C166,31.4015235 165.871641,30.3222877 165.624025,29.2681336 Z"/></defs><mask id="x37" fill="#FFFFFF"><use xlink:href="#x35"/></mask><use id="x72" fill="#E6E6E6" fill-rule="evenodd" xlink:href="#x35"/><g id="py-avataaars-clothes-clothe-color-palette-blue_03" mask="url('#x37')" fill-rule="evenodd" fill="#25557C"><rect id="x74" x="0" y="0" width="264" height="110"/></g><g id="x71" mask="url('#x37'" stroke-width="1" fill-rule="evenodd"><g transform="translate(77,58)" id="x67"><g transform="translate(17,0)"><path id="x68" d="M65.3033729,7.56759412 C65.1470447,8.49857487 63.3805357,12.656817 62.0741755,10.5184706 C61.5650892,9.68550605 62.4755312,7.05707864 62.7589611,6.30931546 C63.3169849,4.836648 63.7329539,4.67144048 65.0219821,3.97805378 C65.1307322,5.16706304 65.4331933,6.37685313 65.3033729,7.56759412 M62.3188632,10.8866375 C62.3487694,10.8987596 62.4772304,11.018942 62.3188632,10.8866375 M62.3110467,10.8804032 C62.3052694,10.8755544 62.3107069,10.8800569 62.3110467,10.8804032 M55.0298897,6.20471867 C55.040085,6.21337734 55.0829054,6.246973 55.0298897,6.20471867 M42.5545574,11.1605979 C42.3475925,12.3804321 42.0797954,13.5995735 41.6509123,14.760875 C41.48167,13.0294864 41.7542249,11.3046783 42.651413,9.81019097 C42.6412176,10.2618275 42.6089325,10.7120786 42.5545574,11.1605979 M42.544702,8.65858718 C42.5406238,8.64334792 42.3859948,8.41891506 42.544702,8.65858718 M25.9083201,18.8030909 C26.0609101,17.2701591 26.6763675,15.7860622 27.8141651,14.7591433 C27.5371923,16.3838571 26.7416175,17.4294787 25.9083201,18.8030909 M75.8371766,5.29694317 C75.8371766,5.93422166 73.7787416,7.63166832 73.2635382,8.10027581 C72.3850415,8.898952 71.4487714,9.53969396 70.1865909,9.35370562 C66.7252801,8.84422918 68.0968903,5.14766761 67.5456634,2.87251415 C67.1120225,1.08501726 66.6671667,1.75900853 65.4641191,1.64644576 C64.3456926,1.54219531 63.9460361,0.990464532 62.7824103,1.83312679 C60.685573,3.35151205 59.0159196,5.32915344 58.1231495,7.8135005 C57.7992782,6.11813191 56.8776214,3.30960407 54.6706746,3.71967892 C53.0387439,4.02273255 51.6868446,6.64596475 51.0078363,7.96277605 C50.95618,6.76545446 50.3403828,4.88721467 48.8328349,5.74476985 C47.7973303,6.3339061 47.8418499,9.12615564 47.615174,10.1548062 C47.1499276,12.2664839 46.236427,17.7723622 42.9708663,17.056463 C43.999574,15.1377006 46.2510403,9.08632573 44.3207265,7.1194211 C41.6091115,4.35730375 39.5459188,11.2748924 39.4354695,12.9584852 C39.355946,14.1644655 40.2405598,16.9030312 39.7637588,17.6511408 C39.1788873,18.568614 37.3362533,18.9641423 36.4608152,18.2922291 C35.0562401,17.2143972 35.6101858,15.4622277 35.9313383,14.093118 C36.3527448,12.2990405 36.5512137,10.495958 36.6650614,8.65616275 C36.7503623,7.27631629 37.951031,1.10787617 35.6370334,1.02406019 C33.5415555,0.948902892 33.3281335,6.16211798 33.1786022,7.58664321 C32.9944067,9.33812 32.8825981,11.1121094 32.94377,12.8746693 C33.0056216,14.6573173 33.3376491,15.8449412 32.6467463,17.5181435 C31.9065662,19.3108356 28.3834038,24.6889119 26.2743321,21.1180743 C28.5142437,20.1354878 31.1850774,15.5997275 29.9833892,13.0506135 C28.317474,9.51683506 24.5679755,14.9018383 24.024565,16.7073452 C23.1474277,19.6222016 23.5328108,23.4292478 26.8877504,24.3782386 C30.3810066,25.366713 33.0780083,22.0916557 34.309263,19.1975801 C35.3107832,20.7859275 37.1544368,21.1842266 38.8580746,20.7031506 C39.5350438,20.5116207 40.1861848,20.1822447 40.7496461,19.7555452 C41.8198148,18.9457859 41.1934823,19.2471078 42.3292409,19.2142048 C45.6264071,19.1196521 47.4252012,18.0612156 48.660534,14.6690931 C48.6459207,15.6031909 49.0041163,17.0287552 50.2588202,16.5178934 C51.2334927,16.1209797 51.2266958,14.5083881 51.4074928,13.6480621 C51.9774112,10.935126 52.8729,8.10651006 55.0057608,6.22584583 C56.8466956,8.22807786 55.4856205,11.6534497 56.6968244,13.7862546 C58.5635873,17.0737803 59.5035957,11.2537653 59.7962014,10.1319473 C59.8526155,15.0140547 65.6574903,13.2158211 66.9135536,9.97505214 C70.2130987,13.4901279 77.1479547,10.3238236 75.8371766,5.29694317" fill="#FFFFFF"/><path id="x69" d="M69.433817,15.3488372 C65.8038135,15.3488372 61.8287631,16.3747039 58.3068219,17.1662556 C54.7602589,17.9637144 51.2314783,18.9518414 47.8046046,20.1368717 C43.9335128,21.4748303 39.9926593,22.6897243 36.2145831,24.2580599 C32.9385178,25.6183343 28.7066484,26.6107275 26.7027087,29.6738881 C26.6986051,29.6824206 28.8051356,29.5856097 28.9754363,29.5573869 C30.0242559,29.3834556 30.9267127,29.0139335 31.8924339,28.6010927 C33.6392127,27.8548288 35.3740227,27.0823111 37.115672,26.3248894 C41.0202768,24.6265975 45.0951823,23.2295678 49.1044296,21.7708418 C53.1003402,20.3176946 57.1991835,19.0860638 61.3588973,18.1455219 C64.7498643,17.3792395 68.5409353,17.2322183 71.6624305,15.8729284 C71.5444511,15.9172317 71.6210523,15.887368 71.8918919,15.7816965 C71.813239,15.8197645 69.6708017,15.3488372 69.433817,15.3488372" fill="#FFFFFF"/><path id="x69" d="M22.1170349,20.8250383 C19.8478706,19.8267659 16.6395075,20.267131 14.2823358,20.5862701 C12.1385566,20.8762747 8.78577979,21.5209156 7.44867865,21.6937129 C6.34297926,21.8346967 3.04321074,22.7348497 2.4393915,21.4968044 C1.79003946,20.1656628 5.15878677,16.0935417 5.89512684,15.1341152 C9.20984643,10.8135143 13.1946457,6.01370248 17.9749097,3.21110531 C17.5345328,5.16177188 17.1498826,7.12884748 16.7479027,9.08721625 C16.5824216,9.89460802 15.79851,14.2513757 17.2338124,14.5946261 C17.8233602,14.735275 19.0058537,11.8121216 19.104055,11.5505816 C19.9270433,9.36181652 20.1163103,6.84118695 20.4951839,4.54927932 C20.7119744,3.23789558 21.6953468,0.499260193 19.8009787,0.0471743805 C18.1723317,-0.341619419 15.9646707,1.77447706 14.8776601,2.66558843 C11.5962407,5.35767573 8.75146029,8.61302846 6.0905101,11.8864646 C4.78025293,13.4985691 3.4761121,15.1200503 2.37686886,16.8831849 C1.47300888,18.3332083 -0.712565331,21.3735691 0.232070287,23.1651685 C1.92969602,26.3860287 10.0715716,23.5626691 12.663543,23.133355 C14.708781,22.7941232 16.8162019,22.4729748 18.8913421,22.7566168 C21.0534703,23.0519796 20.9484731,24.0274803 20.2298024,25.953031 C18.7520254,29.9126329 15.4539558,33.3136578 12.5058772,36.2726431 C11.2071731,37.5759898 6.1251694,43.6918736 4.84549395,40.3641872 C3.97595347,38.1030884 4.74525384,35.3289559 5.74561617,33.2503658 C6.21419621,32.2765394 6.8346655,31.3887768 7.32329357,30.4256666 C7.45649398,30.163122 8.12453486,28.0011471 8.27030776,27.9529247 C4.4003599,29.303824 2.15328244,34.538308 1.93751135,38.2397187 C1.83591206,39.9810863 2.07376995,42.5640033 3.73741598,43.6084889 C5.40174162,44.6533095 6.96378836,43.3814414 8.28661802,42.4230195 C11.9289019,39.7838429 15.1780407,36.4246779 18.1519439,33.0879497 C19.7778725,31.2635323 26.6054133,22.8014905 22.1170349,20.8250383" fill="#FFFFFF"/></g></g></g></g><g id="x66" transform="translate(76,82)" fill="#000000"><g id="x57" transform="translate(2,52)"><defs><path id="x23" d="M34.0082051,12.6020819 C35.1280248,23.0929366 38.2345159,31.9944054 53.9961505,31.9999974 C69.757785,32.0055894 72.9169073,23.0424631 73.9942614,12.5047938 C74.0809675,11.6567158 73.1738581,10.9999965 72.0369872,10.9999965 C65.3505138,10.9999965 62.6703194,12.4951994 53.9894323,12.4999966 C45.3085452,12.5047938 40.7567994,10.9999965 36.0924943,10.9999965 C34.9490269,10.9999965 33.8961688,11.5524868 34.0082051,12.6020819 Z"/><path id="x25" d="M59.9170416,36 L60,36 C60,39.3137085 62.6862915,42 66,42 C69.3137085,42 72,39.3137085 72,36 L72,35 L72,31 C72,27.6862915 69.3137085,25 66,25 L66,25 L42,25 L42,25 C38.6862915,25 36,27.6862915 36,31 L36,31 L36,35 L36,38 C36,41.3137085 38.6862915,44 42,44 C45.3137085,44 48,41.3137085 48,38 L48,36 L48.0829584,36 C48.5590365,33.1622867 51.0270037,31 54,31 C56.9729963,31 59.4409635,33.1622867 59.9170416,36 Z"/><filter id="x50" x="-1.4%" y="-2.6%" width="102.8%" height="105.3%" filterUnits="objectBoundingBox"><feOffset in="SourceAlpha" dx="0" dy="-1" result="shadowOffsetInner1"/><feComposite in="shadowOffsetInner1" in2="SourceAlpha" operator="arithmetic" k2="-1" k3="1" result="shadowInnerInner1"/><feColorMatrix values="0 0 0 0 0 0 0 0 0 0 0 0 0 0 0 0 0 0 0.1 0" type="matrix" in="shadowInnerInner1"/></filter><rect id="x33" x="39" y="2" width="31" height="16" rx="5"/></defs><mask id="x41" fill="#FFFFFF"><use xlink:href="#x23" transform="translate(54.0, 21.5) scale(1, -1) translate(-54.0, -21.5)"/></mask><use id="x56" fill-opacity="0.7" fill="#000000" fill-rule="evenodd" transform="translate(54.0, 21.5) scale(1, -1) translate(-54.0, -21.5)" xlink:href="#x23"/><use id="x55" stroke-width="1" fill-rule="evenodd" mask="url('#x41')" fill="#FFFFFF" xlink:href="#x33"/><g id="x54"><use fill="#000000" fill-opacity="1" filter="url('#x50')" xlink:href="#x25"/><use fill="#88C553" fill-rule="evenodd" xlink:href="#x25"/></g></g><g id="x53" transform="translate(28,40)" fill-opacity="0.16"><path id="x52" d="M16,8 C16,12.418278 21.372583,16 28,16 L28,16 C34.627417,16 40,12.418278 40,8"/></g><g id="x62" transform="translate(0,8)"><defs><path id="x36" d="M14,14.0481187 C23.6099827,14.0481187 28,18.4994466 28,11.5617716 C28,4.62409673 21.7319865,0 14,0 C6.2680135,0 0,4.62409673 0,11.5617716 C0,18.4994466 4.39001726,14.0481187 14,14.0481187 Z"/><path id="x22" d="M14,14.0481187 C23.6099827,14.0481187 28,18.4994466 28,11.5617716 C28,4.62409673 21.7319865,0 14,0 C6.2680135,0 0,4.62409673 0,11.5617716 C0,18.4994466 4.39001726,14.0481187 14,14.0481187 Z"/></defs><g id="x61" transform="translate(16,13)"><mask id="x44" fill="#FFFFFF"><use xlink:href="#x36"/></mask><use id="x58" fill="#FFFFFF" xlink:href="#x36"/><circle fill-opacity="0.7" fill="#000000" mask="url('#x44')" cx="14" cy="10" r="6"/></g><g id="x60" transform="translate(68,13)"><mask id="x39" fill="#FFFFFF"><use xlink:href="#x22"/></mask><use id="x59" fill="#FFFFFF" xlink:href="#x22"/><circle fill-opacity="0.7" fill="#000000" mask="url('#x39')" cx="14" cy="10" r="6"/></g></g><g id="x65" fill-opacity="0.6"><path id="x63" d="M57.000525,12 C56.999825,11.9961 56.999825,11.9961 57.000525,12 M59.4596631,14.892451 C61.3120123,16.058698 64.1131185,16.7894891 65.7030886,17.0505179 C71.9486685,18.0766191 78.0153663,15.945512 84.1715051,15.0153209 C89.636055,14.1895424 95.8563653,13.4967455 100.86041,16.507708 C100.987756,16.584232 101.997542,17.2147893 102.524546,17.7511372 C102.91024,18.1443003 103.563259,18.0619945 103.822605,17.5722412 C105.241692,14.8939029 97.7243204,8.76008291 96.2812935,8.14993193 C89.7471082,5.39200867 81.0899445,8.32440654 74.4284137,9.38927986 C70.6888462,9.98718701 66.9279989,10.3803501 63.2409655,11.2908151 C61.9188284,11.6171635 60.6278928,12.2066818 59.3382119,12.3724317 C59.1848981,12.1429782 58.9889964,12 58.7633758,12 C57.5922879,12 55.8451696,15.4574504 58.0750241,15.6547468 C58.7728345,15.7164887 59.215997,15.3816732 59.4596631,14.892451 Z" transform="translate(80.5, 12.500000) rotate(-2.0) translate(-80.5, -12.500000)"/><path id="x64" d="M54.999475,12 C55.000175,11.9961 55.000175,11.9961 54.999475,12 M15.7187065,8.14993193 C22.2528918,5.39200867 30.9100555,8.32440654 37.5715863,9.38927986 C41.3111538,9.98718701 45.0720011,10.3803501 48.7590345,11.2908151 C50.2416282,11.6567696 51.6849876,12.3536477 53.1313394,12.4128263 C53.8325707,12.4413952 54.2674737,13.2763566 53.8149484,13.8242681 C52.3320222,15.6179895 48.3271239,16.7172136 46.2969114,17.0505179 C40.0513315,18.0766191 33.9846337,15.945512 27.8284949,15.0153209 C22.363945,14.1895424 16.1436347,13.4967455 11.1395899,16.507708 C11.0122444,16.584232 10.0024581,17.2147893 9.47545402,17.7511372 C9.0897602,18.1443003 8.43674067,18.0619945 8.17739482,17.5722412 C6.75830756,14.8939029 14.2756796,8.76008291 15.7187065,8.14993193 Z M54.9339874,11 C56.1050753,11 57.8521936,15.4015737 55.6223391,15.6527457 C53.3924847,15.9039176 53.7628995,11 54.9339874,11 Z" transform="translate(32.348682, 12.500000) rotate(2.0) translate(-32.348682, -12.500000)"/></g></g><g id="x1" stroke-width="1" fill-rule="evenodd"><defs><rect id="x28" x="0" y="0" width="264" height="280"/><path id="x32" d="M156,180.610951 C173.530782,172.282984 186.048193,155.114792 187.791419,134.867187 C193.569129,134.002364 198,129.018625 198,123 L198,110 C198,104.054007 193.675427,99.1180731 188,98.1659169 L188,92 C188,61.072054 162.927946,36 132,36 C101.072054,36 76,61.072054 76,92 L76,92 L76,98.1659169 C70.3245733,99.1180731 66,104.054007 66,110 L66,123 C66,129.018625 70.4308707,134.002364 76.2085808,134.867187 C77.9518066,155.114792 90.4692178,172.282984 108,180.610951 L108,199 L104,199 L104,199 C64.235498,199 32,231.235498 32,271 L32,280 L232,280 L232,271 C232,231.235498 199.764502,199 160,199 L156,199 L156,180.610951 Z M0,5.68434189e-14 L264,5.68434189e-14 L264,280 L0,280 L0,5.68434189e-14 Z"/><rect id="x30" x="0" y="0" width="112" height="150" rx="56"/><path id="x31" d="M65.1802189,77.7372986 C67.3631845,76.1045334 80.4065113,75.4786511 82.757829,74.0894494 C83.4916461,73.6553857 84.0610723,73.215719 84.4997781,72.7800074 C84.938814,73.215719 85.5085703,73.6553857 86.2423874,74.0894494 C88.593375,75.4786511 101.636702,76.1045334 103.819667,77.7372986 C106.030032,79.3908276 107.643571,83.1846831 107.466966,86.15095 C107.255041,89.7101408 103.361486,98.2028927 93.6723269,99.1811016 C91.5576925,96.8281927 88.2368647,95.3104528 84.4997781,95.3104528 C80.7633517,95.3104528 77.4421938,96.8281927 75.3275594,99.1811016 C65.6387308,98.2028927 61.7451757,89.7101408 61.5332501,86.15095 C61.3566455,83.1846831 62.9701849,79.3908276 65.1802189,77.7372986 M103.141638,94.9063813 C103.142958,94.9057221 103.144609,94.905063 103.145929,94.9047334 C103.144278,94.905063 103.142958,94.9057221 103.141638,94.9063813 M65.8453747,94.9014375 C65.8493359,94.9030855 65.8565982,94.9057221 65.8618798,94.9076997 C65.8565982,94.9057221 65.8509864,94.9034151 65.8453747,94.9014375 M144.86259,55.9853335 C144.47439,50.0303878 143.277769,44.1519058 142.233986,38.2862777 C141.952739,36.7072349 140.423706,26 139.734783,26 C139.502391,35.1094058 138.701893,44.0803858 137.669664,53.1393651 C137.361018,55.8475668 137.037848,58.5564277 136.825262,61.2741874 C136.653609,63.4695546 136.959614,66.1220564 136.427819,68.2455739 C135.749129,70.9524573 132.348087,73.4783984 129.702978,74.410795 C123.102915,76.7373371 117.597802,67.1077689 111.960977,64.2911336 C104.643272,60.6347152 92.0637391,59.7639895 84.5816434,64.5297918 C76.9361472,59.7639895 64.356614,60.6347152 57.0389092,64.2911336 C51.4024147,67.1077689 45.8969708,76.7373371 39.2972383,74.410795 C36.6521296,73.4783984 33.2504268,70.9524573 32.572397,68.2455739 C32.0402723,66.1220564 32.346277,63.4695546 32.174954,61.2741874 C31.9623682,58.5564277 31.6388681,55.8475668 31.3302226,53.1393651 C30.2983232,44.0803858 29.4974953,35.1094058 29.2654335,26 C28.5761802,26 27.0468169,36.7072349 26.7658999,38.2862777 C25.7221169,44.1519058 24.5258266,50.0303878 24.1376265,55.9853335 C23.738533,62.1047422 24.2148704,68.1674622 25.4695887,74.1632765 C26.0687242,77.0277016 26.7685407,79.8756475 27.518863,82.7041478 C28.352701,85.8467429 27.198994,91.9661516 27.5723395,95.1921317 C28.2787581,101.29572 31.1542781,113.199679 34.3833375,118.45096 C35.9440605,120.989096 37.7734867,122.573742 39.816489,124.619148 C41.7825775,126.58809 42.6038717,129.640049 44.7260985,131.73687 C48.6820428,135.645092 54.4456266,137.971304 60.3656788,138.543134 C65.6773527,143.050212 74.505605,146 84.4997781,146 C94.4946114,146 103.322534,143.050212 108.634538,138.543134 C114.55393,137.971304 120.317843,135.645092 124.274118,131.73687 C126.396015,129.640049 127.217309,126.58809 129.183727,124.619148 C131.2264,122.573742 133.055826,120.989096 134.616879,118.45096 C137.845608,113.199679 140.721458,101.29572 141.427547,95.1921317 C141.800892,91.9661516 140.647185,85.8467429 141.481353,82.7041478 C142.231676,79.8756475 142.931162,77.0277016 143.530628,74.1632765 C144.784686,68.1674622 145.261353,62.1047422 144.86259,55.9853335 Z"/></defs><mask id="x43" fill="#FFFFFF"><use xlink:href="#x28"/></mask><g id="x4"/><g id="x9" mask="url('#x43')"><g transform="translate(-1,0)"><g id="x8" stroke-width="1" fill="none" fill-rule="evenodd" transform="translate(1,0)"><mask id="x42" fill="#FFFFFF"><use xlink:href="#x32"/></mask><g id="x3"/><path id="x6" d="M116.179148,40 L146,40 C171.405098,40 192,60.5949015 192,86 L192,154.108712 C192,180.650314 210.758775,204.349179 222.609956,226.05167 C234.461138,247.754161 215.254522,268.242596 195.770735,276.769484 C190.902336,278.900091 185.645645,280 180.331438,280 L135.26309,280 C78.9108161,280 70.2166412,216.309596 67.6972794,146.504423 L70.2166412,84.1431398 C71.212998,59.4805095 91.4964003,40 116.179148,40 Z" fill="#CCB55A" mask="url('#x42')"/></g><g id="x5" stroke-width="1" fill="none" fill-rule="evenodd" transform="translate(77,36)"><mask id="x38" fill="#FFFFFF"><use xlink:href="#x30"/></mask><g id="x0"/><path id="x2" d="M98.8014742,19.9396383 C107.026909,29.4843994 112,41.9114359 112,55.5 L112,65.5 L112,61.5 C112,45.7605792 105.327989,31.5794902 94.657974,21.6307409 C63.9198041,32.6768506 38.0141969,32.8027026 16.9411526,22.0082968 C6.50516181,31.936614 -1.90326939e-15,45.958626 0,61.5 L0,61.5 L0,65.5 L0,55.5 C-1.66642407e-15,41.8926148 4.98687681,29.4499771 13.2327229,19.8999944 C9.3991564,16.860899 8.25944611,8.18718262 19.4671989,4.87682391 C31.3115751,1.37843003 29.3063159,-13.2020165 47.4575903,-15.9260752 C65.6088648,-18.6501339 63.9714902,-11.3745857 81.028596,-12.3495122 C98.0857017,-13.3244386 103.635746,-29.1131795 106.849606,-25.0739991 C119.588767,-9.06341321 116.420993,9.34036319 98.8014742,19.9396383 Z" fill-opacity="0.16" fill="#000000" mask="url('#x38')"/></g><path id="x7" d="M90.8779151,52.3613196 C113.02785,65.2272934 140.816672,65.2272934 174.244382,52.3613196 C188.77455,44.5891967 199.330608,29.0424257 182.951044,8.96303524 C180.782417,6.30455678 172.244382,15.6755614 155.351199,16.6504878 C138.458015,17.6254143 142.079654,13.3498661 124.102817,16.0739248 C106.12598,18.7979835 108.111968,33.37843 96.3814191,36.8768239 C84.6508698,40.3752178 86.5778198,49.8635735 90.8779151,52.3613196 Z" fill="#E0C863" fill-rule="evenodd"/><g id="x12" transform="translate(49,72)"><defs><path id="x24" d="M84.0002865,69.2970648 C77.2083681,65.7112456 67.5782013,65.1489138 62.3885276,67.1316942 C56.6144416,69.3374281 51.5052994,75.5829845 42.6388201,72.8283797 C42.2699314,72.7136458 41.9094725,73.0449523 42.0204089,73.408662 C43.3937943,77.9183313 51.0278347,81.0068878 53.6221945,81.1080652 C64.961124,81.549609 74.0949802,72.8302891 84.0002865,72.1614794 C93.9055921,72.8302891 103.03945,81.549609 114.378714,81.1080652 C116.972736,81.0068878 124.607113,77.9183313 125.980498,73.408662 C126.091098,73.0449523 125.730639,72.7136458 125.36175,72.8283797 C116.495271,75.5829845 111.386129,69.3374281 105.612044,67.1316942 C100.422371,65.1489138 90.7922044,65.7112456 84.0002865,69.2970648 Z"/></defs><mask id="x40" fill="#FFFFFF"><use xlink:href="#x24"/></mask><use id="x10" fill="#28354B" fill-rule="evenodd" xlink:href="#x24"/><g id="x75" mask="url('#x40')" fill="#724133"><g transform="translate(-32,0)" id="x11"><rect x="0" y="0" width="264" height="244"/></g></g></g><g id="x19" fill="none" transform="translate(62,85)" stroke-width="1"><defs><filter id="x51" x="-0.8%" y="-2.4%" width="101.5%" height="109.8%" filterUnits="objectBoundingBox"><feOffset dx="0" dy="2" in="SourceAlpha" result="shadowOffsetOuter1"/><feColorMatrix values="0 0 0 0 0 0 0 0 0 0 0 0 0 0 0 0 0 0 0.2 0" type="matrix" in="shadowOffsetOuter1" result="shadowMatrixOuter1"/><feMerge><feMergeNode in="shadowMatrixOuter1"/><feMergeNode in="SourceGraphic"/></feMerge></filter></defs><g id="x13" filter="url('#x51')" transform="translate(8,8)" fill="#D6EAF2"><path id="x18" d="M46.2491397,7.27516667 C48.6207695,7.2975 49.7419096,7.69183333 50.1459601,10.1651667 C50.5553446,12.6705 50.1572949,15.4871667 49.6852359,17.9548333 C48.9648125,21.7228333 47.7666627,25.4145 44.9776475,28.1685 C43.5084639,29.6188333 41.7165732,30.7748333 39.8106684,31.5641667 C38.7985419,31.9835 37.7297416,32.2861667 36.6612747,32.5158333 C36.3489024,32.5828333 33.6822357,32.9501667 35.3177735,32.7635 C31.5009631,33.1991667 27.3601122,33.1818333 24.1723805,30.7525 C20.6396056,28.0601667 18.2203032,23.7998333 17.1565036,19.5561667 C16.5340925,17.0731667 15.2262624,11.1345 17.6158944,9.14916667 C20.3532365,6.8745 46.2491397,7.27516667 46.2491397,7.27516667 L46.2491397,7.27516667 Z M22.2178029,0.4905 C16.7774562,0.677833333 13.1466691,1.63383333 10.4633337,7.06916667 C5.54571911,17.0301667 13.9627711,31.9688333 23.352278,36.0395 C34.3293166,40.7991667 46.5921826,35.5318333 52.3955746,26.0058333 C55.4689587,20.9621667 57.0224862,13.3231667 56.9224737,7.50383333 C56.7951245,0.0765 51.6071427,-0.1295 45.5090472,0.0338333333 L22.2178029,0.4905 Z"/><path id="x17" d="M79.6805515,7.27256667 C77.3089217,7.29523333 76.1877816,7.68923333 75.7837311,10.1625667 C75.3743466,12.6679 75.7723963,15.4845667 76.244122,17.9522333 C76.9648787,21.7202333 78.1630285,25.4119 80.9520437,28.1659 C82.4212273,29.6162333 84.213118,30.7722333 86.1190228,31.5619 C87.1311493,31.9809 88.1999496,32.2835667 89.2684165,32.5132333 C89.5807888,32.5802333 92.2471221,32.9479 90.6119177,32.7609 C94.4287281,33.1965667 98.569579,33.1792333 101.757311,30.7499 C105.290086,28.0575667 107.709388,23.7975667 108.773188,19.5539 C109.395599,17.0705667 110.703095,11.1322333 108.313797,9.14656667 C105.576455,6.8719 79.6805515,7.27256667 79.6805515,7.27256667 L79.6805515,7.27256667 Z M103.711555,0.4879 C109.152235,0.675233333 112.783022,1.63156667 115.466357,7.06656667 C120.383639,17.0275667 111.96692,31.9662333 102.577413,36.0372333 C91.6003746,40.7965667 79.3375086,35.5292333 73.5337832,26.0035667 C70.4607325,20.9595667 68.907205,13.3205667 69.0068841,7.50123333 C69.1345667,0.0739 74.3225485,-0.1321 80.420644,0.0315666667 L103.711555,0.4879 Z"/><path id="x16" d="M13.1969483,4.9267 C9.78501392,5.11836667 5.88606327,5.16436667 2.69005822,6.63936667 C-0.69461078,8.20136667 -1.2176675,11.7387 3.04920921,12.2260333 C4.97094906,12.4457 6.89488267,12.0827 8.78716336,11.7450333 C10.336903,11.4683667 12.4419791,11.5580333 13.9064752,10.9657 C16.6355213,9.86236667 16.4603333,4.74003333 13.1969483,4.9267"/><path id="x15" d="M112.73467,4.9267 C116.146606,5.11836667 120.045559,5.16436667 123.241565,6.63936667 C126.626236,8.20136667 127.149293,11.7387 122.882414,12.2260333 C120.960673,12.4457 119.036739,12.0827 117.144457,11.7450333 C115.594717,11.4683667 113.489639,11.5580333 112.025143,10.9657 C109.295782,9.86236667 109.471283,4.74003333 112.73467,4.9267"/><path id="x14" d="M73.1094302,7.01263333 C71.1631869,4.71263333 66.0912197,3.38463333 62.8914864,3.38463333 C59.6914198,3.38463333 54.7681378,4.71263333 52.8222279,7.01263333 C51.8407719,8.1723 51.8074344,9.72396667 53.5083137,10.4509667 C55.6262451,11.3566333 57.5174814,9.7143 59.2126933,8.8553 C61.3809643,7.75663333 64.7120473,7.8773 66.7189648,8.8553 C68.4271783,9.68796667 70.3050797,11.3566333 72.4233444,10.4509667 C74.1242237,9.72396667 74.0908862,8.1723 73.1094302,7.01263333"/></g></g> </g></g></g> </g></g></g></g></svg>