<?xml version="1.0" encoding="utf-8" ?><!DOCTYPE svg PUBLIC "-//W3C//DTD SVG 1.1//EN" "http://www.w3.org/Graphics/SVG/1.1/DTD/svg11.dtd"><svg width="280px" height="280px" viewBox="-6 0 274 280" version="1.1" xmlns="http://www.w3.org/2000/svg" xmlns:xlink="http://www.w3.org/1999/xlink"><desc>Py-Avataaars</desc> <g id="x34" stroke="none" stroke-width="1" fill="none" fill-rule="evenodd"><defs><circle id="x16" cx="120" cy="120" r="120"/><path id="x19" d="M12,160 C12,226.27417 65.72583,280 132,280 C198.27417,280 252,226.27417 252,160 L264,160 L264,-1.42108547e-14 L-3.19744231e-14,-1.42108547e-14 L-3.19744231e-14,160 L12,160 Z"/><path id="x24" d="M124,144.610951 L124,163 L128,163 L128,163 C167.764502,163 200,195.235498 200,235 L200,244 L0,244 L0,235 C-4.86974701e-15,195.235498 32.235498,163 72,163 L72,163 L76,163 L76,144.610951 C58.7626345,136.422372 46.3722246,119.687011 44.3051388,99.8812385 C38.4803105,99.0577866 34,94.0521096 34,88 L34,74 C34,68.0540074 38.3245733,63.1180731 44,62.1659169 L44,56 L44,56 C44,25.072054 69.072054,5.68137151e-15 100,0 L100,0 L100,0 C130.927946,-5.68137151e-15 156,25.072054 156,56 L156,62.1659169 C161.675427,63.1180731 166,68.0540074 166,74 L166,88 C166,94.0521096 161.51969,99.0577866 155.694861,99.8812385 C153.627775,119.687011 141.237365,136.422372 124,144.610951 Z"/></defs><g id="x32" transform="translate(-825,-1100)"><g transform="translate(825,1100)"> <g id="x33" stroke-width="1" fill-rule="evenodd" mask="url('#py-avataaars-path-dc231d49-3aa5-4393-818b-6e24d481accf')"><g id="x31" transform="translate(32,36)"><mask id="x18" fill="#FFFFFF"><use xlink:href="#x24"/></mask><use fill="#D0C6AC" xlink:href="#x24"/><g id="x13" mask="url('#x18')" fill="#FFDBB4"><g transform="translate(0,0)" id="x14"><rect x="0" y="0" width="264" height="280"/></g></g> <path id="x30" d="M156,79 L156,102 C156,132.927946 130.927946,158 100,158 C69.072054,158 44,132.927946 44,102 L44,79 L44,94 C44,124.927946 69.072054,150 100,150 C130.927946,150 156,124.927946 156,94 L156,79 Z" fill-opacity="0.1" fill="#000000" mask="url('#x18')"/></g><g id="x56" transform="translate(0,170)"><defs><path id="x15" d="M105.192402,29.0517235 L104,29.0517235 L104,29.0517235 C64.235498,29.0517235 32,61.2872215 32,101.051724 L32,110 L232,110 L232,101.051724 C232,61.2872215 199.764502,29.0517235 160,29.0517235 L160,29.0517235 L158.807598,29.0517235 C158.934638,30.0353144 159,31.0364513 159,32.0517235 C159,45.8588423 146.911688,57.0517235 132,57.0517235 C117.088312,57.0517235 105,45.8588423 105,32.0517235 C105,31.0364513 105.065362,30.0353144 105.192402,29.0517235 Z"/></defs><mask id="x29" fill="#FFFFFF"><use xlink:href="#x15"/></mask><use id="x53" fill="#E6E6E6" fill-rule="evenodd" xlink:href="#x15"/><g id="x51" mask="url('#x29')" fill-rule="evenodd" fill="#262E33"><rect id="x55" x="0" y="0" width="264" height="110"/></g><g id="x54" stroke-width="1" fill-rule="evenodd" transform="translate(32,28)"><path id="x49" d="M68.784807,1.12222847 C30.512317,2.80409739 1.24427139e-14,34.3646437 0,73.0517235 L0,82 L69.3616767,82 C65.9607412,69.9199941 64,55.7087296 64,40.5 C64,26.1729736 65.7399891,12.7311115 68.784807,1.12222847 Z M131.638323,82 L200,82 L200,73.0517235 C200,34.7067641 170.024954,3.36285166 132.228719,1.17384225 C135.265163,12.7709464 137,26.1942016 137,40.5 C137,55.7087296 135.039259,69.9199941 131.638323,82 Z" fill="#3A4C5A"/><path id="x50" d="M149,58 L158.555853,50.83311 L158.555853,50.83311 C159.998897,49.7508275 161.987779,49.7682725 163.411616,50.8757011 L170,56 L149,58 Z" fill="#E6E6E6"/><path id="x48" d="M69,1.13686838e-13 C65,19.3333333 66.6666667,46.6666667 74,82 L58,82 L44,46 L50,37 L44,31 L63,1 C65.027659,0.369238637 67.027659,0.0359053037 69,1.13686838e-13 Z" fill="#2F4351"/><path id="x47" d="M151,1.13686838e-13 C147,19.3333333 148.666667,46.6666667 156,82 L140,82 L126,46 L132,37 L126,31 L145,1 C147.027659,0.369238637 149.027659,0.0359053037 151,1.13686838e-13 Z" fill="#2F4351" transform="translate(141,41) scale(-1, 1) translate(-141,-41)"/></g><path id="x52" d="M156,21.5390062 C162.772319,26.1359565 167,32.6563196 167,39.8878801 C167,47.2887711 162.572015,53.9447688 155.520105,58.5564942 L149.57933,53.8764929 L145,54.207887 L146,51.0567821 L145.922229,50.995516 C152.022491,47.8530505 156,42.7003578 156,36.8768102 L156,21.5390062 Z M108,21.5390062 C101.227681,26.1359565 97,32.6563196 97,39.8878801 C97,47.2887711 101.427985,53.9447688 108.479895,58.5564942 L114.42067,53.8764929 L119,54.207887 L118,51.0567821 L118.077771,50.995516 C111.977509,47.8530505 108,42.7003578 108,36.8768102 L108,21.5390062 Z" fill="#F2F2F2" fill-rule="evenodd"/></g><g id="x46" transform="translate(76,82)" fill="#000000"><g id="x38" transform="translate(2,52)" fill-opacity="0.7"><path id="x37" d="M40,15 C40,22.7319865 46.2680135,29 54,29 L54,29 C61.7319865,29 68,22.7319865 68,15"/></g><g id="x36" transform="translate(28,40)" fill-opacity="0.16"><path id="x35" d="M16,8 C16,12.418278 21.372583,16 28,16 L28,16 C34.627417,16 40,12.418278 40,8"/></g><g id="x41" transform="translate(0,8)" fill-opacity="0.8" fill-rule="nonzero" fill="#FF5353"><path id="x40" d="M35.9583333,10 C33.4074091,10 30.8837273,11.9797894 29.5,13.8206358 C28.1106364,11.9797894 25.5925909,10 23.0416667,10 C17.5523182,10 14,13.3341032 14,17.6412715 C14,23.3708668 18.4118636,26.771228 23.0416667,30.376724 C24.695,31.6133636 27.8223436,34.7777086 28.2083333,35.470905 C28.5943231,36.1641015 30.3143077,36.1885229 30.7916667,35.470905 C31.2690257,34.7532872 34.3021818,31.6133636 35.9583333,30.376724 C40.5853182,26.771228 45,23.3708668 45,17.6412715 C45,13.3341032 41.4476818,10 35.9583333,10 Z"/><path id="x39" d="M88.9583333,10 C86.4074091,10 83.8837273,11.9797894 82.5,13.8206358 C81.1106364,11.9797894 78.5925909,10 76.0416667,10 C70.5523182,10 67,13.3341032 67,17.6412715 C67,23.3708668 71.4118636,26.771228 76.0416667,30.376724 C77.695,31.6133636 80.8223436,34.7777086 81.2083333,35.470905 C81.5943231,36.1641015 83.3143077,36.1885229 83.7916667,35.470905 C84.2690257,34.7532872 87.3021818,31.6133636 88.9583333,30.376724 C93.5853182,26.771228 98,23.3708668 98,17.6412715 C98,13.3341032 94.4476818,10 88.9583333,10 Z"/></g><g id="x45" fill-opacity="0.6"><g id="x44" transform="translate(12,0)"><path id="x43" d="M3.97579559,17.1279169 C5.47099148,7.60476158 18.0585488,1.10867597 27.1635167,5.30104271 C28.1668367,5.76301969 29.3546946,5.32417444 29.8166716,4.32085442 C30.2786486,3.3175344 29.8398033,2.12967649 28.8364833,1.66769952 C17.3488212,-3.62177466 1.93575948,4.3324746 0.0242044059,16.507492 C-0.147121205,17.5986938 0.598585765,18.6221744 1.68978754,18.7935 C2.78098932,18.9648257 3.80446998,18.2191187 3.97579559,17.1279169 Z" fill-rule="nonzero"/><path id="x42" d="M61.9757956,17.1279169 C63.4709915,7.60476158 76.0585488,1.10867597 85.1635167,5.30104271 C86.1668367,5.76301969 87.3546946,5.32417444 87.8166716,4.32085442 C88.2786486,3.3175344 87.8398033,2.12967649 86.8364833,1.66769952 C75.3488212,-3.62177466 59.9357595,4.3324746 58.0242044,16.507492 C57.8528788,17.5986938 58.5985858,18.6221744 59.6897875,18.7935 C60.7809893,18.9648257 61.80447,18.2191187 61.9757956,17.1279169 Z" fill-rule="nonzero" transform="translate(73.000097, 9.410436) scale(-1, 1) translate(-73.000097, -9.410436)"/></g></g></g><g id="x1" stroke-width="1" fill-rule="evenodd"><defs><rect id="x17" x="0" y="0" width="264" height="280"/><path id="x21" d="M156,180.610951 C173.530782,172.282984 186.048193,155.114792 187.791419,134.867187 C193.569129,134.002364 198,129.018625 198,123 L198,110 C198,104.054007 193.675427,99.1180731 188,98.1659169 L188,92 C188,61.072054 162.927946,36 132,36 C101.072054,36 76,61.072054 76,92 L76,92 L76,98.1659169 C70.3245733,99.1180731 66,104.054007 66,110 L66,123 C66,129.018625 70.4308707,134.002364 76.2085808,134.867187 C77.9518066,155.114792 90.4692178,172.282984 108,180.610951 L108,199 L104,199 L104,199 C64.235498,199 32,231.235498 32,271 L32,280 L232,280 L232,271 C232,231.235498 199.764502,199 160,199 L156,199 L156,180.610951 Z M0,5.68434189e-14 L264,5.68434189e-14 L264,280 L0,280 L0,5.68434189e-14 Z"/><rect id="x20" x="0" y="0" width="112" height="150" rx="56"/><path id="x22" d="M65.1802189,77.7372986 C67.3631845,76.1045334 80.4065113,75.4786511 82.757829,74.0894494 C83.4916461,73.6553857 84.0610723,73.215719 84.4997781,72.7800074 C84.938814,73.215719 85.5085703,73.6553857 86.2423874,74.0894494 C88.593375,75.4786511 101.636702,76.1045334 103.819667,77.7372986 C106.030032,79.3908276 107.643571,83.1846831 107.466966,86.15095 C107.255041,89.7101408 103.361486,98.2028927 93.6723269,99.1811016 C91.5576925,96.8281927 88.2368647,95.3104528 84.4997781,95.3104528 C80.7633517,95.3104528 77.4421938,96.8281927 75.3275594,99.1811016 C65.6387308,98.2028927 61.7451757,89.7101408 61.5332501,86.15095 C61.3566455,83.1846831 62.9701849,79.3908276 65.1802189,77.7372986 M103.141638,94.9063813 C103.142958,94.9057221 103.144609,94.905063 103.145929,94.9047334 C103.144278,94.905063 103.142958,94.9057221 103.141638,94.9063813 M65.8453747,94.9014375 C65.8493359,94.9030855 65.8565982,94.9057221 65.8618798,94.9076997 C65.8565982,94.9057221 65.8509864,94.9034151 65.8453747,94.9014375 M144.86259,55.9853335 C144.47439,50.0303878 143.277769,44.1519058 142.233986,38.2862777 C141.952739,36.7072349 140.423706,26 139.734783,26 C139.502391,35.1094058 138.701893,44.0803858 137.669664,53.1393651 C137.361018,55.8475668 137.037848,58.5564277 136.825262,61.2741874 C136.653609,63.4695546 136.959614,66.1220564 136.427819,68.2455739 C135.749129,70.9524573 132.348087,73.4783984 129.702978,74.410795 C123.102915,76.7373371 117.597802,67.1077689 111.960977,64.2911336 C104.643272,60.6347152 92.0637391,59.7639895 84.5816434,64.5297918 C76.9361472,59.7639895 64.356614,60.6347152 57.0389092,64.2911336 C51.4024147,67.1077689 45.8969708,76.7373371 39.2972383,74.410795 C36.6521296,73.4783984 33.2504268,70.9524573 32.572397,68.2455739 C32.0402723,66.1220564 32.346277,63.4695546 32.174954,61.2741874 C31.9623682,58.5564277 31.6388681,55.8475668 31.3302226,53.1393651 C30.2983232,44.0803858 29.4974953,35.1094058 29.2654335,26 C28.5761802,26 27.0468169,36.7072349 26.7658999,38.2862777 C25.7221169,44.1519058 24.5258266,50.0303878 24.1376265,55.9853335 C23.738533,62.1047422 24.2148704,68.1674622 25.4695887,74.1632765 C26.0687242,77.0277016 26.7685407,79.8756475 27.518863,82.7041478 C28.352701,85.8467429 27.198994,91.9661516 27.5723395,95.1921317 C28.2787581,101.29572 31.1542781,113.199679 34.3833375,118.45096 C35.9440605,120.989096 37.7734867,122.573742 39.816489,124.619148 C41.7825775,126.58809 42.6038717,129.640049 44.7260985,131.73687 C48.6820428,135.645092 54.4456266,137.971304 60.3656788,138.543134 C65.6773527,143.050212 74.505605,146 84.4997781,146 C94.4946114,146 103.322534,143.050212 108.634538,138.543134 C114.55393,137.971304 120.317843,135.645092 124.274118,131.73687 C126.396015,129.640049 127.217309,126.58809 129.183727,124.619148 C131.2264,122.573742 133.055826,120.989096 134.616879,118.45096 C137.845608,113.199679 140.721458,101.29572 141.427547,95.1921317 C141.800892,91.9661516 140.647185,85.8467429 141.481353,82.7041478 C142.231676,79.8756475 142.931162,77.0277016 143.530628,74.1632765 C144.784686,68.1674622 145.261353,62.1047422 144.86259,55.9853335 Z"/></defs><mask id="x25" fill="#FFFFFF"><use xlink:href="#x17"/></mask><g id="x4"/><g id="x9" mask="url('#x25')"><g transform="translate(-1,0)"><g id="x8" stroke-width="1" fill="none" fill-rule="evenodd" transform="translate(1,0)"><mask id="x28" fill="#FFFFFF"><use xlink:href="#x21"/></mask><g id="x3"/><path id="x6" d="M116.179148,40 L146,40 C171.405098,40 192,60.5949015 192,86 L192,154.108712 C192,180.650314 210.758775,204.349179 222.609956,226.05167 C234.461138,247.754161 215.254522,268.242596 195.770735,276.769484 C190.902336,278.900091 185.645645,280 180.331438,280 L135.26309,280 C78.9108161,280 70.2166412,216.309596 67.6972794,146.504423 L70.2166412,84.1431398 C71.212998,59.4805095 91.4964003,40 116.179148,40 Z" fill="#CCB55A" mask="url('#x28')"/></g><g id="x5" stroke-width="1" fill="none" fill-rule="evenodd" transform="translate(77,36)"><mask id="x26" fill="#FFFFFF"><use xlink:href="#x20"/></mask><g id="x0"/><path id="x2" d="M98.8014742,19.9396383 C107.026909,29.4843994 112,41.9114359 112,55.5 L112,65.5 L112,61.5 C112,45.7605792 105.327989,31.5794902 94.657974,21.6307409 C63.9198041,32.6768506 38.0141969,32.8027026 16.9411526,22.0082968 C6.50516181,31.936614 -1.90326939e-15,45.958626 0,61.5 L0,61.5 L0,65.5 L0,55.5 C-1.66642407e-15,41.8926148 4.98687681,29.4499771 13.2327229,19.8999944 C9.3991564,16.860899 8.25944611,8.18718262 19.4671989,4.87682391 C31.3115751,1.37843003 29.3063159,-13.2020165 47.4575903,-15.9260752 C65.6088648,-18.6501339 63.9714902,-11.3745857 81.028596,-12.3495122 C98.0857017,-13.3244386 103.635746,-29.1131795 106.849606,-25.0739991 C119.588767,-9.06341321 116.420993,9.34036319 98.8014742,19.9396383 Z" fill-opacity="0.16" fill="#000000" mask="url('#x26')"/></g><path id="x7" d="M90.8779151,52.3613196 C113.02785,65.2272934 140.816672,65.2272934 174.244382,52.3613196 C188.77455,44.5891967 199.330608,29.0424257 182.951044,8.96303524 C180.782417,6.30455678 172.244382,15.6755614 155.351199,16.6504878 C138.458015,17.6254143 142.079654,13.3498661 124.102817,16.0739248 C106.12598,18.7979835 108.111968,33.37843 96.3814191,36.8768239 C84.6508698,40.3752178 86.5778198,49.8635735 90.8779151,52.3613196 Z" fill="#E0C863" fill-rule="evenodd"/><g id="x12" transform="translate(49,72)"><defs><path id="x23" d='M105.017591,94.1296214 C101.150441,99.7213834 98.257542,95.9467308 94.1374777,92.8762163 C91.6567227,91.0272796 87.9608129,88.7275108 84.5044337,88.8410391 C81.0477114,88.7275108 77.3518016,91.0272796 74.8710466,92.8762163 C70.7509822,95.9467308 67.8580835,99.7213834 63.9909333,94.1296214 C61.0884259,89.9323547 62.3028943,82.8739117 65.014944,78.9027173 C68.8738581,73.2512381 74.1088724,75.9847769 79.9622738,75.3400279 C81.5538829,75.1648137 83.1526985,74.7228407 84.5044337,74 C85.856169,74.7228407 87.4546414,75.1648137 89.0462504,75.3400279 C94.899995,75.9847769 100.134666,73.2512381 103.993923,78.9027173 C106.70563,82.8739117 107.920098,89.9323547 105.017591,94.1296214 M140.39109,26 C136.966521,40.0748212 135.393023,54.4337754 132.909944,68.6711471 C132.392536,71.6390145 131.826063,74.5963095 131.224594,77.5496398 C131.098329,78.1697764 130.973781,80.4725746 130.362704,80.7643064 C128.511632,81.6484223 124.739149,76.9466834 123.730409,75.8851496 C121.196893,73.219256 118.684993,70.5292442 115.599415,68.437233 C109.364783,64.2102603 102.065485,61.7108818 94.4700836,61.117837 C91.2922091,60.8693859 86.9951134,61.3025234 84.000116,63.1104016 C81.0051185,61.3025234 76.7080229,60.8693859 73.5298053,61.117837 C65.9344039,61.7108818 58.6351055,64.2102603 52.4004739,68.437233 C49.3148957,70.5292442 46.8033387,73.219256 44.2694796,75.8851496 C43.2607395,76.9466834 39.4882573,81.6484223 37.6371849,80.7643064 C37.0261079,80.4725746 36.9015594,78.1697764 36.7752954,77.5496398 C36.1738255,74.5963095 35.6073527,71.6390145 35.0899445,68.6711471 C32.6072086,54.4337754 31.0337113,40.0748212 27.6091415,26 C26.6127533,26 25.7385119,44.7478165 25.6273446,46.4945731 C25.174784,53.5889755 24.6463963,60.5254529 25.3216346,67.6261326 C26.485803,79.8749043 27.6993791,95.2339402 37.032627,104.58753 C45.4659003,113.039493 57.7103052,114.806417 68.2713185,120.141327 C69.631059,120.828202 71.4347824,121.676306 73.3798667,122.37111 C75.4289129,123.934171 79.4926946,125 84.1740722,125 C89.0846465,125 93.3155222,123.827456 95.2540874,122.137856 C96.9548781,121.49261 98.5180822,120.752874 99.7285704,120.141327 C110.288776,114.805245 122.533989,113.039493 130.967262,104.58753 C140.30051,95.2339402 141.514086,79.8749043 142.678597,67.6261326 C143.353493,60.5254529 142.825105,53.5889755 142.372887,46.4945731 C142.261377,44.7478165 141.387136,26 140.39109,26 Z' /></defs><mask id="x27" fill="#FFFFFF"><use xlink:href="#x23"/></mask><use id="x11" fill="#252E32" fill-rule="evenodd" xlink:href="#x23"/><g id="color-facial-hair-blonde_golden" mask="url('#x27')" fill="#D6B370"><g transform="translate(-32,0)" id="x10"><rect x="0" y="0" width="264" height="244"/></g></g></g> </g></g></g> </g></g></g></g></svg>