<?xml version="1.0" encoding="utf-8" ?><!DOCTYPE svg PUBLIC "-//W3C//DTD SVG 1.1//EN" "http://www.w3.org/Graphics/SVG/1.1/DTD/svg11.dtd"><svg width="280px" height="280px" viewBox="-6 0 274 280" version="1.1" xmlns="http://www.w3.org/2000/svg" xmlns:xlink="http://www.w3.org/1999/xlink"><desc>Py-Avataaars</desc> <g id="x32" stroke="none" stroke-width="1" fill="none" fill-rule="evenodd"><defs><circle id="x13" cx="120" cy="120" r="120"/><path id="x19" d="M12,160 C12,226.27417 65.72583,280 132,280 C198.27417,280 252,226.27417 252,160 L264,160 L264,-1.42108547e-14 L-3.19744231e-14,-1.42108547e-14 L-3.19744231e-14,160 L12,160 Z"/><path id="x14" d="M124,144.610951 L124,163 L128,163 L128,163 C167.764502,163 200,195.235498 200,235 L200,244 L0,244 L0,235 C-4.86974701e-15,195.235498 32.235498,163 72,163 L72,163 L76,163 L76,144.610951 C58.7626345,136.422372 46.3722246,119.687011 44.3051388,99.8812385 C38.4803105,99.0577866 34,94.0521096 34,88 L34,74 C34,68.0540074 38.3245733,63.1180731 44,62.1659169 L44,56 L44,56 C44,25.072054 69.072054,5.68137151e-15 100,0 L100,0 L100,0 C130.927946,-5.68137151e-15 156,25.072054 156,56 L156,62.1659169 C161.675427,63.1180731 166,68.0540074 166,74 L166,88 C166,94.0521096 161.51969,99.0577866 155.694861,99.8812385 C153.627775,119.687011 141.237365,136.422372 124,144.610951 Z"/></defs><g id="x30" transform="translate(-825,-1100)"><g transform="translate(825,1100)"> <g id="x31" stroke-width="1" fill-rule="evenodd" mask="url('#py-avataaars-path-8aa4001f-fcfa-42e3-8edb-d0c54675bd89')"><g id="x29" transform="translate(32,36)"><mask id="x20" fill="#FFFFFF"><use xlink:href="#x14"/></mask><use fill="#D0C6AC" xlink:href="#x14"/><g id="x11" mask="url('#x20')" fill="#FFDBB4"><g transform="translate(0,0)" id="x12"><rect x="0" y="0" width="264" height="280"/></g></g> <path id="x28" d="M156,79 L156,102 C156,132.927946 130.927946,158 100,158 C69.072054,158 44,132.927946 44,102 L44,79 L44,94 C44,124.927946 69.072054,150 100,150 C130.927946,150 156,124.927946 156,94 L156,79 Z" fill-opacity="0.1" fill="#000000" mask="url('#x20')"/></g><g id="x53" transform="translate(0,170)"><defs><path id="x15" d="M165.624032,29.2681342 C202.760022,32.1373245 232,63.1798426 232,101.051724 L232,110 L32,110 L32,101.051724 C32,62.8348009 61.7752018,31.5722494 99.3929298,29.1967444 C99.1342224,30.2735458 99,31.3767131 99,32.5 C99,44.3741221 113.998461,54 132.5,54 C151.001539,54 166,44.3741221 166,32.5 C166,31.4015235 165.871641,30.3222877 165.624025,29.2681336 Z"/></defs><mask id="x26" fill="#FFFFFF"><use xlink:href="#x15"/></mask><use id="x52" fill="#E6E6E6" fill-rule="evenodd" xlink:href="#x15"/><g id="py-avataaars-clothes-clothe-color-palette-blue_03" mask="url('#x26')" fill-rule="evenodd" fill="#25557C"><rect id="x54" x="0" y="0" width="264" height="110"/></g><g id="x51" mask="url('#x26'" stroke-width="1" fill-rule="evenodd"><g transform="translate(77,58)" id="x47"><g transform="translate(35,1)"><path id="x50" d="M30.9332298,24.3911229 C26.8510636,25.7713262 22.3826909,27.7147062 20.0279438,31.464875 C18.1805823,34.4072634 18.056518,31.0097105 15.4771364,32.0578917 C12.9702973,33.0766532 13.6557418,37.2811459 12.7452506,39.3594362 C12.0367243,38.1679392 11.7020395,36.8427927 10.8096839,35.755105 C11.5033719,35.309607 12.1459503,34.7115469 12.6240715,34.0306915 C12.7802853,33.7116981 7.83173048,34.3791045 7.54774295,34.4602188 C6.13687312,34.8620076 4.80843799,35.231855 3.46021853,35.8900153 C3.8167486,35.3734898 4.16627171,34.8531817 4.51043656,34.3282505 C4.82039102,33.8562748 5.1253994,33.3800962 5.42463735,32.9009757 C5.63196061,32.2209608 6.00126805,32.2188594 6.53255966,32.8950918 C7.28147888,32.931236 7.71055147,33.2519105 8.49450544,33.0724504 C11.4098085,32.4054642 12.3380232,26.8489271 8.74469474,27.0851251 C10.3237313,24.2158656 11.7251212,21.3024766 12.9975007,18.2831768 C13.4999402,22.5742474 19.0774717,21.0961186 20.7166857,18.8076877 C22.8571026,15.8190684 20.1132637,10.1456931 16.2334747,10.6962614 C16.8142272,9.32068116 17.4036352,7.93375334 17.8825808,6.5182464 C18.9752527,8.1287638 20.8844403,8.90880562 22.421023,9.97463863 C24.031797,11.0917459 25.3940304,12.414791 26.5839752,13.9807586 C28.9704596,17.1210994 30.3767956,20.9881063 32.7987269,24.0334636 C32.1610946,24.0675064 31.539537,24.1868662 30.9332298,24.3911229 M39.9388082,20.0029673 C39.306534,14.2455357 34.7895249,8.40194655 30.4996233,4.82661475 C27.9499181,2.7020935 20.2587609,-2.55814545 17.1930146,1.48706068 C19.664819,2.55835735 22.3921709,2.81640998 24.8425422,3.97596569 C28.1630118,5.5482375 30.7646508,8.13506801 33.0114085,11.0312255 C36.1484608,15.075591 40.9816071,23.3139423 33.485408,25.4170292 C34.0030979,25.0791231 34.3035723,24.7080149 34.7132728,24.1086939 C33.706333,23.8762784 34.1131482,22.231298 33.7590912,21.1570594 C33.3473298,19.9063026 32.549362,18.6904293 31.874634,17.5745828 C30.8042195,15.803518 29.6278764,14.0408588 28.3707472,12.4038637 C26.692789,10.2179814 24.685092,8.49735037 22.3938196,7.00829423 C21.4874501,6.41948033 20.6190006,5.89749114 19.5774382,5.59320758 C18.2279822,5.19898385 18.6698322,5.67936522 18.3005247,4.44668058 C18.0692954,3.67420382 18.277443,2.68402141 18.0548693,1.85480669 C16.0817949,3.51323614 15.4400408,5.90967929 14.5555165,8.23635577 C13.5353871,10.9202712 12.4328231,13.5714048 11.3591111,16.2330453 C8.72367389,22.767997 5.32530354,28.6283975 1.46777192,34.479972 C0.796341323,35.4991538 -0.697375374,37.4299255 0.377573066,38.6537842 C1.33876162,39.7486166 2.7084141,38.9597489 3.76399039,38.5150914 C5.20041497,37.9107271 7.14917119,36.3506434 8.69894348,37.1680903 C10.6971605,38.2221554 9.75287108,42.1522045 12.9130052,41.9954397 C16.0265636,41.8407762 15.4404529,36.7154475 16.4395615,34.6775042 C18.7514425,36.3628316 20.615291,35.3171721 22.0187417,33.0665665 C23.6451783,30.4578814 25.7942508,29.4101204 28.5323192,28.1291035 C29.6521946,27.6050129 31.5663282,26.1899262 32.7327792,26.0138284 C33.6980895,25.8688314 34.6254798,26.8972594 35.915995,26.8506082 C39.0138909,26.7375526 40.3077034,22.5977832 39.9388082,20.0029673" fill="#FFFFFF"/><path id="x49" d="M18.5372079,22.8336349 C16.1119296,22.3885123 12.7302873,22.7596628 12.5083803,25.9869094 C12.3721811,27.9648021 13.9174686,29.8351772 15.5900451,30.6510203 C20.7121513,33.1501581 24.6988403,23.9625691 18.5372079,22.8336349" fill="#FFFFFF"/><path id="x48" d="M28.3362306,19.157604 C27.6856351,18.4518413 26.6326311,17.918164 25.6605301,18.1654572 C25.9719227,17.9508815 26.2293799,17.5642204 26.5251817,17.3262751 C23.3686979,15.0403008 21.3853086,20.8049502 23.1786599,23.0743534 C25.8964974,26.5139375 31.2158743,22.3078297 28.3362306,19.157604" fill="#FFFFFF"/></g></g></g></g><g id="x46" transform="translate(76,82)" fill="#000000"><g id="x39" transform="translate(2,52)"><defs><path id="x21" d="M34.0082051,15.1361102 C35.1280248,29.123916 38.2345159,40.9925405 53.9961505,40.9999965 C69.757785,41.0074525 72.9169073,29.0566179 73.9942614,15.0063928 C74.0809675,13.8756222 73.1738581,12.9999965 72.0369872,12.9999965 C65.3505138,12.9999965 62.6703194,14.9936002 53.9894323,14.9999965 C45.3085452,15.0063928 40.7567994,12.9999965 36.0924943,12.9999965 C34.9490269,12.9999965 33.8961688,13.7366502 34.0082051,15.1361102 Z"/><rect id="x16" x="39" y="2" width="31" height="16" rx="5"/></defs><mask id="x27" fill="#FFFFFF"><use xlink:href="#x21" transform="translate(54.0, 27.0) scale(1, -1) translate(-54.0, -27.0)"/></mask><use id="x38" fill-opacity="0.7" fill="#000000" fill-rule="evenodd" transform="translate(54.0, 27.0) scale(1, -1) translate(-54.0, -27.0)" xlink:href="#x21"/><use id="x36" stroke-width="1" fill-rule="evenodd" mask="url('#x27')" fill="#FFFFFF" xlink:href="#x16"/><g id="x35" stroke-width="1" fill-rule="evenodd" mask="url('#x27')" fill="#FF4F6D"><g id="x37" transform="translate(38,32)"><circle cx="11" cy="11" r="11"/><circle cx="21" cy="11" r="11"/></g></g></g><g id="x34" transform="translate(28,40)" fill-opacity="0.16"><path id="x33" d="M16,8 C16,12.418278 21.372583,16 28,16 L28,16 C34.627417,16 40,12.418278 40,8"/></g><g id="x42" transform="translate(0,8)" fill-opacity="0.6"><circle id="x41" cx="30" cy="22" r="6"/><path id="x40" d="M70.4123979,24.204889 C72.2589064,20.4060854 76.4166529,17.7575774 81.2498107,17.7575774 C86.065907,17.7575774 90.2113521,20.3874194 92.0675822,24.1647016 C92.618991,25.2867751 91.8343342,26.2050591 91.0428374,25.5246002 C88.5917368,23.4173607 85.1109468,22.1013658 81.2498107,22.1013658 C77.5094365,22.1013658 74.1259889,23.3363293 71.6897696,25.3292186 C70.7990233,26.0578718 69.8723316,25.3159619 70.4123979,24.204889 Z" transform="translate(81.252230, 21.757577) rotate(-4.0) translate(-81.252230, -21.757577)"/></g><g id="x45" fill-opacity="0.6"><path id="x44" d="M22.7663531,1.57844898 L23.6772984,1.17582144 C28.9190996,-0.905265751 36.8645466,-0.0328729562 41.7227321,2.29911638 C42.2897848,2.57148957 41.9021563,3.4519421 41.3211012,3.40711006 C26.4021788,2.25602197 16.3582869,11.5525942 12.9460869,17.8470939 C12.8449215,18.0337142 12.5391523,18.05489 12.4635344,17.8808353 C10.156283,12.5620676 16.9134476,3.89614725 22.7663531,1.57844898 Z"/><path id="x43" d="M80.7663531,1.57844898 L81.6772984,1.17582144 C86.9190996,-0.905265751 94.8645466,-0.0328729562 99.7227321,2.29911638 C100.289785,2.57148957 99.9021563,3.4519421 99.3211012,3.40711006 C84.4021788,2.25602197 74.3582869,11.5525942 70.9460869,17.8470939 C70.8449215,18.0337142 70.5391523,18.05489 70.4635344,17.8808353 C68.156283,12.5620676 74.9134476,3.89614725 80.7663531,1.57844898 Z" transform="translate(85,9) scale(-1, 1) translate(-85,-9) "/></g></g><g id="x0" stroke-width="1" fill-rule="evenodd"><defs><rect id="x17" x="0" y="0" width="264" height="280"/><path id="x22" d="M148.859344,69 C148.952588,70.3212062 149,71.6550662 149,73 L149,111 C149,133.339168 135.919579,152.623239 117,161.610951 L117,170.317435 C135.145605,171.815797 152.721153,174.335027 163.000169,177 C172.952646,163.439362 185.884594,150.800081 186.000169,126 C186.085192,107.014914 158.324059,30.4276364 146.000169,15 C137.861928,4.81215989 117.30504,1.44935656 93.0001685,1 C68.6952966,0.550643437 48.9231015,6.50878211 41,16 C30.3189583,28.7950013 -0.0850232975,107.014914 4.92293245e-13,126 C0.115574613,150.800081 13.047523,163.439362 23,177 C33.2789946,174.335033 50.8544902,171.815807 69,170.317444 L69,161.610951 C50.0804213,152.623239 37,133.339168 37,111 L37,73 L37,73 C37,71.6550662 37.0474121,70.3212062 37.1406562,69 L65.3735517,69 L69.2529753,47.5561285 L72.058097,69 L148.859344,69 Z"/></defs><mask id="x25" fill="#FFFFFF"><use xlink:href="#x17"/></mask><g id="x2"/><g id="x5" mask="url('#x25')"><g transform="translate(-1,0)"><path id="x1" d="M69.0330562,76.212888 C81.9708809,43.1292208 95.6458945,26.5873873 110.058097,26.5873873 C110.596882,26.5873873 139.311316,26.3494141 158.112657,26.226792 C178.767149,35.5853581 193,55.3036503 193,78.114622 L193,93 L110.058097,93 L107.252975,69.820435 L103.373552,93 L69,93 L69,78.114622 C69,77.478246 69.0110772,76.844277 69.0330621,76.2128728 L69.0330562,76.212888 Z" fill-opacity="0.16" fill="#000000" fill-rule="evenodd"/><g id="x3" stroke-width="1" fill="none" fill-rule="evenodd" transform="translate(40,19)"><mask id="x24" fill="#FFFFFF"><use xlink:href="#x22"/></mask><use id="x4" fill="#E6E6E6" xlink:href="#x22"/><g id="x6" mask="url('#x24')" fill="#B58143"><g transform="translate(0,0) " id="x7"><rect x="0" y="0" width="264" height="280"/></g></g> </g><g id="x10" transform="translate(49,72)"><defs><path id="x18" d="M84.0002865,69.2970648 C77.2083681,65.7112456 67.5782013,65.1489138 62.3885276,67.1316942 C56.6144416,69.3374281 51.5052994,75.5829845 42.6388201,72.8283797 C42.2699314,72.7136458 41.9094725,73.0449523 42.0204089,73.408662 C43.3937943,77.9183313 51.0278347,81.0068878 53.6221945,81.1080652 C64.961124,81.549609 74.0949802,72.8302891 84.0002865,72.1614794 C93.9055921,72.8302891 103.03945,81.549609 114.378714,81.1080652 C116.972736,81.0068878 124.607113,77.9183313 125.980498,73.408662 C126.091098,73.0449523 125.730639,72.7136458 125.36175,72.8283797 C116.495271,75.5829845 111.386129,69.3374281 105.612044,67.1316942 C100.422371,65.1489138 90.7922044,65.7112456 84.0002865,69.2970648 Z"/></defs><mask id="x23" fill="#FFFFFF"><use xlink:href="#x18"/></mask><use id="x8" fill="#28354B" fill-rule="evenodd" xlink:href="#x18"/><g id="x55" mask="url('#x23')" fill="#B58143"><g transform="translate(-32,0)" id="x9"><rect x="0" y="0" width="264" height="244"/></g></g></g> </g></g></g> </g></g></g></g></svg>