<?xml version="1.0" encoding="utf-8" ?><!DOCTYPE svg PUBLIC "-//W3C//DTD SVG 1.1//EN" "http://www.w3.org/Graphics/SVG/1.1/DTD/svg11.dtd"><svg width="280px" height="280px" viewBox="-6 0 274 280" version="1.1" xmlns="http://www.w3.org/2000/svg" xmlns:xlink="http://www.w3.org/1999/xlink"><desc>Py-Avataaars</desc> <g id="x25" stroke="none" stroke-width="1" fill="none" fill-rule="evenodd"><defs><circle id="x13" cx="120" cy="120" r="120"/><path id="x14" d="M12,160 C12,226.27417 65.72583,280 132,280 C198.27417,280 252,226.27417 252,160 L264,160 L264,-1.42108547e-14 L-3.19744231e-14,-1.42108547e-14 L-3.19744231e-14,160 L12,160 Z"/><path id="x9" d="M124,144.610951 L124,163 L128,163 L128,163 C167.764502,163 200,195.235498 200,235 L200,244 L0,244 L0,235 C-4.86974701e-15,195.235498 32.235498,163 72,163 L72,163 L76,163 L76,144.610951 C58.7626345,136.422372 46.3722246,119.687011 44.3051388,99.8812385 C38.4803105,99.0577866 34,94.0521096 34,88 L34,74 C34,68.0540074 38.3245733,63.1180731 44,62.1659169 L44,56 L44,56 C44,25.072054 69.072054,5.68137151e-15 100,0 L100,0 L100,0 C130.927946,-5.68137151e-15 156,25.072054 156,56 L156,62.1659169 C161.675427,63.1180731 166,68.0540074 166,74 L166,88 C166,94.0521096 161.51969,99.0577866 155.694861,99.8812385 C153.627775,119.687011 141.237365,136.422372 124,144.610951 Z"/></defs><g id="x23" transform="translate(-825,-1100)"><g transform="translate(825,1100)"> <g id="x24" stroke-width="1" fill-rule="evenodd" mask="url('#py-avataaars-path-b41d568e-7239-4fed-a5f3-b724e024190e')"><g id="x22" transform="translate(32,36)"><mask id="x11" fill="#FFFFFF"><use xlink:href="#x9"/></mask><use fill="#D0C6AC" xlink:href="#x9"/><g id="x6" mask="url('#x11')" fill="#FD9841"><g transform="translate(0,0)" id="x7"><rect x="0" y="0" width="264" height="280"/></g></g> <path id="x21" d="M156,79 L156,102 C156,132.927946 130.927946,158 100,158 C69.072054,158 44,132.927946 44,102 L44,79 L44,94 C44,124.927946 69.072054,150 100,150 C130.927946,150 156,124.927946 156,94 L156,79 Z" fill-opacity="0.1" fill="#000000" mask="url('#x11')"/></g><g id="x44" transform="translate(0,170)"><defs><path id="x15" d="M165.960472,29.2949161 C202.936473,32.3249982 232,63.2942856 232,101.051724 L232,110 L32,110 L32,101.051724 C32,62.9525631 61.591985,31.7649812 99.0454063,29.2195264 C99.0152598,29.5931145 99,29.9692272 99,30.3476251 C99,42.2107177 113.998461,51.8276544 132.5,51.8276544 C151.001539,51.8276544 166,42.2107177 166,30.3476251 C166,29.9946691 165.986723,29.6437014 165.960472,29.2949161 Z"/></defs><mask id="x18" fill="#FFFFFF"><use xlink:href="#x15"/></mask><use id="x43" fill="#E6E6E6" fill-rule="evenodd" xlink:href="#x15"/><g id="py-avataaars-clothes-clothe-color-palette-gray_01" mask="url('#x18')" fill-rule="evenodd" fill="#E6E6E6"><rect id="x45" x="0" y="0" width="264" height="110"/></g> <g id="x41" opacity="0.6" stroke-width="1" fill-rule="evenodd" mask="url('#x18')" fill-opacity="0.16" fill="#000000"><g transform="translate(92,4)" id="x42"><ellipse cx="40.5" cy="27.8476251" rx="39.6351047" ry="26.9138272"/></g></g></g><g id="x40" transform="translate(76,82)" fill="#000000"><g id="x33" transform="translate(2,52)"><defs><path id="x10" d="M34.0082051,15.1361102 C35.1280248,29.123916 38.2345159,40.9925405 53.9961505,40.9999965 C69.757785,41.0074525 72.9169073,29.0566179 73.9942614,15.0063928 C74.0809675,13.8756222 73.1738581,12.9999965 72.0369872,12.9999965 C65.3505138,12.9999965 62.6703194,14.9936002 53.9894323,14.9999965 C45.3085452,15.0063928 40.7567994,12.9999965 36.0924943,12.9999965 C34.9490269,12.9999965 33.8961688,13.7366502 34.0082051,15.1361102 Z"/><rect id="x16" x="39" y="2" width="31" height="16" rx="5"/></defs><mask id="x17" fill="#FFFFFF"><use xlink:href="#x10" transform="translate(54.0, 27.0) scale(1, -1) translate(-54.0, -27.0)"/></mask><use id="x32" fill-opacity="0.7" fill="#000000" fill-rule="evenodd" transform="translate(54.0, 27.0) scale(1, -1) translate(-54.0, -27.0)" xlink:href="#x10"/><use id="x30" stroke-width="1" fill-rule="evenodd" mask="url('#x17')" fill="#FFFFFF" xlink:href="#x16"/><g id="x29" stroke-width="1" fill-rule="evenodd" mask="url('#x17')" fill="#FF4F6D"><g id="x31" transform="translate(38,32)"><circle cx="11" cy="11" r="11"/><circle cx="21" cy="11" r="11"/></g></g></g><g id="x28" transform="translate(28,40)" fill-opacity="0.16"><path id="x27" d="M16,8 C16,12.418278 21.372583,16 28,16 L28,16 C34.627417,16 40,12.418278 40,8"/></g><g id="x36" transform="translate(0,8)" fill-opacity="0.6"><circle id="x35" cx="30" cy="22" r="6"/><path id="x34" d="M70.4123979,24.204889 C72.2589064,20.4060854 76.4166529,17.7575774 81.2498107,17.7575774 C86.065907,17.7575774 90.2113521,20.3874194 92.0675822,24.1647016 C92.618991,25.2867751 91.8343342,26.2050591 91.0428374,25.5246002 C88.5917368,23.4173607 85.1109468,22.1013658 81.2498107,22.1013658 C77.5094365,22.1013658 74.1259889,23.3363293 71.6897696,25.3292186 C70.7990233,26.0578718 69.8723316,25.3159619 70.4123979,24.204889 Z" transform="translate(81.252230, 21.757577) rotate(-4.0) translate(-81.252230, -21.757577)"/></g><g id="x39" fill-opacity="0.6"><path id="x38" d="M36.3692975,6.87618545 C34.3991755,9.78053246 30.8236346,11.5165625 27.6315757,12.5601676 C23.6890255,13.8490851 9.08080143,15.9390364 12.5196198,23.9079177 C12.572332,24.029546 12.7390347,24.0312591 12.7920764,23.9096308 C13.9448284,21.2646433 30.256648,18.7865093 31.7648785,18.2064622 C36.2101722,16.4974987 40.1579937,12.7153722 40.9269343,7.66282939 C41.2794477,5.34640965 40.2901039,1.6143049 39.3791695,0.113308759 C39.2697915,-0.0669067099 39.0052417,-0.02339461 38.9498938,0.181831751 C38.5898029,1.51323348 37.5385221,5.15317482 36.3692975,6.87618545"/><path id="x37" d="M95.3692975,6.87618545 C93.3991755,9.78053246 89.8236346,11.5165625 86.6315757,12.5601676 C82.6890255,13.8490851 68.0808014,15.9390364 71.5196198,23.9079177 C71.572332,24.029546 71.7390347,24.0312591 71.7920764,23.9096308 C72.9448284,21.2646433 89.256648,18.7865093 90.7648785,18.2064622 C95.2101722,16.4974987 99.1579937,12.7153722 99.9269343,7.66282939 C100.279448,5.34640965 99.2901039,1.6143049 98.3791695,0.113308759 C98.2697915,-0.0669067099 98.0052417,-0.02339461 97.9498938,0.181831751 C97.5898029,1.51323348 96.5385221,5.15317482 95.3692975,6.87618545" transform="translate(85.5, 12.0) scale(-1, 1) translate(-85.5, -12.0)"/></g></g><g id="x0" stroke-width="1" fill-rule="evenodd"><defs><rect id="x12" x="0" y="0" width="264" height="280"/><path id="x8" d="M66.0421575,77.0749852 C71.6795257,45.2058307 99.5129755,21 133,21 L133,21 L133,21 C170.555363,21 201,51.444637 201,89 L201,119.751022 C201.875211,129.554379 202.693946,136.422143 203.456205,140.354314 C204.833317,147.458254 209.150269,145.115419 209.150269,155.220201 C209.150269,165.324983 204.822005,168.720206 204.803237,177.705482 C204.784469,186.690758 220.200444,193.836185 220.200444,205.242606 C220.200444,216.649027 213.126079,270.475928 142.577598,270.475928 C127.507235,270.475928 114.670509,266.188589 104.06742,257.613911 C104.750275,264.103957 105.394468,271.565987 106,280 L59,280 C59.9324304,256.228591 51.7156549,242.936205 51.7156549,216.44564 C51.7156549,189.955074 65.3525844,151.427541 65,142 C65.019981,141.417741 65.0406721,140.728417 65.0620734,139.932027 C65.0208303,138.959828 65,137.982347 65,137 L65,89 L65,89 C65,85.0240875 65.3412247,81.1278723 65.9959868,77.3390417 C65.9973236,77.2261704 65.9986613,77.1131564 66,77 C66.0140661,77.0249783 66.0281186,77.0499734 66.0421575,77.0749852 Z M132.5,53 L132.5,53 C102.400481,53 78,77.4004811 78,107.5 L78,107.5 L78,130.5 C78,160.599519 102.400481,185 132.5,185 L133.5,185 C163.599519,185 188,160.599519 188,130.5 L188,107.5 C188,77.4004811 163.599519,53 133.5,53 L133.5,53 L132.5,53 Z"/><filter id="x26" x="-0.8%" y="-2.0%" width="101.5%" height="108.0%" filterUnits="objectBoundingBox"><feOffset dx="0" dy="2" in="SourceAlpha" result="shadowOffsetOuter1"/><feColorMatrix values="0 0 0 0 0 0 0 0 0 0 0 0 0 0 0 0 0 0 0.16 0" type="matrix" in="shadowOffsetOuter1" result="shadowMatrixOuter1"/><feMerge><feMergeNode in="shadowMatrixOuter1"/><feMergeNode in="SourceGraphic"/></feMerge></filter></defs><mask id="x19" fill="#FFFFFF"><use xlink:href="#x12"/></mask><g id="x2"/><g id="x4" mask="url('#x19')"><g transform="translate(-1,0)"><mask id="x20" fill="#FFFFFF"><use xlink:href="#x8"/></mask><use id="x3" stroke="none" fill="#3B6BAD" fill-rule="evenodd" xlink:href="#x8"/><g id="py-avataaars-top-hat-color-gray_01" mask="url('#x20')" fill-rule="evenodd" fill="#E6E6E6"><rect id="x5" x="0" y="0" width="264" height="280"/></g> <path id="x46" d="M72.0744416,104.959767 C71.3690172,101.246903 71,97.4161983 71,93.5 C71,59.5344879 98.7583455,32 133,32 C167.241654,32 195,59.5344879 195,93.5 C195,97.4161983 194.630983,101.246903 193.925558,104.959767 C192.341315,72.6827942 165.669927,47 133,47 C100.330073,47 73.6586845,72.6827942 72.0744428,104.959774 Z" stroke="none" fill-opacity="0.5" fill="#FFFFFF" fill-rule="evenodd" mask="url('#x20')"/><path id="x1" d="M187.929085,104.69543 C188.631457,108.187732 189,111.800827 189,115.5 L189,138.5 C189,168.599519 164.599519,193 134.5,193 L131.5,193 C101.400481,193 77,168.599519 77,138.5 L77,115.5 L77,115.5 C77,111.800827 77.3685433,108.187732 78.0709154,104.69543 C78.0238287,105.624341 78,106.559388 78,107.5 L78,107.5 L78,130.5 C78,160.599519 102.400481,185 132.5,185 L133.5,185 C163.599519,185 188,160.599519 188,130.5 L188,130.5 L188,107.5 C188,106.559388 187.976171,105.624341 187.929085,104.69543 Z M114.16682,206.995462 C120.651206,211.981028 135.663493,213.708321 152.404574,210.756416 C169.145655,207.804512 182.661822,201.046883 187.049987,194.144193 C187.118291,194.396526 187.175421,194.652296 187.221114,194.911435 C188.930607,204.606451 173.985409,215.345413 153.84008,218.897578 C133.694752,222.449742 115.977919,217.469978 114.268426,207.774963 C114.222732,207.515823 114.188938,207.255938 114.166824,206.995464 Z M126.034638,235.921439 C134.227056,241.574977 150.421729,241.843835 167.103682,235.772101 C183.785635,229.700366 196.018656,219.084674 198.660388,209.487828 C198.803116,209.80837 198.935124,210.134883 199.056117,210.46731 C203.582768,222.904181 190.979008,238.909268 170.904831,246.215671 C150.830654,253.522074 130.887742,249.363007 126.361091,236.926135 C126.240098,236.593709 126.131343,236.258733 126.034643,235.921442 Z" stroke="none" fill-opacity="0.16" fill="#000000" fill-rule="evenodd" opacity="0.9" mask="url('#x20')"/> </g></g></g> </g></g></g></g></svg>