<?xml version="1.0" encoding="utf-8" ?><!DOCTYPE svg PUBLIC "-//W3C//DTD SVG 1.1//EN" "http://www.w3.org/Graphics/SVG/1.1/DTD/svg11.dtd"><svg width="280px" height="280px" viewBox="-6 0 274 280" version="1.1" xmlns="http://www.w3.org/2000/svg" xmlns:xlink="http://www.w3.org/1999/xlink"><desc>Py-Avataaars</desc> <g id="x36" stroke="none" stroke-width="1" fill="none" fill-rule="evenodd"><defs><circle id="x17" cx="120" cy="120" r="120"/><path id="x22" d="M12,160 C12,226.27417 65.72583,280 132,280 C198.27417,280 252,226.27417 252,160 L264,160 L264,-1.42108547e-14 L-3.19744231e-14,-1.42108547e-14 L-3.19744231e-14,160 L12,160 Z"/><path id="x19" d="M124,144.610951 L124,163 L128,163 L128,163 C167.764502,163 200,195.235498 200,235 L200,244 L0,244 L0,235 C-4.86974701e-15,195.235498 32.235498,163 72,163 L72,163 L76,163 L76,144.610951 C58.7626345,136.422372 46.3722246,119.687011 44.3051388,99.8812385 C38.4803105,99.0577866 34,94.0521096 34,88 L34,74 C34,68.0540074 38.3245733,63.1180731 44,62.1659169 L44,56 L44,56 C44,25.072054 69.072054,5.68137151e-15 100,0 L100,0 L100,0 C130.927946,-5.68137151e-15 156,25.072054 156,56 L156,62.1659169 C161.675427,63.1180731 166,68.0540074 166,74 L166,88 C166,94.0521096 161.51969,99.0577866 155.694861,99.8812385 C153.627775,119.687011 141.237365,136.422372 124,144.610951 Z"/></defs><g id="x34" transform="translate(-825,-1100)"><g transform="translate(825,1100)"> <g id="x35" stroke-width="1" fill-rule="evenodd" mask="url('#py-avataaars-path-6c7353fa-c97a-4d53-b143-6e811d8704d0')"><g id="x33" transform="translate(32,36)"><mask id="x16" fill="#FFFFFF"><use xlink:href="#x19"/></mask><use fill="#D0C6AC" xlink:href="#x19"/><g id="x14" mask="url('#x16')" fill="#FD9841"><g transform="translate(0,0)" id="x15"><rect x="0" y="0" width="264" height="280"/></g></g> <path id="x32" d="M156,79 L156,102 C156,132.927946 130.927946,158 100,158 C69.072054,158 44,132.927946 44,102 L44,79 L44,94 C44,124.927946 69.072054,150 100,150 C130.927946,150 156,124.927946 156,94 L156,79 Z" fill-opacity="0.1" fill="#000000" mask="url('#x16')"/></g><g id="x64" transform="translate(0,170)"><defs><path id="x20" d="M165.624032,29.2681342 C202.760022,32.1373245 232,63.1798426 232,101.051724 L232,110 L32,110 L32,101.051724 C32,62.8348009 61.7752018,31.5722494 99.3929298,29.1967444 C99.1342224,30.2735458 99,31.3767131 99,32.5 C99,44.3741221 113.998461,54 132.5,54 C151.001539,54 166,44.3741221 166,32.5 C166,31.4015235 165.871641,30.3222877 165.624025,29.2681336 Z"/></defs><mask id="x30" fill="#FFFFFF"><use xlink:href="#x20"/></mask><use id="x63" fill="#E6E6E6" fill-rule="evenodd" xlink:href="#x20"/><g id="py-avataaars-clothes-clothe-color-palette-pastel_green" mask="url('#x30')" fill-rule="evenodd" fill="#A7FFC4"><rect id="x65" x="0" y="0" width="264" height="110"/></g><g id="x62" mask="url('#x30'" stroke-width="1" fill-rule="evenodd"><g transform="translate(77,58)" id="x53"><g transform="translate(3,9)"><path id="x58" d="M102.565245,21.0710109 C99.4833509,20.4054313 97.3728781,24.6059197 100.65303,25.85541 C103.46796,26.9271503 105.497722,21.7103865 102.565245,21.0710109" fill="#FFFFFF"/><path id="x57" d="M101.191001,18 C104.847558,18 103.499462,12.0185653 103.512139,10.034892 C103.52569,7.89835492 105.057378,1.43936922 102.622588,0.300988793 C98.4060734,-1.67043963 99.5622709,6.62567562 99.5876242,8.26886181 C99.6156003,10.0850565 99.7546063,11.9885455 99.3594446,13.7770905 C99.009744,15.3574722 98.2303489,18 101.191001,18" fill="#FFFFFF"/><path id="x60" d="M96.057932,1.97392328 C94.9756601,1.35173361 93.2567577,1.65427333 92.0711316,1.60022061 C90.7220251,1.53916824 89.3807782,1.40539746 88.0356015,1.30662485 C85.8592683,1.14718875 83.080101,0.743543202 80.9175222,1.23857286 C79.6922049,1.51933595 78.5800664,2.46389764 79.1565707,3.84671419 C79.777482,5.33646958 81.4602301,4.95187859 82.7370279,4.87682696 C83.3217848,4.84221766 84.7703158,4.58750876 85.3421043,4.78816493 C86.3390991,5.13853549 85.9154647,4.67967061 86.1430012,5.85522022 C86.491969,7.66229234 86.2825097,9.85512207 86.2675764,11.6929148 C86.2420326,14.8668599 86.2322081,18.0567485 86.1650082,21.2287493 C86.1386784,22.4645735 85.7244756,23.8606116 86.9218911,24.6768466 C87.9196719,25.3569777 89.1379155,24.9023904 89.6550795,23.8835548 C90.1694927,22.8705522 89.6806234,20.8169375 89.6259989,19.6876632 C89.5599779,18.3406226 89.4900272,17.0122476 89.5293254,15.6628738 C89.6330726,12.0775058 89.8110933,8.49563763 89.8971563,4.90910305 C90.8399197,4.95537841 91.8188373,4.92737987 92.7525621,5.05842857 C93.4359574,5.15409023 94.4184119,5.59351169 95.0754775,5.55890239 C96.9743656,5.45818543 97.7689748,2.97175996 96.057932,1.97392328" fill="#FFFFFF"/><path id="x61" d="M67.7216119,8.81264097 C67.7100258,8.75972031 67.6397369,8.1691564 67.7216119,8.81264097 M67.6853088,8.53730013 C67.6887847,8.56222653 67.685695,8.5449698 67.6853088,8.53730013 M69.1169633,5.42725256 C72.533315,1.44593148 73.7004204,9.77441647 76.3625176,9.42199554 C80.623109,8.85827545 75.4217272,2.46944776 73.6942412,1.64649312 C70.1786354,-0.0289443454 67.0886252,1.72587411 65.4167525,4.9126183 C63.3188978,8.91234656 64.6466637,11.6208874 68.6751471,13.3572987 C70.1461943,13.9915796 75.714469,15.8848355 74.2051877,18.3157346 C73.4451402,19.5398125 70.6791544,19.6445033 69.5047111,19.402142 C67.1492591,18.916269 67.5161519,17.3159942 66.3699015,15.8288469 C65.3371947,14.4885737 63.3397528,14.8820273 63.028087,16.6100019 C62.7828481,17.9675319 64.198282,20.0348891 65.1433208,20.9897619 C67.3759602,23.2457927 71.1831493,23.4271802 74.0298516,22.3998291 C78.4155727,20.816811 78.9473743,16.6909168 75.8357368,13.4953526 C74.0870096,11.6995014 71.9026455,11.154572 69.7225296,10.0773681 C67.0781977,8.7712248 67.5725376,7.68673472 69.1169633,5.42725256" fill="#FFFFFF"/><path id="x59" d="M58.749962,20.5676943 C58.1855671,15.7434329 58.0538346,10.8505093 57.9696387,6.00460433 C57.9426476,4.45075032 58.6758373,0.798596322 56.5169562,0.139962235 C53.6023258,-0.749287073 53.9890632,2.83233897 54.0502966,4.30372379 C54.255348,9.21679823 54.8922562,14.0929294 55.1210758,19.0000333 C55.193992,20.5568726 54.6924419,23.5739018 56.9520358,23.9463193 C59.7027058,24.4000865 58.9598476,21.8648117 58.749962,20.5676943" fill="#FFFFFF"/><path id="x54" d="M49.4716454,4.67909741 C47.1120678,1.521124 42.3181606,1.01110068 39.382093,3.92183601 C37.3101733,5.97595969 36.00495,10.8410892 37.9661116,13.3252251 C40.0904751,16.016404 45.3211527,13.6574039 46.6913436,16.7080638 C48.3726748,20.4511421 43.9611374,21.8560762 41.6168232,19.3708027 C40.7738094,18.4774087 40.9581453,16.917382 39.7163241,16.3637507 C37.9539791,15.5788077 36.853443,17.2916519 37.2001979,18.7227508 C38.0479082,22.2235205 41.8524287,24.1130716 45.3011927,23.9947614 C49.0689244,23.8650751 50.7028996,21.0184245 50.4641631,17.5957699 C50.1342371,12.8603265 46.4792204,12.1186123 42.4747091,11.597213 C40.7761576,11.3761397 40.5534673,11.3966165 40.6583549,9.64547322 C40.7855505,7.52650643 42.0277631,5.07763608 44.6491681,5.58159221 C46.7551372,5.98657727 46.942604,9.15327227 49.1037564,9.30040167 C52.5998763,9.53853896 50.3604497,5.86712943 49.4716454,4.67909741" fill="#FFFFFF"/><path id="x55" d="M31.7209696,20.4381695 C30.3835461,20.7580967 28.7579173,20.5355712 27.3944988,20.5112208 C26.3407598,20.4924897 22.8201338,20.9379153 22.1329619,20.2148947 C21.3727026,19.4150766 21.6202201,16.9680453 21.5881973,15.9288437 C21.5422351,14.4753101 21.1839563,14.2599024 22.4595946,13.9298603 C23.2085518,13.7361807 24.3674009,13.8332078 25.1415996,13.7976187 C26.6572206,13.727939 28.606845,14.008531 30.0716062,13.7099572 C31.4414292,13.4304891 32.5739067,11.958599 31.3223797,10.7058628 C30.4355361,9.81763391 28.7797682,10.2949024 27.6909924,10.3200021 C25.6573553,10.3664552 23.6222112,10.3555912 21.5881973,10.3915549 C21.5964855,8.82376157 21.5448723,7.2454788 21.6669357,5.68105705 C24.5143291,5.82154032 27.4788884,6.56329201 30.3255283,6.42655496 C31.766555,6.35724988 33.3654353,5.43530497 32.6368221,3.69630934 C32.0121888,2.20606276 30.1149312,2.40985716 28.792954,2.35066687 C27.1398233,2.27611708 25.4848088,2.23790563 23.8313013,2.18096308 C22.6068996,2.13900541 20.8260543,1.73628668 19.6721027,2.28847961 C17.3095724,3.41833976 18.121445,7.29867513 18.1873743,9.39955568 C18.2706336,12.0657409 18.2721406,14.6678658 18.3644416,17.3561538 C18.4484544,19.7885748 18.3271445,22.9972128 21.2159792,23.6808981 C24.1051906,24.364958 27.4611816,23.7142395 30.4084109,23.8565959 C31.6166129,23.9150369 33.2693669,24.2671816 33.8631075,22.8608504 C34.4319834,21.512211 33.1326106,20.086774 31.7209696,20.4381695" fill="#FFFFFF"/><path id="x56" d="M8.41021607,5.87934286 C10.7314099,6.38056324 11.3520318,8.89406466 11.4306011,11.0286326 C11.4842397,12.4898438 11.613048,12.4018284 10.4273316,12.768689 C9.23708235,13.1371074 7.50704692,12.9377097 6.28808963,12.8851342 C3.74516418,12.7756991 4.0526421,12.6070678 4.00353629,9.93973422 C3.99220418,9.31505862 3.52947636,6.4362544 3.89625898,6.02967003 C4.37220759,5.5015777 7.73482232,5.8267673 8.41021607,5.87934286 M13.4870013,20.7181143 C12.1966517,19.2140637 10.9010138,17.7773878 9.45277018,16.4318428 C11.6107816,16.3722571 13.9557729,15.9594416 14.7229567,13.6130136 C15.3711534,11.6307201 14.8079476,8.6132722 14.05474,6.74080322 C13.0612917,4.27092005 10.9928039,2.62238402 8.42003723,2.26253349 C6.62389782,2.01172858 2.14242611,1.58956627 0.799948834,2.97327723 C-0.664537495,4.48161175 0.351952758,8.62222952 0.4422319,10.4701632 C0.602014649,13.7411422 0.486049391,16.987586 0.285471047,20.2550599 C0.220500284,21.3096868 -0.296621662,23.0423437 0.243919977,23.9918195 C0.843766325,25.0456674 2.30296434,25.3089347 3.21255502,24.5288691 C4.19693763,23.6845445 3.74176455,22.6513373 3.68132663,21.5678912 C3.58802559,19.8917044 3.75574082,18.1644997 3.85546339,16.4937651 C5.46348977,17.806207 7.10551249,19.0851563 8.61683821,20.5163799 C10.1096548,21.9300785 11.1809169,23.7184265 12.6076296,25.143419 C13.618076,26.1528699 15.4266807,26.5676327 15.9381366,24.6947742 C16.377067,23.0871303 14.3667507,21.7435326 13.4870013,20.7181143" fill="#FFFFFF"/></g></g></g></g><g id="x52" transform="translate(76,82)" fill="#000000"><g id="x42" transform="translate(2,52)" fill-opacity="0.6" fill-rule="nonzero" fill="#000000"><path id="x41" d="M40,16 C40,21.371763 46.1581544,25 54,25 C61.8418456,25 68,21.371763 68,16 C68,14.8954305 67.050301,14 66,14 C64.7072748,14 64.1302316,14.9051755 64,16 C62.7575758,18.9378973 59.6832595,20.7163149 54,21 C48.3167405,20.7163149 45.2424242,18.9378973 44,16 C43.8697684,14.9051755 43.2927252,14 42,14 C40.949699,14 40,14.8954305 40,16 Z"/></g><g id="x40" transform="translate(28,40)" fill-opacity="0.16"><path id="x39" d="M16,8 C16,12.418278 21.372583,16 28,16 L28,16 C34.627417,16 40,12.418278 40,8"/></g><g id="x47" transform="translate(0,8)"><defs><path id="x21" d="M14,14.0481187 C23.6099827,14.0481187 28,18.4994466 28,11.5617716 C28,4.62409673 21.7319865,0 14,0 C6.2680135,0 0,4.62409673 0,11.5617716 C0,18.4994466 4.39001726,14.0481187 14,14.0481187 Z"/><path id="x18" d="M14,14.0481187 C23.6099827,14.0481187 28,18.4994466 28,11.5617716 C28,4.62409673 21.7319865,0 14,0 C6.2680135,0 0,4.62409673 0,11.5617716 C0,18.4994466 4.39001726,14.0481187 14,14.0481187 Z"/></defs><g id="x46" transform="translate(16,13)"><mask id="x29" fill="#FFFFFF"><use xlink:href="#x21"/></mask><use id="x43" fill="#FFFFFF" xlink:href="#x21"/><circle fill-opacity="0.7" fill="#000000" mask="url('#x29')" cx="14" cy="10" r="6"/></g><g id="x45" transform="translate(68,13)"><mask id="x26" fill="#FFFFFF"><use xlink:href="#x18"/></mask><use id="x44" fill="#FFFFFF" xlink:href="#x18"/><circle fill-opacity="0.7" fill="#000000" mask="url('#x26')" cx="14" cy="10" r="6"/></g></g><g id="x51" fill-opacity="0.6"><g id="x50" transform="translate(12,6)"><path id="x49" d="M3.63024536,11.1585767 C7.54515501,5.64986673 18.2779197,2.56083721 27.5230268,4.83118046 C28.5957248,5.0946055 29.6788665,4.43856013 29.9422916,3.36586212 C30.2057166,2.2931641 29.5496712,1.21002236 28.4769732,0.94659732 C17.7403633,-1.69001789 5.31209962,1.88699832 0.369754639,8.84142326 C-0.270109626,9.74178291 -0.0589363917,10.9903811 0.84142326,11.6302454 C1.74178291,12.2701096 2.9903811,12.0589364 3.63024536,11.1585767 Z" fill-rule="nonzero"/><path id="x48" d="M61.6302454,11.1585767 C65.545155,5.64986673 76.2779197,2.56083721 85.5230268,4.83118046 C86.5957248,5.0946055 87.6788665,4.43856013 87.9422916,3.36586212 C88.2057166,2.2931641 87.5496712,1.21002236 86.4769732,0.94659732 C75.7403633,-1.69001789 63.3120996,1.88699832 58.3697546,8.84142326 C57.7298904,9.74178291 57.9410636,10.9903811 58.8414233,11.6302454 C59.7417829,12.2701096 60.9903811,12.0589364 61.6302454,11.1585767 Z" fill-rule="nonzero" transform="translate(73.000154, 6.039198) scale(-1, 1) translate(-73.000154, -6.039198)"/></g></g></g><g id="x0" stroke-width="1" fill-rule="evenodd"><defs><rect id="x23" x="0" y="0" width="264" height="280"/><path id="x24" d="M180.14998,39.9204083 C177.390206,37.1003988 174.185913,34.7068297 171.069252,32.3065503 C170.381566,31.777442 169.682843,31.2610833 169.010544,30.7118441 C168.857687,30.5870323 167.291999,29.4657388 167.104691,29.0530544 C166.653816,28.0602634 166.915042,28.8332916 166.977255,27.6485857 C167.055857,26.150508 170.11064,21.9193194 167.831176,20.9490079 C166.828413,20.522232 165.039628,21.6579526 164.077671,22.0330592 C162.196235,22.7671676 160.291721,23.3932399 158.346734,23.9330847 C159.278588,22.0763407 161.055333,18.3594977 157.71591,19.3543018 C155.114345,20.1293431 152.690052,22.1219709 150.075777,23.0594018 C150.940735,21.6415124 154.399901,17.2479341 151.274209,17.0023366 C150.301549,16.925839 147.471201,18.7503735 146.423952,19.1395717 C143.287223,20.3054888 140.083264,21.0590571 136.789999,21.6525844 C125.59203,23.6707114 112.497238,23.0953019 102.1368,28.1934632 C94.1494796,32.1236942 86.262502,38.2220278 81.648386,45.987539 C77.2011742,53.472559 75.537818,61.6641751 74.6069673,70.2412987 C73.9239644,76.535909 73.8684412,83.0425652 74.1878671,89.3599905 C74.2922241,91.4297869 74.5250203,100.970847 77.5319724,98.0813859 C79.0300967,96.641688 79.019059,90.8282073 79.3963495,88.8604076 C80.1472513,84.9452748 80.870057,81.0126951 82.122006,77.2227096 C84.3282191,70.5439339 86.9307879,63.4296587 92.4269209,58.8297383 C95.9539853,55.8782066 98.4307906,51.8889248 101.806002,48.9112229 C103.322188,47.5738572 102.165231,47.7130963 104.602902,47.888571 C106.240504,48.006337 107.885464,48.0512961 109.52641,48.0942421 C113.322394,48.1928837 117.124399,48.16772 120.921387,48.1811407 C128.56821,48.208653 136.179243,48.316689 143.818708,47.9164188 C147.213653,47.7385955 150.617965,47.6423024 154.00388,47.3282597 C155.895349,47.152785 159.251496,45.9405668 160.808488,46.8669256 C162.233362,47.7144383 163.71309,50.4817719 164.736257,51.615144 C167.153525,54.2935659 170.035717,56.3392052 172.862385,58.5354911 C178.756547,63.114945 181.732392,68.8666908 183.522515,76.023241 C185.305949,83.1532854 184.805905,89.76815 187.013456,96.78479 C187.401784,98.0184813 188.428965,100.14498 189.695296,98.2389151 C189.930434,97.8849461 189.869559,95.9390277 189.869559,94.819339 C189.869559,90.2995934 191.014141,86.9083772 190.999758,82.3591197 C190.943566,68.5271489 190.49637,50.4908308 180.14998,39.9204083 Z"/><filter id="x37" x="-0.8%" y="-2.0%" width="101.5%" height="108.0%" filterUnits="objectBoundingBox" ><feOffset dx="0" dy="2" in="SourceAlpha" result="shadowOffsetOuter1"/><feColorMatrix values="0 0 0 0 0 0 0 0 0 0 0 0 0 0 0 0 0 0 0.16 0" type="matrix" in="shadowOffsetOuter1" result="shadowMatrixOuter1"/><feMerge><feMergeNode in="shadowMatrixOuter1"/><feMergeNode in="SourceGraphic"/></feMerge></filter></defs><mask id="x31" fill="#FFFFFF"><use xlink:href="#x23"/></mask><g id="x1"/><g id="x3" mask="url('#x31')"><g transform="translate(-1,0)"><g id="x8" transform="translate(49,72)"><defs><path id="x25" d='M105.017591,94.1296214 C101.150441,99.7213834 98.257542,95.9467308 94.1374777,92.8762163 C91.6567227,91.0272796 87.9608129,88.7275108 84.5044337,88.8410391 C81.0477114,88.7275108 77.3518016,91.0272796 74.8710466,92.8762163 C70.7509822,95.9467308 67.8580835,99.7213834 63.9909333,94.1296214 C61.0884259,89.9323547 62.3028943,82.8739117 65.014944,78.9027173 C68.8738581,73.2512381 74.1088724,75.9847769 79.9622738,75.3400279 C81.5538829,75.1648137 83.1526985,74.7228407 84.5044337,74 C85.856169,74.7228407 87.4546414,75.1648137 89.0462504,75.3400279 C94.899995,75.9847769 100.134666,73.2512381 103.993923,78.9027173 C106.70563,82.8739117 107.920098,89.9323547 105.017591,94.1296214 M140.39109,26 C136.966521,40.0748212 135.393023,54.4337754 132.909944,68.6711471 C132.392536,71.6390145 131.826063,74.5963095 131.224594,77.5496398 C131.098329,78.1697764 130.973781,80.4725746 130.362704,80.7643064 C128.511632,81.6484223 124.739149,76.9466834 123.730409,75.8851496 C121.196893,73.219256 118.684993,70.5292442 115.599415,68.437233 C109.364783,64.2102603 102.065485,61.7108818 94.4700836,61.117837 C91.2922091,60.8693859 86.9951134,61.3025234 84.000116,63.1104016 C81.0051185,61.3025234 76.7080229,60.8693859 73.5298053,61.117837 C65.9344039,61.7108818 58.6351055,64.2102603 52.4004739,68.437233 C49.3148957,70.5292442 46.8033387,73.219256 44.2694796,75.8851496 C43.2607395,76.9466834 39.4882573,81.6484223 37.6371849,80.7643064 C37.0261079,80.4725746 36.9015594,78.1697764 36.7752954,77.5496398 C36.1738255,74.5963095 35.6073527,71.6390145 35.0899445,68.6711471 C32.6072086,54.4337754 31.0337113,40.0748212 27.6091415,26 C26.6127533,26 25.7385119,44.7478165 25.6273446,46.4945731 C25.174784,53.5889755 24.6463963,60.5254529 25.3216346,67.6261326 C26.485803,79.8749043 27.6993791,95.2339402 37.032627,104.58753 C45.4659003,113.039493 57.7103052,114.806417 68.2713185,120.141327 C69.631059,120.828202 71.4347824,121.676306 73.3798667,122.37111 C75.4289129,123.934171 79.4926946,125 84.1740722,125 C89.0846465,125 93.3155222,123.827456 95.2540874,122.137856 C96.9548781,121.49261 98.5180822,120.752874 99.7285704,120.141327 C110.288776,114.805245 122.533989,113.039493 130.967262,104.58753 C140.30051,95.2339402 141.514086,79.8749043 142.678597,67.6261326 C143.353493,60.5254529 142.825105,53.5889755 142.372887,46.4945731 C142.261377,44.7478165 141.387136,26 140.39109,26 Z' /></defs><mask id="x28" fill="#FFFFFF"><use xlink:href="#x25"/></mask><use id="x7" fill="#252E32" fill-rule="evenodd" xlink:href="#x25"/><g id="color-facial-hair-blonde_golden" mask="url('#x28')" fill="#D6B370"><g transform="translate(-32,0)" id="x6"><rect x="0" y="0" width="264" height="244"/></g></g></g> <mask id="x27" fill="#FFFFFF"><use xlink:href="#x24"/></mask><use id="x2" stroke="none" fill="#1F3140" fill-rule="evenodd" xlink:href="#x24"/><g id="x4" mask="url('#x27')" fill="#B58143"><g transform="translate(0,0) " id="x5"><rect x="0" y="0" width="264" height="280"/></g></g><g id="x13" fill="none" transform="translate(62,85)" stroke-width="1"><defs><filter id="x38" x="-0.8%" y="-2.0%" width="101.5%" height="108.0%" filterUnits="objectBoundingBox"><feOffset dx="0" dy="2" in="SourceAlpha" result="shadowOffsetOuter1"/><feColorMatrix values="0 0 0 0 0 0 0 0 0 0 0 0 0 0 0 0 0 0 0.16 0" type="matrix" in="shadowOffsetOuter1" result="shadowMatrixOuter1"/><feMerge><feMergeNode in="shadowMatrixOuter1"/><feMergeNode in="SourceGraphic"/></feMerge></filter></defs><g id="x9" filter="url('#x38')" transform="translate(5,2)"><path id="x10" d="M66,11.1111111 C54.9625586,11.1111111 53.3705645,2.0266011 30.6705882,0.740740741 C7.98552275,-0.283199952 0.815225204,6.4494855 0.776470588,11.1111111 C0.813236892,15.4042795 -0.352293566,26.5612661 14.3647059,39.6296296 C29.1367705,55.1420807 44.2704162,49.8818301 49.6941176,44.8148148 C55.1352081,42.4731118 61.3403442,21.4596351 66,21.4814815 C70.6596558,21.5033279 76.8647919,42.4731118 82.3058824,44.8148148 C87.7295838,49.8818301 102.86323,55.1420807 117.635294,39.6296296 C132.352294,26.5612661 131.186763,15.4042795 131.223529,11.1111111 C131.184775,6.4494855 124.014477,-0.283199952 101.329412,0.740740741 C78.6294355,2.0266011 77.0374414,11.1111111 66,11.1111111 Z" fill="#F4F4F4" fill-rule="nonzero"/><path id="x11" d="M55.1294118,21.4814815 C55.5103632,13.8233491 42.2156493,5.64243259 27.9529412,5.92592593 C13.6973442,6.22450879 11.8417942,15.3786982 11.6470588,18.8888889 C11.2982286,27.0220633 20.014463,45.3037598 36.1058824,44.8148148 C52.1972736,44.305848 54.9092435,26.5344305 55.1294118,21.4814815 Z" fill="#2F383B" fill-rule="nonzero"/><path id="x12" d="M120.352941,21.4814815 C120.733893,13.8233491 107.439179,5.64243259 93.1764706,5.92592593 C78.9208736,6.22450879 77.0653236,15.3786982 76.8705882,18.8888889 C76.521758,27.0220633 85.2379924,45.3037598 101.329412,44.8148148 C117.420803,44.305848 120.132773,26.5344305 120.352941,21.4814815 Z" fill="#2F383B" fill-rule="nonzero" transform="translate(98.611765, 25.370370) scale(-1, 1) translate(-98.611765, -25.370370)"/></g></g> </g></g></g> </g></g></g></g></svg>