<?xml version="1.0" encoding="utf-8" ?><!DOCTYPE svg PUBLIC "-//W3C//DTD SVG 1.1//EN" "http://www.w3.org/Graphics/SVG/1.1/DTD/svg11.dtd"><svg width="280px" height="280px" viewBox="-6 0 274 280" version="1.1" xmlns="http://www.w3.org/2000/svg" xmlns:xlink="http://www.w3.org/1999/xlink"><desc>Py-Avataaars</desc> <g id="x42" stroke="none" stroke-width="1" fill="none" fill-rule="evenodd"><defs><circle id="x22" cx="120" cy="120" r="120"/><path id="x28" d="M12,160 C12,226.27417 65.72583,280 132,280 C198.27417,280 252,226.27417 252,160 L264,160 L264,-1.42108547e-14 L-3.19744231e-14,-1.42108547e-14 L-3.19744231e-14,160 L12,160 Z"/><path id="x21" d="M124,144.610951 L124,163 L128,163 L128,163 C167.764502,163 200,195.235498 200,235 L200,244 L0,244 L0,235 C-4.86974701e-15,195.235498 32.235498,163 72,163 L72,163 L76,163 L76,144.610951 C58.7626345,136.422372 46.3722246,119.687011 44.3051388,99.8812385 C38.4803105,99.0577866 34,94.0521096 34,88 L34,74 C34,68.0540074 38.3245733,63.1180731 44,62.1659169 L44,56 L44,56 C44,25.072054 69.072054,5.68137151e-15 100,0 L100,0 L100,0 C130.927946,-5.68137151e-15 156,25.072054 156,56 L156,62.1659169 C161.675427,63.1180731 166,68.0540074 166,74 L166,88 C166,94.0521096 161.51969,99.0577866 155.694861,99.8812385 C153.627775,119.687011 141.237365,136.422372 124,144.610951 Z"/></defs><g id="x40" transform="translate(-825,-1100)"><g transform="translate(825,1100)"> <g id="x41" stroke-width="1" fill-rule="evenodd" mask="url('#py-avataaars-path-f625838e-aacb-49d6-9449-4a53f0da2b87')"><g id="x39" transform="translate(32,36)"><mask id="x31" fill="#FFFFFF"><use xlink:href="#x21"/></mask><use fill="#D0C6AC" xlink:href="#x21"/><g id="x18" mask="url('#x31')" fill="#FFDBB4"><g transform="translate(0,0)" id="x19"><rect x="0" y="0" width="264" height="280"/></g></g> <path id="x38" d="M156,79 L156,102 C156,132.927946 130.927946,158 100,158 C69.072054,158 44,132.927946 44,102 L44,79 L44,94 C44,124.927946 69.072054,150 100,150 C130.927946,150 156,124.927946 156,94 L156,79 Z" fill-opacity="0.1" fill="#000000" mask="url('#x31')"/></g><g id="x67" transform="translate(0,170)"><defs><path id="x24" d="M165.624032,29.2681342 C202.760022,32.1373245 232,63.1798426 232,101.051724 L232,110 L32,110 L32,101.051724 C32,62.8348009 61.7752018,31.5722494 99.3929298,29.1967444 C99.1342224,30.2735458 99,31.3767131 99,32.5 C99,44.3741221 113.998461,54 132.5,54 C151.001539,54 166,44.3741221 166,32.5 C166,31.4015235 165.871641,30.3222877 165.624025,29.2681336 Z"/></defs><mask id="x34" fill="#FFFFFF"><use xlink:href="#x24"/></mask><use id="x66" fill="#E6E6E6" fill-rule="evenodd" xlink:href="#x24"/><g id="py-avataaars-clothes-clothe-color-palette-gray_02" mask="url('#x34')" fill-rule="evenodd" fill="#929598"><rect id="x68" x="0" y="0" width="264" height="110"/></g><g id="x65" mask="url('#x34'" stroke-width="1" fill-rule="evenodd"><g transform="translate(77,58)" id="x64"><g transform="translate(29,2)"><path id="x63" d="M34.7804613,27.7365051 C32.3910217,30.3933795 29.9226048,32.9801662 27.4446301,35.5565142 C28.4300853,32.0044048 29.1846452,27.9785814 30.6489944,24.5994547 C31.0655115,23.6371144 30.7485963,23.5153306 31.576097,23.1057395 C32.1847753,22.8045111 33.6536519,23.1494823 34.3825567,23.1678741 C35.9404713,23.2066461 37.5335988,23.3597457 39.0789374,23.1186635 C37.6281703,24.6436945 36.1869609,26.1712109 34.7804613,27.7365051 M19.5162179,31.798118 C16.8174087,28.5164183 14.1321816,25.2302449 10.8578947,22.4814113 C12.146683,22.6176103 13.5536857,22.4376686 14.8163159,22.687201 C16.7595591,23.0714412 16.6534177,23.6778747 17.6358547,25.6458009 C19.0866218,28.5522078 20.5248129,31.434755 21.6858291,34.4689106 C20.9750337,33.5692019 20.2446197,32.6844056 19.5162179,31.798118 M10.4182378,19.266817 C11.3810563,17.6920783 11.5616476,16.294796 13.3373785,15.4865494 C15.3988361,14.5480688 18.6379102,14.7454082 20.8256308,14.5709343 C19.4553501,16.093977 17.7887788,17.6736865 17.2223558,19.6928116 C16.3480725,17.9749149 15.2599971,16.5189775 13.5521766,15.5223389 C13.3368755,15.4159645 14.7101745,20.0725781 14.8897597,20.3926954 C13.1743936,20.2967597 11.3684803,19.9850926 9.66518708,20.3012334 C9.916204,19.9562622 10.1672209,19.611291 10.4182378,19.266817 M26.8243819,14.2592673 C28.4154971,14.2945597 29.9940364,14.4183318 31.563521,14.6783029 C30.2968665,16.353451 29.9150592,18.3104416 29.4653415,20.3086895 C28.9869505,18.0509676 27.2564932,15.9473394 25.7312761,14.2607585 C26.095477,14.2602615 26.4596779,14.2597644 26.8243819,14.2592673 M23.3257392,15.3334498 C23.5601558,15.1748824 27.7826729,20.4190405 28.3923573,20.889275 C25.0798394,20.8813217 21.7743641,20.7192748 18.4658705,20.5736313 C20.3728949,19.0868752 21.4886374,16.8863171 23.3257392,15.3334498 M26.0124754,32.4289082 C25.6105465,33.7779741 25.2352788,35.1369815 24.797634,36.4756088 C23.2432407,31.7444337 20.9357965,27.288142 18.7898282,22.8020257 C22.1295103,22.8900083 25.465671,23.0107979 28.8058561,23.0575231 C27.9864041,26.2164449 26.9441054,29.3032906 26.0124754,32.4289082 M33.2416622,14.9656131 C34.5188805,16.093977 36.338879,18.4063774 36.9284418,19.1833081 C36.9867944,19.260355 37.0461531,19.3369048 37.1070209,19.4124604 C37.3177947,19.6744198 38.0733606,20.6680759 38.3701542,21.0567898 C36.1426934,20.8306199 33.8251885,20.9270528 31.5901821,20.9066727 C32.0881916,18.8527521 32.6938517,16.8952645 32.1737084,14.7787123 C32.5308668,14.8363732 32.886516,14.8985078 33.2416622,14.9656131 M40.8898811,20.5830758 C38.7323429,17.9068154 36.5199733,13.3247633 33.025858,12.5055811 C29.5538765,11.6918667 25.478247,12.0517501 21.9519372,12.2754346 C18.8773572,12.4702886 13.8690917,12.0721303 11.1572035,13.8690622 C9.76378291,14.7921334 8.73154499,16.8738902 8.2491297,18.4202955 C7.81450321,19.8131041 8.51523782,20.7048596 7.00259677,20.7048596 C6.90651615,20.7048596 9.50672951,24.3777585 9.81308082,24.66656 C12.0853121,26.8064748 14.2574385,28.8688456 16.2701013,31.2642577 C19.1047312,34.6379166 21.6747622,39.6022206 25.414864,41 C24.7292206,40.6609938 28.2067356,38.0334469 28.6242587,37.5811072 C30.7355173,35.2930636 32.8709217,33.0268914 34.9967685,30.7517718 C36.9349813,28.6779682 39.0472459,26.7209776 40.9271061,24.6004489 C42.361776,22.9824645 42.3658003,22.4262358 40.8898811,20.5830758" fill="#FFFFFF"/><path id="x62" d="M6.99858316,11.9999257 C7.04159508,12.0142408 6.09038895,9.95483812 6.17394084,10.0812061 C5.69932656,9.36248835 5.12830624,8.8402333 4.43566602,8.35351923 C3.70792411,7.84261755 0.1270582,7.25421678 0,7 C1.49355183,9.65224611 4.16721231,11.1276907 6.99858316,11.9999257" fill="#FFFFFF"/><path id="x61" d="M22.3553325,7.19614224 C22.5279973,7.84840006 22.7925782,8.44932951 23.1490753,8.99893058 C23.2186566,9.07737584 24.0076748,4.81518326 23.9999436,4.45201075 C23.9866286,3.8317121 23.6120919,0 22.814054,0 C21.4769753,0 22.1397162,6.46931298 22.3553325,7.19614224" fill="#FFFFFF"/><path id="x60" d="M48.969198,5 C45.977552,5 39.2896081,10.8535875 40.0615528,13.9997703 C40.0673207,14.0103781 40.50905,13.6497123 40.4129174,13.7172166 C40.4321439,13.7032335 40.4508897,13.6887683 40.4691549,13.6738209 C41.7405084,12.649202 43.1873037,11.6544779 44.4605798,10.4683308 C45.3723974,9.61874094 46.4476403,8.85642448 47.2772645,7.92727594 C47.3618612,7.83276992 49.2628831,5 48.969198,5" fill="#FFFFFF"/></g></g></g></g><g id="x59" transform="translate(76,82)" fill="#000000"><g id="x51" transform="translate(2,52)"><defs><path id="x32" d="M34.0082051,12.6020819 C35.1280248,23.0929366 38.2345159,31.9944054 53.9961505,31.9999974 C69.757785,32.0055894 72.9169073,23.0424631 73.9942614,12.5047938 C74.0809675,11.6567158 73.1738581,10.9999965 72.0369872,10.9999965 C65.3505138,10.9999965 62.6703194,12.4951994 53.9894323,12.4999966 C45.3085452,12.5047938 40.7567994,10.9999965 36.0924943,10.9999965 C34.9490269,10.9999965 33.8961688,11.5524868 34.0082051,12.6020819 Z"/><path id="x26" d="M59.9170416,36 L60,36 C60,39.3137085 62.6862915,42 66,42 C69.3137085,42 72,39.3137085 72,36 L72,35 L72,31 C72,27.6862915 69.3137085,25 66,25 L66,25 L42,25 L42,25 C38.6862915,25 36,27.6862915 36,31 L36,31 L36,35 L36,38 C36,41.3137085 38.6862915,44 42,44 C45.3137085,44 48,41.3137085 48,38 L48,36 L48.0829584,36 C48.5590365,33.1622867 51.0270037,31 54,31 C56.9729963,31 59.4409635,33.1622867 59.9170416,36 Z"/><filter id="x44" x="-1.4%" y="-2.6%" width="102.8%" height="105.3%" filterUnits="objectBoundingBox"><feOffset in="SourceAlpha" dx="0" dy="-1" result="shadowOffsetInner1"/><feComposite in="shadowOffsetInner1" in2="SourceAlpha" operator="arithmetic" k2="-1" k3="1" result="shadowInnerInner1"/><feColorMatrix values="0 0 0 0 0 0 0 0 0 0 0 0 0 0 0 0 0 0 0.1 0" type="matrix" in="shadowInnerInner1"/></filter><rect id="x27" x="39" y="2" width="31" height="16" rx="5"/></defs><mask id="x36" fill="#FFFFFF"><use xlink:href="#x32" transform="translate(54.0, 21.5) scale(1, -1) translate(-54.0, -21.5)"/></mask><use id="x50" fill-opacity="0.7" fill="#000000" fill-rule="evenodd" transform="translate(54.0, 21.5) scale(1, -1) translate(-54.0, -21.5)" xlink:href="#x32"/><use id="x49" stroke-width="1" fill-rule="evenodd" mask="url('#x36')" fill="#FFFFFF" xlink:href="#x27"/><g id="x48"><use fill="#000000" fill-opacity="1" filter="url('#x44')" xlink:href="#x26"/><use fill="#88C553" fill-rule="evenodd" xlink:href="#x26"/></g></g><g id="x47" transform="translate(28,40)" fill-opacity="0.16"><path id="x46" d="M16,8 C16,12.418278 21.372583,16 28,16 L28,16 C34.627417,16 40,12.418278 40,8"/></g><g id="x55" transform="translate(0,8)"><circle id="x53" fill-opacity="0.6" fill="#000000" fill-rule="evenodd" cx="30" cy="22" r="6"/><path id="x54" d="M25,27 C25,27 19,34.2706667 19,38.2706667 C19,41.5846667 21.686,44.2706667 25,44.2706667 C28.314,44.2706667 31,41.5846667 31,38.2706667 C31,34.2706667 25,27 25,27 Z" fill="#92D9FF" fill-rule="nonzero"/><circle id="x52" fill-opacity="0.6" fill="#000000" fill-rule="evenodd" cx="82" cy="22" r="6"/></g><g id="x58" fill-opacity="0.6"><path id="x57" d="M26.0390934,6.21012364 C20.2775554,6.98346216 11.2929313,12.0052479 12.04426,17.8178111 C12.0689481,18.0080543 12.3567302,18.0673468 12.4809077,17.9084937 C14.9674041,14.7203351 34.1927973,10.0365481 41.1942673,11.0147151 C41.8350523,11.1044465 42.2580662,10.4430343 41.8210501,10.0302067 C38.0765663,6.49485426 31.2003792,5.51224825 26.0390934,6.21012364" transform="translate(27,12) rotate(5.0) translate(-27,-12)"/><path id="x56" d="M85.0390934,6.21012364 C79.2775554,6.98346216 70.2929313,12.0052479 71.04426,17.8178111 C71.0689481,18.0080543 71.3567302,18.0673468 71.4809077,17.9084937 C73.9674041,14.7203351 93.1927973,10.0365481 100.194267,11.0147151 C100.835052,11.1044465 101.258066,10.4430343 100.82105,10.0302067 C97.0765663,6.49485426 90.2003792,5.51224825 85.0390934,6.21012364" transform="translate(86,12) scale(-1, 1) rotate(5.0) translate(-86,-12)"/></g></g><g id="x0" stroke-width="1" fill-rule="evenodd"><defs><rect id="x23" x="0" y="0" width="264" height="280"/><path id="x25" d="M148.859344,69 C148.952588,70.3212062 149,71.6550662 149,73 L149,111 C149,133.339168 135.919579,152.623239 117,161.610951 L117,170.317435 C135.145605,171.815797 152.721153,174.335027 163.000169,177 C172.952646,163.439362 185.884594,150.800081 186.000169,126 C186.085192,107.014914 158.324059,30.4276364 146.000169,15 C137.861928,4.81215989 117.30504,1.44935656 93.0001685,1 C68.6952966,0.550643437 48.9231015,6.50878211 41,16 C30.3189583,28.7950013 -0.0850232975,107.014914 4.92293245e-13,126 C0.115574613,150.800081 13.047523,163.439362 23,177 C33.2789946,174.335033 50.8544902,171.815807 69,170.317444 L69,161.610951 C50.0804213,152.623239 37,133.339168 37,111 L37,73 L37,73 C37,71.6550662 37.0474121,70.3212062 37.1406562,69 L65.3735517,69 L69.2529753,47.5561285 L72.058097,69 L148.859344,69 Z"/></defs><mask id="x33" fill="#FFFFFF"><use xlink:href="#x23"/></mask><g id="x2"/><g id="x5" mask="url('#x33')"><g transform="translate(-1,0)"><path id="x1" d="M69.0330562,76.212888 C81.9708809,43.1292208 95.6458945,26.5873873 110.058097,26.5873873 C110.596882,26.5873873 139.311316,26.3494141 158.112657,26.226792 C178.767149,35.5853581 193,55.3036503 193,78.114622 L193,93 L110.058097,93 L107.252975,69.820435 L103.373552,93 L69,93 L69,78.114622 C69,77.478246 69.0110772,76.844277 69.0330621,76.2128728 L69.0330562,76.212888 Z" fill-opacity="0.16" fill="#000000" fill-rule="evenodd"/><g id="x3" stroke-width="1" fill="none" fill-rule="evenodd" transform="translate(40,19)"><mask id="x35" fill="#FFFFFF"><use xlink:href="#x25"/></mask><use id="x4" fill="#E6E6E6" xlink:href="#x25"/><g id="x6-blonde_golden" mask="url('#x35')" fill="#D6B370"><g transform="translate(0,0) " id="x6"><rect x="0" y="0" width="264" height="280"/></g></g> </g><g id="x9" transform="translate(49,72)"><defs><path id="x29" d="M83.9980103,74.839711 C83.4569991,75.6087366 82.761047,76.2496937 81.949688,76.6891498 C73.0477917,81.5102869 63.8767499,77.3322546 58.8763101,77.6298353 C56.459601,77.7739966 53.3405442,79.4153191 52.2155358,77.6791014 C50.9768736,75.7669804 55.0680827,65.2207224 64.7214121,63.4643353 C71.7310704,62.1893309 81.4972391,63.6024033 83.9980103,66.9380109 C86.4987814,63.6024033 96.2649453,62.1893309 103.274279,63.4643353 C112.927938,65.2207224 117.019147,75.7669804 115.780485,77.6791014 C114.655476,79.4153191 111.53642,77.7739966 109.119711,77.6298353 C104.118941,77.3322546 94.948229,81.5102869 86.0463327,76.6891498 C85.2349736,76.2496937 84.5390216,75.6087366 83.9980103,74.839711 Z"/></defs><mask id="x37" fill="#FFFFFF"><use xlink:href="#x29"/></mask><use id="x7" fill="#28354B" fill-rule="evenodd" xlink:href="#x29"/><g id="x69" mask="url('#x37')" fill="#2C1B18"><g transform="translate(-32,0)" id="x8"><rect x="0" y="0" width="264" height="244"/></g></g></g><g id="x17" fill="none" transform="translate(62,85)" stroke-width="1"><defs><filter id="x45" x="-0.8%" y="-2.4%" width="101.6%" height="109.8%" filterUnits="objectBoundingBox"><feOffset dx="0" dy="2" in="SourceAlpha" result="shadowOffsetOuter1"/><feColorMatrix values="0 0 0 0 0 0 0 0 0 0 0 0 0 0 0 0 0 0 0.2 0" type="matrix" in="shadowOffsetOuter1" result="shadowMatrixOuter1"/><feMerge><feMergeNode in="shadowMatrixOuter1"/><feMergeNode in="SourceGraphic"/></feMerge></filter><linearGradient x1="50%" y1="0%" x2="50%" y2="100%" id="x43"><stop stop-color="#FFFFFF" stop-opacity="0.5" offset="0%"/><stop stop-color="#000000" stop-opacity="0.5" offset="70.5058195%"/></linearGradient><path id="x20" d="M44.9178864,17.5714286 C44.9178864,27.2737857 36.66775,35.1428571 22.9204545,35.1428571 L20.1704091,35.1428571 C6.42311364,35.1428571 0.923022727,27.2708571 0.923022727,17.5714286 L0.923022727,17.5714286 C0.923022727,7.86614286 2.20715909,0 21.4545455,0 L24.3863636,0 C43.63375,0 44.9178864,7.86614286 44.9178864,17.5714286 L44.9178864,17.5714286 Z"/><path id="x30" d="M106.486068,17.5714286 C106.486068,27.2737857 98.2388636,35.1428571 84.4886364,35.1428571 L81.7385909,35.1428571 C67.9912955,35.1428571 62.4912045,27.2708571 62.4912045,17.5714286 L62.4912045,17.5714286 C62.4912045,7.86614286 63.7753409,0 83.0227273,0 L85.9545455,0 C105.199,0 106.486068,7.86614286 106.486068,17.5714286 L106.486068,17.5714286 Z"/></defs><g id="x10" filter="url('#x45')" transform="translate(7,7)"><g id="x12" transform="translate(10.795455, 2.928571)" fill-rule="nonzero"><g id="x14"><use fill-opacity="0.7" fill="#000000" fill-rule="evenodd" xlink:href="#x20"/><use fill="url('#x43')" fill-rule="evenodd" style="mix-blend-mode: 'screen'" xlink:href="#x20"/></g><g id="x13"><use fill-opacity="0.7" fill="#000000" fill-rule="evenodd" xlink:href="#x30"/><use fill="url('#x43')" fill-rule="evenodd" style="mix-blend-mode: 'screen'" xlink:href="#x30"/></g></g><path id="x16" d="M33.7159091,41 L30.9658636,41 C17.0778409,41 8.78665909,33.3359286 8.78665909,20.5 C8.78665909,10.127 10.5985227,0 32.25,0 L35.1818182,0 C56.8332955,0 58.6451591,10.127 58.6451591,20.5 C58.6451591,32.5686429 48.3955227,41 33.7159091,41 Z M32.25,5.85421429 C14.6502955,5.85421429 14.6502955,12.3175714 14.6502955,20.5 C14.6502955,27.1800714 17.4795,35.1428571 30.9658636,35.1428571 L33.7159091,35.1428571 C44.9418409,35.1428571 52.7815227,29.1217143 52.7815227,20.5 C52.7815227,12.3175714 52.7815227,5.85421429 35.1818182,5.85421429 L32.25,5.85421429 Z" fill="#252C2F" fill-rule="nonzero"/><path id="x15" d="M95.2840909,41 L92.5340455,41 C78.6460227,41 70.3548409,33.3359286 70.3548409,20.5 C70.3548409,10.127 72.1667045,0 93.8181818,0 L96.75,0 C118.401477,0 120.213341,10.127 120.213341,20.5 C120.213341,32.5686429 109.963705,41 95.2840909,41 Z M93.8181818,5.85421429 C76.2184773,5.85421429 76.2184773,12.3175714 76.2184773,20.5 C76.2184773,27.1800714 79.0506136,35.1428571 92.5340455,35.1428571 L95.2840909,35.1428571 C106.510023,35.1428571 114.349705,29.1217143 114.349705,20.5 C114.349705,12.3175714 114.349705,5.85421429 96.75,5.85421429 L93.8181818,5.85421429 Z" fill="#252C2F" fill-rule="nonzero"/><path id="x11" d="M2.93181818,5.85714286 C3.61786364,5.17185714 11.1233182,0 32.25,0 C49.9640455,0 53.7138409,1.88014286 59.3898409,4.72085714 L59.8053162,4.93054903 C60.1999353,5.07314243 62.2179351,5.77419634 64.5784525,5.85128811 C66.7290156,5.75689949 68.5684809,5.16080623 69.1059926,4.96981137 C75.5844654,1.74762081 81.9260118,0 96.75,0 C117.876682,0 125.382136,5.17185714 126.068182,5.85714286 C127.689477,5.85714286 129,7.16621429 129,8.78571429 L129,11.7142857 C129,13.3337857 127.689477,14.6428571 126.068182,14.6428571 C126.068182,14.6428571 120.204545,14.6428571 120.204545,17.5714286 C120.204545,20.5 117.272727,13.3337857 117.272727,11.7142857 L117.272727,8.8618831 C113.697201,7.46243482 107.296654,5.85714286 96.75,5.85714286 C84.9995538,5.85714286 79.1475515,6.98813142 74.1276604,9.10414393 L74.1837955,9.24257143 L71.6878772,10.2500422 L74.1813177,11.2582547 L71.981173,16.6874536 L69.263564,15.5885995 C69.0208516,15.4904597 68.4971539,15.3141463 67.770994,15.1309826 C65.7466083,14.6203594 63.6653786,14.4649153 61.8248214,14.8513001 C61.1495627,14.993056 60.5230576,15.2057795 59.9480988,15.4931011 L57.3260941,16.8033836 L54.7026238,11.5651815 L57.3246285,10.2548989 L57.3310023,10.251716 L54.8191364,9.23671429 L54.8992448,9.03890561 C50.5700368,6.97578666 46.5781927,5.85714286 32.25,5.85714286 C21.7038986,5.85714286 15.3034993,7.46145875 11.7272727,8.86093383 L11.7272727,11.7142857 C11.7272727,13.3337857 8.79545455,20.5 8.79545455,17.5714286 C8.79545455,14.6428571 2.93181818,14.6428571 2.93181818,14.6428571 C1.31345455,14.6428571 0,13.3337857 0,11.7142857 L0,8.78571429 C0,7.16621429 1.31345455,5.85714286 2.93181818,5.85714286 Z" fill="#252C2F" fill-rule="nonzero"/></g></g> </g></g></g> </g></g></g></g></svg>