<?xml version="1.0" encoding="utf-8" ?><!DOCTYPE svg PUBLIC "-//W3C//DTD SVG 1.1//EN" "http://www.w3.org/Graphics/SVG/1.1/DTD/svg11.dtd"><svg width="280px" height="280px" viewBox="-6 0 274 280" version="1.1" xmlns="http://www.w3.org/2000/svg" xmlns:xlink="http://www.w3.org/1999/xlink"><desc>Py-Avataaars</desc> <g id="x37" stroke="none" stroke-width="1" fill="none" fill-rule="evenodd"><defs><circle id="x22" cx="120" cy="120" r="120"/><path id="x27" d="M12,160 C12,226.27417 65.72583,280 132,280 C198.27417,280 252,226.27417 252,160 L264,160 L264,-1.42108547e-14 L-3.19744231e-14,-1.42108547e-14 L-3.19744231e-14,160 L12,160 Z"/><path id="x19" d="M124,144.610951 L124,163 L128,163 L128,163 C167.764502,163 200,195.235498 200,235 L200,244 L0,244 L0,235 C-4.86974701e-15,195.235498 32.235498,163 72,163 L72,163 L76,163 L76,144.610951 C58.7626345,136.422372 46.3722246,119.687011 44.3051388,99.8812385 C38.4803105,99.0577866 34,94.0521096 34,88 L34,74 C34,68.0540074 38.3245733,63.1180731 44,62.1659169 L44,56 L44,56 C44,25.072054 69.072054,5.68137151e-15 100,0 L100,0 L100,0 C130.927946,-5.68137151e-15 156,25.072054 156,56 L156,62.1659169 C161.675427,63.1180731 166,68.0540074 166,74 L166,88 C166,94.0521096 161.51969,99.0577866 155.694861,99.8812385 C153.627775,119.687011 141.237365,136.422372 124,144.610951 Z"/></defs><g id="x35" transform="translate(-825,-1100)"><g transform="translate(825,1100)"> <g id="x36" stroke-width="1" fill-rule="evenodd" mask="url('#py-avataaars-path-71f21068-c23c-4abe-a258-93d6f42365bb')"><g id="x34" transform="translate(32,36)"><mask id="x18" fill="#FFFFFF"><use xlink:href="#x19"/></mask><use fill="#D0C6AC" xlink:href="#x19"/><g id="x17" mask="url('#x18')" fill="#D08B5B"><g transform="translate(0,0)" id="x16"><rect x="0" y="0" width="264" height="280"/></g></g> <path id="x33" d="M156,79 L156,102 C156,132.927946 130.927946,158 100,158 C69.072054,158 44,132.927946 44,102 L44,79 L44,94 C44,124.927946 69.072054,150 100,150 C130.927946,150 156,124.927946 156,94 L156,79 Z" fill-opacity="0.1" fill="#000000" mask="url('#x18')"/></g><g id="x64" transform="translate(0,170)"><defs><path id="x26" d="M105.192402,29.0517235 L104,29.0517235 L104,29.0517235 C64.235498,29.0517235 32,61.2872215 32,101.051724 L32,110 L232,110 L232,101.051724 C232,61.2872215 199.764502,29.0517235 160,29.0517235 L160,29.0517235 L158.807598,29.0517235 C158.934638,30.0353144 159,31.0364513 159,32.0517235 C159,45.8588423 146.911688,57.0517235 132,57.0517235 C117.088312,57.0517235 105,45.8588423 105,32.0517235 C105,31.0364513 105.065362,30.0353144 105.192402,29.0517235 Z"/></defs><mask id="x31" fill="#FFFFFF"><use xlink:href="#x26"/></mask><use id="x61" fill="#E6E6E6" fill-rule="evenodd" xlink:href="#x26"/><g id="x59" mask="url('#x31')" fill-rule="evenodd" fill="#262E33"><rect id="x63" x="0" y="0" width="264" height="110"/></g><g id="x62" stroke-width="1" fill-rule="evenodd" transform="translate(32,28)"><path id="x57" d="M68.784807,1.12222847 C30.512317,2.80409739 1.24427139e-14,34.3646437 0,73.0517235 L0,82 L69.3616767,82 C65.9607412,69.9199941 64,55.7087296 64,40.5 C64,26.1729736 65.7399891,12.7311115 68.784807,1.12222847 Z M131.638323,82 L200,82 L200,73.0517235 C200,34.7067641 170.024954,3.36285166 132.228719,1.17384225 C135.265163,12.7709464 137,26.1942016 137,40.5 C137,55.7087296 135.039259,69.9199941 131.638323,82 Z" fill="#3A4C5A"/><path id="x58" d="M149,58 L158.555853,50.83311 L158.555853,50.83311 C159.998897,49.7508275 161.987779,49.7682725 163.411616,50.8757011 L170,56 L149,58 Z" fill="#E6E6E6"/><path id="x56" d="M69,1.13686838e-13 C65,19.3333333 66.6666667,46.6666667 74,82 L58,82 L44,46 L50,37 L44,31 L63,1 C65.027659,0.369238637 67.027659,0.0359053037 69,1.13686838e-13 Z" fill="#2F4351"/><path id="x55" d="M151,1.13686838e-13 C147,19.3333333 148.666667,46.6666667 156,82 L140,82 L126,46 L132,37 L126,31 L145,1 C147.027659,0.369238637 149.027659,0.0359053037 151,1.13686838e-13 Z" fill="#2F4351" transform="translate(141,41) scale(-1, 1) translate(-141,-41)"/></g><path id="x60" d="M156,21.5390062 C162.772319,26.1359565 167,32.6563196 167,39.8878801 C167,47.2887711 162.572015,53.9447688 155.520105,58.5564942 L149.57933,53.8764929 L145,54.207887 L146,51.0567821 L145.922229,50.995516 C152.022491,47.8530505 156,42.7003578 156,36.8768102 L156,21.5390062 Z M108,21.5390062 C101.227681,26.1359565 97,32.6563196 97,39.8878801 C97,47.2887711 101.427985,53.9447688 108.479895,58.5564942 L114.42067,53.8764929 L119,54.207887 L118,51.0567821 L118.077771,50.995516 C111.977509,47.8530505 108,42.7003578 108,36.8768102 L108,21.5390062 Z" fill="#F2F2F2" fill-rule="evenodd"/></g><g id="x54" transform="translate(76,82)" fill="#000000"><g id="x47" transform="translate(2,52)"><defs><path id="x20" d="M35.117844,15.1280772 C36.1757121,24.6198025 44.2259873,32 54,32 C63.8042055,32 71.8740075,24.574136 72.8917593,15.0400546 C72.9736685,14.272746 72.1167429,13 71.042767,13 C56.1487536,13 44.7379213,13 37.0868244,13 C36.0066168,13 35.0120058,14.1784435 35.117844,15.1280772 Z"/><rect id="x24" x="39" y="2" width="31" height="16" rx="5"/></defs><mask id="x28" fill="#FFFFFF"><use xlink:href="#x20" transform="translate(54.003637, 22.500000) scale(1, -1) translate(-54.003637, -22.500000)"/></mask><use id="x44" fill-opacity="0.7" fill="#000000" fill-rule="evenodd" transform="translate(54.003637, 22.500000) scale(1, -1) translate(-54.003637, -22.500000)" xlink:href="#x20"/><use id="x43" stroke-width="1" fill-rule="evenodd" mask="url('#x28')" fill="#FFFFFF" xlink:href="#x24"/><g id="x42" stroke-width="1" fill-rule="evenodd" mask="url('#x28')" fill="#FF4F6D"><g transform="translate(38,24)"><circle id="x46" cx="11" cy="11" r="11"/><circle id="x45" cx="21" cy="11" r="11"/></g></g></g><g id="x41" transform="translate(28,40)" fill-opacity="0.16"><path id="x40" d="M16,8 C16,12.418278 21.372583,16 28,16 L28,16 C34.627417,16 40,12.418278 40,8"/></g><g id="x50" transform="translate(0,8)"><circle id="x65" fill="#FFFFFF" cx="82" cy="22" r="12"/><circle id="x48" fill-opacity="0.7" fill="#000000" cx="82" cy="22" r="6"/><path id="x49" d="M16.1601674,25.4473116 C18.006676,21.648508 22.1644225,19 26.9975803,19 C31.8136766,19 35.9591217,21.629842 37.8153518,25.4071242 C38.3667605,26.5291977 37.5821037,27.4474817 36.790607,26.7670228 C34.3395063,24.6597833 30.8587163,23.3437884 26.9975803,23.3437884 C23.2572061,23.3437884 19.8737584,24.5787519 17.4375392,26.5716412 C16.5467928,27.3002944 15.6201012,26.5583844 16.1601674,25.4473116 Z" fill-opacity="0.6" fill="#000000"/></g><g id="x53" fill-opacity="0.6"><path id="x51" d="M57.000525,12 C56.999825,11.9961 56.999825,11.9961 57.000525,12 M59.4596631,14.892451 C61.3120123,16.058698 64.1131185,16.7894891 65.7030886,17.0505179 C71.9486685,18.0766191 78.0153663,15.945512 84.1715051,15.0153209 C89.636055,14.1895424 95.8563653,13.4967455 100.86041,16.507708 C100.987756,16.584232 101.997542,17.2147893 102.524546,17.7511372 C102.91024,18.1443003 103.563259,18.0619945 103.822605,17.5722412 C105.241692,14.8939029 97.7243204,8.76008291 96.2812935,8.14993193 C89.7471082,5.39200867 81.0899445,8.32440654 74.4284137,9.38927986 C70.6888462,9.98718701 66.9279989,10.3803501 63.2409655,11.2908151 C61.9188284,11.6171635 60.6278928,12.2066818 59.3382119,12.3724317 C59.1848981,12.1429782 58.9889964,12 58.7633758,12 C57.5922879,12 55.8451696,15.4574504 58.0750241,15.6547468 C58.7728345,15.7164887 59.215997,15.3816732 59.4596631,14.892451 Z" transform="translate(80.5, 12.500000) rotate(-2.0) translate(-80.5, -12.500000)"/><path id="x52" d="M54.999475,12 C55.000175,11.9961 55.000175,11.9961 54.999475,12 M15.7187065,8.14993193 C22.2528918,5.39200867 30.9100555,8.32440654 37.5715863,9.38927986 C41.3111538,9.98718701 45.0720011,10.3803501 48.7590345,11.2908151 C50.2416282,11.6567696 51.6849876,12.3536477 53.1313394,12.4128263 C53.8325707,12.4413952 54.2674737,13.2763566 53.8149484,13.8242681 C52.3320222,15.6179895 48.3271239,16.7172136 46.2969114,17.0505179 C40.0513315,18.0766191 33.9846337,15.945512 27.8284949,15.0153209 C22.363945,14.1895424 16.1436347,13.4967455 11.1395899,16.507708 C11.0122444,16.584232 10.0024581,17.2147893 9.47545402,17.7511372 C9.0897602,18.1443003 8.43674067,18.0619945 8.17739482,17.5722412 C6.75830756,14.8939029 14.2756796,8.76008291 15.7187065,8.14993193 Z M54.9339874,11 C56.1050753,11 57.8521936,15.4015737 55.6223391,15.6527457 C53.3924847,15.9039176 53.7628995,11 54.9339874,11 Z" transform="translate(32.348682, 12.500000) rotate(2.0) translate(-32.348682, -12.500000)"/></g></g><g id="x0" stroke-width="1" fill-rule="evenodd"><defs><rect id="x23" x="0" y="0" width="264" height="280"/><path id="x21" d="M94.2519269,52.0221149 C94.3749353,51.9677149 94.0696712,51.9468149 93.3361345,51.9595149 C94.2276637,51.9577149 94.5329279,51.9785149 94.2519269,52.0221149 M86.1169775,36.3015924 C86.1148422,36.2819924 86.1337548,36.4526924 86.1169775,36.3015924 M193.765056,70.7656665 C193.500946,67.448734 193.03295,64.1518864 192.246676,60.9110823 C191.622233,58.3353492 190.769007,55.8775343 189.760006,53.4200433 C189.150703,51.9353766 187.727538,49.8961062 187.560324,48.2944933 C187.395466,46.7168527 188.626521,44.969138 188.889285,43.1323368 C189.144311,41.3447761 189.100909,39.4652134 188.734183,37.6938503 C187.901144,33.6710288 185.140271,29.9300447 180.877167,28.8814158 C179.925362,28.6471994 177.913417,28.9358396 177.240862,28.3815597 C176.469729,27.7459682 175.932761,25.5806808 175.234637,24.7121687 C173.244224,22.2362125 170.13984,20.6417265 166.865887,21.1976261 C164.454917,21.606776 165.839391,22.1053363 164.032005,20.6864317 C163.027041,19.8976114 162.276095,18.6931622 161.300066,17.8392279 C159.832826,16.5563826 158.149588,15.4581893 156.408146,14.556958 C151.851325,12.19892 146.654249,10.4848961 141.564162,9.64942693 C132.278934,8.12523827 122.368926,9.45408458 113.368668,11.8688141 C108.890239,13.0703477 104.381531,14.5951842 100.222053,16.6117782 C98.4385542,17.4764029 97.4090304,18.1936301 95.5494951,18.4200717 C92.6207355,18.7767416 90.1404579,18.7589243 87.3661268,20.0009517 C78.8298269,23.8229236 74.9849256,32.6897818 78.3066539,41.1750259 C78.974835,42.8815988 79.8795374,44.3801954 81.1267416,45.7586062 C82.6474761,47.4392631 83.1975648,47.1085093 81.8877817,49.0411999 C79.9289949,51.9311653 78.2777195,55.0129095 76.9332826,58.2128958 C73.4043038,66.6145606 72.8138416,76.0771643 73.043634,85.0373203 C73.1240445,88.1741362 73.2586228,91.3495022 73.753198,94.4561907 C73.966841,95.8009106 74.0267283,98.3293468 75.0353925,99.3271154 C75.5471264,99.8331265 76.2762042,100.115288 77.0035997,99.9137903 C78.7130802,99.4401742 78.1253096,98.1787097 78.1650102,97.0076274 C78.364859,91.1240324 78.0950295,85.9191145 79.4943071,80.1064647 C80.5278683,75.8118486 82.2504702,71.9114806 84.4827873,68.0713675 C87.3213795,63.1871608 90.3857268,58.8977279 94.2895061,54.7155226 C95.2073299,53.7320079 95.4078515,53.3150832 96.6385698,53.243814 C97.5705244,53.1900382 98.9338023,53.8282213 99.8398505,54.0491558 C101.837665,54.5360539 103.83918,55.0174448 105.873331,55.3452831 C109.613261,55.9481556 113.316519,55.9886494 117.090094,55.8704074 C124.516459,55.6381346 131.974787,55.1172217 139.175061,53.2470535 C143.956964,52.00535 148.196516,49.7762443 152.776887,48.1422364 C152.858644,48.1130808 154.006596,47.2951049 154.207791,47.3284719 C154.488723,47.3747968 156.184746,49.1542588 156.471061,49.3784327 C158.696649,51.1238798 161.137899,51.8566566 163.541467,53.2081794 C166.504881,54.8745825 163.634999,52.4899804 165.269452,54.5668292 C165.745859,55.1716454 165.989782,56.2931632 166.371984,56.9783192 C167.587899,59.1610999 169.279548,61.0795367 171.302932,62.6017816 C173.258018,64.0725184 176.196198,64.7829426 177.193087,66.697168 C177.961865,68.1740599 178.220929,70.1812592 178.841334,71.7579279 C180.468722,75.8931602 182.617937,79.7494709 184.767152,83.6443317 C186.498502,86.7830913 188.392354,89.5250111 188.584801,93.1117947 C188.651754,94.3603012 187.463764,101.849397 190.357534,99.5716982 C190.786502,99.2341415 191.711391,95.415733 191.901483,94.7678314 C192.672616,92.135083 192.94682,89.3866841 193.29605,86.6816947 C193.990474,81.3021672 194.218584,76.1837441 193.765056,70.7656665"/><filter id="x38" x="-0.8%" y="-2.0%" width="101.5%" height="108.0%" filterUnits="objectBoundingBox"><feOffset dx="0" dy="2" in="SourceAlpha" result="shadowOffsetOuter1"/><feColorMatrix values="0 0 0 0 0 0 0 0 0 0 0 0 0 0 0 0 0 0 0.16 0" type="matrix" in="shadowOffsetOuter1" result="shadowMatrixOuter1"/><feMerge><feMergeNode in="shadowMatrixOuter1"/><feMergeNode in="SourceGraphic"/></feMerge></filter></defs><mask id="x29" fill="#FFFFFF"><use xlink:href="#x23"/></mask><g id="x1"/><g id="x3" mask="url('#x29')"><g transform="translate(-1,0)"><g id="x8" transform="translate(49,72)"><defs><path id="x25" d='M105.017591,94.1296214 C101.150441,99.7213834 98.257542,95.9467308 94.1374777,92.8762163 C91.6567227,91.0272796 87.9608129,88.7275108 84.5044337,88.8410391 C81.0477114,88.7275108 77.3518016,91.0272796 74.8710466,92.8762163 C70.7509822,95.9467308 67.8580835,99.7213834 63.9909333,94.1296214 C61.0884259,89.9323547 62.3028943,82.8739117 65.014944,78.9027173 C68.8738581,73.2512381 74.1088724,75.9847769 79.9622738,75.3400279 C81.5538829,75.1648137 83.1526985,74.7228407 84.5044337,74 C85.856169,74.7228407 87.4546414,75.1648137 89.0462504,75.3400279 C94.899995,75.9847769 100.134666,73.2512381 103.993923,78.9027173 C106.70563,82.8739117 107.920098,89.9323547 105.017591,94.1296214 M140.39109,26 C136.966521,40.0748212 135.393023,54.4337754 132.909944,68.6711471 C132.392536,71.6390145 131.826063,74.5963095 131.224594,77.5496398 C131.098329,78.1697764 130.973781,80.4725746 130.362704,80.7643064 C128.511632,81.6484223 124.739149,76.9466834 123.730409,75.8851496 C121.196893,73.219256 118.684993,70.5292442 115.599415,68.437233 C109.364783,64.2102603 102.065485,61.7108818 94.4700836,61.117837 C91.2922091,60.8693859 86.9951134,61.3025234 84.000116,63.1104016 C81.0051185,61.3025234 76.7080229,60.8693859 73.5298053,61.117837 C65.9344039,61.7108818 58.6351055,64.2102603 52.4004739,68.437233 C49.3148957,70.5292442 46.8033387,73.219256 44.2694796,75.8851496 C43.2607395,76.9466834 39.4882573,81.6484223 37.6371849,80.7643064 C37.0261079,80.4725746 36.9015594,78.1697764 36.7752954,77.5496398 C36.1738255,74.5963095 35.6073527,71.6390145 35.0899445,68.6711471 C32.6072086,54.4337754 31.0337113,40.0748212 27.6091415,26 C26.6127533,26 25.7385119,44.7478165 25.6273446,46.4945731 C25.174784,53.5889755 24.6463963,60.5254529 25.3216346,67.6261326 C26.485803,79.8749043 27.6993791,95.2339402 37.032627,104.58753 C45.4659003,113.039493 57.7103052,114.806417 68.2713185,120.141327 C69.631059,120.828202 71.4347824,121.676306 73.3798667,122.37111 C75.4289129,123.934171 79.4926946,125 84.1740722,125 C89.0846465,125 93.3155222,123.827456 95.2540874,122.137856 C96.9548781,121.49261 98.5180822,120.752874 99.7285704,120.141327 C110.288776,114.805245 122.533989,113.039493 130.967262,104.58753 C140.30051,95.2339402 141.514086,79.8749043 142.678597,67.6261326 C143.353493,60.5254529 142.825105,53.5889755 142.372887,46.4945731 C142.261377,44.7478165 141.387136,26 140.39109,26 Z' /></defs><mask id="x30" fill="#FFFFFF"><use xlink:href="#x25"/></mask><use id="x7" fill="#252E32" fill-rule="evenodd" xlink:href="#x25"/><g id="color-facial-hair-pastel_pink" mask="url('#x30')" fill="#F59797"><g transform="translate(-32,0)" id="x6"><rect x="0" y="0" width="264" height="244"/></g></g></g> <mask id="x32" fill="#FFFFFF"><use xlink:href="#x21"/></mask><use id="x2" stroke="none" fill="#28354B" fill-rule="evenodd" xlink:href="#x21"/><g id="x4" mask="url('#x32')" fill="#A55728"><g transform="translate(0,0) " id="x5"><rect x="0" y="0" width="264" height="280"/></g></g><g id="x15" fill="none" transform="translate(62,85)" stroke-width="1"><defs><filter id="x39" x="-0.8%" y="-2.4%" width="101.5%" height="109.8%" filterUnits="objectBoundingBox"><feOffset dx="0" dy="2" in="SourceAlpha" result="shadowOffsetOuter1"/><feColorMatrix values="0 0 0 0 0 0 0 0 0 0 0 0 0 0 0 0 0 0 0.2 0" type="matrix" in="shadowOffsetOuter1" result="shadowMatrixOuter1"/><feMerge><feMergeNode in="shadowMatrixOuter1"/><feMergeNode in="SourceGraphic"/></feMerge></filter></defs><g id="x9" filter="url('#x39')" transform="translate(8,8)" fill="#D6EAF2"><path id="x14" d="M46.2491397,7.27516667 C48.6207695,7.2975 49.7419096,7.69183333 50.1459601,10.1651667 C50.5553446,12.6705 50.1572949,15.4871667 49.6852359,17.9548333 C48.9648125,21.7228333 47.7666627,25.4145 44.9776475,28.1685 C43.5084639,29.6188333 41.7165732,30.7748333 39.8106684,31.5641667 C38.7985419,31.9835 37.7297416,32.2861667 36.6612747,32.5158333 C36.3489024,32.5828333 33.6822357,32.9501667 35.3177735,32.7635 C31.5009631,33.1991667 27.3601122,33.1818333 24.1723805,30.7525 C20.6396056,28.0601667 18.2203032,23.7998333 17.1565036,19.5561667 C16.5340925,17.0731667 15.2262624,11.1345 17.6158944,9.14916667 C20.3532365,6.8745 46.2491397,7.27516667 46.2491397,7.27516667 L46.2491397,7.27516667 Z M22.2178029,0.4905 C16.7774562,0.677833333 13.1466691,1.63383333 10.4633337,7.06916667 C5.54571911,17.0301667 13.9627711,31.9688333 23.352278,36.0395 C34.3293166,40.7991667 46.5921826,35.5318333 52.3955746,26.0058333 C55.4689587,20.9621667 57.0224862,13.3231667 56.9224737,7.50383333 C56.7951245,0.0765 51.6071427,-0.1295 45.5090472,0.0338333333 L22.2178029,0.4905 Z"/><path id="x13" d="M79.6805515,7.27256667 C77.3089217,7.29523333 76.1877816,7.68923333 75.7837311,10.1625667 C75.3743466,12.6679 75.7723963,15.4845667 76.244122,17.9522333 C76.9648787,21.7202333 78.1630285,25.4119 80.9520437,28.1659 C82.4212273,29.6162333 84.213118,30.7722333 86.1190228,31.5619 C87.1311493,31.9809 88.1999496,32.2835667 89.2684165,32.5132333 C89.5807888,32.5802333 92.2471221,32.9479 90.6119177,32.7609 C94.4287281,33.1965667 98.569579,33.1792333 101.757311,30.7499 C105.290086,28.0575667 107.709388,23.7975667 108.773188,19.5539 C109.395599,17.0705667 110.703095,11.1322333 108.313797,9.14656667 C105.576455,6.8719 79.6805515,7.27256667 79.6805515,7.27256667 L79.6805515,7.27256667 Z M103.711555,0.4879 C109.152235,0.675233333 112.783022,1.63156667 115.466357,7.06656667 C120.383639,17.0275667 111.96692,31.9662333 102.577413,36.0372333 C91.6003746,40.7965667 79.3375086,35.5292333 73.5337832,26.0035667 C70.4607325,20.9595667 68.907205,13.3205667 69.0068841,7.50123333 C69.1345667,0.0739 74.3225485,-0.1321 80.420644,0.0315666667 L103.711555,0.4879 Z"/><path id="x12" d="M13.1969483,4.9267 C9.78501392,5.11836667 5.88606327,5.16436667 2.69005822,6.63936667 C-0.69461078,8.20136667 -1.2176675,11.7387 3.04920921,12.2260333 C4.97094906,12.4457 6.89488267,12.0827 8.78716336,11.7450333 C10.336903,11.4683667 12.4419791,11.5580333 13.9064752,10.9657 C16.6355213,9.86236667 16.4603333,4.74003333 13.1969483,4.9267"/><path id="x11" d="M112.73467,4.9267 C116.146606,5.11836667 120.045559,5.16436667 123.241565,6.63936667 C126.626236,8.20136667 127.149293,11.7387 122.882414,12.2260333 C120.960673,12.4457 119.036739,12.0827 117.144457,11.7450333 C115.594717,11.4683667 113.489639,11.5580333 112.025143,10.9657 C109.295782,9.86236667 109.471283,4.74003333 112.73467,4.9267"/><path id="x10" d="M73.1094302,7.01263333 C71.1631869,4.71263333 66.0912197,3.38463333 62.8914864,3.38463333 C59.6914198,3.38463333 54.7681378,4.71263333 52.8222279,7.01263333 C51.8407719,8.1723 51.8074344,9.72396667 53.5083137,10.4509667 C55.6262451,11.3566333 57.5174814,9.7143 59.2126933,8.8553 C61.3809643,7.75663333 64.7120473,7.8773 66.7189648,8.8553 C68.4271783,9.68796667 70.3050797,11.3566333 72.4233444,10.4509667 C74.1242237,9.72396667 74.0908862,8.1723 73.1094302,7.01263333"/></g></g> </g></g></g> </g></g></g></g></svg>