<?xml version="1.0" encoding="utf-8" ?><!DOCTYPE svg PUBLIC "-//W3C//DTD SVG 1.1//EN" "http://www.w3.org/Graphics/SVG/1.1/DTD/svg11.dtd"><svg width="280px" height="280px" viewBox="-6 0 274 280" version="1.1" xmlns="http://www.w3.org/2000/svg" xmlns:xlink="http://www.w3.org/1999/xlink"><desc>Py-Avataaars</desc> <g id="x36" stroke="none" stroke-width="1" fill="none" fill-rule="evenodd"><defs><circle id="x26" cx="120" cy="120" r="120"/><path id="x24" d="M12,160 C12,226.27417 65.72583,280 132,280 C198.27417,280 252,226.27417 252,160 L264,160 L264,-1.42108547e-14 L-3.19744231e-14,-1.42108547e-14 L-3.19744231e-14,160 L12,160 Z"/><path id="x21" d="M124,144.610951 L124,163 L128,163 L128,163 C167.764502,163 200,195.235498 200,235 L200,244 L0,244 L0,235 C-4.86974701e-15,195.235498 32.235498,163 72,163 L72,163 L76,163 L76,144.610951 C58.7626345,136.422372 46.3722246,119.687011 44.3051388,99.8812385 C38.4803105,99.0577866 34,94.0521096 34,88 L34,74 C34,68.0540074 38.3245733,63.1180731 44,62.1659169 L44,56 L44,56 C44,25.072054 69.072054,5.68137151e-15 100,0 L100,0 L100,0 C130.927946,-5.68137151e-15 156,25.072054 156,56 L156,62.1659169 C161.675427,63.1180731 166,68.0540074 166,74 L166,88 C166,94.0521096 161.51969,99.0577866 155.694861,99.8812385 C153.627775,119.687011 141.237365,136.422372 124,144.610951 Z"/></defs><g id="x34" transform="translate(-825,-1100)"><g transform="translate(825,1100)"> <g id="x35" stroke-width="1" fill-rule="evenodd" mask="url('#py-avataaars-path-36b1638b-ba96-4a08-b413-24166456010e')"><g id="x33" transform="translate(32,36)"><mask id="x27" fill="#FFFFFF"><use xlink:href="#x21"/></mask><use fill="#D0C6AC" xlink:href="#x21"/><g id="x16" mask="url('#x27')" fill="#FFDBB4"><g transform="translate(0,0)" id="x17"><rect x="0" y="0" width="264" height="280"/></g></g> <path id="x32" d="M156,79 L156,102 C156,132.927946 130.927946,158 100,158 C69.072054,158 44,132.927946 44,102 L44,79 L44,94 C44,124.927946 69.072054,150 100,150 C130.927946,150 156,124.927946 156,94 L156,79 Z" fill-opacity="0.1" fill="#000000" mask="url('#x27')"/></g><g id="x63" transform="translate(0,170)"><defs><path id="x20" d="M133.960472,0.294916112 C170.936473,3.32499816 200,34.2942856 200,72.0517235 L200,81 L0,81 L0,72.0517235 C1.22536245e-14,33.9525631 29.591985,2.76498122 67.0454063,0.219526408 C67.0152598,0.593114549 67,0.969227185 67,1.34762511 C67,13.2107177 81.9984609,22.8276544 100.5,22.8276544 C119.001539,22.8276544 134,13.2107177 134,1.34762511 C134,0.994669088 133.986723,0.64370138 133.960472,0.294916112 Z"/></defs><g id="x54" transform="translate(32,29)"><mask id="x28" fill="#FFFFFF"><use xlink:href="#x20"/></mask><use id="x60" fill="#E6E6E6" xlink:href="#x20"/><g id="x59" mask="url('#x28')" fill="#262E33"><g transform="translate(-32,-29)" id="x62"><rect x="0" y="0" width="264" height="110"/></g></g><g id="x55" opacity="0.6" mask="url('#x28')" fill-opacity="0.16" fill="#000000"><g transform="translate(60,-25)" id="x58"><ellipse cx="40.5" cy="27.8476251" rx="39.6351047" ry="26.9138272"/></g></g></g><g id="x61" transform="translate(32,28)"><path id="x56" d="M68.784807,1.12222847 C30.512317,2.80409739 -1.89486556e-14,34.3646437 -1.42108547e-14,73.0517235 L0,73.0517235 L0,82 L69.3616767,82 C65.9607412,69.9199941 64,55.7087296 64,40.5 C64,26.1729736 65.7399891,12.7311115 68.784807,1.12222847 Z M131.638323,82 L200,82 L200,73.0517235 C200,34.7067641 170.024954,3.36285166 132.228719,1.17384225 C135.265163,12.7709464 137,26.1942016 137,40.5 C137,55.7087296 135.039259,69.9199941 131.638323,82 Z" fill="#3A4C5A"/><path id="x57" d="M149,58 L158.555853,50.83311 L158.555853,50.83311 C159.998897,49.7508275 161.987779,49.7682725 163.411616,50.8757011 L170,56 L149,58 Z" fill="#E6E6E6"/><path id="x53" d="M69,1.13686838e-13 C65,19.3333333 66.6666667,46.6666667 74,82 L58,82 L44,46 L50,37 L44,31 L63,1 C65.027659,0.369238637 67.027659,0.0359053037 69,1.13686838e-13 Z" fill="#2F4351"/><path id="x52" d="M151,1.13686838e-13 C147,19.3333333 148.666667,46.6666667 156,82 L140,82 L126,46 L132,37 L126,31 L145,1 C147.027659,0.369238637 149.027659,0.0359053037 151,1.13686838e-13 Z" fill="#2F4351" transform="translate(141,41) scale(-1, 1) translate(-141,-41)"/></g></g><g id="x51" transform="translate(76,82)" fill="#000000"><g id="x43" transform="translate(2,52)" fill-opacity="0.7"><path id="x42" d="M40,15 C40,22.7319865 46.2680135,29 54,29 L54,29 C61.7319865,29 68,22.7319865 68,15"/></g><g id="x41" transform="translate(28,40)" fill-opacity="0.16"><path id="x40" d="M16,8 C16,12.418278 21.372583,16 28,16 L28,16 C34.627417,16 40,12.418278 40,8"/></g><g id="x47" transform="translate(0,8)"><circle id="x45" fill-opacity="0.6" fill="#000000" fill-rule="evenodd" cx="30" cy="22" r="6"/><path id="x46" d="M25,27 C25,27 19,34.2706667 19,38.2706667 C19,41.5846667 21.686,44.2706667 25,44.2706667 C28.314,44.2706667 31,41.5846667 31,38.2706667 C31,34.2706667 25,27 25,27 Z" fill="#92D9FF" fill-rule="nonzero"/><circle id="x44" fill-opacity="0.6" fill="#000000" fill-rule="evenodd" cx="82" cy="22" r="6"/></g><g id="x50" fill-opacity="0.6"><path id="x49" d="M22.7663531,1.57844898 L23.6772984,1.17582144 C28.9190996,-0.905265751 36.8645466,-0.0328729562 41.7227321,2.29911638 C42.2897848,2.57148957 41.9021563,3.4519421 41.3211012,3.40711006 C26.4021788,2.25602197 16.3582869,11.5525942 12.9460869,17.8470939 C12.8449215,18.0337142 12.5391523,18.05489 12.4635344,17.8808353 C10.156283,12.5620676 16.9134476,3.89614725 22.7663531,1.57844898 Z"/><path id="x48" d="M80.7663531,1.57844898 L81.6772984,1.17582144 C86.9190996,-0.905265751 94.8645466,-0.0328729562 99.7227321,2.29911638 C100.289785,2.57148957 99.9021563,3.4519421 99.3211012,3.40711006 C84.4021788,2.25602197 74.3582869,11.5525942 70.9460869,17.8470939 C70.8449215,18.0337142 70.5391523,18.05489 70.4635344,17.8808353 C68.156283,12.5620676 74.9134476,3.89614725 80.7663531,1.57844898 Z" transform="translate(85,9) scale(-1, 1) translate(-85,-9) "/></g></g><g id="x0" stroke-width="1" fill-rule="evenodd"><defs><rect id="x19" x="0" y="0" width="264" height="280"/><path id="x18" d="M94.2519269,52.0221149 C94.3749353,51.9677149 94.0696712,51.9468149 93.3361345,51.9595149 C94.2276637,51.9577149 94.5329279,51.9785149 94.2519269,52.0221149 M86.1169775,36.3015924 C86.1148422,36.2819924 86.1337548,36.4526924 86.1169775,36.3015924 M193.765056,70.7656665 C193.500946,67.448734 193.03295,64.1518864 192.246676,60.9110823 C191.622233,58.3353492 190.769007,55.8775343 189.760006,53.4200433 C189.150703,51.9353766 187.727538,49.8961062 187.560324,48.2944933 C187.395466,46.7168527 188.626521,44.969138 188.889285,43.1323368 C189.144311,41.3447761 189.100909,39.4652134 188.734183,37.6938503 C187.901144,33.6710288 185.140271,29.9300447 180.877167,28.8814158 C179.925362,28.6471994 177.913417,28.9358396 177.240862,28.3815597 C176.469729,27.7459682 175.932761,25.5806808 175.234637,24.7121687 C173.244224,22.2362125 170.13984,20.6417265 166.865887,21.1976261 C164.454917,21.606776 165.839391,22.1053363 164.032005,20.6864317 C163.027041,19.8976114 162.276095,18.6931622 161.300066,17.8392279 C159.832826,16.5563826 158.149588,15.4581893 156.408146,14.556958 C151.851325,12.19892 146.654249,10.4848961 141.564162,9.64942693 C132.278934,8.12523827 122.368926,9.45408458 113.368668,11.8688141 C108.890239,13.0703477 104.381531,14.5951842 100.222053,16.6117782 C98.4385542,17.4764029 97.4090304,18.1936301 95.5494951,18.4200717 C92.6207355,18.7767416 90.1404579,18.7589243 87.3661268,20.0009517 C78.8298269,23.8229236 74.9849256,32.6897818 78.3066539,41.1750259 C78.974835,42.8815988 79.8795374,44.3801954 81.1267416,45.7586062 C82.6474761,47.4392631 83.1975648,47.1085093 81.8877817,49.0411999 C79.9289949,51.9311653 78.2777195,55.0129095 76.9332826,58.2128958 C73.4043038,66.6145606 72.8138416,76.0771643 73.043634,85.0373203 C73.1240445,88.1741362 73.2586228,91.3495022 73.753198,94.4561907 C73.966841,95.8009106 74.0267283,98.3293468 75.0353925,99.3271154 C75.5471264,99.8331265 76.2762042,100.115288 77.0035997,99.9137903 C78.7130802,99.4401742 78.1253096,98.1787097 78.1650102,97.0076274 C78.364859,91.1240324 78.0950295,85.9191145 79.4943071,80.1064647 C80.5278683,75.8118486 82.2504702,71.9114806 84.4827873,68.0713675 C87.3213795,63.1871608 90.3857268,58.8977279 94.2895061,54.7155226 C95.2073299,53.7320079 95.4078515,53.3150832 96.6385698,53.243814 C97.5705244,53.1900382 98.9338023,53.8282213 99.8398505,54.0491558 C101.837665,54.5360539 103.83918,55.0174448 105.873331,55.3452831 C109.613261,55.9481556 113.316519,55.9886494 117.090094,55.8704074 C124.516459,55.6381346 131.974787,55.1172217 139.175061,53.2470535 C143.956964,52.00535 148.196516,49.7762443 152.776887,48.1422364 C152.858644,48.1130808 154.006596,47.2951049 154.207791,47.3284719 C154.488723,47.3747968 156.184746,49.1542588 156.471061,49.3784327 C158.696649,51.1238798 161.137899,51.8566566 163.541467,53.2081794 C166.504881,54.8745825 163.634999,52.4899804 165.269452,54.5668292 C165.745859,55.1716454 165.989782,56.2931632 166.371984,56.9783192 C167.587899,59.1610999 169.279548,61.0795367 171.302932,62.6017816 C173.258018,64.0725184 176.196198,64.7829426 177.193087,66.697168 C177.961865,68.1740599 178.220929,70.1812592 178.841334,71.7579279 C180.468722,75.8931602 182.617937,79.7494709 184.767152,83.6443317 C186.498502,86.7830913 188.392354,89.5250111 188.584801,93.1117947 C188.651754,94.3603012 187.463764,101.849397 190.357534,99.5716982 C190.786502,99.2341415 191.711391,95.415733 191.901483,94.7678314 C192.672616,92.135083 192.94682,89.3866841 193.29605,86.6816947 C193.990474,81.3021672 194.218584,76.1837441 193.765056,70.7656665"/><filter id="x39" x="-0.8%" y="-2.0%" width="101.5%" height="108.0%" filterUnits="objectBoundingBox"><feOffset dx="0" dy="2" in="SourceAlpha" result="shadowOffsetOuter1"/><feColorMatrix values="0 0 0 0 0 0 0 0 0 0 0 0 0 0 0 0 0 0 0.16 0" type="matrix" in="shadowOffsetOuter1" result="shadowMatrixOuter1"/><feMerge><feMergeNode in="shadowMatrixOuter1"/><feMergeNode in="SourceGraphic"/></feMerge></filter></defs><mask id="x30" fill="#FFFFFF"><use xlink:href="#x19"/></mask><g id="x1"/><g id="x3" mask="url('#x30')"><g transform="translate(-1,0)"><g id="x7" transform="translate(49,72)"><defs><path id="x25" d='M105.017591,94.1296214 C101.150441,99.7213834 98.257542,95.9467308 94.1374777,92.8762163 C91.6567227,91.0272796 87.9608129,88.7275108 84.5044337,88.8410391 C81.0477114,88.7275108 77.3518016,91.0272796 74.8710466,92.8762163 C70.7509822,95.9467308 67.8580835,99.7213834 63.9909333,94.1296214 C61.0884259,89.9323547 62.3028943,82.8739117 65.014944,78.9027173 C68.8738581,73.2512381 74.1088724,75.9847769 79.9622738,75.3400279 C81.5538829,75.1648137 83.1526985,74.7228407 84.5044337,74 C85.856169,74.7228407 87.4546414,75.1648137 89.0462504,75.3400279 C94.899995,75.9847769 100.134666,73.2512381 103.993923,78.9027173 C106.70563,82.8739117 107.920098,89.9323547 105.017591,94.1296214 M140.39109,26 C136.966521,40.0748212 135.393023,54.4337754 132.909944,68.6711471 C132.392536,71.6390145 131.826063,74.5963095 131.224594,77.5496398 C131.098329,78.1697764 130.973781,80.4725746 130.362704,80.7643064 C128.511632,81.6484223 124.739149,76.9466834 123.730409,75.8851496 C121.196893,73.219256 118.684993,70.5292442 115.599415,68.437233 C109.364783,64.2102603 102.065485,61.7108818 94.4700836,61.117837 C91.2922091,60.8693859 86.9951134,61.3025234 84.000116,63.1104016 C81.0051185,61.3025234 76.7080229,60.8693859 73.5298053,61.117837 C65.9344039,61.7108818 58.6351055,64.2102603 52.4004739,68.437233 C49.3148957,70.5292442 46.8033387,73.219256 44.2694796,75.8851496 C43.2607395,76.9466834 39.4882573,81.6484223 37.6371849,80.7643064 C37.0261079,80.4725746 36.9015594,78.1697764 36.7752954,77.5496398 C36.1738255,74.5963095 35.6073527,71.6390145 35.0899445,68.6711471 C32.6072086,54.4337754 31.0337113,40.0748212 27.6091415,26 C26.6127533,26 25.7385119,44.7478165 25.6273446,46.4945731 C25.174784,53.5889755 24.6463963,60.5254529 25.3216346,67.6261326 C26.485803,79.8749043 27.6993791,95.2339402 37.032627,104.58753 C45.4659003,113.039493 57.7103052,114.806417 68.2713185,120.141327 C69.631059,120.828202 71.4347824,121.676306 73.3798667,122.37111 C75.4289129,123.934171 79.4926946,125 84.1740722,125 C89.0846465,125 93.3155222,123.827456 95.2540874,122.137856 C96.9548781,121.49261 98.5180822,120.752874 99.7285704,120.141327 C110.288776,114.805245 122.533989,113.039493 130.967262,104.58753 C140.30051,95.2339402 141.514086,79.8749043 142.678597,67.6261326 C143.353493,60.5254529 142.825105,53.5889755 142.372887,46.4945731 C142.261377,44.7478165 141.387136,26 140.39109,26 Z' /></defs><mask id="x29" fill="#FFFFFF"><use xlink:href="#x25"/></mask><use id="x6" fill="#252E32" fill-rule="evenodd" xlink:href="#x25"/><g id="x64" mask="url('#x29')" fill="#A55728"><g transform="translate(-32,0)" id="x5"><rect x="0" y="0" width="264" height="244"/></g></g></g> <mask id="x31" fill="#FFFFFF"><use xlink:href="#x18"/></mask><use id="x2" stroke="none" fill="#28354B" fill-rule="evenodd" xlink:href="#x18"/><g id="x4-blonde_golden" mask="url('#x31')" fill="#D6B370"><g transform="translate(0,0) " id="x4"><rect x="0" y="0" width="264" height="280"/></g></g><g id="x15" fill="none" transform="translate(62,85)" stroke-width="1"><defs><filter id="x38" x="-0.8%" y="-2.4%" width="101.6%" height="109.8%" filterUnits="objectBoundingBox"><feOffset dx="0" dy="2" in="SourceAlpha" result="shadowOffsetOuter1"/><feColorMatrix values="0 0 0 0 0 0 0 0 0 0 0 0 0 0 0 0 0 0 0.2 0" type="matrix" in="shadowOffsetOuter1" result="shadowMatrixOuter1"/><feMerge><feMergeNode in="shadowMatrixOuter1"/><feMergeNode in="SourceGraphic"/></feMerge></filter><linearGradient x1="50%" y1="0%" x2="50%" y2="100%" id="x37"><stop stop-color="#FFFFFF" stop-opacity="0.5" offset="0%"/><stop stop-color="#000000" stop-opacity="0.5" offset="70.5058195%"/></linearGradient><path id="x22" d="M44.9178864,17.5714286 C44.9178864,27.2737857 36.66775,35.1428571 22.9204545,35.1428571 L20.1704091,35.1428571 C6.42311364,35.1428571 0.923022727,27.2708571 0.923022727,17.5714286 L0.923022727,17.5714286 C0.923022727,7.86614286 2.20715909,0 21.4545455,0 L24.3863636,0 C43.63375,0 44.9178864,7.86614286 44.9178864,17.5714286 L44.9178864,17.5714286 Z"/><path id="x23" d="M106.486068,17.5714286 C106.486068,27.2737857 98.2388636,35.1428571 84.4886364,35.1428571 L81.7385909,35.1428571 C67.9912955,35.1428571 62.4912045,27.2708571 62.4912045,17.5714286 L62.4912045,17.5714286 C62.4912045,7.86614286 63.7753409,0 83.0227273,0 L85.9545455,0 C105.199,0 106.486068,7.86614286 106.486068,17.5714286 L106.486068,17.5714286 Z"/></defs><g id="x8" filter="url('#x38')" transform="translate(7,7)"><g id="x10" transform="translate(10.795455, 2.928571)" fill-rule="nonzero"><g id="x12"><use fill-opacity="0.7" fill="#000000" fill-rule="evenodd" xlink:href="#x22"/><use fill="url('#x37')" fill-rule="evenodd" style="mix-blend-mode: 'screen'" xlink:href="#x22"/></g><g id="x11"><use fill-opacity="0.7" fill="#000000" fill-rule="evenodd" xlink:href="#x23"/><use fill="url('#x37')" fill-rule="evenodd" style="mix-blend-mode: 'screen'" xlink:href="#x23"/></g></g><path id="x14" d="M33.7159091,41 L30.9658636,41 C17.0778409,41 8.78665909,33.3359286 8.78665909,20.5 C8.78665909,10.127 10.5985227,0 32.25,0 L35.1818182,0 C56.8332955,0 58.6451591,10.127 58.6451591,20.5 C58.6451591,32.5686429 48.3955227,41 33.7159091,41 Z M32.25,5.85421429 C14.6502955,5.85421429 14.6502955,12.3175714 14.6502955,20.5 C14.6502955,27.1800714 17.4795,35.1428571 30.9658636,35.1428571 L33.7159091,35.1428571 C44.9418409,35.1428571 52.7815227,29.1217143 52.7815227,20.5 C52.7815227,12.3175714 52.7815227,5.85421429 35.1818182,5.85421429 L32.25,5.85421429 Z" fill="#252C2F" fill-rule="nonzero"/><path id="x13" d="M95.2840909,41 L92.5340455,41 C78.6460227,41 70.3548409,33.3359286 70.3548409,20.5 C70.3548409,10.127 72.1667045,0 93.8181818,0 L96.75,0 C118.401477,0 120.213341,10.127 120.213341,20.5 C120.213341,32.5686429 109.963705,41 95.2840909,41 Z M93.8181818,5.85421429 C76.2184773,5.85421429 76.2184773,12.3175714 76.2184773,20.5 C76.2184773,27.1800714 79.0506136,35.1428571 92.5340455,35.1428571 L95.2840909,35.1428571 C106.510023,35.1428571 114.349705,29.1217143 114.349705,20.5 C114.349705,12.3175714 114.349705,5.85421429 96.75,5.85421429 L93.8181818,5.85421429 Z" fill="#252C2F" fill-rule="nonzero"/><path id="x9" d="M2.93181818,5.85714286 C3.61786364,5.17185714 11.1233182,0 32.25,0 C49.9640455,0 53.7138409,1.88014286 59.3898409,4.72085714 L59.8053162,4.93054903 C60.1999353,5.07314243 62.2179351,5.77419634 64.5784525,5.85128811 C66.7290156,5.75689949 68.5684809,5.16080623 69.1059926,4.96981137 C75.5844654,1.74762081 81.9260118,0 96.75,0 C117.876682,0 125.382136,5.17185714 126.068182,5.85714286 C127.689477,5.85714286 129,7.16621429 129,8.78571429 L129,11.7142857 C129,13.3337857 127.689477,14.6428571 126.068182,14.6428571 C126.068182,14.6428571 120.204545,14.6428571 120.204545,17.5714286 C120.204545,20.5 117.272727,13.3337857 117.272727,11.7142857 L117.272727,8.8618831 C113.697201,7.46243482 107.296654,5.85714286 96.75,5.85714286 C84.9995538,5.85714286 79.1475515,6.98813142 74.1276604,9.10414393 L74.1837955,9.24257143 L71.6878772,10.2500422 L74.1813177,11.2582547 L71.981173,16.6874536 L69.263564,15.5885995 C69.0208516,15.4904597 68.4971539,15.3141463 67.770994,15.1309826 C65.7466083,14.6203594 63.6653786,14.4649153 61.8248214,14.8513001 C61.1495627,14.993056 60.5230576,15.2057795 59.9480988,15.4931011 L57.3260941,16.8033836 L54.7026238,11.5651815 L57.3246285,10.2548989 L57.3310023,10.251716 L54.8191364,9.23671429 L54.8992448,9.03890561 C50.5700368,6.97578666 46.5781927,5.85714286 32.25,5.85714286 C21.7038986,5.85714286 15.3034993,7.46145875 11.7272727,8.86093383 L11.7272727,11.7142857 C11.7272727,13.3337857 8.79545455,20.5 8.79545455,17.5714286 C8.79545455,14.6428571 2.93181818,14.6428571 2.93181818,14.6428571 C1.31345455,14.6428571 0,13.3337857 0,11.7142857 L0,8.78571429 C0,7.16621429 1.31345455,5.85714286 2.93181818,5.85714286 Z" fill="#252C2F" fill-rule="nonzero"/></g></g> </g></g></g> </g></g></g></g></svg>