<?xml version="1.0" encoding="utf-8" ?><!DOCTYPE svg PUBLIC "-//W3C//DTD SVG 1.1//EN" "http://www.w3.org/Graphics/SVG/1.1/DTD/svg11.dtd"><svg width="280px" height="280px" viewBox="-6 0 274 280" version="1.1" xmlns="http://www.w3.org/2000/svg" xmlns:xlink="http://www.w3.org/1999/xlink"><desc>Py-Avataaars</desc> <g id="x42" stroke="none" stroke-width="1" fill="none" fill-rule="evenodd"><defs><circle id="x32" cx="120" cy="120" r="120"/><path id="x27" d="M12,160 C12,226.27417 65.72583,280 132,280 C198.27417,280 252,226.27417 252,160 L264,160 L264,-1.42108547e-14 L-3.19744231e-14,-1.42108547e-14 L-3.19744231e-14,160 L12,160 Z"/><path id="x25" d="M124,144.610951 L124,163 L128,163 L128,163 C167.764502,163 200,195.235498 200,235 L200,244 L0,244 L0,235 C-4.86974701e-15,195.235498 32.235498,163 72,163 L72,163 L76,163 L76,144.610951 C58.7626345,136.422372 46.3722246,119.687011 44.3051388,99.8812385 C38.4803105,99.0577866 34,94.0521096 34,88 L34,74 C34,68.0540074 38.3245733,63.1180731 44,62.1659169 L44,56 L44,56 C44,25.072054 69.072054,5.68137151e-15 100,0 L100,0 L100,0 C130.927946,-5.68137151e-15 156,25.072054 156,56 L156,62.1659169 C161.675427,63.1180731 166,68.0540074 166,74 L166,88 C166,94.0521096 161.51969,99.0577866 155.694861,99.8812385 C153.627775,119.687011 141.237365,136.422372 124,144.610951 Z"/></defs><g id="x40" transform="translate(-825,-1100)"><g transform="translate(825,1100)"> <g id="x41" stroke-width="1" fill-rule="evenodd" mask="url('#py-avataaars-path-98642a86-949f-4985-af9d-78651c4ad40b')"><g id="x39" transform="translate(32,36)"><mask id="x33" fill="#FFFFFF"><use xlink:href="#x25"/></mask><use fill="#D0C6AC" xlink:href="#x25"/><g id="x22" mask="url('#x33')" fill="#FD9841"><g transform="translate(0,0)" id="x23"><rect x="0" y="0" width="264" height="280"/></g></g> <path id="x38" d="M156,79 L156,102 C156,132.927946 130.927946,158 100,158 C69.072054,158 44,132.927946 44,102 L44,79 L44,94 C44,124.927946 69.072054,150 100,150 C130.927946,150 156,124.927946 156,94 L156,79 Z" fill-opacity="0.1" fill="#000000" mask="url('#x33')"/></g><g id="x60" transform="translate(0,170)"><defs><path id="x26" d="M181.544255,32.3304167 C210.784209,41.4878872 232,68.7921987 232,101.051724 L232,110 L32,110 L32,101.051724 C32,68.3969699 53.7388273,40.8195914 83.5340368,32.0020332 C83.182234,33.4201865 83,34.8712315 83,36.3476251 C83,52.6289957 105.161905,65.8276544 132.5,65.8276544 C159.838095,65.8276544 182,52.6289957 182,36.3476251 C182,34.9849859 181.844766,33.6439396 181.544255,32.3304167 Z"/></defs><mask id="x34" fill="#FFFFFF"><use xlink:href="#x26"/></mask><use id="x59" fill="#E6E6E6" fill-rule="evenodd" xlink:href="#x26"/><g id="py-avataaars-clothes-clothe-color-palette-pastel_blue" mask="url('#x34')" fill-rule="evenodd" fill="#B1E2FF"><rect id="x61" x="0" y="0" width="264" height="110"/></g></g><g id="x58" transform="translate(76,82)" fill="#000000"><g id="x51" transform="translate(2,52)"><g id="x50" opacity="0.6" stroke-width="1" transform="translate(28,6)" fill-opacity="0.6" fill="#000000"><path id="x62" d="M16.1906378,10.106319 C16.0179484,4.99553347 11.7923466,0.797193688 6.29352385,0 C9.66004124,1.95870633 11.9804619,5.49520667 11.9804619,9.67694348 C11.9804619,15.344608 6.50694731,20.2451296 0.176591694,20.2451296 C0.11761218,20.2451296 0.0587475828,20.2447983 0,20.244138 L8.8963743e-11,20.244138 C1.35764479,20.7317259 2.83995964,21 4.39225962,21 C9.71395931,21 14.2131224,17.8469699 15.6863572,13.5136402 C18.1609431,15.6698775 21.8629994,17.0394229 26,17.0394229 C30.1370006,17.0394229 33.8390569,15.6698775 36.3136428,13.5136402 C37.7868776,17.8469699 42.2860407,21 47.6077404,21 C49.1600404,21 50.6423552,20.7317259 52,20.244138 L52,20.244138 C51.9412524,20.2447983 51.8823878,20.2451296 51.8234083,20.2451296 C45.4930527,20.2451296 40.0195381,15.344608 40.0195381,9.67694348 C40.0195381,5.49520667 42.3399588,1.95870633 45.7064761,0 C40.2076534,0.797193688 35.9820516,4.99553347 35.8093622,10.106319 C33.2452605,11.8422828 29.7948543,12.9056086 26,12.9056086 C22.2051457,12.9056086 18.7547395,11.8422828 16.1906378,10.106319 Z"/></g><circle id="x49" fill-opacity="0.2" fill="#FF4646" cx="17" cy="15" r="9"/><circle id="x48" fill-opacity="0.2" fill="#FF4646" cx="91" cy="15" r="9"/></g><g id="x47" transform="translate(28,40)" fill-opacity="0.16"><path id="x46" d="M16,8 C16,12.418278 21.372583,16 28,16 L28,16 C34.627417,16 40,12.418278 40,8"/></g><g id="x54" transform="translate(0,8)" fill-opacity="0.6"><path id="x53" d="M16.1601674,32.4473116 C18.006676,28.648508 22.1644225,26 26.9975803,26 C31.8136766,26 35.9591217,28.629842 37.8153518,32.4071242 C38.3667605,33.5291977 37.5821037,34.4474817 36.790607,33.7670228 C34.3395063,31.6597833 30.8587163,30.3437884 26.9975803,30.3437884 C23.2572061,30.3437884 19.8737584,31.5787519 17.4375392,33.5716412 C16.5467928,34.3002944 15.6201012,33.5583844 16.1601674,32.4473116 Z" transform="translate(27,30) scale(1, -1) translate(-27,-30)"/><path id="x52" d="M74.1601674,32.4473116 C76.006676,28.648508 80.1644225,26 84.9975803,26 C89.8136766,26 93.9591217,28.629842 95.8153518,32.4071242 C96.3667605,33.5291977 95.5821037,34.4474817 94.790607,33.7670228 C92.3395063,31.6597833 88.8587163,30.3437884 84.9975803,30.3437884 C81.2572061,30.3437884 77.8737584,31.5787519 75.4375392,33.5716412 C74.5467928,34.3002944 73.6201012,33.5583844 74.1601674,32.4473116 Z" transform="translate(85,30) scale(1, -1) translate(-85,-30)"/></g><g id="x57" fill-opacity="0.6"><path id="x56" d="M36.3692975,6.87618545 C34.3991755,9.78053246 30.8236346,11.5165625 27.6315757,12.5601676 C23.6890255,13.8490851 9.08080143,15.9390364 12.5196198,23.9079177 C12.572332,24.029546 12.7390347,24.0312591 12.7920764,23.9096308 C13.9448284,21.2646433 30.256648,18.7865093 31.7648785,18.2064622 C36.2101722,16.4974987 40.1579937,12.7153722 40.9269343,7.66282939 C41.2794477,5.34640965 40.2901039,1.6143049 39.3791695,0.113308759 C39.2697915,-0.0669067099 39.0052417,-0.02339461 38.9498938,0.181831751 C38.5898029,1.51323348 37.5385221,5.15317482 36.3692975,6.87618545"/><path id="x55" d="M95.3692975,6.87618545 C93.3991755,9.78053246 89.8236346,11.5165625 86.6315757,12.5601676 C82.6890255,13.8490851 68.0808014,15.9390364 71.5196198,23.9079177 C71.572332,24.029546 71.7390347,24.0312591 71.7920764,23.9096308 C72.9448284,21.2646433 89.256648,18.7865093 90.7648785,18.2064622 C95.2101722,16.4974987 99.1579937,12.7153722 99.9269343,7.66282939 C100.279448,5.34640965 99.2901039,1.6143049 98.3791695,0.113308759 C98.2697915,-0.0669067099 98.0052417,-0.02339461 97.9498938,0.181831751 C97.5898029,1.51323348 96.5385221,5.15317482 95.3692975,6.87618545" transform="translate(85.5, 12.0) scale(-1, 1) translate(-85.5, -12.0)"/></g></g><g id="x0" stroke-width="1" fill-rule="evenodd"><defs><rect id="x29" x="0" y="0" width="264" height="280"/><path id="x31" d="M59,102.340285 C59,118.921045 59,145.474283 59,182 C59,186.418278 62.581722,190 67,190 L109,190 L109,180.610951 C91.4692178,172.282984 78.9518066,155.114792 77.2085808,134.867187 C71.4308707,134.002364 67,129.018625 67,123 L67,110 C67,106.509412 68.4903619,103.366917 70.8694649,101.174135 C82.4088376,98.5552525 94.9706808,93.6376395 107.341516,86.4953343 C119.473269,79.4910638 129.843979,71.2579416 137.820938,62.752196 C134.394107,70.6604321 130.244513,77.5880409 125.372156,83.5350224 C138.047336,78.0120855 146.677812,69.1324394 151.263585,56.8960843 C151.64142,57.8180234 152.034942,58.738913 152.444252,59.6582378 C162.699828,82.6926393 180.317578,99.018563 198.205873,104.403108 C198.718861,106.513486 199,108.48395 199,110 L199,123 C199,129.018625 194.569129,134.002364 188.791419,134.867187 C187.048193,155.114792 174.530782,172.282984 157,180.610951 L157,190 L175,190 C192.673112,190 207,175.673112 207,158 C207,133.944314 207,115.902549 207,103.874706 C207,103.807916 206.990567,103.721208 206.971823,103.615272 C206.82774,91.3536714 206.623862,84.2237818 206.360189,82.2256031 C201.576875,45.9764505 170.555563,18 133,18 C96.9151011,18 66.8627142,43.8282542 60,78 C54.4771525,78 50,83.5964406 50,90.5 C50,95.0507583 51.6949619,99.1431718 54.8534901,101.273154 C55.7582038,101.883256 57.323834,102.197638 58.9999994,102.340287 Z"/></defs><mask id="x37" fill="#FFFFFF"><use xlink:href="#x29"/></mask><g id="x1"/><g id="x6" mask="url('#x37')"><g transform="translate(-1,0)"><g id="x5" stroke-width="1" fill-rule="evenodd"><mask id="x35" fill="#FFFFFF"><use xlink:href="#x31"/></mask><use id="x4" fill="#944F23" xlink:href="#x31"/><g id="x7" mask="url('#x35')" fill="#ECDCBF"><g transform="translate(0,0) " id="x8"><rect x="0" y="0" width="264" height="280"/></g></g> </g><g id="x2" opacity="0.44" stroke-width="1" fill-rule="evenodd" transform="translate(50,18)" fill-opacity="0.16"><path id="x3" d="M11.8989604,84.7749122 C25.7109099,83.0145308 41.6792969,77.5379209 57.3415164,68.4953343 C69.4732686,61.4910638 79.8439791,53.2579416 87.8209384,44.752196 C84.3941075,52.6604321 80.2445133,59.5880409 75.3721558,65.5350224 C88.0473359,60.0120855 96.6778122,51.1324394 101.263585,38.8960843 C101.64142,39.8180234 102.034942,40.738913 102.444252,41.6582378 C114.38223,68.4713761 136.296003,86.1944823 157,88.1510343 L157,88.1510343 L157,74 C157,33.1309285 123.869071,-7.50752664e-15 83,0 C46.9151011,6.62868839e-15 16.8627142,25.8282542 10.3212729,60.0063288 C10.214595,60.0021202 10.1074956,60 10,60 C4.4771525,60 0,65.5964406 0,72.5 C0,78.9816827 3.9466744,84.3111215 8.99999442,84.9382803 L8.99999434,85.0927525 C9.31629342,85.0638362 9.63387297,85.0328725 9.95270131,84.9998631 C9.96845895,84.9999543 9.98422521,85 10,85 C10.6492988,85 11.2841443,84.9226474 11.8989604,84.7749122 Z" fill="#FFFFFF"/></g><g id="x11" transform="translate(49,72)"><defs><path id="x28" d="M83.9980103,74.839711 C83.4569991,75.6087366 82.761047,76.2496937 81.949688,76.6891498 C73.0477917,81.5102869 63.8767499,77.3322546 58.8763101,77.6298353 C56.459601,77.7739966 53.3405442,79.4153191 52.2155358,77.6791014 C50.9768736,75.7669804 55.0680827,65.2207224 64.7214121,63.4643353 C71.7310704,62.1893309 81.4972391,63.6024033 83.9980103,66.9380109 C86.4987814,63.6024033 96.2649453,62.1893309 103.274279,63.4643353 C112.927938,65.2207224 117.019147,75.7669804 115.780485,77.6791014 C114.655476,79.4153191 111.53642,77.7739966 109.119711,77.6298353 C104.118941,77.3322546 94.948229,81.5102869 86.0463327,76.6891498 C85.2349736,76.2496937 84.5390216,75.6087366 83.9980103,74.839711 Z"/></defs><mask id="x36" fill="#FFFFFF"><use xlink:href="#x28"/></mask><use id="x9" fill="#28354B" fill-rule="evenodd" xlink:href="#x28"/><g id="x63" mask="url('#x36')" fill="#A55728"><g transform="translate(-32,0)" id="x10"><rect x="0" y="0" width="264" height="244"/></g></g></g><g id="x21" fill="none" transform="translate(62,85)" stroke-width="1"><defs><filter id="x45" x="-0.8%" y="-2.6%" width="101.6%" height="110.5%" filterUnits="objectBoundingBox"><feOffset in="SourceAlpha" dx="0" dy="2" result="shadowOffsetOuter1"/><feColorMatrix in="shadowOffsetOuter1" values="0 0 0 0 0 0 0 0 0 0 0 0 0 0 0 0 0 0 0.1 0" type="matrix" result="shadowMatrixOuter1"/><feMerge><feMergeNode in="shadowMatrixOuter1"/><feMergeNode in="SourceGraphic"/></feMerge></filter><path id="x30" d="M47.0104611,6.27728008 C49.5212682,6.30134922 50.7082016,6.72633117 51.1359635,9.39189846 C51.5693724,12.0919529 51.1479634,15.1275382 50.648202,17.7869984 C49.8855011,21.8478573 48.6170388,25.8264499 45.6643523,28.794498 C44.1089507,30.3575551 42.2119044,31.6034024 40.1941529,32.4540848 C39.1226305,32.9060098 37.9911085,33.2322006 36.8599395,33.4797175 C36.5292357,33.5519249 33.7060778,33.9478084 35.4375958,33.7466335 C31.3967988,34.2161613 27.0129452,34.1974808 23.6381438,31.5793333 C19.8980507,28.6777448 17.3367734,24.0862872 16.2105455,19.5127916 C15.5516086,16.8368063 14.1670294,10.4365709 16.6968952,8.29693227 C19.5948762,5.84547255 47.0104611,6.27728008 47.0104611,6.27728008 L47.0104611,6.27728008 Z"/><path id="x24" d="M78.9192315,6.27468008 C76.4084239,6.29910846 75.2214902,6.72373117 74.7937283,9.38929846 C74.3603192,12.0893529 74.7817283,15.1249382 75.2811369,17.7843984 C76.0441909,21.8452573 77.3126534,25.8238499 80.2653406,28.791898 C81.8207425,30.3549551 83.7177893,31.6008024 85.7355412,32.4518441 C86.8070638,32.9034098 87.938586,33.2296006 89.0697553,33.4771175 C89.4004591,33.5493249 92.2232647,33.9455676 90.4920992,33.7440335 C94.5328971,34.2135613 98.9167517,34.1948808 102.291554,31.5767333 C106.031648,28.6751448 108.592926,24.0840464 109.719154,19.5105508 C110.378091,16.8342063 111.762317,10.4343302 109.232804,8.29433227 C106.334822,5.84287255 78.9192315,6.27468008 78.9192315,6.27468008 L78.9192315,6.27468008 Z"/><linearGradient id="x44" x1="50%" y1="0%" x2="50%" y2="70.5058195%"><stop stop-color="#FFFFFF" stop-opacity="0.5" offset="0%"/><stop stop-color="#000000" stop-opacity="0.5" offset="100%"/></linearGradient><linearGradient id="x43" x1="50%" y1="0%" x2="50%" y2="100%"><stop stop-color="#FFFFFF" stop-opacity="0.5" offset="0%"/><stop stop-color="#000000" stop-opacity="0.5" offset="70.5058195%"/></linearGradient></defs><g id="x12" filter="url('#x45')" transform="translate(8,8)"><g id="x14"><use fill-opacity="0.7" fill="#000000" xlink:href="#x30"/><use fill="url('#x44')" style="mix-blend-mode: 'screen'" xlink:href="#x30"/></g><g id="x13"><use fill-opacity="0.7" fill="#000000" xlink:href="#x24"/><use fill="url('#x43')" style="mix-blend-mode: 'screen'" xlink:href="#x24"/></g><g id="x15" fill="#252C2F"><path id="x20" d="M46.2491397,7.27516667 C48.6207695,7.2975 49.7419096,7.69183333 50.1459601,10.1651667 C50.5553446,12.6705 50.1572949,15.4871667 49.6852359,17.9548333 C48.9648125,21.7228333 47.7666627,25.4145 44.9776475,28.1685 C43.5084639,29.6188333 41.7165732,30.7748333 39.8106684,31.5641667 C38.7985419,31.9835 37.7297416,32.2861667 36.6612747,32.5158333 C36.3489024,32.5828333 33.6822357,32.9501667 35.3177735,32.7635 C31.5009631,33.1991667 27.3601122,33.1818333 24.1723805,30.7525 C20.6396056,28.0601667 18.2203032,23.7998333 17.1565036,19.5561667 C16.5340925,17.0731667 15.2262624,11.1345 17.6158944,9.14916667 C20.3532365,6.8745 46.2491397,7.27516667 46.2491397,7.27516667 L46.2491397,7.27516667 Z M22.2178029,0.4905 C16.7774562,0.677833333 13.1466691,1.63383333 10.4633337,7.06916667 C5.54571911,17.0301667 13.9627711,31.9688333 23.352278,36.0395 C34.3293166,40.7991667 46.5921826,35.5318333 52.3955746,26.0058333 C55.4689587,20.9621667 57.0224862,13.3231667 56.9224737,7.50383333 C56.7951245,0.0765 51.6071427,-0.1295 45.5090472,0.0338333333 L22.2178029,0.4905 Z"/><path id="x19" d="M79.6805515,7.27256667 C77.3089217,7.29523333 76.1877816,7.68923333 75.7837311,10.1625667 C75.3743466,12.6679 75.7723963,15.4845667 76.244122,17.9522333 C76.9648787,21.7202333 78.1630285,25.4119 80.9520437,28.1659 C82.4212273,29.6162333 84.213118,30.7722333 86.1190228,31.5619 C87.1311493,31.9809 88.1999496,32.2835667 89.2684165,32.5132333 C89.5807888,32.5802333 92.2471221,32.9479 90.6119177,32.7609 C94.4287281,33.1965667 98.569579,33.1792333 101.757311,30.7499 C105.290086,28.0575667 107.709388,23.7975667 108.773188,19.5539 C109.395599,17.0705667 110.703095,11.1322333 108.313797,9.14656667 C105.576455,6.8719 79.6805515,7.27256667 79.6805515,7.27256667 L79.6805515,7.27256667 Z M103.711555,0.4879 C109.152235,0.675233333 112.783022,1.63156667 115.466357,7.06656667 C120.383639,17.0275667 111.96692,31.9662333 102.577413,36.0372333 C91.6003746,40.7965667 79.3375086,35.5292333 73.5337832,26.0035667 C70.4607325,20.9595667 68.907205,13.3205667 69.0068841,7.50123333 C69.1345667,0.0739 74.3225485,-0.1321 80.420644,0.0315666667 L103.711555,0.4879 Z"/><path id="x18" d="M13.1969483,4.9267 C9.78501392,5.11836667 5.88606327,5.16436667 2.69005822,6.63936667 C-0.69461078,8.20136667 -1.2176675,11.7387 3.04920921,12.2260333 C4.97094906,12.4457 6.89488267,12.0827 8.78716336,11.7450333 C10.336903,11.4683667 12.4419791,11.5580333 13.9064752,10.9657 C16.6355213,9.86236667 16.4603333,4.74003333 13.1969483,4.9267"/><path id="x17" d="M112.73467,4.9267 C116.146606,5.11836667 120.045559,5.16436667 123.241565,6.63936667 C126.626236,8.20136667 127.149293,11.7387 122.882414,12.2260333 C120.960673,12.4457 119.036739,12.0827 117.144457,11.7450333 C115.594717,11.4683667 113.489639,11.5580333 112.025143,10.9657 C109.295782,9.86236667 109.471283,4.74003333 112.73467,4.9267"/><path id="x16" d="M73.1094302,7.01263333 C71.1631869,4.71263333 66.0912197,3.38463333 62.8914864,3.38463333 C59.6914198,3.38463333 54.7681378,4.71263333 52.8222279,7.01263333 C51.8407719,8.1723 51.8074344,9.72396667 53.5083137,10.4509667 C55.6262451,11.3566333 57.5174814,9.7143 59.2126933,8.8553 C61.3809643,7.75663333 64.7120473,7.8773 66.7189648,8.8553 C68.4271783,9.68796667 70.3050797,11.3566333 72.4233444,10.4509667 C74.1242237,9.72396667 74.0908862,8.1723 73.1094302,7.01263333"/></g></g></g> </g></g></g> </g></g></g></g></svg>