<?xml version="1.0" encoding="utf-8" ?><!DOCTYPE svg PUBLIC "-//W3C//DTD SVG 1.1//EN" "http://www.w3.org/Graphics/SVG/1.1/DTD/svg11.dtd"><svg width="280px" height="280px" viewBox="-6 0 274 280" version="1.1" xmlns="http://www.w3.org/2000/svg" xmlns:xlink="http://www.w3.org/1999/xlink"><desc>Py-Avataaars</desc> <g id="x42" stroke="none" stroke-width="1" fill="none" fill-rule="evenodd"><defs><circle id="x31" cx="120" cy="120" r="120"/><path id="x26" d="M12,160 C12,226.27417 65.72583,280 132,280 C198.27417,280 252,226.27417 252,160 L264,160 L264,-1.42108547e-14 L-3.19744231e-14,-1.42108547e-14 L-3.19744231e-14,160 L12,160 Z"/><path id="x29" d="M124,144.610951 L124,163 L128,163 L128,163 C167.764502,163 200,195.235498 200,235 L200,244 L0,244 L0,235 C-4.86974701e-15,195.235498 32.235498,163 72,163 L72,163 L76,163 L76,144.610951 C58.7626345,136.422372 46.3722246,119.687011 44.3051388,99.8812385 C38.4803105,99.0577866 34,94.0521096 34,88 L34,74 C34,68.0540074 38.3245733,63.1180731 44,62.1659169 L44,56 L44,56 C44,25.072054 69.072054,5.68137151e-15 100,0 L100,0 L100,0 C130.927946,-5.68137151e-15 156,25.072054 156,56 L156,62.1659169 C161.675427,63.1180731 166,68.0540074 166,74 L166,88 C166,94.0521096 161.51969,99.0577866 155.694861,99.8812385 C153.627775,119.687011 141.237365,136.422372 124,144.610951 Z"/></defs><g id="x40" transform="translate(-825,-1100)"><g transform="translate(825,1100)"> <g id="x41" stroke-width="1" fill-rule="evenodd" mask="url('#py-avataaars-path-d2214c8e-f54b-47b0-90a2-3829b05e7bbd')"><g id="x39" transform="translate(32,36)"><mask id="x27" fill="#FFFFFF"><use xlink:href="#x29"/></mask><use fill="#D0C6AC" xlink:href="#x29"/><g id="py-avataaars-skin-dark_brown" mask="url('#x27')" fill="#AE5D29"><g transform="translate(0,0)" id="x20"><rect x="0" y="0" width="264" height="280"/></g></g> <path id="x38" d="M156,79 L156,102 C156,132.927946 130.927946,158 100,158 C69.072054,158 44,132.927946 44,102 L44,79 L44,94 C44,124.927946 69.072054,150 100,150 C130.927946,150 156,124.927946 156,94 L156,79 Z" fill-opacity="0.1" fill="#000000" mask="url('#x27')"/></g><g id="x67" transform="translate(0,170)"><defs><path id="x22" d="M105.192402,29.0517235 L104,29.0517235 L104,29.0517235 C64.235498,29.0517235 32,61.2872215 32,101.051724 L32,110 L232,110 L232,101.051724 C232,61.2872215 199.764502,29.0517235 160,29.0517235 L160,29.0517235 L158.807598,29.0517235 C158.934638,30.0353144 159,31.0364513 159,32.0517235 C159,45.8588423 146.911688,57.0517235 132,57.0517235 C117.088312,57.0517235 105,45.8588423 105,32.0517235 C105,31.0364513 105.065362,30.0353144 105.192402,29.0517235 Z"/></defs><mask id="x36" fill="#FFFFFF"><use xlink:href="#x22"/></mask><use id="x64" fill="#E6E6E6" fill-rule="evenodd" xlink:href="#x22"/><g id="x62" mask="url('#x36')" fill-rule="evenodd" fill="#262E33"><rect id="x66" x="0" y="0" width="264" height="110"/></g><g id="x65" stroke-width="1" fill-rule="evenodd" transform="translate(32,28)"><path id="x60" d="M68.784807,1.12222847 C30.512317,2.80409739 1.24427139e-14,34.3646437 0,73.0517235 L0,82 L69.3616767,82 C65.9607412,69.9199941 64,55.7087296 64,40.5 C64,26.1729736 65.7399891,12.7311115 68.784807,1.12222847 Z M131.638323,82 L200,82 L200,73.0517235 C200,34.7067641 170.024954,3.36285166 132.228719,1.17384225 C135.265163,12.7709464 137,26.1942016 137,40.5 C137,55.7087296 135.039259,69.9199941 131.638323,82 Z" fill="#3A4C5A"/><path id="x61" d="M149,58 L158.555853,50.83311 L158.555853,50.83311 C159.998897,49.7508275 161.987779,49.7682725 163.411616,50.8757011 L170,56 L149,58 Z" fill="#E6E6E6"/><path id="x59" d="M69,1.13686838e-13 C65,19.3333333 66.6666667,46.6666667 74,82 L58,82 L44,46 L50,37 L44,31 L63,1 C65.027659,0.369238637 67.027659,0.0359053037 69,1.13686838e-13 Z" fill="#2F4351"/><path id="x58" d="M151,1.13686838e-13 C147,19.3333333 148.666667,46.6666667 156,82 L140,82 L126,46 L132,37 L126,31 L145,1 C147.027659,0.369238637 149.027659,0.0359053037 151,1.13686838e-13 Z" fill="#2F4351" transform="translate(141,41) scale(-1, 1) translate(-141,-41)"/></g><path id="x63" d="M156,21.5390062 C162.772319,26.1359565 167,32.6563196 167,39.8878801 C167,47.2887711 162.572015,53.9447688 155.520105,58.5564942 L149.57933,53.8764929 L145,54.207887 L146,51.0567821 L145.922229,50.995516 C152.022491,47.8530505 156,42.7003578 156,36.8768102 L156,21.5390062 Z M108,21.5390062 C101.227681,26.1359565 97,32.6563196 97,39.8878801 C97,47.2887711 101.427985,53.9447688 108.479895,58.5564942 L114.42067,53.8764929 L119,54.207887 L118,51.0567821 L118.077771,50.995516 C111.977509,47.8530505 108,42.7003578 108,36.8768102 L108,21.5390062 Z" fill="#F2F2F2" fill-rule="evenodd"/></g><g id="x57" transform="translate(76,82)" fill="#000000"><g id="x50" transform="translate(2,52)"><defs><path id="x30" d="M29,15.6086957 C30.410031,25.2313711 41.062182,33 54,33 C66.9681454,33 77.6461342,25.183301 79,14.7391304 C79.1012093,14.3397326 78.775269,13 76.826087,13 C56.838426,13 41.7395748,13 31.173913,13 C29.3833142,13 28.870211,14.2404669 29,15.6086957 Z"/><rect id="x28" x="39" y="2" width="31" height="16" rx="5"/></defs><mask id="x37" fill="#FFFFFF"><use xlink:href="#x30"/></mask><use id="x49" fill-opacity="0.7" fill="#000000" fill-rule="evenodd" xlink:href="#x30"/><use id="x48" stroke-width="1" fill-rule="evenodd" mask="url('#x37')" fill="#FFFFFF" xlink:href="#x28"/><path id="x47" d="M65.9841079,23.7466656 C65.9945954,23.8296335 66,23.9141856 66,24 L66,33 C66,39.0751322 61.0751322,44 55,44 L54,44 C47.9248678,44 43,39.0751322 43,33 L43,24 L43,24 C43,23.9141856 43.0054046,23.8296335 43.0158921,23.7466656 C43.0053561,23.6651805 43,23.5829271 43,23.5 C43,21.5670034 45.9101491,20 49.5,20 C51.510438,20 53.3076958,20.4914717 54.5,21.2634601 C55.6923042,20.4914717 57.489562,20 59.5,20 C63.0898509,20 66,21.5670034 66,23.5 C66,23.5829271 65.9946439,23.6651805 65.9841079,23.7466656 Z" fill="#FF4F6D" fill-rule="evenodd"/></g><g id="x46" transform="translate(28,40)" fill-opacity="0.16"><path id="x45" d="M16,8 C16,12.418278 21.372583,16 28,16 L28,16 C34.627417,16 40,12.418278 40,8"/></g><g id="x53" transform="translate(0,8)" fill-opacity="0.6"><circle id="x52" cx="30" cy="22" r="6"/><circle id="x51" cx="82" cy="22" r="6"/></g><g id="x56" fill-opacity="0.6"><path id="x55" d="M44.8565785,12.2282877 C44.8578785,12.2192877 44.8578785,12.2192877 44.8565785,12.2282877 M17.5862288,7.89238094 C15.2441598,8.3302947 13.0866155,9.78806858 12.1523766,12.0987479 C11.8009169,12.967391 11.3917103,14.9243181 11.7083227,15.8073302 C11.8284629,16.14295 12.0332321,16.1008692 12.9555234,16.0430509 C14.643791,15.9369937 16.9330912,13.6622369 18.7484684,13.2557982 C21.2753939,12.6899315 23.9825295,13.1148447 26.4961798,13.6882381 C30.8109365,14.6725177 36.4854008,17.7875215 40.9461842,16.1699775 C41.2783949,16.0495512 45.6210294,12.9225732 44.3685187,12.2769925 C43.9238011,11.9068186 41.1370145,12.0854053 40.6216067,11.9988489 C38.2277647,11.5971998 35.7297127,10.9345131 33.373373,10.3265657 C28.2329017,9.00016592 22.9666484,6.88073171 17.5862288,7.89238094" transform="translate(28.094701, 12.127505) rotate(17.0) translate(-28.094701, -12.127505)"/><path id="x54" d="M100.918293,12.2094196 C100.919593,12.2004196 100.919593,12.2004196 100.918293,12.2094196 M73.5862288,7.89238094 C71.2441598,8.3302947 69.0866155,9.78806858 68.1523766,12.0987479 C67.8009169,12.967391 67.3917103,14.9243181 67.7083227,15.8073302 C67.8284629,16.14295 68.0332321,16.1008692 68.9555234,16.0430509 C70.643791,15.9369937 72.9330912,13.6622369 74.7484684,13.2557982 C77.2753939,12.6899315 79.9825295,13.1148447 82.4961798,13.6882381 C86.8109365,14.6725177 92.4854008,17.7875215 96.9461842,16.1699775 C97.2783949,16.0495512 101.621029,12.9225732 100.368519,12.2769925 C99.9238011,11.9068186 97.1370145,12.0854053 96.6216067,11.9988489 C94.2277647,11.5971998 91.7297127,10.9345131 89.373373,10.3265657 C84.2329017,9.00016592 78.9666484,6.88073171 73.5862288,7.89238094" transform="translate(84.094701, 12.127505) scale(-1, 1) rotate(17.0) translate(-84.094701, -12.127505)"/></g></g><g id="x0" stroke-width="1" fill-rule="evenodd"><defs><rect id="x23" x="0" y="0" width="264" height="280"/><path id="x32" d="M59,102.340285 C59,118.921045 59,145.474283 59,182 C59,186.418278 62.581722,190 67,190 L109,190 L109,180.610951 C91.4692178,172.282984 78.9518066,155.114792 77.2085808,134.867187 C71.4308707,134.002364 67,129.018625 67,123 L67,110 C67,106.509412 68.4903619,103.366917 70.8694649,101.174135 C82.4088376,98.5552525 94.9706808,93.6376395 107.341516,86.4953343 C119.473269,79.4910638 129.843979,71.2579416 137.820938,62.752196 C134.394107,70.6604321 130.244513,77.5880409 125.372156,83.5350224 C138.047336,78.0120855 146.677812,69.1324394 151.263585,56.8960843 C151.64142,57.8180234 152.034942,58.738913 152.444252,59.6582378 C162.699828,82.6926393 180.317578,99.018563 198.205873,104.403108 C198.718861,106.513486 199,108.48395 199,110 L199,123 C199,129.018625 194.569129,134.002364 188.791419,134.867187 C187.048193,155.114792 174.530782,172.282984 157,180.610951 L157,190 L175,190 C192.673112,190 207,175.673112 207,158 C207,133.944314 207,115.902549 207,103.874706 C207,103.807916 206.990567,103.721208 206.971823,103.615272 C206.82774,91.3536714 206.623862,84.2237818 206.360189,82.2256031 C201.576875,45.9764505 170.555563,18 133,18 C96.9151011,18 66.8627142,43.8282542 60,78 C54.4771525,78 50,83.5964406 50,90.5 C50,95.0507583 51.6949619,99.1431718 54.8534901,101.273154 C55.7582038,101.883256 57.323834,102.197638 58.9999994,102.340287 Z"/></defs><mask id="x34" fill="#FFFFFF"><use xlink:href="#x23"/></mask><g id="x1"/><g id="x6" mask="url('#x34')"><g transform="translate(-1,0)"><g id="x5" stroke-width="1" fill-rule="evenodd"><mask id="x35" fill="#FFFFFF"><use xlink:href="#x32"/></mask><use id="x4" fill="#944F23" xlink:href="#x32"/><g id="x7" mask="url('#x35')" fill="#C93305"><g transform="translate(0,0) " id="x8"><rect x="0" y="0" width="264" height="280"/></g></g> </g><g id="x2" opacity="0.44" stroke-width="1" fill-rule="evenodd" transform="translate(50,18)" fill-opacity="0.16"><path id="x3" d="M11.8989604,84.7749122 C25.7109099,83.0145308 41.6792969,77.5379209 57.3415164,68.4953343 C69.4732686,61.4910638 79.8439791,53.2579416 87.8209384,44.752196 C84.3941075,52.6604321 80.2445133,59.5880409 75.3721558,65.5350224 C88.0473359,60.0120855 96.6778122,51.1324394 101.263585,38.8960843 C101.64142,39.8180234 102.034942,40.738913 102.444252,41.6582378 C114.38223,68.4713761 136.296003,86.1944823 157,88.1510343 L157,88.1510343 L157,74 C157,33.1309285 123.869071,-7.50752664e-15 83,0 C46.9151011,6.62868839e-15 16.8627142,25.8282542 10.3212729,60.0063288 C10.214595,60.0021202 10.1074956,60 10,60 C4.4771525,60 0,65.5964406 0,72.5 C0,78.9816827 3.9466744,84.3111215 8.99999442,84.9382803 L8.99999434,85.0927525 C9.31629342,85.0638362 9.63387297,85.0328725 9.95270131,84.9998631 C9.96845895,84.9999543 9.98422521,85 10,85 C10.6492988,85 11.2841443,84.9226474 11.8989604,84.7749122 Z" fill="#FFFFFF"/></g><g id="x11" transform="translate(49,72)"><defs><path id="x21" d="M83.9980103,74.839711 C83.4569991,75.6087366 82.761047,76.2496937 81.949688,76.6891498 C73.0477917,81.5102869 63.8767499,77.3322546 58.8763101,77.6298353 C56.459601,77.7739966 53.3405442,79.4153191 52.2155358,77.6791014 C50.9768736,75.7669804 55.0680827,65.2207224 64.7214121,63.4643353 C71.7310704,62.1893309 81.4972391,63.6024033 83.9980103,66.9380109 C86.4987814,63.6024033 96.2649453,62.1893309 103.274279,63.4643353 C112.927938,65.2207224 117.019147,75.7669804 115.780485,77.6791014 C114.655476,79.4153191 111.53642,77.7739966 109.119711,77.6298353 C104.118941,77.3322546 94.948229,81.5102869 86.0463327,76.6891498 C85.2349736,76.2496937 84.5390216,75.6087366 83.9980103,74.839711 Z"/></defs><mask id="x33" fill="#FFFFFF"><use xlink:href="#x21"/></mask><use id="x9" fill="#28354B" fill-rule="evenodd" xlink:href="#x21"/><g id="x68" mask="url('#x33')" fill="#ECDCBF"><g transform="translate(-32,0)" id="x10"><rect x="0" y="0" width="264" height="244"/></g></g></g><g id="x19" fill="none" transform="translate(62,85)" stroke-width="1"><defs><filter id="x44" x="-0.8%" y="-2.4%" width="101.6%" height="109.8%" filterUnits="objectBoundingBox"><feOffset dx="0" dy="2" in="SourceAlpha" result="shadowOffsetOuter1"/><feColorMatrix values="0 0 0 0 0 0 0 0 0 0 0 0 0 0 0 0 0 0 0.2 0" type="matrix" in="shadowOffsetOuter1" result="shadowMatrixOuter1"/><feMerge><feMergeNode in="shadowMatrixOuter1"/><feMergeNode in="SourceGraphic"/></feMerge></filter><linearGradient x1="50%" y1="0%" x2="50%" y2="100%" id="x43"><stop stop-color="#FFFFFF" stop-opacity="0.5" offset="0%"/><stop stop-color="#000000" stop-opacity="0.5" offset="70.5058195%"/></linearGradient><path id="x25" d="M44.9178864,17.5714286 C44.9178864,27.2737857 36.66775,35.1428571 22.9204545,35.1428571 L20.1704091,35.1428571 C6.42311364,35.1428571 0.923022727,27.2708571 0.923022727,17.5714286 L0.923022727,17.5714286 C0.923022727,7.86614286 2.20715909,0 21.4545455,0 L24.3863636,0 C43.63375,0 44.9178864,7.86614286 44.9178864,17.5714286 L44.9178864,17.5714286 Z"/><path id="x24" d="M106.486068,17.5714286 C106.486068,27.2737857 98.2388636,35.1428571 84.4886364,35.1428571 L81.7385909,35.1428571 C67.9912955,35.1428571 62.4912045,27.2708571 62.4912045,17.5714286 L62.4912045,17.5714286 C62.4912045,7.86614286 63.7753409,0 83.0227273,0 L85.9545455,0 C105.199,0 106.486068,7.86614286 106.486068,17.5714286 L106.486068,17.5714286 Z"/></defs><g id="x12" filter="url('#x44')" transform="translate(7,7)"><g id="x14" transform="translate(10.795455, 2.928571)" fill-rule="nonzero"><g id="x16"><use fill-opacity="0.7" fill="#000000" fill-rule="evenodd" xlink:href="#x25"/><use fill="url('#x43')" fill-rule="evenodd" style="mix-blend-mode: 'screen'" xlink:href="#x25"/></g><g id="x15"><use fill-opacity="0.7" fill="#000000" fill-rule="evenodd" xlink:href="#x24"/><use fill="url('#x43')" fill-rule="evenodd" style="mix-blend-mode: 'screen'" xlink:href="#x24"/></g></g><path id="x18" d="M33.7159091,41 L30.9658636,41 C17.0778409,41 8.78665909,33.3359286 8.78665909,20.5 C8.78665909,10.127 10.5985227,0 32.25,0 L35.1818182,0 C56.8332955,0 58.6451591,10.127 58.6451591,20.5 C58.6451591,32.5686429 48.3955227,41 33.7159091,41 Z M32.25,5.85421429 C14.6502955,5.85421429 14.6502955,12.3175714 14.6502955,20.5 C14.6502955,27.1800714 17.4795,35.1428571 30.9658636,35.1428571 L33.7159091,35.1428571 C44.9418409,35.1428571 52.7815227,29.1217143 52.7815227,20.5 C52.7815227,12.3175714 52.7815227,5.85421429 35.1818182,5.85421429 L32.25,5.85421429 Z" fill="#252C2F" fill-rule="nonzero"/><path id="x17" d="M95.2840909,41 L92.5340455,41 C78.6460227,41 70.3548409,33.3359286 70.3548409,20.5 C70.3548409,10.127 72.1667045,0 93.8181818,0 L96.75,0 C118.401477,0 120.213341,10.127 120.213341,20.5 C120.213341,32.5686429 109.963705,41 95.2840909,41 Z M93.8181818,5.85421429 C76.2184773,5.85421429 76.2184773,12.3175714 76.2184773,20.5 C76.2184773,27.1800714 79.0506136,35.1428571 92.5340455,35.1428571 L95.2840909,35.1428571 C106.510023,35.1428571 114.349705,29.1217143 114.349705,20.5 C114.349705,12.3175714 114.349705,5.85421429 96.75,5.85421429 L93.8181818,5.85421429 Z" fill="#252C2F" fill-rule="nonzero"/><path id="x13" d="M2.93181818,5.85714286 C3.61786364,5.17185714 11.1233182,0 32.25,0 C49.9640455,0 53.7138409,1.88014286 59.3898409,4.72085714 L59.8053162,4.93054903 C60.1999353,5.07314243 62.2179351,5.77419634 64.5784525,5.85128811 C66.7290156,5.75689949 68.5684809,5.16080623 69.1059926,4.96981137 C75.5844654,1.74762081 81.9260118,0 96.75,0 C117.876682,0 125.382136,5.17185714 126.068182,5.85714286 C127.689477,5.85714286 129,7.16621429 129,8.78571429 L129,11.7142857 C129,13.3337857 127.689477,14.6428571 126.068182,14.6428571 C126.068182,14.6428571 120.204545,14.6428571 120.204545,17.5714286 C120.204545,20.5 117.272727,13.3337857 117.272727,11.7142857 L117.272727,8.8618831 C113.697201,7.46243482 107.296654,5.85714286 96.75,5.85714286 C84.9995538,5.85714286 79.1475515,6.98813142 74.1276604,9.10414393 L74.1837955,9.24257143 L71.6878772,10.2500422 L74.1813177,11.2582547 L71.981173,16.6874536 L69.263564,15.5885995 C69.0208516,15.4904597 68.4971539,15.3141463 67.770994,15.1309826 C65.7466083,14.6203594 63.6653786,14.4649153 61.8248214,14.8513001 C61.1495627,14.993056 60.5230576,15.2057795 59.9480988,15.4931011 L57.3260941,16.8033836 L54.7026238,11.5651815 L57.3246285,10.2548989 L57.3310023,10.251716 L54.8191364,9.23671429 L54.8992448,9.03890561 C50.5700368,6.97578666 46.5781927,5.85714286 32.25,5.85714286 C21.7038986,5.85714286 15.3034993,7.46145875 11.7272727,8.86093383 L11.7272727,11.7142857 C11.7272727,13.3337857 8.79545455,20.5 8.79545455,17.5714286 C8.79545455,14.6428571 2.93181818,14.6428571 2.93181818,14.6428571 C1.31345455,14.6428571 0,13.3337857 0,11.7142857 L0,8.78571429 C0,7.16621429 1.31345455,5.85714286 2.93181818,5.85714286 Z" fill="#252C2F" fill-rule="nonzero"/></g></g> </g></g></g> </g></g></g></g></svg>