<?xml version="1.0" encoding="utf-8" ?><!DOCTYPE svg PUBLIC "-//W3C//DTD SVG 1.1//EN" "http://www.w3.org/Graphics/SVG/1.1/DTD/svg11.dtd"><svg width="280px" height="280px" viewBox="-6 0 274 280" version="1.1" xmlns="http://www.w3.org/2000/svg" xmlns:xlink="http://www.w3.org/1999/xlink"><desc>Py-Avataaars</desc> <g id="x23" stroke="none" stroke-width="1" fill="none" fill-rule="evenodd"><defs><circle id="x9" cx="120" cy="120" r="120"/><path id="x11" d="M12,160 C12,226.27417 65.72583,280 132,280 C198.27417,280 252,226.27417 252,160 L264,160 L264,-1.42108547e-14 L-3.19744231e-14,-1.42108547e-14 L-3.19744231e-14,160 L12,160 Z"/><path id="x10" d="M124,144.610951 L124,163 L128,163 L128,163 C167.764502,163 200,195.235498 200,235 L200,244 L0,244 L0,235 C-4.86974701e-15,195.235498 32.235498,163 72,163 L72,163 L76,163 L76,144.610951 C58.7626345,136.422372 46.3722246,119.687011 44.3051388,99.8812385 C38.4803105,99.0577866 34,94.0521096 34,88 L34,74 C34,68.0540074 38.3245733,63.1180731 44,62.1659169 L44,56 L44,56 C44,25.072054 69.072054,5.68137151e-15 100,0 L100,0 L100,0 C130.927946,-5.68137151e-15 156,25.072054 156,56 L156,62.1659169 C161.675427,63.1180731 166,68.0540074 166,74 L166,88 C166,94.0521096 161.51969,99.0577866 155.694861,99.8812385 C153.627775,119.687011 141.237365,136.422372 124,144.610951 Z"/></defs><g id="x21" transform="translate(-825,-1100)"><g transform="translate(825,1100)"> <g id="x22" stroke-width="1" fill-rule="evenodd" mask="url('#py-avataaars-path-6112b6d5-de1b-4b52-af4f-1ad07957f332')"><g id="x20" transform="translate(32,36)"><mask id="x12" fill="#FFFFFF"><use xlink:href="#x10"/></mask><use fill="#D0C6AC" xlink:href="#x10"/><g id="x6" mask="url('#x12')" fill="#EDB98A"><g transform="translate(0,0)" id="x7"><rect x="0" y="0" width="264" height="280"/></g></g> <path id="x19" d="M156,79 L156,102 C156,132.927946 130.927946,158 100,158 C69.072054,158 44,132.927946 44,102 L44,79 L44,94 C44,124.927946 69.072054,150 100,150 C130.927946,150 156,124.927946 156,94 L156,79 Z" fill-opacity="0.1" fill="#000000" mask="url('#x12')"/></g><g id="x41" transform="translate(0,170)"><defs><path id="x15" d="M165.624032,29.2681342 C202.760022,32.1373245 232,63.1798426 232,101.051724 L232,110 L32,110 L32,101.051724 C32,62.8348009 61.7752018,31.5722494 99.3929298,29.1967444 C99.1342224,30.2735458 99,31.3767131 99,32.5 C99,44.3741221 113.998461,54 132.5,54 C151.001539,54 166,44.3741221 166,32.5 C166,31.4015235 165.871641,30.3222877 165.624025,29.2681336 Z"/></defs><mask id="x16" fill="#FFFFFF"><use xlink:href="#x15"/></mask><use id="x40" fill="#E6E6E6" fill-rule="evenodd" xlink:href="#x15"/><g id="py-avataaars-clothes-clothe-color-palette-pastel_blue" mask="url('#x16')" fill-rule="evenodd" fill="#B1E2FF"><rect id="x42" x="0" y="0" width="264" height="110"/></g><g id="x39" mask="url('#x16'" stroke-width="1" fill-rule="evenodd"><g transform="translate(77,58)" id="x35"><g transform="translate(35,1)"><path id="x38" d="M30.9332298,24.3911229 C26.8510636,25.7713262 22.3826909,27.7147062 20.0279438,31.464875 C18.1805823,34.4072634 18.056518,31.0097105 15.4771364,32.0578917 C12.9702973,33.0766532 13.6557418,37.2811459 12.7452506,39.3594362 C12.0367243,38.1679392 11.7020395,36.8427927 10.8096839,35.755105 C11.5033719,35.309607 12.1459503,34.7115469 12.6240715,34.0306915 C12.7802853,33.7116981 7.83173048,34.3791045 7.54774295,34.4602188 C6.13687312,34.8620076 4.80843799,35.231855 3.46021853,35.8900153 C3.8167486,35.3734898 4.16627171,34.8531817 4.51043656,34.3282505 C4.82039102,33.8562748 5.1253994,33.3800962 5.42463735,32.9009757 C5.63196061,32.2209608 6.00126805,32.2188594 6.53255966,32.8950918 C7.28147888,32.931236 7.71055147,33.2519105 8.49450544,33.0724504 C11.4098085,32.4054642 12.3380232,26.8489271 8.74469474,27.0851251 C10.3237313,24.2158656 11.7251212,21.3024766 12.9975007,18.2831768 C13.4999402,22.5742474 19.0774717,21.0961186 20.7166857,18.8076877 C22.8571026,15.8190684 20.1132637,10.1456931 16.2334747,10.6962614 C16.8142272,9.32068116 17.4036352,7.93375334 17.8825808,6.5182464 C18.9752527,8.1287638 20.8844403,8.90880562 22.421023,9.97463863 C24.031797,11.0917459 25.3940304,12.414791 26.5839752,13.9807586 C28.9704596,17.1210994 30.3767956,20.9881063 32.7987269,24.0334636 C32.1610946,24.0675064 31.539537,24.1868662 30.9332298,24.3911229 M39.9388082,20.0029673 C39.306534,14.2455357 34.7895249,8.40194655 30.4996233,4.82661475 C27.9499181,2.7020935 20.2587609,-2.55814545 17.1930146,1.48706068 C19.664819,2.55835735 22.3921709,2.81640998 24.8425422,3.97596569 C28.1630118,5.5482375 30.7646508,8.13506801 33.0114085,11.0312255 C36.1484608,15.075591 40.9816071,23.3139423 33.485408,25.4170292 C34.0030979,25.0791231 34.3035723,24.7080149 34.7132728,24.1086939 C33.706333,23.8762784 34.1131482,22.231298 33.7590912,21.1570594 C33.3473298,19.9063026 32.549362,18.6904293 31.874634,17.5745828 C30.8042195,15.803518 29.6278764,14.0408588 28.3707472,12.4038637 C26.692789,10.2179814 24.685092,8.49735037 22.3938196,7.00829423 C21.4874501,6.41948033 20.6190006,5.89749114 19.5774382,5.59320758 C18.2279822,5.19898385 18.6698322,5.67936522 18.3005247,4.44668058 C18.0692954,3.67420382 18.277443,2.68402141 18.0548693,1.85480669 C16.0817949,3.51323614 15.4400408,5.90967929 14.5555165,8.23635577 C13.5353871,10.9202712 12.4328231,13.5714048 11.3591111,16.2330453 C8.72367389,22.767997 5.32530354,28.6283975 1.46777192,34.479972 C0.796341323,35.4991538 -0.697375374,37.4299255 0.377573066,38.6537842 C1.33876162,39.7486166 2.7084141,38.9597489 3.76399039,38.5150914 C5.20041497,37.9107271 7.14917119,36.3506434 8.69894348,37.1680903 C10.6971605,38.2221554 9.75287108,42.1522045 12.9130052,41.9954397 C16.0265636,41.8407762 15.4404529,36.7154475 16.4395615,34.6775042 C18.7514425,36.3628316 20.615291,35.3171721 22.0187417,33.0665665 C23.6451783,30.4578814 25.7942508,29.4101204 28.5323192,28.1291035 C29.6521946,27.6050129 31.5663282,26.1899262 32.7327792,26.0138284 C33.6980895,25.8688314 34.6254798,26.8972594 35.915995,26.8506082 C39.0138909,26.7375526 40.3077034,22.5977832 39.9388082,20.0029673" fill="#FFFFFF"/><path id="x37" d="M18.5372079,22.8336349 C16.1119296,22.3885123 12.7302873,22.7596628 12.5083803,25.9869094 C12.3721811,27.9648021 13.9174686,29.8351772 15.5900451,30.6510203 C20.7121513,33.1501581 24.6988403,23.9625691 18.5372079,22.8336349" fill="#FFFFFF"/><path id="x36" d="M28.3362306,19.157604 C27.6856351,18.4518413 26.6326311,17.918164 25.6605301,18.1654572 C25.9719227,17.9508815 26.2293799,17.5642204 26.5251817,17.3262751 C23.3686979,15.0403008 21.3853086,20.8049502 23.1786599,23.0743534 C25.8964974,26.5139375 31.2158743,22.3078297 28.3362306,19.157604" fill="#FFFFFF"/></g></g></g></g><g id="x34" transform="translate(76,82)" fill="#000000"><g id="x27" transform="translate(2,52)" fill="#000000" fill-opacity="0.7"><rect id="x26" x="42" y="18" width="24" height="6" rx="3"/></g><g id="x25" transform="translate(28,40)" fill-opacity="0.16"><path id="x24" d="M16,8 C16,12.418278 21.372583,16 28,16 L28,16 C34.627417,16 40,12.418278 40,8"/></g><g id="x30" transform="translate(0,8)"><circle id="x43" fill="#FFFFFF" cx="82" cy="22" r="12"/><circle id="x28" fill-opacity="0.7" fill="#000000" cx="82" cy="22" r="6"/><path id="x29" d="M16.1601674,25.4473116 C18.006676,21.648508 22.1644225,19 26.9975803,19 C31.8136766,19 35.9591217,21.629842 37.8153518,25.4071242 C38.3667605,26.5291977 37.5821037,27.4474817 36.790607,26.7670228 C34.3395063,24.6597833 30.8587163,23.3437884 26.9975803,23.3437884 C23.2572061,23.3437884 19.8737584,24.5787519 17.4375392,26.5716412 C16.5467928,27.3002944 15.6201012,26.5583844 16.1601674,25.4473116 Z" fill-opacity="0.6" fill="#000000"/></g><g id="x33" fill-opacity="0.6"><path id="x32" d="M38.5686071,10.7022978 C33.5865557,11.2384494 28.6553385,11.1338998 23.6562444,11.1010606 C19.8231061,11.0762636 15.91974,10.6892291 12.3246118,12.5091287 C11.6361455,12.8572921 7.8767609,14.9449324 8.00311195,16.0108688 C8.10389896,16.8633498 12.0128479,18.0636592 12.7165939,18.2838164 C16.4280826,19.4452548 19.9241869,18.9282036 23.6870976,18.5703225 C28.3024371,18.1316834 32.9139567,18.1745756 37.5322346,17.8739956 C40.6422336,17.6719334 45.4224171,16.9769469 46.8293214,13.1484895 C47.2530382,11.9954284 46.8152171,9.73353891 46.3074622,8.50642195 C46.1050066,8.01751871 45.5634602,7.84963624 45.1688335,8.14921095 C43.7560524,9.22218432 40.9851444,10.4425994 38.5686071,10.7022978" transform="translate(27.5, 13.500000) rotate(2.0) translate(-27.5, -13.500000)"/><path id="x31" d="M95.5686071,10.7022978 C90.5865557,11.2384494 85.6553385,11.1338998 80.6562444,11.1010606 C76.8231061,11.0762636 72.91974,10.6892291 69.3246118,12.5091287 C68.6361455,12.8572921 64.8767609,14.9449324 65.003112,16.0108688 C65.103899,16.8633498 69.0128479,18.0636592 69.7165939,18.2838164 C73.4280826,19.4452548 76.9241869,18.9282036 80.6870976,18.5703225 C85.3024371,18.1316834 89.9139567,18.1745756 94.5322346,17.8739956 C97.6422336,17.6719334 102.422417,16.9769469 103.829321,13.1484895 C104.253038,11.9954284 103.815217,9.73353891 103.307462,8.50642195 C103.105007,8.01751871 102.56346,7.84963624 102.168833,8.14921095 C100.756052,9.22218432 97.9851444,10.4425994 95.5686071,10.7022978" transform="translate(84.5, 13.500000) scale(-1, 1) rotate(2.0) translate(-84.5, -13.500000)"/></g></g><g id="x0" stroke-width="1" fill-rule="evenodd"><defs><rect id="x8" x="0" y="0" width="264" height="280"/><path id="x14" d="M8.46130289,88.6935361 C8.16088005,89.7438903 8,90.8531574 8,92 L8,105 C8,111.018625 12.4308707,116.002364 18.2085808,116.867187 C19.9518066,137.114792 32.4692178,154.282984 50,162.610951 L50,181 L46,181 L46,181 C30.3810228,181 15.9236322,185.973344 4.12503673,194.422823 C1.45272918,186.776619 1.52589027e-14,178.557961 1.42108547e-14,170 L0,74 L0,74 C-5.00501776e-15,33.1309285 33.1309285,7.50752664e-15 74,0 L74,0 L74,0 C114.869071,-7.50752664e-15 148,33.1309285 148,74 L148,170 C148,178.557961 146.547271,186.776619 143.874963,194.422823 C132.076368,185.973344 117.618977,181 102,181 L102,181 L98,181 L98,162.610951 C115.530782,154.282984 128.048193,137.114792 129.791419,116.867187 C135.569129,116.002364 140,111.018625 140,105 L140,92 C140,90.3107559 139.650957,88.7030352 139.021057,87.2450254 C126.064756,85.0568849 111.478699,79.7686298 97.1489304,71.4953343 C85.0171781,64.4910638 74.6464677,56.2579416 66.6695083,47.752196 C70.0963393,55.6604321 74.2459335,62.5880409 79.118291,68.5350224 C66.4431108,63.0120855 57.8126345,54.1324394 53.2268621,41.8960843 C52.8490267,42.8180234 52.455505,43.738913 52.0461952,44.6582378 C42.206947,66.7575512 25.5911314,82.6819966 8.46130289,88.6935361 Z"/><path id="x13" d="M65.1802189,77.7372986 C67.3631845,76.1045334 80.4065113,75.4786511 82.757829,74.0894494 C83.4916461,73.6553857 84.0610723,73.215719 84.4997781,72.7800074 C84.938814,73.215719 85.5085703,73.6553857 86.2423874,74.0894494 C88.593375,75.4786511 101.636702,76.1045334 103.819667,77.7372986 C106.030032,79.3908276 107.643571,83.1846831 107.466966,86.15095 C107.255041,89.7101408 103.361486,98.2028927 93.6723269,99.1811016 C91.5576925,96.8281927 88.2368647,95.3104528 84.4997781,95.3104528 C80.7633517,95.3104528 77.4421938,96.8281927 75.3275594,99.1811016 C65.6387308,98.2028927 61.7451757,89.7101408 61.5332501,86.15095 C61.3566455,83.1846831 62.9701849,79.3908276 65.1802189,77.7372986 M103.141638,94.9063813 C103.142958,94.9057221 103.144609,94.905063 103.145929,94.9047334 C103.144278,94.905063 103.142958,94.9057221 103.141638,94.9063813 M65.8453747,94.9014375 C65.8493359,94.9030855 65.8565982,94.9057221 65.8618798,94.9076997 C65.8565982,94.9057221 65.8509864,94.9034151 65.8453747,94.9014375 M144.86259,55.9853335 C144.47439,50.0303878 143.277769,44.1519058 142.233986,38.2862777 C141.952739,36.7072349 140.423706,26 139.734783,26 C139.502391,35.1094058 138.701893,44.0803858 137.669664,53.1393651 C137.361018,55.8475668 137.037848,58.5564277 136.825262,61.2741874 C136.653609,63.4695546 136.959614,66.1220564 136.427819,68.2455739 C135.749129,70.9524573 132.348087,73.4783984 129.702978,74.410795 C123.102915,76.7373371 117.597802,67.1077689 111.960977,64.2911336 C104.643272,60.6347152 92.0637391,59.7639895 84.5816434,64.5297918 C76.9361472,59.7639895 64.356614,60.6347152 57.0389092,64.2911336 C51.4024147,67.1077689 45.8969708,76.7373371 39.2972383,74.410795 C36.6521296,73.4783984 33.2504268,70.9524573 32.572397,68.2455739 C32.0402723,66.1220564 32.346277,63.4695546 32.174954,61.2741874 C31.9623682,58.5564277 31.6388681,55.8475668 31.3302226,53.1393651 C30.2983232,44.0803858 29.4974953,35.1094058 29.2654335,26 C28.5761802,26 27.0468169,36.7072349 26.7658999,38.2862777 C25.7221169,44.1519058 24.5258266,50.0303878 24.1376265,55.9853335 C23.738533,62.1047422 24.2148704,68.1674622 25.4695887,74.1632765 C26.0687242,77.0277016 26.7685407,79.8756475 27.518863,82.7041478 C28.352701,85.8467429 27.198994,91.9661516 27.5723395,95.1921317 C28.2787581,101.29572 31.1542781,113.199679 34.3833375,118.45096 C35.9440605,120.989096 37.7734867,122.573742 39.816489,124.619148 C41.7825775,126.58809 42.6038717,129.640049 44.7260985,131.73687 C48.6820428,135.645092 54.4456266,137.971304 60.3656788,138.543134 C65.6773527,143.050212 74.505605,146 84.4997781,146 C94.4946114,146 103.322534,143.050212 108.634538,138.543134 C114.55393,137.971304 120.317843,135.645092 124.274118,131.73687 C126.396015,129.640049 127.217309,126.58809 129.183727,124.619148 C131.2264,122.573742 133.055826,120.989096 134.616879,118.45096 C137.845608,113.199679 140.721458,101.29572 141.427547,95.1921317 C141.800892,91.9661516 140.647185,85.8467429 141.481353,82.7041478 C142.231676,79.8756475 142.931162,77.0277016 143.530628,74.1632765 C144.784686,68.1674622 145.261353,62.1047422 144.86259,55.9853335 Z"/></defs><mask id="x17" fill="#FFFFFF"><use xlink:href="#x8"/></mask><g id="x2"/><g id="x4" mask="url('#x17')"><g transform="translate(-1,0)"><g id="x3" stroke-width="1" fill="none" fill-rule="evenodd" transform="translate(59,18)"><mask id="x18" fill="#FFFFFF"><use xlink:href="#x14"/></mask><use fill="#ECC797" xlink:href="#x14"/><g id="x5-pastel_pink" mask="url('#x18')" fill="#F59797"><g transform="translate(0,0) " id="x5"><rect x="0" y="0" width="264" height="280"/></g></g> </g><path id="x1" d="M59,102.418954 L59,108.837908 C78.9453743,105.750496 99.5895621,88.3902571 111.046195,62.6582378 C111.455505,61.738913 111.849027,60.8180234 112.226862,59.8960843 C116.231662,70.5822127 123.321236,78.70828 133.495584,84.2742862 C134.956498,86.4697241 136.497401,88.5566361 138.118291,90.5350224 C125.443111,85.0120855 116.812635,76.1324394 112.226862,63.8960843 C111.849027,64.8180234 111.455505,65.738913 111.046195,66.6582378 C99.5895621,92.3902571 78.9453743,109.750496 59,112.837908 L59,102.418954 Z M207,101.140388 L207,110.280776 C192.046922,109.412723 173.901259,103.744646 156.14893,93.4953343 C145.87623,87.5643877 136.866205,80.7523483 129.502994,73.639773 C128.137922,71.1289501 126.860094,68.4997578 125.669508,65.752196 C133.646468,74.2579416 144.017178,82.4910638 156.14893,89.4953343 C173.901259,99.7446457 192.046922,105.412723 207,106.280776 L207,101.140388 Z" fill-opacity="0.16" fill="#000000" fill-rule="evenodd"/> </g></g></g> </g></g></g></g></svg>