<?xml version="1.0" encoding="utf-8" ?><!DOCTYPE svg PUBLIC "-//W3C//DTD SVG 1.1//EN" "http://www.w3.org/Graphics/SVG/1.1/DTD/svg11.dtd"><svg width="280px" height="280px" viewBox="-6 0 274 280" version="1.1" xmlns="http://www.w3.org/2000/svg" xmlns:xlink="http://www.w3.org/1999/xlink"><desc>Py-Avataaars</desc> <g id="x38" stroke="none" stroke-width="1" fill="none" fill-rule="evenodd"><defs><circle id="x25" cx="120" cy="120" r="120"/><path id="x22" d="M12,160 C12,226.27417 65.72583,280 132,280 C198.27417,280 252,226.27417 252,160 L264,160 L264,-1.42108547e-14 L-3.19744231e-14,-1.42108547e-14 L-3.19744231e-14,160 L12,160 Z"/><path id="x27" d="M124,144.610951 L124,163 L128,163 L128,163 C167.764502,163 200,195.235498 200,235 L200,244 L0,244 L0,235 C-4.86974701e-15,195.235498 32.235498,163 72,163 L72,163 L76,163 L76,144.610951 C58.7626345,136.422372 46.3722246,119.687011 44.3051388,99.8812385 C38.4803105,99.0577866 34,94.0521096 34,88 L34,74 C34,68.0540074 38.3245733,63.1180731 44,62.1659169 L44,56 L44,56 C44,25.072054 69.072054,5.68137151e-15 100,0 L100,0 L100,0 C130.927946,-5.68137151e-15 156,25.072054 156,56 L156,62.1659169 C161.675427,63.1180731 166,68.0540074 166,74 L166,88 C166,94.0521096 161.51969,99.0577866 155.694861,99.8812385 C153.627775,119.687011 141.237365,136.422372 124,144.610951 Z"/></defs><g id="x36" transform="translate(-825,-1100)"><g transform="translate(825,1100)"> <g id="x37" stroke-width="1" fill-rule="evenodd" mask="url('#py-avataaars-path-7102fc83-f245-4acc-bd24-440583e7565d')"><g id="x35" transform="translate(32,36)"><mask id="x18" fill="#FFFFFF"><use xlink:href="#x27"/></mask><use fill="#D0C6AC" xlink:href="#x27"/><g id="x16" mask="url('#x18')" fill="#FFDBB4"><g transform="translate(0,0)" id="x17"><rect x="0" y="0" width="264" height="280"/></g></g> <path id="x34" d="M156,79 L156,102 C156,132.927946 130.927946,158 100,158 C69.072054,158 44,132.927946 44,102 L44,79 L44,94 C44,124.927946 69.072054,150 100,150 C130.927946,150 156,124.927946 156,94 L156,79 Z" fill-opacity="0.1" fill="#000000" mask="url('#x18')"/></g><g id="x54" transform="translate(0,170)"><defs><path id="x28" d="M181.544255,32.3304167 C210.784209,41.4878872 232,68.7921987 232,101.051724 L232,110 L32,110 L32,101.051724 C32,68.3969699 53.7388273,40.8195914 83.5340368,32.0020332 C83.182234,33.4201865 83,34.8712315 83,36.3476251 C83,52.6289957 105.161905,65.8276544 132.5,65.8276544 C159.838095,65.8276544 182,52.6289957 182,36.3476251 C182,34.9849859 181.844766,33.6439396 181.544255,32.3304167 Z"/></defs><mask id="x30" fill="#FFFFFF"><use xlink:href="#x28"/></mask><use id="x53" fill="#E6E6E6" fill-rule="evenodd" xlink:href="#x28"/><g id="py-avataaars-clothes-clothe-color-palette-pastel_red" mask="url('#x30')" fill-rule="evenodd" fill="#FFAFB9"><rect id="x55" x="0" y="0" width="264" height="110"/></g></g><g id="x52" transform="translate(76,82)" fill="#000000"><g id="x45" transform="translate(2,52)"><defs><path id="x21" d="M35.117844,15.1280772 C36.1757121,24.6198025 44.2259873,32 54,32 C63.8042055,32 71.8740075,24.574136 72.8917593,15.0400546 C72.9736685,14.272746 72.1167429,13 71.042767,13 C56.1487536,13 44.7379213,13 37.0868244,13 C36.0066168,13 35.0120058,14.1784435 35.117844,15.1280772 Z"/><rect id="x20" x="39" y="2" width="31" height="16" rx="5"/></defs><mask id="x32" fill="#FFFFFF"><use xlink:href="#x21"/></mask><use id="x44" fill-opacity="0.7" fill="#000000" fill-rule="evenodd" xlink:href="#x21"/><use id="x43" stroke-width="1" fill-rule="evenodd" mask="url('#x32')" fill="#FFFFFF" xlink:href="#x20"/><g id="x42" stroke-width="1" fill-rule="evenodd" mask="url('#x32')" fill="#FF4F6D"><g transform="translate(38,24)"><circle cx="11" cy="11" r="11"/><circle cx="21" cy="11" r="11"/></g></g></g><g id="x41" transform="translate(28,40)" fill-opacity="0.16"><path id="x40" d="M16,8 C16,12.418278 21.372583,16 28,16 L28,16 C34.627417,16 40,12.418278 40,8"/></g><g id="x48" transform="translate(0,8)" fill-opacity="0.6" fill-rule="nonzero"><path id="x47" d="M29,25.2 L34.5,30.7 C35,31.1 35.7,31.1 36.1,30.7 L37.7,29.1 C38.1,28.6 38.1,27.9 37.7,27.5 L32.2,22 L37.7,16.5 C38.1,16 38.1,15.3 37.7,14.9 L36.1,13.3 C35.6,12.9 34.9,12.9 34.5,13.3 L29,18.8 L23.5,13.3 C23,12.9 22.3,12.9 21.9,13.3 L20.3,14.9 C19.9,15.3 19.9,16 20.3,16.5 L25.8,22 L20.3,27.5 C19.9,28 19.9,28.7 20.3,29.1 L21.9,30.7 C22.4,31.1 23.1,31.1 23.5,30.7 L29,25.2 Z"/><path id="x46" d="M83,25.2 L88.5,30.7 C89,31.1 89.7,31.1 90.1,30.7 L91.7,29.1 C92.1,28.6 92.1,27.9 91.7,27.5 L86.2,22 L91.7,16.5 C92.1,16 92.1,15.3 91.7,14.9 L90.1,13.3 C89.6,12.9 88.9,12.9 88.5,13.3 L83,18.8 L77.5,13.3 C77,12.9 76.3,12.9 75.9,13.3 L74.3,14.9 C73.9,15.3 73.9,16 74.3,16.5 L79.8,22 L74.3,27.5 C73.9,28 73.9,28.7 74.3,29.1 L75.9,30.7 C76.4,31.1 77.1,31.1 77.5,30.7 L83,25.2 Z"/></g><g id="x51" fill-opacity="0.6"><path id="x50" d="M36.3692975,6.87618545 C34.3991755,9.78053246 30.8236346,11.5165625 27.6315757,12.5601676 C23.6890255,13.8490851 9.08080143,15.9390364 12.5196198,23.9079177 C12.572332,24.029546 12.7390347,24.0312591 12.7920764,23.9096308 C13.9448284,21.2646433 30.256648,18.7865093 31.7648785,18.2064622 C36.2101722,16.4974987 40.1579937,12.7153722 40.9269343,7.66282939 C41.2794477,5.34640965 40.2901039,1.6143049 39.3791695,0.113308759 C39.2697915,-0.0669067099 39.0052417,-0.02339461 38.9498938,0.181831751 C38.5898029,1.51323348 37.5385221,5.15317482 36.3692975,6.87618545"/><path id="x49" d="M95.3692975,6.87618545 C93.3991755,9.78053246 89.8236346,11.5165625 86.6315757,12.5601676 C82.6890255,13.8490851 68.0808014,15.9390364 71.5196198,23.9079177 C71.572332,24.029546 71.7390347,24.0312591 71.7920764,23.9096308 C72.9448284,21.2646433 89.256648,18.7865093 90.7648785,18.2064622 C95.2101722,16.4974987 99.1579937,12.7153722 99.9269343,7.66282939 C100.279448,5.34640965 99.2901039,1.6143049 98.3791695,0.113308759 C98.2697915,-0.0669067099 98.0052417,-0.02339461 97.9498938,0.181831751 C97.5898029,1.51323348 96.5385221,5.15317482 95.3692975,6.87618545" transform="translate(85.5, 12.0) scale(-1, 1) translate(-85.5, -12.0)"/></g></g><g id="x0" stroke-width="1" fill-rule="evenodd"><defs><rect id="x19" x="0" y="0" width="264" height="280"/><path id="x23" d="M175.126419,166.897818 C175.841424,169.13759 176.874789,171.230601 178.55519,172.685954 C180.17619,174.090053 183.068114,173.745469 185.098621,173.802748 C186.770693,173.850632 188.444623,173.856087 190.114529,173.783655 C190.95366,173.747287 191.327571,174.79771 190.648775,175.281705 C190.518773,175.374442 190.388771,175.462634 190.25846,175.543856 C189.20761,176.198779 188.11838,176.802787 187.008721,177.356184 C184.485135,178.614206 181.821334,179.600077 179.02722,180.090436 C177.110792,180.426519 175.211229,180.489668 173.372596,180.266511 C173.858877,180.986862 174.419563,181.642356 175.071506,182.207788 C176.801481,183.708407 179.887821,183.340135 182.054832,183.401352 C183.839313,183.452528 185.625776,183.458358 187.407944,183.380946 C188.303488,183.342078 188.702535,184.464709 187.978106,184.981974 C187.839364,185.081086 187.700623,185.175341 187.561551,185.262145 C186.440057,185.962089 185.2776,186.607617 184.093342,187.199055 C181.400104,188.543555 178.557223,189.597195 175.57527,190.121262 C170.075488,191.087126 164.705859,189.943766 160.380755,186.413279 C159.16361,185.419765 158.027363,184.287616 157,183.053001 L157,180.610951 C163.949635,177.309539 170.111406,172.618864 175.126419,166.897818 Z M81.3150549,151.593977 C80.572738,153.13892 79.8051751,154.672522 79.0058562,156.190972 C74.2106831,165.300379 68.2421528,176.792949 56.4993303,177.596328 C55.4105393,177.670743 54.9804404,178.942941 55.8287461,179.588187 C66.9485528,188.041497 92.2609618,193.18734 101.273548,191.569729 C104.095212,191.063278 106.638877,190.402091 109,189.610443 L109,180.610951 C96.5625107,174.702544 86.6484598,164.344483 81.3150549,151.593977 Z M195.90592,68.6796644 C196.081329,74.1868816 195.28885,79.9070851 194.184533,85.2955724 C193.189889,90.1482867 189.869671,93.9714569 188.837367,98.7289227 C184.809898,85.0481908 169.433037,80.4838679 160.242068,71.1548033 C162.238626,74.9478777 165.29094,78.1026546 167.294435,81.8328914 C158.047309,76.1675881 149.087576,67.953725 145.262273,57.5379012 C144.554691,62.9359795 142.545911,67.9275978 139.15401,72.2035294 C136.142657,76.0002417 131.572444,80.0744315 126.858864,81.5445 C129.286511,76.0372828 131.361358,70.327001 133.266412,64.6190342 C131.249704,67.2357231 124.568637,78.352682 122.891185,81.1086057 C121.234875,83.8298033 119.37772,86.426318 117.383805,88.9120401 C116.450603,90.0751967 115.455298,91.1993278 114.453055,92.302954 C113.869349,92.9458816 113.274082,93.578226 112.665931,94.1980029 C112.450882,94.4169423 110.823641,96.2071517 111.753871,95.0036468 C109.537639,97.8062025 106.276221,99.9826977 103.44325,102.112561 C100.59079,104.256976 97.4833088,106.08125 94.2522818,107.589351 C87.0932166,110.931649 79.7402436,112.148383 71.9327267,110.752066 C73.127556,111.05104 75.6533133,109.906073 76.8887739,109.570058 C78.6980301,109.07761 80.3625987,108.452872 82.0017312,107.546357 C85.2753717,105.735312 88.3514706,103.576015 91.1778346,101.127995 C88.4707222,102.280238 86.2726593,104.461694 83.513684,105.671152 C81.2270908,106.673576 78.9669245,107.196782 76.4817987,107.437218 C71.0203357,107.966046 64.4865987,106.716901 59.7607964,103.849523 C54.2686121,100.517478 51.2186099,94.7989286 49.7717335,88.7129442 C48.0913088,81.6460323 49.1355043,73.6726057 53.0992189,67.6388757 C53.2336661,69.781637 57.5349852,70.703365 61.0154166,70.1662691 C70.6728211,68.675365 76.4180436,32.1184491 101.441738,25.5998777 C121.403017,20.3995724 135.651446,29.4743102 136.862131,30.2568033 C138.299428,31.1854765 138.85043,30.796545 140.483286,30.4052984 C146.829392,28.8846292 153.741035,28.1960616 160.187893,29.4782789 C166.528383,30.7396605 172.606255,34.0244119 177.74696,37.856181 C187.273882,44.9574883 195.508524,56.4379129 195.90592,68.6796644 Z"/><path id="x24" d="M65.1802189,77.7372986 C67.3631845,76.1045334 80.4065113,75.4786511 82.757829,74.0894494 C83.4916461,73.6553857 84.0610723,73.215719 84.4997781,72.7800074 C84.938814,73.215719 85.5085703,73.6553857 86.2423874,74.0894494 C88.593375,75.4786511 101.636702,76.1045334 103.819667,77.7372986 C106.030032,79.3908276 107.643571,83.1846831 107.466966,86.15095 C107.255041,89.7101408 103.361486,98.2028927 93.6723269,99.1811016 C91.5576925,96.8281927 88.2368647,95.3104528 84.4997781,95.3104528 C80.7633517,95.3104528 77.4421938,96.8281927 75.3275594,99.1811016 C65.6387308,98.2028927 61.7451757,89.7101408 61.5332501,86.15095 C61.3566455,83.1846831 62.9701849,79.3908276 65.1802189,77.7372986 M103.141638,94.9063813 C103.142958,94.9057221 103.144609,94.905063 103.145929,94.9047334 C103.144278,94.905063 103.142958,94.9057221 103.141638,94.9063813 M65.8453747,94.9014375 C65.8493359,94.9030855 65.8565982,94.9057221 65.8618798,94.9076997 C65.8565982,94.9057221 65.8509864,94.9034151 65.8453747,94.9014375 M144.86259,55.9853335 C144.47439,50.0303878 143.277769,44.1519058 142.233986,38.2862777 C141.952739,36.7072349 140.423706,26 139.734783,26 C139.502391,35.1094058 138.701893,44.0803858 137.669664,53.1393651 C137.361018,55.8475668 137.037848,58.5564277 136.825262,61.2741874 C136.653609,63.4695546 136.959614,66.1220564 136.427819,68.2455739 C135.749129,70.9524573 132.348087,73.4783984 129.702978,74.410795 C123.102915,76.7373371 117.597802,67.1077689 111.960977,64.2911336 C104.643272,60.6347152 92.0637391,59.7639895 84.5816434,64.5297918 C76.9361472,59.7639895 64.356614,60.6347152 57.0389092,64.2911336 C51.4024147,67.1077689 45.8969708,76.7373371 39.2972383,74.410795 C36.6521296,73.4783984 33.2504268,70.9524573 32.572397,68.2455739 C32.0402723,66.1220564 32.346277,63.4695546 32.174954,61.2741874 C31.9623682,58.5564277 31.6388681,55.8475668 31.3302226,53.1393651 C30.2983232,44.0803858 29.4974953,35.1094058 29.2654335,26 C28.5761802,26 27.0468169,36.7072349 26.7658999,38.2862777 C25.7221169,44.1519058 24.5258266,50.0303878 24.1376265,55.9853335 C23.738533,62.1047422 24.2148704,68.1674622 25.4695887,74.1632765 C26.0687242,77.0277016 26.7685407,79.8756475 27.518863,82.7041478 C28.352701,85.8467429 27.198994,91.9661516 27.5723395,95.1921317 C28.2787581,101.29572 31.1542781,113.199679 34.3833375,118.45096 C35.9440605,120.989096 37.7734867,122.573742 39.816489,124.619148 C41.7825775,126.58809 42.6038717,129.640049 44.7260985,131.73687 C48.6820428,135.645092 54.4456266,137.971304 60.3656788,138.543134 C65.6773527,143.050212 74.505605,146 84.4997781,146 C94.4946114,146 103.322534,143.050212 108.634538,138.543134 C114.55393,137.971304 120.317843,135.645092 124.274118,131.73687 C126.396015,129.640049 127.217309,126.58809 129.183727,124.619148 C131.2264,122.573742 133.055826,120.989096 134.616879,118.45096 C137.845608,113.199679 140.721458,101.29572 141.427547,95.1921317 C141.800892,91.9661516 140.647185,85.8467429 141.481353,82.7041478 C142.231676,79.8756475 142.931162,77.0277016 143.530628,74.1632765 C144.784686,68.1674622 145.261353,62.1047422 144.86259,55.9853335 Z"/></defs><mask id="x33" fill="#FFFFFF"><use xlink:href="#x19"/></mask><g id="x2"/><g id="x4" mask="url('#x33')"><g transform="translate(-1,0)"><g id="x15" fill="none" transform="translate(62,85)" stroke-width="1"><defs><filter id="x39" x="-0.8%" y="-2.4%" width="101.5%" height="109.8%" filterUnits="objectBoundingBox"><feOffset dx="0" dy="2" in="SourceAlpha" result="shadowOffsetOuter1"/><feColorMatrix values="0 0 0 0 0 0 0 0 0 0 0 0 0 0 0 0 0 0 0.2 0" type="matrix" in="shadowOffsetOuter1" result="shadowMatrixOuter1"/><feMerge><feMergeNode in="shadowMatrixOuter1"/><feMergeNode in="SourceGraphic"/></feMerge></filter></defs><g id="x9" filter="url('#x39')" transform="translate(8,8)" fill="#D6EAF2"><path id="x14" d="M46.2491397,7.27516667 C48.6207695,7.2975 49.7419096,7.69183333 50.1459601,10.1651667 C50.5553446,12.6705 50.1572949,15.4871667 49.6852359,17.9548333 C48.9648125,21.7228333 47.7666627,25.4145 44.9776475,28.1685 C43.5084639,29.6188333 41.7165732,30.7748333 39.8106684,31.5641667 C38.7985419,31.9835 37.7297416,32.2861667 36.6612747,32.5158333 C36.3489024,32.5828333 33.6822357,32.9501667 35.3177735,32.7635 C31.5009631,33.1991667 27.3601122,33.1818333 24.1723805,30.7525 C20.6396056,28.0601667 18.2203032,23.7998333 17.1565036,19.5561667 C16.5340925,17.0731667 15.2262624,11.1345 17.6158944,9.14916667 C20.3532365,6.8745 46.2491397,7.27516667 46.2491397,7.27516667 L46.2491397,7.27516667 Z M22.2178029,0.4905 C16.7774562,0.677833333 13.1466691,1.63383333 10.4633337,7.06916667 C5.54571911,17.0301667 13.9627711,31.9688333 23.352278,36.0395 C34.3293166,40.7991667 46.5921826,35.5318333 52.3955746,26.0058333 C55.4689587,20.9621667 57.0224862,13.3231667 56.9224737,7.50383333 C56.7951245,0.0765 51.6071427,-0.1295 45.5090472,0.0338333333 L22.2178029,0.4905 Z"/><path id="x13" d="M79.6805515,7.27256667 C77.3089217,7.29523333 76.1877816,7.68923333 75.7837311,10.1625667 C75.3743466,12.6679 75.7723963,15.4845667 76.244122,17.9522333 C76.9648787,21.7202333 78.1630285,25.4119 80.9520437,28.1659 C82.4212273,29.6162333 84.213118,30.7722333 86.1190228,31.5619 C87.1311493,31.9809 88.1999496,32.2835667 89.2684165,32.5132333 C89.5807888,32.5802333 92.2471221,32.9479 90.6119177,32.7609 C94.4287281,33.1965667 98.569579,33.1792333 101.757311,30.7499 C105.290086,28.0575667 107.709388,23.7975667 108.773188,19.5539 C109.395599,17.0705667 110.703095,11.1322333 108.313797,9.14656667 C105.576455,6.8719 79.6805515,7.27256667 79.6805515,7.27256667 L79.6805515,7.27256667 Z M103.711555,0.4879 C109.152235,0.675233333 112.783022,1.63156667 115.466357,7.06656667 C120.383639,17.0275667 111.96692,31.9662333 102.577413,36.0372333 C91.6003746,40.7965667 79.3375086,35.5292333 73.5337832,26.0035667 C70.4607325,20.9595667 68.907205,13.3205667 69.0068841,7.50123333 C69.1345667,0.0739 74.3225485,-0.1321 80.420644,0.0315666667 L103.711555,0.4879 Z"/><path id="x12" d="M13.1969483,4.9267 C9.78501392,5.11836667 5.88606327,5.16436667 2.69005822,6.63936667 C-0.69461078,8.20136667 -1.2176675,11.7387 3.04920921,12.2260333 C4.97094906,12.4457 6.89488267,12.0827 8.78716336,11.7450333 C10.336903,11.4683667 12.4419791,11.5580333 13.9064752,10.9657 C16.6355213,9.86236667 16.4603333,4.74003333 13.1969483,4.9267"/><path id="x11" d="M112.73467,4.9267 C116.146606,5.11836667 120.045559,5.16436667 123.241565,6.63936667 C126.626236,8.20136667 127.149293,11.7387 122.882414,12.2260333 C120.960673,12.4457 119.036739,12.0827 117.144457,11.7450333 C115.594717,11.4683667 113.489639,11.5580333 112.025143,10.9657 C109.295782,9.86236667 109.471283,4.74003333 112.73467,4.9267"/><path id="x10" d="M73.1094302,7.01263333 C71.1631869,4.71263333 66.0912197,3.38463333 62.8914864,3.38463333 C59.6914198,3.38463333 54.7681378,4.71263333 52.8222279,7.01263333 C51.8407719,8.1723 51.8074344,9.72396667 53.5083137,10.4509667 C55.6262451,11.3566333 57.5174814,9.7143 59.2126933,8.8553 C61.3809643,7.75663333 64.7120473,7.8773 66.7189648,8.8553 C68.4271783,9.68796667 70.3050797,11.3566333 72.4233444,10.4509667 C74.1242237,9.72396667 74.0908862,8.1723 73.1094302,7.01263333"/></g></g> <mask id="x29" fill="#FFFFFF"><use xlink:href="#x23"/></mask><use id="x3" stroke="none" fill="#1D2633" fill-rule="evenodd" xlink:href="#x23"/><g id="x5-blonde_golden" mask="url('#x29')" fill="#D6B370"><g transform="translate(0,0) " id="x5"><rect x="0" y="0" width="264" height="280"/></g></g> <path id="x1" d="M175.126419,166.897818 C175.841424,169.13759 176.874789,171.230601 178.55519,172.685954 C180.17619,174.090053 183.068114,173.745469 185.098621,173.802748 C186.770693,173.850632 188.444623,173.856087 190.114529,173.783655 C190.95366,173.747287 191.327571,174.79771 190.648775,175.281705 C190.518773,175.374442 190.388771,175.462634 190.25846,175.543856 C189.20761,176.198779 188.11838,176.802787 187.008721,177.356184 C184.485135,178.614206 181.821334,179.600077 179.02722,180.090436 C177.110792,180.426519 175.211229,180.489668 173.372596,180.266511 C173.858877,180.986862 174.419563,181.642356 175.071506,182.207788 C176.801481,183.708407 179.887821,183.340135 182.054832,183.401352 C183.839313,183.452528 185.625776,183.458358 187.407944,183.380946 C188.303488,183.342078 188.702535,184.464709 187.978106,184.981974 C187.839364,185.081086 187.700623,185.175341 187.561551,185.262145 C186.440057,185.962089 185.2776,186.607617 184.093342,187.199055 C181.400104,188.543555 178.557223,189.597195 175.57527,190.121262 C170.075488,191.087126 164.705859,189.943766 160.380755,186.413279 C159.16361,185.419765 158.027363,184.287616 157,183.053001 L157,180.610951 C163.949635,177.309539 170.111406,172.618864 175.126419,166.897818 Z M81.3150549,151.593977 C80.572738,153.13892 79.8051751,154.672522 79.0058562,156.190972 C74.2106831,165.300379 68.2421528,176.792949 56.4993303,177.596328 C55.4105393,177.670743 54.9804404,178.942941 55.8287461,179.588187 C66.9485528,188.041497 92.2609618,193.18734 101.273548,191.569729 C104.095212,191.063278 106.638877,190.402091 109,189.610443 L109,180.610951 C96.5625107,174.702544 86.6484598,164.344483 81.3150549,151.593977 Z" stroke="none" fill-opacity="0.16" fill="#000000" fill-rule="evenodd"/><g id="x8" transform="translate(49,72)"><defs><path id="x26" d='M105.017591,94.1296214 C101.150441,99.7213834 98.257542,95.9467308 94.1374777,92.8762163 C91.6567227,91.0272796 87.9608129,88.7275108 84.5044337,88.8410391 C81.0477114,88.7275108 77.3518016,91.0272796 74.8710466,92.8762163 C70.7509822,95.9467308 67.8580835,99.7213834 63.9909333,94.1296214 C61.0884259,89.9323547 62.3028943,82.8739117 65.014944,78.9027173 C68.8738581,73.2512381 74.1088724,75.9847769 79.9622738,75.3400279 C81.5538829,75.1648137 83.1526985,74.7228407 84.5044337,74 C85.856169,74.7228407 87.4546414,75.1648137 89.0462504,75.3400279 C94.899995,75.9847769 100.134666,73.2512381 103.993923,78.9027173 C106.70563,82.8739117 107.920098,89.9323547 105.017591,94.1296214 M140.39109,26 C136.966521,40.0748212 135.393023,54.4337754 132.909944,68.6711471 C132.392536,71.6390145 131.826063,74.5963095 131.224594,77.5496398 C131.098329,78.1697764 130.973781,80.4725746 130.362704,80.7643064 C128.511632,81.6484223 124.739149,76.9466834 123.730409,75.8851496 C121.196893,73.219256 118.684993,70.5292442 115.599415,68.437233 C109.364783,64.2102603 102.065485,61.7108818 94.4700836,61.117837 C91.2922091,60.8693859 86.9951134,61.3025234 84.000116,63.1104016 C81.0051185,61.3025234 76.7080229,60.8693859 73.5298053,61.117837 C65.9344039,61.7108818 58.6351055,64.2102603 52.4004739,68.437233 C49.3148957,70.5292442 46.8033387,73.219256 44.2694796,75.8851496 C43.2607395,76.9466834 39.4882573,81.6484223 37.6371849,80.7643064 C37.0261079,80.4725746 36.9015594,78.1697764 36.7752954,77.5496398 C36.1738255,74.5963095 35.6073527,71.6390145 35.0899445,68.6711471 C32.6072086,54.4337754 31.0337113,40.0748212 27.6091415,26 C26.6127533,26 25.7385119,44.7478165 25.6273446,46.4945731 C25.174784,53.5889755 24.6463963,60.5254529 25.3216346,67.6261326 C26.485803,79.8749043 27.6993791,95.2339402 37.032627,104.58753 C45.4659003,113.039493 57.7103052,114.806417 68.2713185,120.141327 C69.631059,120.828202 71.4347824,121.676306 73.3798667,122.37111 C75.4289129,123.934171 79.4926946,125 84.1740722,125 C89.0846465,125 93.3155222,123.827456 95.2540874,122.137856 C96.9548781,121.49261 98.5180822,120.752874 99.7285704,120.141327 C110.288776,114.805245 122.533989,113.039493 130.967262,104.58753 C140.30051,95.2339402 141.514086,79.8749043 142.678597,67.6261326 C143.353493,60.5254529 142.825105,53.5889755 142.372887,46.4945731 C142.261377,44.7478165 141.387136,26 140.39109,26 Z' /></defs><mask id="x31" fill="#FFFFFF"><use xlink:href="#x26"/></mask><use id="x7" fill="#252E32" fill-rule="evenodd" xlink:href="#x26"/><g id="x56" mask="url('#x31')" fill="#C93305"><g transform="translate(-32,0)" id="x6"><rect x="0" y="0" width="264" height="244"/></g></g></g> </g></g></g> </g></g></g></g></svg>