<?xml version="1.0" encoding="utf-8" ?><!DOCTYPE svg PUBLIC "-//W3C//DTD SVG 1.1//EN" "http://www.w3.org/Graphics/SVG/1.1/DTD/svg11.dtd"><svg width="280px" height="280px" viewBox="-6 0 274 280" version="1.1" xmlns="http://www.w3.org/2000/svg" xmlns:xlink="http://www.w3.org/1999/xlink"><desc>Py-Avataaars</desc> <g id="x31" stroke="none" stroke-width="1" fill="none" fill-rule="evenodd"><defs><circle id="x13" cx="120" cy="120" r="120"/><path id="x18" d="M12,160 C12,226.27417 65.72583,280 132,280 C198.27417,280 252,226.27417 252,160 L264,160 L264,-1.42108547e-14 L-3.19744231e-14,-1.42108547e-14 L-3.19744231e-14,160 L12,160 Z"/><path id="x15" d="M124,144.610951 L124,163 L128,163 L128,163 C167.764502,163 200,195.235498 200,235 L200,244 L0,244 L0,235 C-4.86974701e-15,195.235498 32.235498,163 72,163 L72,163 L76,163 L76,144.610951 C58.7626345,136.422372 46.3722246,119.687011 44.3051388,99.8812385 C38.4803105,99.0577866 34,94.0521096 34,88 L34,74 C34,68.0540074 38.3245733,63.1180731 44,62.1659169 L44,56 L44,56 C44,25.072054 69.072054,5.68137151e-15 100,0 L100,0 L100,0 C130.927946,-5.68137151e-15 156,25.072054 156,56 L156,62.1659169 C161.675427,63.1180731 166,68.0540074 166,74 L166,88 C166,94.0521096 161.51969,99.0577866 155.694861,99.8812385 C153.627775,119.687011 141.237365,136.422372 124,144.610951 Z"/></defs><g id="x29" transform="translate(-825,-1100)"><g transform="translate(825,1100)"> <g id="x30" stroke-width="1" fill-rule="evenodd" mask="url('#py-avataaars-path-3edbec09-6498-49fa-a176-a36f223c7527')"><g id="x28" transform="translate(32,36)"><mask id="x16" fill="#FFFFFF"><use xlink:href="#x15"/></mask><use fill="#D0C6AC" xlink:href="#x15"/><g id="py-avataaars-skin-dark_brown" mask="url('#x16')" fill="#AE5D29"><g transform="translate(0,0)" id="x11"><rect x="0" y="0" width="264" height="280"/></g></g> <path id="x27" d="M156,79 L156,102 C156,132.927946 130.927946,158 100,158 C69.072054,158 44,132.927946 44,102 L44,79 L44,94 C44,124.927946 69.072054,150 100,150 C130.927946,150 156,124.927946 156,94 L156,79 Z" fill-opacity="0.1" fill="#000000" mask="url('#x16')"/></g><g id="x49" transform="translate(0,170)"><defs><path id="x21" d="M94,29.6883435 L94,74 L170,74 L170,29.6883435 C179.362956,30.9893126 188.149952,34.0907916 196.00002,38.6318143 L196,110 L187,110 L77,110 L68,110 L68,38.6318027 C75.8500482,34.0907916 84.6370437,30.9893126 94,29.6883435 Z"/></defs><mask id="x25" fill="#FFFFFF"><use xlink:href="#x21"/></mask><use id="x46" fill="#B7C1DB" fill-rule="evenodd" xlink:href="#x21"/><g id="py-avataaars-clothes-clothe-color-palette-pastel_green" mask="url('#x25')" fill-rule="evenodd" fill="#A7FFC4"><rect id="x50" x="0" y="0" width="264" height="110"/></g> <circle id="x48" fill="#F4F4F4" fill-rule="evenodd" cx="81" cy="83" r="5"/><circle id="x47" fill="#F4F4F4" fill-rule="evenodd" cx="183" cy="83" r="5"/></g><g id="x45" transform="translate(76,82)" fill="#000000"><g id="x38" transform="translate(2,52)"><defs><path id="x12" d="M34.0082051,15.1361102 C35.1280248,29.123916 38.2345159,40.9925405 53.9961505,40.9999965 C69.757785,41.0074525 72.9169073,29.0566179 73.9942614,15.0063928 C74.0809675,13.8756222 73.1738581,12.9999965 72.0369872,12.9999965 C65.3505138,12.9999965 62.6703194,14.9936002 53.9894323,14.9999965 C45.3085452,15.0063928 40.7567994,12.9999965 36.0924943,12.9999965 C34.9490269,12.9999965 33.8961688,13.7366502 34.0082051,15.1361102 Z"/><rect id="x19" x="39" y="2" width="31" height="16" rx="5"/></defs><mask id="x22" fill="#FFFFFF"><use xlink:href="#x12" transform="translate(54.0, 27.0) scale(1, -1) translate(-54.0, -27.0)"/></mask><use id="x37" fill-opacity="0.7" fill="#000000" fill-rule="evenodd" transform="translate(54.0, 27.0) scale(1, -1) translate(-54.0, -27.0)" xlink:href="#x12"/><use id="x35" stroke-width="1" fill-rule="evenodd" mask="url('#x22')" fill="#FFFFFF" xlink:href="#x19"/><g id="x34" stroke-width="1" fill-rule="evenodd" mask="url('#x22')" fill="#FF4F6D"><g id="x36" transform="translate(38,32)"><circle cx="11" cy="11" r="11"/><circle cx="21" cy="11" r="11"/></g></g></g><g id="x33" transform="translate(28,40)" fill-opacity="0.16"><path id="x32" d="M16,8 C16,12.418278 21.372583,16 28,16 L28,16 C34.627417,16 40,12.418278 40,8"/></g><g id="x41" transform="translate(0,8)" fill-opacity="0.6"><path id="x40" d="M27.2409577,20.3455337 C26.462715,21.3574913 26,22.6247092 26,24 C26,27.3137085 28.6862915,30 32,30 C35.3137085,30 38,27.3137085 38,24 C38,23.7097898 37.9793961,23.4243919 37.9395713,23.1451894 C37.9474218,22.9227843 37.9097825,22.6709538 37.8153518,22.4071242 C37.7703692,22.2814477 37.7221152,22.1572512 37.6706873,22.0345685 C37.3370199,21.0717264 36.7650456,20.2202109 36.0253277,19.550585 C33.898886,17.3173253 30.5064735,16 26.9975803,16 C22.1644225,16 18.006676,18.648508 16.1601674,22.4473116 C15.6201012,23.5583844 16.5467928,24.3002944 17.4375392,23.5716412 C19.8737584,21.5787519 23.2572061,20.3437884 26.9975803,20.3437884 C27.0788767,20.3437884 27.1600045,20.3443718 27.2409577,20.3455337 Z"/><path id="x39" d="M85.2409577,20.3455337 C84.462715,21.3574913 84,22.6247092 84,24 C84,27.3137085 86.6862915,30 90,30 C93.3137085,30 96,27.3137085 96,24 C96,23.7097898 95.9793961,23.4243919 95.9395713,23.1451894 C95.9474218,22.9227843 95.9097825,22.6709538 95.8153518,22.4071242 C95.7703692,22.2814477 95.7221152,22.1572512 95.6706873,22.0345685 C95.3370199,21.0717264 94.7650456,20.2202109 94.0253277,19.550585 C91.898886,17.3173253 88.5064735,16 84.9975803,16 C80.1644225,16 76.006676,18.648508 74.1601674,22.4473116 C73.6201012,23.5583844 74.5467928,24.3002944 75.4375392,23.5716412 C77.8737584,21.5787519 81.2572061,20.3437884 84.9975803,20.3437884 C85.0788767,20.3437884 85.1600045,20.3443718 85.2409577,20.3455337 Z"/></g><g id="x44" fill-opacity="0.6" fill-rule="nonzero"><path id="x43" d="M15.9726042,19.4088529 C17.452356,11.0203704 30.0622688,5.22829657 39.2106453,8.9774793 C40.2254706,9.39337449 41.4016967,8.94600219 41.8378196,7.97824531 C42.2739426,7.01048842 41.8048116,5.88881678 40.7899862,5.47292159 C29.3457328,0.782843812 13.9550264,7.85221132 12.0280273,18.7760684 C11.84479,19.8148122 12.5792704,20.798534 13.6685352,20.9732726 C14.7578,21.1480113 15.7893668,20.4475967 15.9726042,19.4088529 Z" transform="translate(27.000414, 12.500000) scale(-1, -1) translate(-27.000414, -12.500000)"/><path id="x42" d="M73.9726042,19.4088529 C75.452356,11.0203704 88.0622688,5.22829657 97.2106453,8.9774793 C98.2254706,9.39337449 99.4016967,8.94600219 99.8378196,7.97824531 C100.273943,7.01048842 99.8048116,5.88881678 98.7899862,5.47292159 C87.3457328,0.782843812 71.9550264,7.85221132 70.0280273,18.7760684 C69.84479,19.8148122 70.5792704,20.798534 71.6685352,20.9732726 C72.7578,21.1480113 73.7893668,20.4475967 73.9726042,19.4088529 Z" transform="translate(85.000414, 12.500000) scale(1, -1) translate(-85.000414, -12.500000)"/></g></g><g id="x0" stroke-width="1" fill-rule="evenodd"><defs><rect id="x14" x="0" y="0" width="264" height="280"/><path id="x17" d="M48.7246602,89.2187346 C44.7420117,91.1711421 42,95.2653555 42,100 L42,113 C42,119.018625 46.4308707,124.002364 52.2085808,124.867187 C53.9518066,145.114792 66.4692178,162.282984 84,170.610951 L84,189 L80,189 L80,189 C78.4137385,189 76.8394581,189.051297 75.2787271,189.152323 C70.3620966,186.639548 65.7724391,183.578174 61.590479,180.048925 C57.2814481,181.318646 52.7202934,182 48,182 C21.490332,182 0,160.509668 0,134 C0,119.590902 6.34904132,106.664702 16.4021743,97.866349 C11.1175746,90.6060809 8,81.6671147 8,72 C8,50.160623 23.9112243,32.0375116 44.7738169,28.5905219 C51.0188047,11.8901624 67.1208542,0 86,0 C94.0143172,0 101.528186,2.14267429 108,5.88641659 C114.471814,2.14267429 121.985683,0 130,0 C148.879146,0 164.981195,11.8901624 171.226183,28.5905219 C192.088776,32.0375116 208,50.160623 208,72 C208,81.6671147 204.882425,90.6060809 199.597826,97.866349 C209.650959,106.664702 216,119.590902 216,134 C216,160.509668 194.509668,182 168,182 C163.279707,182 158.718552,181.318646 154.409521,180.048925 C150.227561,183.578174 145.637903,186.639548 140.721273,189.152323 C139.160542,189.051297 137.586262,189 136,189 L136,189 L132,189 L132,170.610951 C149.530782,162.282984 162.048193,145.114792 163.791419,124.867187 C169.569129,124.002364 174,119.018625 174,113 L174,100 C174,95.778427 171.820067,92.0660046 168.524466,89.9269981 C167.450514,89.5343912 166.370126,89.0424011 165.289302,88.4564081 C164.868503,88.3367332 164.43828,88.2394463 164,88.1659169 L164,87.7130302 C155.319369,82.4100235 146.764694,71.1747746 141.449951,56.7992877 C131.312295,58.8351061 119.547256,60 107,60 C95.038684,60 83.7882341,58.9413637 73.9808476,57.0787685 C68.7546917,71.0641476 60.4637821,82.0431875 52,87.4230168 L52,88.1659169 C50.9777341,88.3374206 49.9992949,88.6381729 49.0820602,89.050796 C48.9628927,89.1079465 48.8437566,89.1639284 48.7246602,89.2187346 Z"/></defs><mask id="x23" fill="#FFFFFF"><use xlink:href="#x14"/></mask><g id="x2"/><g id="x5" mask="url('#x23')"><g transform="translate(-1,0)"><path id="x1" d="M105.984735,27.7643628 C114.013215,26.6267967 122.796163,26 132,26 C142.358003,26 152.182939,26.7938545 160.999342,28.2161842 C183.451688,38.7497687 199,61.559133 199,88 L199,105.044138 C187.461887,104.672508 173.831239,90.7644306 166.449951,70.7992877 C156.312295,72.8351061 144.547256,74 132,74 C120.038684,74 108.788234,72.9413637 98.9808476,71.0787685 C91.6758772,90.6271291 78.3831001,104.301811 67,105.021902 L67,88 L67,88 C67,61.1745453 83.0039076,38.0870034 105.984735,27.7643628 Z" fill-opacity="0.16" fill="#000000" fill-rule="evenodd"/><g id="x3" stroke-width="1" fill="none" fill-rule="evenodd" transform="translate(25,10)"><mask id="x24" fill="#FFFFFF"><use xlink:href="#x17"/></mask><use id="x4" fill="#314756" xlink:href="#x17"/><g id="x6" mask="url('#x24')" fill="#B58143"><g transform="translate(0,0) " id="x7"><rect x="0" y="0" width="264" height="280"/></g></g> </g><g id="x10" transform="translate(49,72)"><defs><path id="x20" d="M83.9980103,74.839711 C83.4569991,75.6087366 82.761047,76.2496937 81.949688,76.6891498 C73.0477917,81.5102869 63.8767499,77.3322546 58.8763101,77.6298353 C56.459601,77.7739966 53.3405442,79.4153191 52.2155358,77.6791014 C50.9768736,75.7669804 55.0680827,65.2207224 64.7214121,63.4643353 C71.7310704,62.1893309 81.4972391,63.6024033 83.9980103,66.9380109 C86.4987814,63.6024033 96.2649453,62.1893309 103.274279,63.4643353 C112.927938,65.2207224 117.019147,75.7669804 115.780485,77.6791014 C114.655476,79.4153191 111.53642,77.7739966 109.119711,77.6298353 C104.118941,77.3322546 94.948229,81.5102869 86.0463327,76.6891498 C85.2349736,76.2496937 84.5390216,75.6087366 83.9980103,74.839711 Z"/></defs><mask id="x26" fill="#FFFFFF"><use xlink:href="#x20"/></mask><use id="x8" fill="#28354B" fill-rule="evenodd" xlink:href="#x20"/><g id="x51" mask="url('#x26')" fill="#724133"><g transform="translate(-32,0)" id="x9"><rect x="0" y="0" width="264" height="244"/></g></g></g> </g></g></g> </g></g></g></g></svg>