<?xml version="1.0" encoding="utf-8" ?><!DOCTYPE svg PUBLIC "-//W3C//DTD SVG 1.1//EN" "http://www.w3.org/Graphics/SVG/1.1/DTD/svg11.dtd"><svg width="280px" height="280px" viewBox="-6 0 274 280" version="1.1" xmlns="http://www.w3.org/2000/svg" xmlns:xlink="http://www.w3.org/1999/xlink"><desc>Py-Avataaars</desc> <g id="x38" stroke="none" stroke-width="1" fill="none" fill-rule="evenodd"><defs><circle id="x25" cx="120" cy="120" r="120"/><path id="x29" d="M12,160 C12,226.27417 65.72583,280 132,280 C198.27417,280 252,226.27417 252,160 L264,160 L264,-1.42108547e-14 L-3.19744231e-14,-1.42108547e-14 L-3.19744231e-14,160 L12,160 Z"/><path id="x24" d="M124,144.610951 L124,163 L128,163 L128,163 C167.764502,163 200,195.235498 200,235 L200,244 L0,244 L0,235 C-4.86974701e-15,195.235498 32.235498,163 72,163 L72,163 L76,163 L76,144.610951 C58.7626345,136.422372 46.3722246,119.687011 44.3051388,99.8812385 C38.4803105,99.0577866 34,94.0521096 34,88 L34,74 C34,68.0540074 38.3245733,63.1180731 44,62.1659169 L44,56 L44,56 C44,25.072054 69.072054,5.68137151e-15 100,0 L100,0 L100,0 C130.927946,-5.68137151e-15 156,25.072054 156,56 L156,62.1659169 C161.675427,63.1180731 166,68.0540074 166,74 L166,88 C166,94.0521096 161.51969,99.0577866 155.694861,99.8812385 C153.627775,119.687011 141.237365,136.422372 124,144.610951 Z"/></defs><g id="x36" transform="translate(-825,-1100)"><g transform="translate(825,1100)"> <g id="x37" stroke-width="1" fill-rule="evenodd" mask="url('#py-avataaars-path-2a05516d-e093-4517-9fa8-7d256a01636f')"><g id="x35" transform="translate(32,36)"><mask id="x28" fill="#FFFFFF"><use xlink:href="#x24"/></mask><use fill="#D0C6AC" xlink:href="#x24"/><g id="x19" mask="url('#x28')" fill="#D08B5B"><g transform="translate(0,0)" id="x18"><rect x="0" y="0" width="264" height="280"/></g></g> <path id="x34" d="M156,79 L156,102 C156,132.927946 130.927946,158 100,158 C69.072054,158 44,132.927946 44,102 L44,79 L44,94 C44,124.927946 69.072054,150 100,150 C130.927946,150 156,124.927946 156,94 L156,79 Z" fill-opacity="0.1" fill="#000000" mask="url('#x28')"/></g><g id="x58" transform="translate(0,170)"><defs><path id="x27" d="M165.624032,29.2681342 C202.760022,32.1373245 232,63.1798426 232,101.051724 L232,110 L32,110 L32,101.051724 C32,62.8348009 61.7752018,31.5722494 99.3929298,29.1967444 C99.1342224,30.2735458 99,31.3767131 99,32.5 C99,44.3741221 113.998461,54 132.5,54 C151.001539,54 166,44.3741221 166,32.5 C166,31.4015235 165.871641,30.3222877 165.624025,29.2681336 Z"/></defs><mask id="x33" fill="#FFFFFF"><use xlink:href="#x27"/></mask><use id="x57" fill="#E6E6E6" fill-rule="evenodd" xlink:href="#x27"/><g id="py-avataaars-clothes-clothe-color-palette-blue_03" mask="url('#x33')" fill-rule="evenodd" fill="#25557C"><rect id="x59" x="0" y="0" width="264" height="110"/></g><g id="x56" mask="url('#x33'" fill-rule="evenodd" fill="#FFFFFF"><g transform="translate(77,58)" id="x55"><path d="M76.9598206,16.2351328 C77.3545748,17.6603319 74.7317873,18.9054413 73.8540158,19.6535687 C72.3474717,20.9370645 70.7886986,22.2879408 69.0287021,23.2010483 C68.2808959,23.5889965 67.4755973,23.9042554 66.6674645,24.1357992 C65.420446,24.4927115 65.5625576,24.2427912 65.0864232,25.3008688 C64.2491394,27.1617948 64.0321258,29.6352706 63.2754123,31.6133978 C61.5708838,36.0670427 57.5083567,46.4138243 51.0084754,41.8719723 C48.9403681,40.4271716 47.8107637,37.6249608 46.6471497,35.4361165 C45.312678,32.9242543 44.0348889,29.927661 43.2668389,27.1858884 C42.8923285,25.8501217 43.1299908,25.3952014 42.1376394,24.7708091 C41.514535,24.3787772 40.4582132,24.2775023 39.7537287,23.9908291 C38.2544724,23.3807295 36.9414591,22.5546042 35.6656945,21.5602318 C34.4279881,20.5948534 29.5561137,16.6096049 33.5340216,15.8696448 C35.3592032,15.5298839 37.7512114,15.6560692 39.6006855,15.7495851 C41.6283052,15.8520851 43.6741443,16.3196647 45.4774626,17.2854514 C47.3184343,18.2720648 46.7783296,17.9862083 48.6865108,17.4345052 C45.3653119,16.3090472 42.0384447,14.4370952 39.8031236,11.6536693 C38.5961879,10.1508806 35.8037572,4.00047299 37.9022302,2.58875006 C40.4225841,0.893212425 40.6331197,7.93508406 41.3416529,9.15569148 C42.9344356,11.8995059 45.8495437,12.9351233 48.3844732,14.454655 C46.6435058,12.7868862 45.3446632,10.9496454 44.7106272,8.58683697 C44.4357163,7.56224546 43.6846711,5.0981621 44.1919809,4.10133952 C44.7207491,3.06123008 45.9641237,2.99507471 46.6499838,3.88041325 C47.2678248,4.67754462 47.1123524,6.5115185 47.3241026,7.47240483 C47.6739156,9.06095045 48.2451958,10.282783 49.3059712,11.5127828 C50.8113007,13.2585495 52.7227209,14.6866071 54.9750468,15.2395353 C60.1015883,16.4977125 61.8947847,11.1317769 62.5826693,6.99461605 C62.7510977,5.98186717 62.5033135,4.30184746 63.6329179,3.81589134 C65.0001846,3.22743524 65.5293577,4.56156854 65.5690356,5.59718594 C65.6564888,7.91058207 64.5127138,11.4535697 63.4029483,13.4419061 C66.1929497,11.7100238 68.4064075,8.96375923 69.3015886,5.75399867 C69.6327773,4.56646894 69.3639395,1.9182123 70.4757294,1.25134983 C72.0154733,0.327216479 72.5049686,2.16772422 72.45112,3.27317229 C72.1324825,9.78825116 67.1525061,15.7132405 60.9627599,17.341806 C62.4810453,18.1005509 62.2814414,18.2716565 63.8114683,17.3650829 C64.6961227,16.840332 65.656084,16.4352324 66.6375037,16.1342663 C68.1076089,15.6834297 69.6931038,15.453111 71.2182722,15.3183501 C72.4377591,15.2105413 76.4921887,14.5012087 76.9598206,16.2351328 Z M58.8595294,24.6214062 C59.7193936,22.4825816 56.3639386,22.4048657 56.0375022,24.7163015 C55.622102,27.6609177 58.7932497,27.8924294 58.8595294,24.6214062 Z M56.9297708,33.6367531 C57.5886752,31.4414328 53.4036129,31.5246305 53.0344702,33.4664333 C52.5980925,35.7582944 56.4400387,35.1974948 56.9297708,33.6367531 Z M51.7024587,27 C54.0260737,27 54.9736078,23.9354052 52.6986912,23.1385385 C49.8083182,22.1255453 48.8835101,27 51.7024587,27 Z"/></g></g></g><g id="x54" transform="translate(76,82)" fill="#000000"><g id="x47" transform="translate(2,52)"><g id="x46" opacity="0.6" stroke-width="1" transform="translate(28,6)" fill-opacity="0.6" fill="#000000"><path id="x60" d="M16.1906378,10.106319 C16.0179484,4.99553347 11.7923466,0.797193688 6.29352385,0 C9.66004124,1.95870633 11.9804619,5.49520667 11.9804619,9.67694348 C11.9804619,15.344608 6.50694731,20.2451296 0.176591694,20.2451296 C0.11761218,20.2451296 0.0587475828,20.2447983 0,20.244138 L8.8963743e-11,20.244138 C1.35764479,20.7317259 2.83995964,21 4.39225962,21 C9.71395931,21 14.2131224,17.8469699 15.6863572,13.5136402 C18.1609431,15.6698775 21.8629994,17.0394229 26,17.0394229 C30.1370006,17.0394229 33.8390569,15.6698775 36.3136428,13.5136402 C37.7868776,17.8469699 42.2860407,21 47.6077404,21 C49.1600404,21 50.6423552,20.7317259 52,20.244138 L52,20.244138 C51.9412524,20.2447983 51.8823878,20.2451296 51.8234083,20.2451296 C45.4930527,20.2451296 40.0195381,15.344608 40.0195381,9.67694348 C40.0195381,5.49520667 42.3399588,1.95870633 45.7064761,0 C40.2076534,0.797193688 35.9820516,4.99553347 35.8093622,10.106319 C33.2452605,11.8422828 29.7948543,12.9056086 26,12.9056086 C22.2051457,12.9056086 18.7547395,11.8422828 16.1906378,10.106319 Z"/></g><circle id="x45" fill-opacity="0.2" fill="#FF4646" cx="17" cy="15" r="9"/><circle id="x44" fill-opacity="0.2" fill="#FF4646" cx="91" cy="15" r="9"/></g><g id="x43" transform="translate(28,40)" fill-opacity="0.16"><path id="x42" d="M16,8 C16,12.418278 21.372583,16 28,16 L28,16 C34.627417,16 40,12.418278 40,8"/></g><g id="x50" transform="translate(0,8)" fill-opacity="0.6"><path id="x49" d="M16.1601674,32.4473116 C18.006676,28.648508 22.1644225,26 26.9975803,26 C31.8136766,26 35.9591217,28.629842 37.8153518,32.4071242 C38.3667605,33.5291977 37.5821037,34.4474817 36.790607,33.7670228 C34.3395063,31.6597833 30.8587163,30.3437884 26.9975803,30.3437884 C23.2572061,30.3437884 19.8737584,31.5787519 17.4375392,33.5716412 C16.5467928,34.3002944 15.6201012,33.5583844 16.1601674,32.4473116 Z" transform="translate(27,30) scale(1, -1) translate(-27,-30)"/><path id="x48" d="M74.1601674,32.4473116 C76.006676,28.648508 80.1644225,26 84.9975803,26 C89.8136766,26 93.9591217,28.629842 95.8153518,32.4071242 C96.3667605,33.5291977 95.5821037,34.4474817 94.790607,33.7670228 C92.3395063,31.6597833 88.8587163,30.3437884 84.9975803,30.3437884 C81.2572061,30.3437884 77.8737584,31.5787519 75.4375392,33.5716412 C74.5467928,34.3002944 73.6201012,33.5583844 74.1601674,32.4473116 Z" transform="translate(85,30) scale(1, -1) translate(-85,-30)"/></g><g id="x53" fill-opacity="0.6"><path id="x52" d="M44.8565785,12.2282877 C44.8578785,12.2192877 44.8578785,12.2192877 44.8565785,12.2282877 M17.5862288,7.89238094 C15.2441598,8.3302947 13.0866155,9.78806858 12.1523766,12.0987479 C11.8009169,12.967391 11.3917103,14.9243181 11.7083227,15.8073302 C11.8284629,16.14295 12.0332321,16.1008692 12.9555234,16.0430509 C14.643791,15.9369937 16.9330912,13.6622369 18.7484684,13.2557982 C21.2753939,12.6899315 23.9825295,13.1148447 26.4961798,13.6882381 C30.8109365,14.6725177 36.4854008,17.7875215 40.9461842,16.1699775 C41.2783949,16.0495512 45.6210294,12.9225732 44.3685187,12.2769925 C43.9238011,11.9068186 41.1370145,12.0854053 40.6216067,11.9988489 C38.2277647,11.5971998 35.7297127,10.9345131 33.373373,10.3265657 C28.2329017,9.00016592 22.9666484,6.88073171 17.5862288,7.89238094" transform="translate(28.094701, 12.127505) rotate(17.0) translate(-28.094701, -12.127505)"/><path id="x51" d="M100.918293,12.2094196 C100.919593,12.2004196 100.919593,12.2004196 100.918293,12.2094196 M73.5862288,7.89238094 C71.2441598,8.3302947 69.0866155,9.78806858 68.1523766,12.0987479 C67.8009169,12.967391 67.3917103,14.9243181 67.7083227,15.8073302 C67.8284629,16.14295 68.0332321,16.1008692 68.9555234,16.0430509 C70.643791,15.9369937 72.9330912,13.6622369 74.7484684,13.2557982 C77.2753939,12.6899315 79.9825295,13.1148447 82.4961798,13.6882381 C86.8109365,14.6725177 92.4854008,17.7875215 96.9461842,16.1699775 C97.2783949,16.0495512 101.621029,12.9225732 100.368519,12.2769925 C99.9238011,11.9068186 97.1370145,12.0854053 96.6216067,11.9988489 C94.2277647,11.5971998 91.7297127,10.9345131 89.373373,10.3265657 C84.2329017,9.00016592 78.9666484,6.88073171 73.5862288,7.89238094" transform="translate(84.094701, 12.127505) scale(-1, 1) rotate(17.0) translate(-84.094701, -12.127505)"/></g></g><g id="x1" stroke-width="1" fill-rule="evenodd"><defs><rect id="x26" x="0" y="0" width="264" height="280"/><path id="x23" d="M156,180.610951 C173.530782,172.282984 186.048193,155.114792 187.791419,134.867187 C193.569129,134.002364 198,129.018625 198,123 L198,110 C198,104.054007 193.675427,99.1180731 188,98.1659169 L188,92 C188,84.0546578 186.345324,76.495786 183.361772,69.6491845 C173.434911,53 89.3126235,53.8033992 80.7098777,69.4854816 C77.6811789,76.3752214 76,83.9912805 76,92 L76,98.1659169 C70.3245733,99.1180731 66,104.054007 66,110 L66,123 C66,129.018625 70.4308707,134.002364 76.2085808,134.867187 C77.9518066,155.114792 90.4692178,172.282984 108,180.610951 L108,199 L104,199 L104,199 C64.235498,199 32,231.235498 32,271 L32,280 L232,280 L232,271 C232,231.235498 199.764502,199 160,199 L156,199 L156,180.610951 Z M0,5.68434189e-14 L264,5.68434189e-14 L264,280 L0,280 L0,5.68434189e-14 Z"/><filter id="x40" x="-0.8%" y="-2.0%" width="101.5%" height="108.0%" filterUnits="objectBoundingBox"><feOffset dx="0" dy="2" in="SourceAlpha" result="shadowOffsetOuter1"/><feColorMatrix values="0 0 0 0 0 0 0 0 0 0 0 0 0 0 0 0 0 0 0.16 0" type="matrix" in="shadowOffsetOuter1" result="shadowMatrixOuter1"/><feMerge><feMergeNode in="shadowMatrixOuter1"/><feMergeNode in="SourceGraphic"/></feMerge></filter></defs><mask id="x31" fill="#FFFFFF"><use xlink:href="#x26"/></mask><g id="x3"/><g id="x6" mask="url('#x31')"><g transform="translate(-1,0)"><g id="x5" stroke-width="1" fill-rule="evenodd" transform="translate(1,0)"><mask id="x30" fill="#FFFFFF"><use xlink:href="#x23"/></mask><g id="x2"/><path d="M123.182388,2 L141.817612,2 L141.817612,2 C160.609055,2 176.866947,15.0804442 180.890118,33.4361631 L190,75 L75,75 L84.1098821,33.4361631 L84.1098821,33.4361631 C88.1330533,15.0804442 104.390945,2 123.182388,2 Z" fill="#FFFFFF" mask="url('#x30')"/><ellipse id="x4" fill="#FFFFFF" mask="url('#x30')" cx="132" cy="87.5" rx="122" ry="57.5"/><ellipse id="x0" fill="#15232A" mask="url('#x30')" cx="132" cy="82" rx="62" ry="25"/></g><g id="x9" transform="translate(49,72)"><defs><path id="x21" d="M84.0002865,69.2970648 C77.2083681,65.7112456 67.5782013,65.1489138 62.3885276,67.1316942 C56.6144416,69.3374281 51.5052994,75.5829845 42.6388201,72.8283797 C42.2699314,72.7136458 41.9094725,73.0449523 42.0204089,73.408662 C43.3937943,77.9183313 51.0278347,81.0068878 53.6221945,81.1080652 C64.961124,81.549609 74.0949802,72.8302891 84.0002865,72.1614794 C93.9055921,72.8302891 103.03945,81.549609 114.378714,81.1080652 C116.972736,81.0068878 124.607113,77.9183313 125.980498,73.408662 C126.091098,73.0449523 125.730639,72.7136458 125.36175,72.8283797 C116.495271,75.5829845 111.386129,69.3374281 105.612044,67.1316942 C100.422371,65.1489138 90.7922044,65.7112456 84.0002865,69.2970648 Z"/></defs><mask id="x32" fill="#FFFFFF"><use xlink:href="#x21"/></mask><use id="x7" fill="#28354B" fill-rule="evenodd" xlink:href="#x21"/><g id="x61" mask="url('#x32')" fill="#724133"><g transform="translate(-32,0)" id="x8"><rect x="0" y="0" width="264" height="244"/></g></g></g><g id="x17" fill="none" transform="translate(62,85)" stroke-width="1"><defs><filter id="x41" x="-0.8%" y="-2.4%" width="101.6%" height="109.8%" filterUnits="objectBoundingBox"><feOffset dx="0" dy="2" in="SourceAlpha" result="shadowOffsetOuter1"/><feColorMatrix values="0 0 0 0 0 0 0 0 0 0 0 0 0 0 0 0 0 0 0.2 0" type="matrix" in="shadowOffsetOuter1" result="shadowMatrixOuter1"/><feMerge><feMergeNode in="shadowMatrixOuter1"/><feMergeNode in="SourceGraphic"/></feMerge></filter><linearGradient x1="50%" y1="0%" x2="50%" y2="100%" id="x39"><stop stop-color="#FFFFFF" stop-opacity="0.5" offset="0%"/><stop stop-color="#000000" stop-opacity="0.5" offset="70.5058195%"/></linearGradient><path id="x22" d="M44.9178864,17.5714286 C44.9178864,27.2737857 36.66775,35.1428571 22.9204545,35.1428571 L20.1704091,35.1428571 C6.42311364,35.1428571 0.923022727,27.2708571 0.923022727,17.5714286 L0.923022727,17.5714286 C0.923022727,7.86614286 2.20715909,0 21.4545455,0 L24.3863636,0 C43.63375,0 44.9178864,7.86614286 44.9178864,17.5714286 L44.9178864,17.5714286 Z"/><path id="x20" d="M106.486068,17.5714286 C106.486068,27.2737857 98.2388636,35.1428571 84.4886364,35.1428571 L81.7385909,35.1428571 C67.9912955,35.1428571 62.4912045,27.2708571 62.4912045,17.5714286 L62.4912045,17.5714286 C62.4912045,7.86614286 63.7753409,0 83.0227273,0 L85.9545455,0 C105.199,0 106.486068,7.86614286 106.486068,17.5714286 L106.486068,17.5714286 Z"/></defs><g id="x10" filter="url('#x41')" transform="translate(7,7)"><g id="x12" transform="translate(10.795455, 2.928571)" fill-rule="nonzero"><g id="x14"><use fill-opacity="0.7" fill="#000000" fill-rule="evenodd" xlink:href="#x22"/><use fill="url('#x39')" fill-rule="evenodd" style="mix-blend-mode: 'screen'" xlink:href="#x22"/></g><g id="x13"><use fill-opacity="0.7" fill="#000000" fill-rule="evenodd" xlink:href="#x20"/><use fill="url('#x39')" fill-rule="evenodd" style="mix-blend-mode: 'screen'" xlink:href="#x20"/></g></g><path id="x16" d="M33.7159091,41 L30.9658636,41 C17.0778409,41 8.78665909,33.3359286 8.78665909,20.5 C8.78665909,10.127 10.5985227,0 32.25,0 L35.1818182,0 C56.8332955,0 58.6451591,10.127 58.6451591,20.5 C58.6451591,32.5686429 48.3955227,41 33.7159091,41 Z M32.25,5.85421429 C14.6502955,5.85421429 14.6502955,12.3175714 14.6502955,20.5 C14.6502955,27.1800714 17.4795,35.1428571 30.9658636,35.1428571 L33.7159091,35.1428571 C44.9418409,35.1428571 52.7815227,29.1217143 52.7815227,20.5 C52.7815227,12.3175714 52.7815227,5.85421429 35.1818182,5.85421429 L32.25,5.85421429 Z" fill="#252C2F" fill-rule="nonzero"/><path id="x15" d="M95.2840909,41 L92.5340455,41 C78.6460227,41 70.3548409,33.3359286 70.3548409,20.5 C70.3548409,10.127 72.1667045,0 93.8181818,0 L96.75,0 C118.401477,0 120.213341,10.127 120.213341,20.5 C120.213341,32.5686429 109.963705,41 95.2840909,41 Z M93.8181818,5.85421429 C76.2184773,5.85421429 76.2184773,12.3175714 76.2184773,20.5 C76.2184773,27.1800714 79.0506136,35.1428571 92.5340455,35.1428571 L95.2840909,35.1428571 C106.510023,35.1428571 114.349705,29.1217143 114.349705,20.5 C114.349705,12.3175714 114.349705,5.85421429 96.75,5.85421429 L93.8181818,5.85421429 Z" fill="#252C2F" fill-rule="nonzero"/><path id="x11" d="M2.93181818,5.85714286 C3.61786364,5.17185714 11.1233182,0 32.25,0 C49.9640455,0 53.7138409,1.88014286 59.3898409,4.72085714 L59.8053162,4.93054903 C60.1999353,5.07314243 62.2179351,5.77419634 64.5784525,5.85128811 C66.7290156,5.75689949 68.5684809,5.16080623 69.1059926,4.96981137 C75.5844654,1.74762081 81.9260118,0 96.75,0 C117.876682,0 125.382136,5.17185714 126.068182,5.85714286 C127.689477,5.85714286 129,7.16621429 129,8.78571429 L129,11.7142857 C129,13.3337857 127.689477,14.6428571 126.068182,14.6428571 C126.068182,14.6428571 120.204545,14.6428571 120.204545,17.5714286 C120.204545,20.5 117.272727,13.3337857 117.272727,11.7142857 L117.272727,8.8618831 C113.697201,7.46243482 107.296654,5.85714286 96.75,5.85714286 C84.9995538,5.85714286 79.1475515,6.98813142 74.1276604,9.10414393 L74.1837955,9.24257143 L71.6878772,10.2500422 L74.1813177,11.2582547 L71.981173,16.6874536 L69.263564,15.5885995 C69.0208516,15.4904597 68.4971539,15.3141463 67.770994,15.1309826 C65.7466083,14.6203594 63.6653786,14.4649153 61.8248214,14.8513001 C61.1495627,14.993056 60.5230576,15.2057795 59.9480988,15.4931011 L57.3260941,16.8033836 L54.7026238,11.5651815 L57.3246285,10.2548989 L57.3310023,10.251716 L54.8191364,9.23671429 L54.8992448,9.03890561 C50.5700368,6.97578666 46.5781927,5.85714286 32.25,5.85714286 C21.7038986,5.85714286 15.3034993,7.46145875 11.7272727,8.86093383 L11.7272727,11.7142857 C11.7272727,13.3337857 8.79545455,20.5 8.79545455,17.5714286 C8.79545455,14.6428571 2.93181818,14.6428571 2.93181818,14.6428571 C1.31345455,14.6428571 0,13.3337857 0,11.7142857 L0,8.78571429 C0,7.16621429 1.31345455,5.85714286 2.93181818,5.85714286 Z" fill="#252C2F" fill-rule="nonzero"/></g></g> </g></g></g> </g></g></g></g></svg>