<?xml version="1.0" encoding="utf-8" ?><!DOCTYPE svg PUBLIC "-//W3C//DTD SVG 1.1//EN" "http://www.w3.org/Graphics/SVG/1.1/DTD/svg11.dtd"><svg width="280px" height="280px" viewBox="-6 0 274 280" version="1.1" xmlns="http://www.w3.org/2000/svg" xmlns:xlink="http://www.w3.org/1999/xlink"><desc>Py-Avataaars</desc> <g id="x33" stroke="none" stroke-width="1" fill="none" fill-rule="evenodd"><defs><circle id="x23" cx="120" cy="120" r="120"/><path id="x17" d="M12,160 C12,226.27417 65.72583,280 132,280 C198.27417,280 252,226.27417 252,160 L264,160 L264,-1.42108547e-14 L-3.19744231e-14,-1.42108547e-14 L-3.19744231e-14,160 L12,160 Z"/><path id="x19" d="M124,144.610951 L124,163 L128,163 L128,163 C167.764502,163 200,195.235498 200,235 L200,244 L0,244 L0,235 C-4.86974701e-15,195.235498 32.235498,163 72,163 L72,163 L76,163 L76,144.610951 C58.7626345,136.422372 46.3722246,119.687011 44.3051388,99.8812385 C38.4803105,99.0577866 34,94.0521096 34,88 L34,74 C34,68.0540074 38.3245733,63.1180731 44,62.1659169 L44,56 L44,56 C44,25.072054 69.072054,5.68137151e-15 100,0 L100,0 L100,0 C130.927946,-5.68137151e-15 156,25.072054 156,56 L156,62.1659169 C161.675427,63.1180731 166,68.0540074 166,74 L166,88 C166,94.0521096 161.51969,99.0577866 155.694861,99.8812385 C153.627775,119.687011 141.237365,136.422372 124,144.610951 Z"/></defs><g id="x31" transform="translate(-825,-1100)"><g transform="translate(825,1100)"> <g id="x32" stroke-width="1" fill-rule="evenodd" mask="url('#py-avataaars-path-31cd9e6c-94c6-4ccc-a75a-d0cf03492642')"><g id="x30" transform="translate(32,36)"><mask id="x16" fill="#FFFFFF"><use xlink:href="#x19"/></mask><use fill="#D0C6AC" xlink:href="#x19"/><g id="py-avataaars-skin-dark_brown" mask="url('#x16')" fill="#AE5D29"><g transform="translate(0,0)" id="x14"><rect x="0" y="0" width="264" height="280"/></g></g> <path id="x29" d="M156,79 L156,102 C156,132.927946 130.927946,158 100,158 C69.072054,158 44,132.927946 44,102 L44,79 L44,94 C44,124.927946 69.072054,150 100,150 C130.927946,150 156,124.927946 156,94 L156,79 Z" fill-opacity="0.1" fill="#000000" mask="url('#x16')"/></g><g id="x50" transform="translate(0,170)"><defs><path id="x21" d="M171.319631,29.9364358 C205.706337,35.3665707 232,65.13854 232,101.051724 L232,110 L32,110 L32,101.051724 C32,65.1380521 58.2943778,35.3657617 92.6817711,29.9362145 C93.5835973,35.0053598 96.116393,39.8238432 100.236125,43.5389794 L100.236125,43.5389794 L129.321203,69.7676333 C130.843316,71.1402598 133.156684,71.1402598 134.678797,69.7676333 L134.678797,69.7676333 L163.763875,43.5389794 C164.189462,43.1551884 164.601167,42.7562772 164.998197,42.3430127 C168.414164,38.7873666 170.517305,34.4520434 171.319628,29.9364354 Z"/></defs><mask id="x28" fill="#FFFFFF"><use xlink:href="#x21"/></mask><use id="x49" fill="#E6E6E6" fill-rule="evenodd" xlink:href="#x21"/><g id="py-avataaars-clothes-clothe-color-palette-blue_03" mask="url('#x28')" fill-rule="evenodd" fill="#25557C"><rect id="x51" x="0" y="0" width="264" height="110"/></g></g><g id="x48" transform="translate(76,82)" fill="#000000"><g id="x40" transform="translate(2,52)"><defs><rect id="x18" x="24" y="9" width="60" height="22" rx="11"/></defs><rect id="x38" fill-opacity="0.6" fill="#000000" fill-rule="evenodd" x="22" y="7" width="64" height="26" rx="13"/><mask id="x27" fill="#FFFFFF"><use xlink:href="#x18"/></mask><use id="x39" fill="#FFFFFF" fill-rule="evenodd" xlink:href="#x18"/><path id="x37" d="M71,22 L62,22 L62,34 L58,34 L58,22 L49,22 L49,34 L45,34 L45,22 L36,22 L36,34 L32,34 L32,22 L24,22 L24,18 L32,18 L32,6 L36,6 L36,18 L45,18 L45,6 L49,6 L49,18 L58,18 L58,6 L62,6 L62,18 L71,18 L71,6 L75,6 L75,18 L83.8666667,18 L83.8666667,22 L75,22 L75,34 L71,34 L71,22 Z" fill="#E6E6E6" fill-rule="evenodd" mask="url('#x27')"/></g><g id="x36" transform="translate(28,40)" fill-opacity="0.16"><path id="x35" d="M16,8 C16,12.418278 21.372583,16 28,16 L28,16 C34.627417,16 40,12.418278 40,8"/></g><g id="x44" transform="translate(0,8)"><circle id="x42" fill-opacity="0.6" fill="#000000" fill-rule="evenodd" cx="30" cy="22" r="6"/><path id="x43" d="M25,27 C25,27 19,34.2706667 19,38.2706667 C19,41.5846667 21.686,44.2706667 25,44.2706667 C28.314,44.2706667 31,41.5846667 31,38.2706667 C31,34.2706667 25,27 25,27 Z" fill="#92D9FF" fill-rule="nonzero"/><circle id="x41" fill-opacity="0.6" fill="#000000" fill-rule="evenodd" cx="82" cy="22" r="6"/></g><g id="x47" fill-opacity="0.6" fill-rule="nonzero"><path id="x46" d="M15.5914402,14.1619718 C20.0874642,7.83556966 29.6031809,4.65350252 39.3473715,7.79575991 C40.3986323,8.13476518 41.5256656,7.55736801 41.8646708,6.50610724 C42.2036761,5.45484647 41.6262789,4.32781316 40.5750182,3.98880789 C29.1665516,0.309863172 17.8358054,4.09887835 12.3309495,11.8448183 C11.6910852,12.7451779 11.9022584,13.9937761 12.8026181,14.6336404 C13.7029777,15.2735046 14.9515759,15.0623314 15.5914402,14.1619718 Z"/><path id="x45" d="M73.6376405,21.1577995 C77.5525501,15.6490895 88.2853148,12.56006 97.5304219,14.8304032 C98.6031199,15.0938282 99.6862617,14.4377829 99.9496867,13.3650849 C100.213112,12.2923868 99.5570664,11.2092451 98.4843684,10.9458201 C87.7477584,8.30920485 75.3194947,11.8862211 70.3771498,18.840646 C69.7372855,19.7410057 69.9484587,20.9896038 70.8488184,21.6294681 C71.749178,22.2693324 72.9977762,22.0581591 73.6376405,21.1577995 Z" transform="translate(85.007549, 16.038421) scale(-1, 1) translate(-85.007549, -16.038421)"/></g></g><g id="x0" stroke-width="1" fill-rule="evenodd"><defs><rect id="x22" x="0" y="0" width="264" height="280"/><path id="x20" d="M114.939716,28.3372418 C113.953527,28.5587334 112.985531,28.7906134 112.036894,29.0299707 C96.9448338,32.8379559 88.0168242,43.6513048 80.3566792,59.6480618 C76.5956048,67.5028569 74.3660182,76.7914798 74.0230569,85.4813651 C73.8884429,88.8932666 74.3484305,92.415154 75.267729,95.7003546 C75.6049405,96.9061873 77.4232441,101.086987 77.9224658,97.70885 C78.0885348,96.584253 77.4804043,95.0327505 77.4215529,93.8376154 C77.3444374,92.2693977 77.4273028,90.6807875 77.5341822,89.1149098 C77.7340739,86.1874141 78.2559568,83.3154127 79.1847257,80.524647 C80.5119249,76.5367405 82.2013644,72.212859 84.7874413,68.8480942 C91.1883705,60.5205939 95.7648164,43.2055199 133,41.6707324 C170.235184,40.1359449 181.748751,67.461069 185.182761,73.3006826 C189.2479,80.2147477 187.37751,88.7073939 188.619138,96.2008069 C189.091302,99.05041 190.164155,98.986558 190.751315,96.4378281 C191.748406,92.1082634 192.219217,87.6102098 191.901961,83.1592929 C191.183568,73.1114668 187.496636,46.7057251 167.308863,35.006118 C161.866498,31.8520537 156.438352,29.6874962 151.116597,28.2827668 C154.176091,25.3110645 156,21.5675963 156,17.5 C156,7.83501688 145.702549,0 133,0 C120.297451,0 110,7.83501688 110,17.5 C110,21.5924906 111.846303,25.3568736 114.939716,28.3372418 Z"/></defs><mask id="x26" fill="#FFFFFF"><use xlink:href="#x22"/></mask><g id="x1"/><g id="x3" mask="url('#x26')"><g transform="translate(-1,0)"><g id="x8" transform="translate(49,72)"><defs><path id="x15" d='M105.017591,94.1296214 C101.150441,99.7213834 98.257542,95.9467308 94.1374777,92.8762163 C91.6567227,91.0272796 87.9608129,88.7275108 84.5044337,88.8410391 C81.0477114,88.7275108 77.3518016,91.0272796 74.8710466,92.8762163 C70.7509822,95.9467308 67.8580835,99.7213834 63.9909333,94.1296214 C61.0884259,89.9323547 62.3028943,82.8739117 65.014944,78.9027173 C68.8738581,73.2512381 74.1088724,75.9847769 79.9622738,75.3400279 C81.5538829,75.1648137 83.1526985,74.7228407 84.5044337,74 C85.856169,74.7228407 87.4546414,75.1648137 89.0462504,75.3400279 C94.899995,75.9847769 100.134666,73.2512381 103.993923,78.9027173 C106.70563,82.8739117 107.920098,89.9323547 105.017591,94.1296214 M140.39109,26 C136.966521,40.0748212 135.393023,54.4337754 132.909944,68.6711471 C132.392536,71.6390145 131.826063,74.5963095 131.224594,77.5496398 C131.098329,78.1697764 130.973781,80.4725746 130.362704,80.7643064 C128.511632,81.6484223 124.739149,76.9466834 123.730409,75.8851496 C121.196893,73.219256 118.684993,70.5292442 115.599415,68.437233 C109.364783,64.2102603 102.065485,61.7108818 94.4700836,61.117837 C91.2922091,60.8693859 86.9951134,61.3025234 84.000116,63.1104016 C81.0051185,61.3025234 76.7080229,60.8693859 73.5298053,61.117837 C65.9344039,61.7108818 58.6351055,64.2102603 52.4004739,68.437233 C49.3148957,70.5292442 46.8033387,73.219256 44.2694796,75.8851496 C43.2607395,76.9466834 39.4882573,81.6484223 37.6371849,80.7643064 C37.0261079,80.4725746 36.9015594,78.1697764 36.7752954,77.5496398 C36.1738255,74.5963095 35.6073527,71.6390145 35.0899445,68.6711471 C32.6072086,54.4337754 31.0337113,40.0748212 27.6091415,26 C26.6127533,26 25.7385119,44.7478165 25.6273446,46.4945731 C25.174784,53.5889755 24.6463963,60.5254529 25.3216346,67.6261326 C26.485803,79.8749043 27.6993791,95.2339402 37.032627,104.58753 C45.4659003,113.039493 57.7103052,114.806417 68.2713185,120.141327 C69.631059,120.828202 71.4347824,121.676306 73.3798667,122.37111 C75.4289129,123.934171 79.4926946,125 84.1740722,125 C89.0846465,125 93.3155222,123.827456 95.2540874,122.137856 C96.9548781,121.49261 98.5180822,120.752874 99.7285704,120.141327 C110.288776,114.805245 122.533989,113.039493 130.967262,104.58753 C140.30051,95.2339402 141.514086,79.8749043 142.678597,67.6261326 C143.353493,60.5254529 142.825105,53.5889755 142.372887,46.4945731 C142.261377,44.7478165 141.387136,26 140.39109,26 Z' /></defs><mask id="x25" fill="#FFFFFF"><use xlink:href="#x15"/></mask><use id="x7" fill="#252E32" fill-rule="evenodd" xlink:href="#x15"/><g id="x52" mask="url('#x25')" fill="#ECDCBF"><g transform="translate(-32,0)" id="x6"><rect x="0" y="0" width="264" height="244"/></g></g></g> <mask id="x24" fill="#FFFFFF"><use xlink:href="#x20"/></mask><use id="x2" stroke="none" fill="#28354B" fill-rule="evenodd" xlink:href="#x20"/><g id="x4" mask="url('#x24')" fill="#B58143"><g transform="translate(0,0) " id="x5"><rect x="0" y="0" width="264" height="280"/></g></g><g id="x13" fill="none" transform="translate(62,85)" stroke-width="1"><defs><filter id="x34" x="-0.8%" y="-2.4%" width="101.5%" height="109.8%" filterUnits="objectBoundingBox"><feOffset dx="0" dy="2" in="SourceAlpha" result="shadowOffsetOuter1"/><feColorMatrix values="0 0 0 0 0 0 0 0 0 0 0 0 0 0 0 0 0 0 0.2 0" type="matrix" in="shadowOffsetOuter1" result="shadowMatrixOuter1"/><feMerge><feMergeNode in="shadowMatrixOuter1"/><feMergeNode in="SourceGraphic"/></feMerge></filter></defs><g id="x9" filter="url('#x34')" transform="translate(6,7)" fill="#252C2F"><path id="x12" d="M34,41 L31.2421498,41 C17.3147125,41 9,33.3359286 9,20.5 C9,10.127 10.8170058,0 32.5299306,0 L35.4700694,0 C57.1829942,0 59,10.127 59,20.5 C59,32.5686429 48.7212748,41 34,41 Z M32.3853606,6 C13,6 13,12.8410159 13,21.5015498 C13,28.5719428 16.116254,37 30.9709365,37 L34,37 C46.3649085,37 55,30.6270373 55,21.5015498 C55,12.8410159 55,6 35.6146394,6 L32.3853606,6 Z" fill-rule="nonzero"/><path id="x11" d="M96,41 L93.2421498,41 C79.3147125,41 71,33.3359286 71,20.5 C71,10.127 72.8170058,0 94.5299306,0 L97.4700694,0 C119.182994,0 121,10.127 121,20.5 C121,32.5686429 110.721275,41 96,41 Z M94.3853606,6 C75,6 75,12.8410159 75,21.5015498 C75,28.5719428 78.1194833,37 92.9709365,37 L96,37 C108.364909,37 117,30.6270373 117,21.5015498 C117,12.8410159 117,6 97.6146394,6 L94.3853606,6 Z" fill-rule="nonzero"/><path id="x10" d="M2.95454545,5.77156439 C3.64590909,5.09629136 11.2095455,0 32.5,0 C50.3513636,0 54.1302273,1.85267217 59.8502273,4.6518809 L60.2689233,4.85850899 C60.6666014,4.99901896 62.7002447,5.68982981 65.0790606,5.76579519 C67.2462948,5.67278567 69.1000195,5.08540191 69.641698,4.89719767 C76.1703915,1.7220864 82.5610971,0 97.5,0 C118.790455,0 126.354091,5.09629136 127.045455,5.77156439 C128.679318,5.77156439 130,7.06150904 130,8.65734659 L130,11.5431288 C130,13.1389663 128.679318,14.428911 127.045455,14.428911 C127.045455,14.428911 120.143997,14.428911 120.143997,17.3146932 C120.143997,20.2004754 118.181818,13.1389663 118.181818,11.5431288 L118.181818,8.73240251 C114.578575,7.35340151 108.128411,4.78617535 97.5,4.78617535 C85.6584651,4.78617535 79.7610984,6.88602813 74.7022935,8.97112368 L74.7588636,9.10752861 L74.7563667,11.0937608 L72.5391666,16.4436339 L69.8004908,15.3608351 C69.5558969,15.2641292 69.0281396,15.090392 68.2963505,14.9099044 C66.256272,14.4067419 64.1589087,14.253569 62.3040836,14.6343084 C61.6235903,14.7739931 60.9922286,14.9836085 60.4128127,15.266732 L57.7704824,16.5578701 L55.1266751,11.3962031 L55.2440909,9.10175705 L55.3248203,8.90683855 C50.9620526,6.87386374 46.9392639,4.78617535 32.5,4.78617535 C21.8721459,4.78617535 15.422131,7.3524397 11.8181818,8.7314671 L11.8181818,11.5431288 C11.8181818,13.1389663 8.86363636,20.2004754 8.86363636,17.3146932 C8.86363636,14.428911 2.95454545,14.428911 2.95454545,14.428911 C1.32363636,14.428911 0,13.1389663 0,11.5431288 L0,8.65734659 C0,7.06150904 1.32363636,5.77156439 2.95454545,5.77156439 Z" fill-rule="nonzero"/></g></g> </g></g></g> </g></g></g></g></svg>