<?xml version="1.0" encoding="utf-8" ?><!DOCTYPE svg PUBLIC "-//W3C//DTD SVG 1.1//EN" "http://www.w3.org/Graphics/SVG/1.1/DTD/svg11.dtd"><svg width="280px" height="280px" viewBox="-6 0 274 280" version="1.1" xmlns="http://www.w3.org/2000/svg" xmlns:xlink="http://www.w3.org/1999/xlink"><desc>Py-Avataaars</desc> <g id="x30" stroke="none" stroke-width="1" fill="none" fill-rule="evenodd"><defs><circle id="x20" cx="120" cy="120" r="120"/><path id="x12" d="M12,160 C12,226.27417 65.72583,280 132,280 C198.27417,280 252,226.27417 252,160 L264,160 L264,-1.42108547e-14 L-3.19744231e-14,-1.42108547e-14 L-3.19744231e-14,160 L12,160 Z"/><path id="x13" d="M124,144.610951 L124,163 L128,163 L128,163 C167.764502,163 200,195.235498 200,235 L200,244 L0,244 L0,235 C-4.86974701e-15,195.235498 32.235498,163 72,163 L72,163 L76,163 L76,144.610951 C58.7626345,136.422372 46.3722246,119.687011 44.3051388,99.8812385 C38.4803105,99.0577866 34,94.0521096 34,88 L34,74 C34,68.0540074 38.3245733,63.1180731 44,62.1659169 L44,56 L44,56 C44,25.072054 69.072054,5.68137151e-15 100,0 L100,0 L100,0 C130.927946,-5.68137151e-15 156,25.072054 156,56 L156,62.1659169 C161.675427,63.1180731 166,68.0540074 166,74 L166,88 C166,94.0521096 161.51969,99.0577866 155.694861,99.8812385 C153.627775,119.687011 141.237365,136.422372 124,144.610951 Z"/></defs><g id="x28" transform="translate(-825,-1100)"><g transform="translate(825,1100)"> <g id="x29" stroke-width="1" fill-rule="evenodd" mask="url('#py-avataaars-path-e160f462-3d76-401b-a8b4-0b2c0acd140f')"><g id="x27" transform="translate(32,36)"><mask id="x18" fill="#FFFFFF"><use xlink:href="#x13"/></mask><use fill="#D0C6AC" xlink:href="#x13"/><g id="py-avataaars-skin-dark_brown" mask="url('#x18')" fill="#AE5D29"><g transform="translate(0,0)" id="x11"><rect x="0" y="0" width="264" height="280"/></g></g> <path id="x26" d="M156,79 L156,102 C156,132.927946 130.927946,158 100,158 C69.072054,158 44,132.927946 44,102 L44,79 L44,94 C44,124.927946 69.072054,150 100,150 C130.927946,150 156,124.927946 156,94 L156,79 Z" fill-opacity="0.1" fill="#000000" mask="url('#x18')"/></g><g id="x50" transform="translate(0,170)"><defs><path id="x16" d="M165.960472,29.2949161 C202.936473,32.3249982 232,63.2942856 232,101.051724 L232,110 L32,110 L32,101.051724 C32,62.9525631 61.591985,31.7649812 99.0454063,29.2195264 C99.0152598,29.5931145 99,29.9692272 99,30.3476251 C99,42.2107177 113.998461,51.8276544 132.5,51.8276544 C151.001539,51.8276544 166,42.2107177 166,30.3476251 C166,29.9946691 165.986723,29.6437014 165.960472,29.2949161 Z"/></defs><mask id="x23" fill="#FFFFFF"><use xlink:href="#x16"/></mask><use id="x49" fill="#E6E6E6" fill-rule="evenodd" xlink:href="#x16"/><g id="x51" mask="url('#x23')" fill-rule="evenodd" fill="#FFFFFF"><rect id="x52" x="0" y="0" width="264" height="110"/></g> <g id="x47" opacity="0.6" stroke-width="1" fill-rule="evenodd" mask="url('#x23')" fill-opacity="0.16" fill="#000000"><g transform="translate(92,4)" id="x48"><ellipse cx="40.5" cy="27.8476251" rx="39.6351047" ry="26.9138272"/></g></g></g><g id="x46" transform="translate(76,82)" fill="#000000"><g id="x37" transform="translate(2,52)"><defs><path id="x19" d="M29,15.6086957 C30.410031,25.2313711 41.062182,33 54,33 C66.9681454,33 77.6461342,25.183301 79,14.7391304 C79.1012093,14.3397326 78.775269,13 76.826087,13 C56.838426,13 41.7395748,13 31.173913,13 C29.3833142,13 28.870211,14.2404669 29,15.6086957 Z"/><rect id="x17" x="39" y="2" width="31" height="16" rx="5"/></defs><mask id="x25" fill="#FFFFFF"><use xlink:href="#x19"/></mask><use id="x36" fill-opacity="0.7" fill="#000000" fill-rule="evenodd" xlink:href="#x19"/><use id="x35" stroke-width="1" fill-rule="evenodd" mask="url('#x25')" fill="#FFFFFF" xlink:href="#x17"/><path id="x34" d="M65.9841079,23.7466656 C65.9945954,23.8296335 66,23.9141856 66,24 L66,33 C66,39.0751322 61.0751322,44 55,44 L54,44 C47.9248678,44 43,39.0751322 43,33 L43,24 L43,24 C43,23.9141856 43.0054046,23.8296335 43.0158921,23.7466656 C43.0053561,23.6651805 43,23.5829271 43,23.5 C43,21.5670034 45.9101491,20 49.5,20 C51.510438,20 53.3076958,20.4914717 54.5,21.2634601 C55.6923042,20.4914717 57.489562,20 59.5,20 C63.0898509,20 66,21.5670034 66,23.5 C66,23.5829271 65.9946439,23.6651805 65.9841079,23.7466656 Z" fill="#FF4F6D" fill-rule="evenodd"/></g><g id="x33" transform="translate(28,40)" fill-opacity="0.16"><path id="x32" d="M16,8 C16,12.418278 21.372583,16 28,16 L28,16 C34.627417,16 40,12.418278 40,8"/></g><g id="x42" transform="translate(0,8)"><circle id="x39" fill="#FFFFFF" cx="30" cy="22" r="14"/><circle id="x38" fill="#FFFFFF" cx="82" cy="22" r="14"/><circle id="x41" fill-opacity="0.7" fill="#000000" cx="30" cy="14" r="6"/><circle id="x40" fill-opacity="0.7" fill="#000000" cx="82" cy="14" r="6"/></g><g id="x45" fill-opacity="0.6"><path id="x44" d="M44.8565785,12.2282877 C44.8578785,12.2192877 44.8578785,12.2192877 44.8565785,12.2282877 M17.5862288,7.89238094 C15.2441598,8.3302947 13.0866155,9.78806858 12.1523766,12.0987479 C11.8009169,12.967391 11.3917103,14.9243181 11.7083227,15.8073302 C11.8284629,16.14295 12.0332321,16.1008692 12.9555234,16.0430509 C14.643791,15.9369937 16.9330912,13.6622369 18.7484684,13.2557982 C21.2753939,12.6899315 23.9825295,13.1148447 26.4961798,13.6882381 C30.8109365,14.6725177 36.4854008,17.7875215 40.9461842,16.1699775 C41.2783949,16.0495512 45.6210294,12.9225732 44.3685187,12.2769925 C43.9238011,11.9068186 41.1370145,12.0854053 40.6216067,11.9988489 C38.2277647,11.5971998 35.7297127,10.9345131 33.373373,10.3265657 C28.2329017,9.00016592 22.9666484,6.88073171 17.5862288,7.89238094" transform="translate(28.094701, 12.127505) rotate(17.0) translate(-28.094701, -12.127505)"/><path id="x43" d="M100.918293,12.2094196 C100.919593,12.2004196 100.919593,12.2004196 100.918293,12.2094196 M73.5862288,7.89238094 C71.2441598,8.3302947 69.0866155,9.78806858 68.1523766,12.0987479 C67.8009169,12.967391 67.3917103,14.9243181 67.7083227,15.8073302 C67.8284629,16.14295 68.0332321,16.1008692 68.9555234,16.0430509 C70.643791,15.9369937 72.9330912,13.6622369 74.7484684,13.2557982 C77.2753939,12.6899315 79.9825295,13.1148447 82.4961798,13.6882381 C86.8109365,14.6725177 92.4854008,17.7875215 96.9461842,16.1699775 C97.2783949,16.0495512 101.621029,12.9225732 100.368519,12.2769925 C99.9238011,11.9068186 97.1370145,12.0854053 96.6216067,11.9988489 C94.2277647,11.5971998 91.7297127,10.9345131 89.373373,10.3265657 C84.2329017,9.00016592 78.9666484,6.88073171 73.5862288,7.89238094" transform="translate(84.094701, 12.127505) scale(-1, 1) rotate(17.0) translate(-84.094701, -12.127505)"/></g></g><g id="x0" stroke-width="1" fill-rule="evenodd"><defs><rect id="x15" x="0" y="0" width="264" height="280"/><path id="x14" d="M8.46130289,88.6935361 C8.16088005,89.7438903 8,90.8531574 8,92 L8,105 C8,111.018625 12.4308707,116.002364 18.2085808,116.867187 C19.9518066,137.114792 32.4692178,154.282984 50,162.610951 L50,181 L46,181 L46,181 C30.3810228,181 15.9236322,185.973344 4.12503673,194.422823 C1.45272918,186.776619 1.52589027e-14,178.557961 1.42108547e-14,170 L0,74 L0,74 C-5.00501776e-15,33.1309285 33.1309285,7.50752664e-15 74,0 L74,0 L74,0 C114.869071,-7.50752664e-15 148,33.1309285 148,74 L148,170 C148,178.557961 146.547271,186.776619 143.874963,194.422823 C132.076368,185.973344 117.618977,181 102,181 L102,181 L98,181 L98,162.610951 C115.530782,154.282984 128.048193,137.114792 129.791419,116.867187 C135.569129,116.002364 140,111.018625 140,105 L140,92 C140,90.3107559 139.650957,88.7030352 139.021057,87.2450254 C126.064756,85.0568849 111.478699,79.7686298 97.1489304,71.4953343 C85.0171781,64.4910638 74.6464677,56.2579416 66.6695083,47.752196 C70.0963393,55.6604321 74.2459335,62.5880409 79.118291,68.5350224 C66.4431108,63.0120855 57.8126345,54.1324394 53.2268621,41.8960843 C52.8490267,42.8180234 52.455505,43.738913 52.0461952,44.6582378 C42.206947,66.7575512 25.5911314,82.6819966 8.46130289,88.6935361 Z"/><path id="x21" d="M65.1802189,77.7372986 C67.3631845,76.1045334 80.4065113,75.4786511 82.757829,74.0894494 C83.4916461,73.6553857 84.0610723,73.215719 84.4997781,72.7800074 C84.938814,73.215719 85.5085703,73.6553857 86.2423874,74.0894494 C88.593375,75.4786511 101.636702,76.1045334 103.819667,77.7372986 C106.030032,79.3908276 107.643571,83.1846831 107.466966,86.15095 C107.255041,89.7101408 103.361486,98.2028927 93.6723269,99.1811016 C91.5576925,96.8281927 88.2368647,95.3104528 84.4997781,95.3104528 C80.7633517,95.3104528 77.4421938,96.8281927 75.3275594,99.1811016 C65.6387308,98.2028927 61.7451757,89.7101408 61.5332501,86.15095 C61.3566455,83.1846831 62.9701849,79.3908276 65.1802189,77.7372986 M103.141638,94.9063813 C103.142958,94.9057221 103.144609,94.905063 103.145929,94.9047334 C103.144278,94.905063 103.142958,94.9057221 103.141638,94.9063813 M65.8453747,94.9014375 C65.8493359,94.9030855 65.8565982,94.9057221 65.8618798,94.9076997 C65.8565982,94.9057221 65.8509864,94.9034151 65.8453747,94.9014375 M144.86259,55.9853335 C144.47439,50.0303878 143.277769,44.1519058 142.233986,38.2862777 C141.952739,36.7072349 140.423706,26 139.734783,26 C139.502391,35.1094058 138.701893,44.0803858 137.669664,53.1393651 C137.361018,55.8475668 137.037848,58.5564277 136.825262,61.2741874 C136.653609,63.4695546 136.959614,66.1220564 136.427819,68.2455739 C135.749129,70.9524573 132.348087,73.4783984 129.702978,74.410795 C123.102915,76.7373371 117.597802,67.1077689 111.960977,64.2911336 C104.643272,60.6347152 92.0637391,59.7639895 84.5816434,64.5297918 C76.9361472,59.7639895 64.356614,60.6347152 57.0389092,64.2911336 C51.4024147,67.1077689 45.8969708,76.7373371 39.2972383,74.410795 C36.6521296,73.4783984 33.2504268,70.9524573 32.572397,68.2455739 C32.0402723,66.1220564 32.346277,63.4695546 32.174954,61.2741874 C31.9623682,58.5564277 31.6388681,55.8475668 31.3302226,53.1393651 C30.2983232,44.0803858 29.4974953,35.1094058 29.2654335,26 C28.5761802,26 27.0468169,36.7072349 26.7658999,38.2862777 C25.7221169,44.1519058 24.5258266,50.0303878 24.1376265,55.9853335 C23.738533,62.1047422 24.2148704,68.1674622 25.4695887,74.1632765 C26.0687242,77.0277016 26.7685407,79.8756475 27.518863,82.7041478 C28.352701,85.8467429 27.198994,91.9661516 27.5723395,95.1921317 C28.2787581,101.29572 31.1542781,113.199679 34.3833375,118.45096 C35.9440605,120.989096 37.7734867,122.573742 39.816489,124.619148 C41.7825775,126.58809 42.6038717,129.640049 44.7260985,131.73687 C48.6820428,135.645092 54.4456266,137.971304 60.3656788,138.543134 C65.6773527,143.050212 74.505605,146 84.4997781,146 C94.4946114,146 103.322534,143.050212 108.634538,138.543134 C114.55393,137.971304 120.317843,135.645092 124.274118,131.73687 C126.396015,129.640049 127.217309,126.58809 129.183727,124.619148 C131.2264,122.573742 133.055826,120.989096 134.616879,118.45096 C137.845608,113.199679 140.721458,101.29572 141.427547,95.1921317 C141.800892,91.9661516 140.647185,85.8467429 141.481353,82.7041478 C142.231676,79.8756475 142.931162,77.0277016 143.530628,74.1632765 C144.784686,68.1674622 145.261353,62.1047422 144.86259,55.9853335 Z"/></defs><mask id="x24" fill="#FFFFFF"><use xlink:href="#x15"/></mask><g id="x2"/><g id="x4" mask="url('#x24')"><g transform="translate(-1,0)"><g id="x3" stroke-width="1" fill="none" fill-rule="evenodd" transform="translate(59,18)"><mask id="x22" fill="#FFFFFF"><use xlink:href="#x14"/></mask><use fill="#ECC797" xlink:href="#x14"/><g id="x5-pastel_pink" mask="url('#x22')" fill="#F59797"><g transform="translate(0,0) " id="x5"><rect x="0" y="0" width="264" height="280"/></g></g> </g><path id="x1" d="M59,102.418954 L59,108.837908 C78.9453743,105.750496 99.5895621,88.3902571 111.046195,62.6582378 C111.455505,61.738913 111.849027,60.8180234 112.226862,59.8960843 C116.231662,70.5822127 123.321236,78.70828 133.495584,84.2742862 C134.956498,86.4697241 136.497401,88.5566361 138.118291,90.5350224 C125.443111,85.0120855 116.812635,76.1324394 112.226862,63.8960843 C111.849027,64.8180234 111.455505,65.738913 111.046195,66.6582378 C99.5895621,92.3902571 78.9453743,109.750496 59,112.837908 L59,102.418954 Z M207,101.140388 L207,110.280776 C192.046922,109.412723 173.901259,103.744646 156.14893,93.4953343 C145.87623,87.5643877 136.866205,80.7523483 129.502994,73.639773 C128.137922,71.1289501 126.860094,68.4997578 125.669508,65.752196 C133.646468,74.2579416 144.017178,82.4910638 156.14893,89.4953343 C173.901259,99.7446457 192.046922,105.412723 207,106.280776 L207,101.140388 Z" fill-opacity="0.16" fill="#000000" fill-rule="evenodd"/><g id="x10" fill="none" transform="translate(62,85)" stroke-width="1"><defs><filter id="x31" x="-0.8%" y="-2.4%" width="101.5%" height="109.8%" filterUnits="objectBoundingBox"><feOffset dx="0" dy="2" in="SourceAlpha" result="shadowOffsetOuter1"/><feColorMatrix values="0 0 0 0 0 0 0 0 0 0 0 0 0 0 0 0 0 0 0.2 0" type="matrix" in="shadowOffsetOuter1" result="shadowMatrixOuter1"/><feMerge><feMergeNode in="shadowMatrixOuter1"/><feMergeNode in="SourceGraphic"/></feMerge></filter></defs><g id="x6" filter="url('#x31')" transform="translate(6,7)" fill="#252C2F"><path id="x9" d="M34,41 L31.2421498,41 C17.3147125,41 9,33.3359286 9,20.5 C9,10.127 10.8170058,0 32.5299306,0 L35.4700694,0 C57.1829942,0 59,10.127 59,20.5 C59,32.5686429 48.7212748,41 34,41 Z M32.3853606,6 C13,6 13,12.8410159 13,21.5015498 C13,28.5719428 16.116254,37 30.9709365,37 L34,37 C46.3649085,37 55,30.6270373 55,21.5015498 C55,12.8410159 55,6 35.6146394,6 L32.3853606,6 Z" fill-rule="nonzero"/><path id="x8" d="M96,41 L93.2421498,41 C79.3147125,41 71,33.3359286 71,20.5 C71,10.127 72.8170058,0 94.5299306,0 L97.4700694,0 C119.182994,0 121,10.127 121,20.5 C121,32.5686429 110.721275,41 96,41 Z M94.3853606,6 C75,6 75,12.8410159 75,21.5015498 C75,28.5719428 78.1194833,37 92.9709365,37 L96,37 C108.364909,37 117,30.6270373 117,21.5015498 C117,12.8410159 117,6 97.6146394,6 L94.3853606,6 Z" fill-rule="nonzero"/><path id="x7" d="M2.95454545,5.77156439 C3.64590909,5.09629136 11.2095455,0 32.5,0 C50.3513636,0 54.1302273,1.85267217 59.8502273,4.6518809 L60.2689233,4.85850899 C60.6666014,4.99901896 62.7002447,5.68982981 65.0790606,5.76579519 C67.2462948,5.67278567 69.1000195,5.08540191 69.641698,4.89719767 C76.1703915,1.7220864 82.5610971,0 97.5,0 C118.790455,0 126.354091,5.09629136 127.045455,5.77156439 C128.679318,5.77156439 130,7.06150904 130,8.65734659 L130,11.5431288 C130,13.1389663 128.679318,14.428911 127.045455,14.428911 C127.045455,14.428911 120.143997,14.428911 120.143997,17.3146932 C120.143997,20.2004754 118.181818,13.1389663 118.181818,11.5431288 L118.181818,8.73240251 C114.578575,7.35340151 108.128411,4.78617535 97.5,4.78617535 C85.6584651,4.78617535 79.7610984,6.88602813 74.7022935,8.97112368 L74.7588636,9.10752861 L74.7563667,11.0937608 L72.5391666,16.4436339 L69.8004908,15.3608351 C69.5558969,15.2641292 69.0281396,15.090392 68.2963505,14.9099044 C66.256272,14.4067419 64.1589087,14.253569 62.3040836,14.6343084 C61.6235903,14.7739931 60.9922286,14.9836085 60.4128127,15.266732 L57.7704824,16.5578701 L55.1266751,11.3962031 L55.2440909,9.10175705 L55.3248203,8.90683855 C50.9620526,6.87386374 46.9392639,4.78617535 32.5,4.78617535 C21.8721459,4.78617535 15.422131,7.3524397 11.8181818,8.7314671 L11.8181818,11.5431288 C11.8181818,13.1389663 8.86363636,20.2004754 8.86363636,17.3146932 C8.86363636,14.428911 2.95454545,14.428911 2.95454545,14.428911 C1.32363636,14.428911 0,13.1389663 0,11.5431288 L0,8.65734659 C0,7.06150904 1.32363636,5.77156439 2.95454545,5.77156439 Z" fill-rule="nonzero"/></g></g> </g></g></g> </g></g></g></g></svg>