<?xml version="1.0" encoding="utf-8" ?><!DOCTYPE svg PUBLIC "-//W3C//DTD SVG 1.1//EN" "http://www.w3.org/Graphics/SVG/1.1/DTD/svg11.dtd"><svg width="280px" height="280px" viewBox="-6 0 274 280" version="1.1" xmlns="http://www.w3.org/2000/svg" xmlns:xlink="http://www.w3.org/1999/xlink"><desc>Py-Avataaars</desc> <g id="x30" stroke="none" stroke-width="1" fill="none" fill-rule="evenodd"><defs><circle id="x20" cx="120" cy="120" r="120"/><path id="x14" d="M12,160 C12,226.27417 65.72583,280 132,280 C198.27417,280 252,226.27417 252,160 L264,160 L264,-1.42108547e-14 L-3.19744231e-14,-1.42108547e-14 L-3.19744231e-14,160 L12,160 Z"/><path id="x13" d="M124,144.610951 L124,163 L128,163 L128,163 C167.764502,163 200,195.235498 200,235 L200,244 L0,244 L0,235 C-4.86974701e-15,195.235498 32.235498,163 72,163 L72,163 L76,163 L76,144.610951 C58.7626345,136.422372 46.3722246,119.687011 44.3051388,99.8812385 C38.4803105,99.0577866 34,94.0521096 34,88 L34,74 C34,68.0540074 38.3245733,63.1180731 44,62.1659169 L44,56 L44,56 C44,25.072054 69.072054,5.68137151e-15 100,0 L100,0 L100,0 C130.927946,-5.68137151e-15 156,25.072054 156,56 L156,62.1659169 C161.675427,63.1180731 166,68.0540074 166,74 L166,88 C166,94.0521096 161.51969,99.0577866 155.694861,99.8812385 C153.627775,119.687011 141.237365,136.422372 124,144.610951 Z"/></defs><g id="x28" transform="translate(-825,-1100)"><g transform="translate(825,1100)"> <g id="x29" stroke-width="1" fill-rule="evenodd" mask="url('#py-avataaars-path-a92d692b-8f13-42fc-88d7-eeb3528306bd')"><g id="x27" transform="translate(32,36)"><mask id="x19" fill="#FFFFFF"><use xlink:href="#x13"/></mask><use fill="#D0C6AC" xlink:href="#x13"/><g id="x12" mask="url('#x19')" fill="#D08B5B"><g transform="translate(0,0)" id="x11"><rect x="0" y="0" width="264" height="280"/></g></g> <path id="x26" d="M156,79 L156,102 C156,132.927946 130.927946,158 100,158 C69.072054,158 44,132.927946 44,102 L44,79 L44,94 C44,124.927946 69.072054,150 100,150 C130.927946,150 156,124.927946 156,94 L156,79 Z" fill-opacity="0.1" fill="#000000" mask="url('#x19')"/></g><g id="x48" transform="translate(0,170)"><defs><path id="x17" d="M165.624032,29.2681342 C202.760022,32.1373245 232,63.1798426 232,101.051724 L232,110 L32,110 L32,101.051724 C32,62.8348009 61.7752018,31.5722494 99.3929298,29.1967444 C99.1342224,30.2735458 99,31.3767131 99,32.5 C99,44.3741221 113.998461,54 132.5,54 C151.001539,54 166,44.3741221 166,32.5 C166,31.4015235 165.871641,30.3222877 165.624025,29.2681336 Z"/></defs><mask id="x24" fill="#FFFFFF"><use xlink:href="#x17"/></mask><use id="x47" fill="#E6E6E6" fill-rule="evenodd" xlink:href="#x17"/><g id="py-avataaars-clothes-clothe-color-palette-pastel_red" mask="url('#x24')" fill-rule="evenodd" fill="#FFAFB9"><rect id="x49" x="0" y="0" width="264" height="110"/></g><g id="x46" mask="url('#x24'" fill-rule="evenodd" fill="#FFFFFF"><g transform="translate(77,58)" id="x45"><path d="M76.9598206,16.2351328 C77.3545748,17.6603319 74.7317873,18.9054413 73.8540158,19.6535687 C72.3474717,20.9370645 70.7886986,22.2879408 69.0287021,23.2010483 C68.2808959,23.5889965 67.4755973,23.9042554 66.6674645,24.1357992 C65.420446,24.4927115 65.5625576,24.2427912 65.0864232,25.3008688 C64.2491394,27.1617948 64.0321258,29.6352706 63.2754123,31.6133978 C61.5708838,36.0670427 57.5083567,46.4138243 51.0084754,41.8719723 C48.9403681,40.4271716 47.8107637,37.6249608 46.6471497,35.4361165 C45.312678,32.9242543 44.0348889,29.927661 43.2668389,27.1858884 C42.8923285,25.8501217 43.1299908,25.3952014 42.1376394,24.7708091 C41.514535,24.3787772 40.4582132,24.2775023 39.7537287,23.9908291 C38.2544724,23.3807295 36.9414591,22.5546042 35.6656945,21.5602318 C34.4279881,20.5948534 29.5561137,16.6096049 33.5340216,15.8696448 C35.3592032,15.5298839 37.7512114,15.6560692 39.6006855,15.7495851 C41.6283052,15.8520851 43.6741443,16.3196647 45.4774626,17.2854514 C47.3184343,18.2720648 46.7783296,17.9862083 48.6865108,17.4345052 C45.3653119,16.3090472 42.0384447,14.4370952 39.8031236,11.6536693 C38.5961879,10.1508806 35.8037572,4.00047299 37.9022302,2.58875006 C40.4225841,0.893212425 40.6331197,7.93508406 41.3416529,9.15569148 C42.9344356,11.8995059 45.8495437,12.9351233 48.3844732,14.454655 C46.6435058,12.7868862 45.3446632,10.9496454 44.7106272,8.58683697 C44.4357163,7.56224546 43.6846711,5.0981621 44.1919809,4.10133952 C44.7207491,3.06123008 45.9641237,2.99507471 46.6499838,3.88041325 C47.2678248,4.67754462 47.1123524,6.5115185 47.3241026,7.47240483 C47.6739156,9.06095045 48.2451958,10.282783 49.3059712,11.5127828 C50.8113007,13.2585495 52.7227209,14.6866071 54.9750468,15.2395353 C60.1015883,16.4977125 61.8947847,11.1317769 62.5826693,6.99461605 C62.7510977,5.98186717 62.5033135,4.30184746 63.6329179,3.81589134 C65.0001846,3.22743524 65.5293577,4.56156854 65.5690356,5.59718594 C65.6564888,7.91058207 64.5127138,11.4535697 63.4029483,13.4419061 C66.1929497,11.7100238 68.4064075,8.96375923 69.3015886,5.75399867 C69.6327773,4.56646894 69.3639395,1.9182123 70.4757294,1.25134983 C72.0154733,0.327216479 72.5049686,2.16772422 72.45112,3.27317229 C72.1324825,9.78825116 67.1525061,15.7132405 60.9627599,17.341806 C62.4810453,18.1005509 62.2814414,18.2716565 63.8114683,17.3650829 C64.6961227,16.840332 65.656084,16.4352324 66.6375037,16.1342663 C68.1076089,15.6834297 69.6931038,15.453111 71.2182722,15.3183501 C72.4377591,15.2105413 76.4921887,14.5012087 76.9598206,16.2351328 Z M58.8595294,24.6214062 C59.7193936,22.4825816 56.3639386,22.4048657 56.0375022,24.7163015 C55.622102,27.6609177 58.7932497,27.8924294 58.8595294,24.6214062 Z M56.9297708,33.6367531 C57.5886752,31.4414328 53.4036129,31.5246305 53.0344702,33.4664333 C52.5980925,35.7582944 56.4400387,35.1974948 56.9297708,33.6367531 Z M51.7024587,27 C54.0260737,27 54.9736078,23.9354052 52.6986912,23.1385385 C49.8083182,22.1255453 48.8835101,27 51.7024587,27 Z"/></g></g></g><g id="x44" transform="translate(76,82)" fill="#000000"><g id="x36" transform="translate(2,52)" fill-opacity="0.7"><path id="x35" d="M40,15 C40,22.7319865 46.2680135,29 54,29 L54,29 C61.7319865,29 68,22.7319865 68,15"/></g><g id="x34" transform="translate(28,40)" fill-opacity="0.16"><path id="x33" d="M16,8 C16,12.418278 21.372583,16 28,16 L28,16 C34.627417,16 40,12.418278 40,8"/></g><g id="x39" transform="translate(0,8)" fill-opacity="0.6" fill-rule="nonzero"><path id="x38" d="M29,25.2 L34.5,30.7 C35,31.1 35.7,31.1 36.1,30.7 L37.7,29.1 C38.1,28.6 38.1,27.9 37.7,27.5 L32.2,22 L37.7,16.5 C38.1,16 38.1,15.3 37.7,14.9 L36.1,13.3 C35.6,12.9 34.9,12.9 34.5,13.3 L29,18.8 L23.5,13.3 C23,12.9 22.3,12.9 21.9,13.3 L20.3,14.9 C19.9,15.3 19.9,16 20.3,16.5 L25.8,22 L20.3,27.5 C19.9,28 19.9,28.7 20.3,29.1 L21.9,30.7 C22.4,31.1 23.1,31.1 23.5,30.7 L29,25.2 Z"/><path id="x37" d="M83,25.2 L88.5,30.7 C89,31.1 89.7,31.1 90.1,30.7 L91.7,29.1 C92.1,28.6 92.1,27.9 91.7,27.5 L86.2,22 L91.7,16.5 C92.1,16 92.1,15.3 91.7,14.9 L90.1,13.3 C89.6,12.9 88.9,12.9 88.5,13.3 L83,18.8 L77.5,13.3 C77,12.9 76.3,12.9 75.9,13.3 L74.3,14.9 C73.9,15.3 73.9,16 74.3,16.5 L79.8,22 L74.3,27.5 C73.9,28 73.9,28.7 74.3,29.1 L75.9,30.7 C76.4,31.1 77.1,31.1 77.5,30.7 L83,25.2 Z"/></g><g id="x43" fill-opacity="0.6"><g id="x42" transform="translate(12,0)"><path id="x41" d="M3.97579559,17.1279169 C5.47099148,7.60476158 18.0585488,1.10867597 27.1635167,5.30104271 C28.1668367,5.76301969 29.3546946,5.32417444 29.8166716,4.32085442 C30.2786486,3.3175344 29.8398033,2.12967649 28.8364833,1.66769952 C17.3488212,-3.62177466 1.93575948,4.3324746 0.0242044059,16.507492 C-0.147121205,17.5986938 0.598585765,18.6221744 1.68978754,18.7935 C2.78098932,18.9648257 3.80446998,18.2191187 3.97579559,17.1279169 Z" fill-rule="nonzero"/><path id="x40" d="M61.9757956,17.1279169 C63.4709915,7.60476158 76.0585488,1.10867597 85.1635167,5.30104271 C86.1668367,5.76301969 87.3546946,5.32417444 87.8166716,4.32085442 C88.2786486,3.3175344 87.8398033,2.12967649 86.8364833,1.66769952 C75.3488212,-3.62177466 59.9357595,4.3324746 58.0242044,16.507492 C57.8528788,17.5986938 58.5985858,18.6221744 59.6897875,18.7935 C60.7809893,18.9648257 61.80447,18.2191187 61.9757956,17.1279169 Z" fill-rule="nonzero" transform="translate(73.000097, 9.410436) scale(-1, 1) translate(-73.000097, -9.410436)"/></g></g></g><g id="x0" stroke-width="1" fill-rule="evenodd"><defs><rect id="x15" x="0" y="0" width="264" height="280"/><path id="x21" d="M94.2519269,52.0221149 C94.3749353,51.9677149 94.0696712,51.9468149 93.3361345,51.9595149 C94.2276637,51.9577149 94.5329279,51.9785149 94.2519269,52.0221149 M86.1169775,36.3015924 C86.1148422,36.2819924 86.1337548,36.4526924 86.1169775,36.3015924 M193.765056,70.7656665 C193.500946,67.448734 193.03295,64.1518864 192.246676,60.9110823 C191.622233,58.3353492 190.769007,55.8775343 189.760006,53.4200433 C189.150703,51.9353766 187.727538,49.8961062 187.560324,48.2944933 C187.395466,46.7168527 188.626521,44.969138 188.889285,43.1323368 C189.144311,41.3447761 189.100909,39.4652134 188.734183,37.6938503 C187.901144,33.6710288 185.140271,29.9300447 180.877167,28.8814158 C179.925362,28.6471994 177.913417,28.9358396 177.240862,28.3815597 C176.469729,27.7459682 175.932761,25.5806808 175.234637,24.7121687 C173.244224,22.2362125 170.13984,20.6417265 166.865887,21.1976261 C164.454917,21.606776 165.839391,22.1053363 164.032005,20.6864317 C163.027041,19.8976114 162.276095,18.6931622 161.300066,17.8392279 C159.832826,16.5563826 158.149588,15.4581893 156.408146,14.556958 C151.851325,12.19892 146.654249,10.4848961 141.564162,9.64942693 C132.278934,8.12523827 122.368926,9.45408458 113.368668,11.8688141 C108.890239,13.0703477 104.381531,14.5951842 100.222053,16.6117782 C98.4385542,17.4764029 97.4090304,18.1936301 95.5494951,18.4200717 C92.6207355,18.7767416 90.1404579,18.7589243 87.3661268,20.0009517 C78.8298269,23.8229236 74.9849256,32.6897818 78.3066539,41.1750259 C78.974835,42.8815988 79.8795374,44.3801954 81.1267416,45.7586062 C82.6474761,47.4392631 83.1975648,47.1085093 81.8877817,49.0411999 C79.9289949,51.9311653 78.2777195,55.0129095 76.9332826,58.2128958 C73.4043038,66.6145606 72.8138416,76.0771643 73.043634,85.0373203 C73.1240445,88.1741362 73.2586228,91.3495022 73.753198,94.4561907 C73.966841,95.8009106 74.0267283,98.3293468 75.0353925,99.3271154 C75.5471264,99.8331265 76.2762042,100.115288 77.0035997,99.9137903 C78.7130802,99.4401742 78.1253096,98.1787097 78.1650102,97.0076274 C78.364859,91.1240324 78.0950295,85.9191145 79.4943071,80.1064647 C80.5278683,75.8118486 82.2504702,71.9114806 84.4827873,68.0713675 C87.3213795,63.1871608 90.3857268,58.8977279 94.2895061,54.7155226 C95.2073299,53.7320079 95.4078515,53.3150832 96.6385698,53.243814 C97.5705244,53.1900382 98.9338023,53.8282213 99.8398505,54.0491558 C101.837665,54.5360539 103.83918,55.0174448 105.873331,55.3452831 C109.613261,55.9481556 113.316519,55.9886494 117.090094,55.8704074 C124.516459,55.6381346 131.974787,55.1172217 139.175061,53.2470535 C143.956964,52.00535 148.196516,49.7762443 152.776887,48.1422364 C152.858644,48.1130808 154.006596,47.2951049 154.207791,47.3284719 C154.488723,47.3747968 156.184746,49.1542588 156.471061,49.3784327 C158.696649,51.1238798 161.137899,51.8566566 163.541467,53.2081794 C166.504881,54.8745825 163.634999,52.4899804 165.269452,54.5668292 C165.745859,55.1716454 165.989782,56.2931632 166.371984,56.9783192 C167.587899,59.1610999 169.279548,61.0795367 171.302932,62.6017816 C173.258018,64.0725184 176.196198,64.7829426 177.193087,66.697168 C177.961865,68.1740599 178.220929,70.1812592 178.841334,71.7579279 C180.468722,75.8931602 182.617937,79.7494709 184.767152,83.6443317 C186.498502,86.7830913 188.392354,89.5250111 188.584801,93.1117947 C188.651754,94.3603012 187.463764,101.849397 190.357534,99.5716982 C190.786502,99.2341415 191.711391,95.415733 191.901483,94.7678314 C192.672616,92.135083 192.94682,89.3866841 193.29605,86.6816947 C193.990474,81.3021672 194.218584,76.1837441 193.765056,70.7656665"/><filter id="x31" x="-0.8%" y="-2.0%" width="101.5%" height="108.0%" filterUnits="objectBoundingBox"><feOffset dx="0" dy="2" in="SourceAlpha" result="shadowOffsetOuter1"/><feColorMatrix values="0 0 0 0 0 0 0 0 0 0 0 0 0 0 0 0 0 0 0.16 0" type="matrix" in="shadowOffsetOuter1" result="shadowMatrixOuter1"/><feMerge><feMergeNode in="shadowMatrixOuter1"/><feMergeNode in="SourceGraphic"/></feMerge></filter></defs><mask id="x22" fill="#FFFFFF"><use xlink:href="#x15"/></mask><g id="x1"/><g id="x3" mask="url('#x22')"><g transform="translate(-1,0)"><g id="x8" transform="translate(49,72)"><defs><path id="x16" d="M83.9980103,74.839711 C83.4569991,75.6087366 82.761047,76.2496937 81.949688,76.6891498 C73.0477917,81.5102869 63.8767499,77.3322546 58.8763101,77.6298353 C56.459601,77.7739966 53.3405442,79.4153191 52.2155358,77.6791014 C50.9768736,75.7669804 55.0680827,65.2207224 64.7214121,63.4643353 C71.7310704,62.1893309 81.4972391,63.6024033 83.9980103,66.9380109 C86.4987814,63.6024033 96.2649453,62.1893309 103.274279,63.4643353 C112.927938,65.2207224 117.019147,75.7669804 115.780485,77.6791014 C114.655476,79.4153191 111.53642,77.7739966 109.119711,77.6298353 C104.118941,77.3322546 94.948229,81.5102869 86.0463327,76.6891498 C85.2349736,76.2496937 84.5390216,75.6087366 83.9980103,74.839711 Z"/></defs><mask id="x23" fill="#FFFFFF"><use xlink:href="#x16"/></mask><use id="x6" fill="#28354B" fill-rule="evenodd" xlink:href="#x16"/><g id="x50" mask="url('#x23')" fill="#B58143"><g transform="translate(-32,0)" id="x7"><rect x="0" y="0" width="264" height="244"/></g></g></g> <mask id="x25" fill="#FFFFFF"><use xlink:href="#x21"/></mask><use id="x2" stroke="none" fill="#28354B" fill-rule="evenodd" xlink:href="#x21"/><g id="x4" mask="url('#x25')" fill="#ECDCBF"><g transform="translate(0,0) " id="x5"><rect x="0" y="0" width="264" height="280"/></g></g><g id="x10" fill="none" transform="translate(62,85)"><defs><path id="x18" d="M80.4646192,16.3941179 C84.3801509,8.45869677 92.552602,3 102,3 C110.919691,3 118.702887,7.86591082 122.839921,15.0880638 C123.050197,15.0306504 123.271519,15 123.5,15 L131.5,15 C132.880712,15 134,16.1192881 134,17.5 C134,18.8807119 132.880712,20 131.5,20 L124.963126,20 C125.637355,22.2145921 126,24.5649459 126,27 C126,40.254834 115.254834,51 102,51 C88.745166,51 78,40.254834 78,27 C78,25.5781066 78.1236513,24.1850936 78.3607874,22.8311273 C78.2762458,18.4553035 74.9135957,15 70.8624171,15 C67.1256697,15 63.9747186,17.9397535 63.4417635,21.8300629 C63.8073299,23.4951922 64,25.2250958 64,27 C64,40.254834 53.254834,51 40,51 C26.745166,51 16,40.254834 16,27 C16,24.5649459 16.3626451,22.2145921 17.0368738,20 L10.5,20 C9.11928813,20 8,18.8807119 8,17.5 C8,16.1192881 9.11928813,15 10.5,15 L10.5,15 L18.5,15 C18.728481,15 18.9498033,15.0306504 19.1600793,15.0880638 C23.2971127,7.86591082 31.0803092,3 40,3 C49.3521568,3 57.4549431,8.34919095 61.415666,16.15488 C63.4929212,13.0392725 66.9494432,11 70.8624171,11 C74.8746823,11 78.4070368,13.1440781 80.4646192,16.3941179 Z M40,47 C51.045695,47 60,38.045695 60,27 C60,15.954305 51.045695,7 40,7 C28.954305,7 20,15.954305 20,27 C20,38.045695 28.954305,47 40,47 Z M102,47 C113.045695,47 122,38.045695 122,27 C122,15.954305 113.045695,7 102,7 C90.954305,7 82,15.954305 82,27 C82,38.045695 90.954305,47 102,47 Z"/><filter id="x32" x="-0.8%" y="-2.1%" width="101.6%" height="108.3%" filterUnits="objectBoundingBox" ><feOffset in="SourceAlpha" dx="0" dy="2" result="shadowOffsetOuter1"/><feColorMatrix in="shadowOffsetOuter1" values="0 0 0 0 0 0 0 0 0 0 0 0 0 0 0 0 0 0 0.1 0" type="matrix"/></filter></defs><g id="x9"><use fill="#000000" fill-opacity="1" filter="url('#x32')" xlink:href="#x18"/><use fill="#252C2F" fill-rule="evenodd" xlink:href="#x18"/></g></g> </g></g></g> </g></g></g></g></svg>