<?xml version="1.0" encoding="utf-8" ?><!DOCTYPE svg PUBLIC "-//W3C//DTD SVG 1.1//EN" "http://www.w3.org/Graphics/SVG/1.1/DTD/svg11.dtd"><svg width="280px" height="280px" viewBox="-6 0 274 280" version="1.1" xmlns="http://www.w3.org/2000/svg" xmlns:xlink="http://www.w3.org/1999/xlink"><desc>Py-Avataaars</desc> <g id="x35" stroke="none" stroke-width="1" fill="none" fill-rule="evenodd"><defs><circle id="x18" cx="120" cy="120" r="120"/><path id="x25" d="M12,160 C12,226.27417 65.72583,280 132,280 C198.27417,280 252,226.27417 252,160 L264,160 L264,-1.42108547e-14 L-3.19744231e-14,-1.42108547e-14 L-3.19744231e-14,160 L12,160 Z"/><path id="x20" d="M124,144.610951 L124,163 L128,163 L128,163 C167.764502,163 200,195.235498 200,235 L200,244 L0,244 L0,235 C-4.86974701e-15,195.235498 32.235498,163 72,163 L72,163 L76,163 L76,144.610951 C58.7626345,136.422372 46.3722246,119.687011 44.3051388,99.8812385 C38.4803105,99.0577866 34,94.0521096 34,88 L34,74 C34,68.0540074 38.3245733,63.1180731 44,62.1659169 L44,56 L44,56 C44,25.072054 69.072054,5.68137151e-15 100,0 L100,0 L100,0 C130.927946,-5.68137151e-15 156,25.072054 156,56 L156,62.1659169 C161.675427,63.1180731 166,68.0540074 166,74 L166,88 C166,94.0521096 161.51969,99.0577866 155.694861,99.8812385 C153.627775,119.687011 141.237365,136.422372 124,144.610951 Z"/></defs><g id="x33" transform="translate(-825,-1100)"><g transform="translate(825,1100)"> <g id="x34" stroke-width="1" fill-rule="evenodd" mask="url('#py-avataaars-path-79bc9f0a-7390-48ec-a4cc-9bba4336950b')"><g id="x32" transform="translate(32,36)"><mask id="x26" fill="#FFFFFF"><use xlink:href="#x20"/></mask><use fill="#D0C6AC" xlink:href="#x20"/><g id="x16" mask="url('#x26')" fill="#F8D25C"><g transform="translate(0,0)" id="x17"><rect x="0" y="0" width="264" height="280"/></g></g> <path id="x31" d="M156,79 L156,102 C156,132.927946 130.927946,158 100,158 C69.072054,158 44,132.927946 44,102 L44,79 L44,94 C44,124.927946 69.072054,150 100,150 C130.927946,150 156,124.927946 156,94 L156,79 Z" fill-opacity="0.1" fill="#000000" mask="url('#x26')"/></g><g id="x53" transform="translate(0,170)"><defs><path id="x22" d="M165.624032,29.2681342 C202.760022,32.1373245 232,63.1798426 232,101.051724 L232,110 L32,110 L32,101.051724 C32,62.8348009 61.7752018,31.5722494 99.3929298,29.1967444 C99.1342224,30.2735458 99,31.3767131 99,32.5 C99,44.3741221 113.998461,54 132.5,54 C151.001539,54 166,44.3741221 166,32.5 C166,31.4015235 165.871641,30.3222877 165.624025,29.2681336 Z"/></defs><mask id="x29" fill="#FFFFFF"><use xlink:href="#x22"/></mask><use id="x52" fill="#E6E6E6" fill-rule="evenodd" xlink:href="#x22"/><g id="py-avataaars-clothes-clothe-color-palette-pastel_yellow" mask="url('#x29')" fill-rule="evenodd" fill="#FFFFB1"><rect id="x54" x="0" y="0" width="264" height="110"/></g><g id="x51" mask="url('#x29'" fill-rule="evenodd" fill="#FFFFFF"><g transform="translate(77,58)" id="x50"><path d="M76.9598206,16.2351328 C77.3545748,17.6603319 74.7317873,18.9054413 73.8540158,19.6535687 C72.3474717,20.9370645 70.7886986,22.2879408 69.0287021,23.2010483 C68.2808959,23.5889965 67.4755973,23.9042554 66.6674645,24.1357992 C65.420446,24.4927115 65.5625576,24.2427912 65.0864232,25.3008688 C64.2491394,27.1617948 64.0321258,29.6352706 63.2754123,31.6133978 C61.5708838,36.0670427 57.5083567,46.4138243 51.0084754,41.8719723 C48.9403681,40.4271716 47.8107637,37.6249608 46.6471497,35.4361165 C45.312678,32.9242543 44.0348889,29.927661 43.2668389,27.1858884 C42.8923285,25.8501217 43.1299908,25.3952014 42.1376394,24.7708091 C41.514535,24.3787772 40.4582132,24.2775023 39.7537287,23.9908291 C38.2544724,23.3807295 36.9414591,22.5546042 35.6656945,21.5602318 C34.4279881,20.5948534 29.5561137,16.6096049 33.5340216,15.8696448 C35.3592032,15.5298839 37.7512114,15.6560692 39.6006855,15.7495851 C41.6283052,15.8520851 43.6741443,16.3196647 45.4774626,17.2854514 C47.3184343,18.2720648 46.7783296,17.9862083 48.6865108,17.4345052 C45.3653119,16.3090472 42.0384447,14.4370952 39.8031236,11.6536693 C38.5961879,10.1508806 35.8037572,4.00047299 37.9022302,2.58875006 C40.4225841,0.893212425 40.6331197,7.93508406 41.3416529,9.15569148 C42.9344356,11.8995059 45.8495437,12.9351233 48.3844732,14.454655 C46.6435058,12.7868862 45.3446632,10.9496454 44.7106272,8.58683697 C44.4357163,7.56224546 43.6846711,5.0981621 44.1919809,4.10133952 C44.7207491,3.06123008 45.9641237,2.99507471 46.6499838,3.88041325 C47.2678248,4.67754462 47.1123524,6.5115185 47.3241026,7.47240483 C47.6739156,9.06095045 48.2451958,10.282783 49.3059712,11.5127828 C50.8113007,13.2585495 52.7227209,14.6866071 54.9750468,15.2395353 C60.1015883,16.4977125 61.8947847,11.1317769 62.5826693,6.99461605 C62.7510977,5.98186717 62.5033135,4.30184746 63.6329179,3.81589134 C65.0001846,3.22743524 65.5293577,4.56156854 65.5690356,5.59718594 C65.6564888,7.91058207 64.5127138,11.4535697 63.4029483,13.4419061 C66.1929497,11.7100238 68.4064075,8.96375923 69.3015886,5.75399867 C69.6327773,4.56646894 69.3639395,1.9182123 70.4757294,1.25134983 C72.0154733,0.327216479 72.5049686,2.16772422 72.45112,3.27317229 C72.1324825,9.78825116 67.1525061,15.7132405 60.9627599,17.341806 C62.4810453,18.1005509 62.2814414,18.2716565 63.8114683,17.3650829 C64.6961227,16.840332 65.656084,16.4352324 66.6375037,16.1342663 C68.1076089,15.6834297 69.6931038,15.453111 71.2182722,15.3183501 C72.4377591,15.2105413 76.4921887,14.5012087 76.9598206,16.2351328 Z M58.8595294,24.6214062 C59.7193936,22.4825816 56.3639386,22.4048657 56.0375022,24.7163015 C55.622102,27.6609177 58.7932497,27.8924294 58.8595294,24.6214062 Z M56.9297708,33.6367531 C57.5886752,31.4414328 53.4036129,31.5246305 53.0344702,33.4664333 C52.5980925,35.7582944 56.4400387,35.1974948 56.9297708,33.6367531 Z M51.7024587,27 C54.0260737,27 54.9736078,23.9354052 52.6986912,23.1385385 C49.8083182,22.1255453 48.8835101,27 51.7024587,27 Z"/></g></g></g><g id="x49" transform="translate(76,82)" fill="#000000"><g id="x41" transform="translate(2,52)" fill="#000000" fill-opacity="0.7"><rect id="x40" x="42" y="18" width="24" height="6" rx="3"/></g><g id="x39" transform="translate(28,40)" fill-opacity="0.16"><path id="x38" d="M16,8 C16,12.418278 21.372583,16 28,16 L28,16 C34.627417,16 40,12.418278 40,8"/></g><g id="x45" transform="translate(0,8)"><circle id="x43" fill-opacity="0.6" fill="#000000" fill-rule="evenodd" cx="30" cy="22" r="6"/><path id="x44" d="M25,27 C25,27 19,34.2706667 19,38.2706667 C19,41.5846667 21.686,44.2706667 25,44.2706667 C28.314,44.2706667 31,41.5846667 31,38.2706667 C31,34.2706667 25,27 25,27 Z" fill="#92D9FF" fill-rule="nonzero"/><circle id="x42" fill-opacity="0.6" fill="#000000" fill-rule="evenodd" cx="82" cy="22" r="6"/></g><g id="x48" fill-opacity="0.6" fill-rule="nonzero"><path id="x47" d="M15.9726042,19.4088529 C17.452356,11.0203704 30.0622688,5.22829657 39.2106453,8.9774793 C40.2254706,9.39337449 41.4016967,8.94600219 41.8378196,7.97824531 C42.2739426,7.01048842 41.8048116,5.88881678 40.7899862,5.47292159 C29.3457328,0.782843812 13.9550264,7.85221132 12.0280273,18.7760684 C11.84479,19.8148122 12.5792704,20.798534 13.6685352,20.9732726 C14.7578,21.1480113 15.7893668,20.4475967 15.9726042,19.4088529 Z" transform="translate(27.000414, 12.500000) scale(-1, -1) translate(-27.000414, -12.500000)"/><path id="x46" d="M73.9726042,19.4088529 C75.452356,11.0203704 88.0622688,5.22829657 97.2106453,8.9774793 C98.2254706,9.39337449 99.4016967,8.94600219 99.8378196,7.97824531 C100.273943,7.01048842 99.8048116,5.88881678 98.7899862,5.47292159 C87.3457328,0.782843812 71.9550264,7.85221132 70.0280273,18.7760684 C69.84479,19.8148122 70.5792704,20.798534 71.6685352,20.9732726 C72.7578,21.1480113 73.7893668,20.4475967 73.9726042,19.4088529 Z" transform="translate(85.000414, 12.500000) scale(1, -1) translate(-85.000414, -12.500000)"/></g></g><g id="x0"><defs><rect id="x23" x="0" y="0" width="264" height="280"/><path id="x21" d="M120,54 L20,54 L20,155 C20,160.522847 15.5228475,165 10,165 C4.4771525,165 6.76353751e-16,160.522847 0,155 L0,54 L0,44 C-2.9759565e-15,19.699471 19.699471,4.46393476e-15 44,0 L96,0 C120.300529,-4.46393476e-15 140,19.699471 140,44 L140,54 L140,155 C140,160.522847 135.522847,165 130,165 C124.477153,165 120,160.522847 120,155 L120,54 Z"/><filter id="x37" x="-0.8%" y="-2.8%" width="101.7%" height="111.1%" filterUnits="objectBoundingBox"><feOffset dx="0" dy="2" in="SourceAlpha" result="shadowOffsetOuter1"/><feColorMatrix values="0 0 0 0 0 0 0 0 0 0 0 0 0 0 0 0 0 0 0.1 0" type="matrix" in="shadowOffsetOuter1"/></filter><rect id="x19" x="74" y="50" width="118" height="36" rx="8"/></defs><mask id="x28" fill="#FFFFFF"><use xlink:href="#x19"/></mask><g id="x1"/><g id="x6" transform="translate(-1,0)"><g id="x5" stroke-width="1" fill-rule="evenodd" transform="translate(63,20)"><path id="x2" d="M1,48 L23.6714286,48 L23.6714286,153.664286 C23.6714286,159.924828 18.5962564,165 12.3357143,165 C6.07517216,165 1,159.924828 1,153.664286 L1,48 Z M116.328571,48 L139,48 L139,153.664286 C139,159.924828 133.924828,165 127.664286,165 C121.403744,165 116.328571,159.924828 116.328571,153.664286 L116.328571,48 Z" fill="#F4F4F4"/><mask id="x27" fill="#FFFFFF"><use xlink:href="#x21"/></mask><use id="x3" fill="#D8D8D8" xlink:href="#x21"/><g id="py-avataaars-top-hat-color-blue_02" mask="url('#x27')" fill-rule="evenodd" fill="#5199E4"><rect id="x7" x="0" y="0" width="264" height="280"/></g> </g><g id="x4"><use fill="#000000" fill-opacity="1" filter="url('#x21')" xlink:href="#x19"/><use fill="#F4F4F4" fill-rule="evenodd" xlink:href="#x19"/></g><g id="x10" transform="translate(49,72)"><defs><path id="x24" d='M105.017591,94.1296214 C101.150441,99.7213834 98.257542,95.9467308 94.1374777,92.8762163 C91.6567227,91.0272796 87.9608129,88.7275108 84.5044337,88.8410391 C81.0477114,88.7275108 77.3518016,91.0272796 74.8710466,92.8762163 C70.7509822,95.9467308 67.8580835,99.7213834 63.9909333,94.1296214 C61.0884259,89.9323547 62.3028943,82.8739117 65.014944,78.9027173 C68.8738581,73.2512381 74.1088724,75.9847769 79.9622738,75.3400279 C81.5538829,75.1648137 83.1526985,74.7228407 84.5044337,74 C85.856169,74.7228407 87.4546414,75.1648137 89.0462504,75.3400279 C94.899995,75.9847769 100.134666,73.2512381 103.993923,78.9027173 C106.70563,82.8739117 107.920098,89.9323547 105.017591,94.1296214 M140.39109,26 C136.966521,40.0748212 135.393023,54.4337754 132.909944,68.6711471 C132.392536,71.6390145 131.826063,74.5963095 131.224594,77.5496398 C131.098329,78.1697764 130.973781,80.4725746 130.362704,80.7643064 C128.511632,81.6484223 124.739149,76.9466834 123.730409,75.8851496 C121.196893,73.219256 118.684993,70.5292442 115.599415,68.437233 C109.364783,64.2102603 102.065485,61.7108818 94.4700836,61.117837 C91.2922091,60.8693859 86.9951134,61.3025234 84.000116,63.1104016 C81.0051185,61.3025234 76.7080229,60.8693859 73.5298053,61.117837 C65.9344039,61.7108818 58.6351055,64.2102603 52.4004739,68.437233 C49.3148957,70.5292442 46.8033387,73.219256 44.2694796,75.8851496 C43.2607395,76.9466834 39.4882573,81.6484223 37.6371849,80.7643064 C37.0261079,80.4725746 36.9015594,78.1697764 36.7752954,77.5496398 C36.1738255,74.5963095 35.6073527,71.6390145 35.0899445,68.6711471 C32.6072086,54.4337754 31.0337113,40.0748212 27.6091415,26 C26.6127533,26 25.7385119,44.7478165 25.6273446,46.4945731 C25.174784,53.5889755 24.6463963,60.5254529 25.3216346,67.6261326 C26.485803,79.8749043 27.6993791,95.2339402 37.032627,104.58753 C45.4659003,113.039493 57.7103052,114.806417 68.2713185,120.141327 C69.631059,120.828202 71.4347824,121.676306 73.3798667,122.37111 C75.4289129,123.934171 79.4926946,125 84.1740722,125 C89.0846465,125 93.3155222,123.827456 95.2540874,122.137856 C96.9548781,121.49261 98.5180822,120.752874 99.7285704,120.141327 C110.288776,114.805245 122.533989,113.039493 130.967262,104.58753 C140.30051,95.2339402 141.514086,79.8749043 142.678597,67.6261326 C143.353493,60.5254529 142.825105,53.5889755 142.372887,46.4945731 C142.261377,44.7478165 141.387136,26 140.39109,26 Z' /></defs><mask id="x30" fill="#FFFFFF"><use xlink:href="#x24"/></mask><use id="x9" fill="#252E32" fill-rule="evenodd" xlink:href="#x24"/><g id="x55" mask="url('#x30')" fill="#C93305"><g transform="translate(-32,0)" id="x8"><rect x="0" y="0" width="264" height="244"/></g></g></g><g id="x15" fill="none" transform="translate(62,85)" stroke-width="1"><defs><filter id="x36" x="-0.8%" y="-2.4%" width="101.5%" height="109.8%" filterUnits="objectBoundingBox"><feOffset dx="0" dy="2" in="SourceAlpha" result="shadowOffsetOuter1"/><feColorMatrix values="0 0 0 0 0 0 0 0 0 0 0 0 0 0 0 0 0 0 0.2 0" type="matrix" in="shadowOffsetOuter1" result="shadowMatrixOuter1"/><feMerge><feMergeNode in="shadowMatrixOuter1"/><feMergeNode in="SourceGraphic"/></feMerge></filter></defs><g id="x11" filter="url('#x36')" transform="translate(6,7)" fill="#252C2F"><path id="x14" d="M34,41 L31.2421498,41 C17.3147125,41 9,33.3359286 9,20.5 C9,10.127 10.8170058,0 32.5299306,0 L35.4700694,0 C57.1829942,0 59,10.127 59,20.5 C59,32.5686429 48.7212748,41 34,41 Z M32.3853606,6 C13,6 13,12.8410159 13,21.5015498 C13,28.5719428 16.116254,37 30.9709365,37 L34,37 C46.3649085,37 55,30.6270373 55,21.5015498 C55,12.8410159 55,6 35.6146394,6 L32.3853606,6 Z" fill-rule="nonzero"/><path id="x13" d="M96,41 L93.2421498,41 C79.3147125,41 71,33.3359286 71,20.5 C71,10.127 72.8170058,0 94.5299306,0 L97.4700694,0 C119.182994,0 121,10.127 121,20.5 C121,32.5686429 110.721275,41 96,41 Z M94.3853606,6 C75,6 75,12.8410159 75,21.5015498 C75,28.5719428 78.1194833,37 92.9709365,37 L96,37 C108.364909,37 117,30.6270373 117,21.5015498 C117,12.8410159 117,6 97.6146394,6 L94.3853606,6 Z" fill-rule="nonzero"/><path id="x12" d="M2.95454545,5.77156439 C3.64590909,5.09629136 11.2095455,0 32.5,0 C50.3513636,0 54.1302273,1.85267217 59.8502273,4.6518809 L60.2689233,4.85850899 C60.6666014,4.99901896 62.7002447,5.68982981 65.0790606,5.76579519 C67.2462948,5.67278567 69.1000195,5.08540191 69.641698,4.89719767 C76.1703915,1.7220864 82.5610971,0 97.5,0 C118.790455,0 126.354091,5.09629136 127.045455,5.77156439 C128.679318,5.77156439 130,7.06150904 130,8.65734659 L130,11.5431288 C130,13.1389663 128.679318,14.428911 127.045455,14.428911 C127.045455,14.428911 120.143997,14.428911 120.143997,17.3146932 C120.143997,20.2004754 118.181818,13.1389663 118.181818,11.5431288 L118.181818,8.73240251 C114.578575,7.35340151 108.128411,4.78617535 97.5,4.78617535 C85.6584651,4.78617535 79.7610984,6.88602813 74.7022935,8.97112368 L74.7588636,9.10752861 L74.7563667,11.0937608 L72.5391666,16.4436339 L69.8004908,15.3608351 C69.5558969,15.2641292 69.0281396,15.090392 68.2963505,14.9099044 C66.256272,14.4067419 64.1589087,14.253569 62.3040836,14.6343084 C61.6235903,14.7739931 60.9922286,14.9836085 60.4128127,15.266732 L57.7704824,16.5578701 L55.1266751,11.3962031 L55.2440909,9.10175705 L55.3248203,8.90683855 C50.9620526,6.87386374 46.9392639,4.78617535 32.5,4.78617535 C21.8721459,4.78617535 15.422131,7.3524397 11.8181818,8.7314671 L11.8181818,11.5431288 C11.8181818,13.1389663 8.86363636,20.2004754 8.86363636,17.3146932 C8.86363636,14.428911 2.95454545,14.428911 2.95454545,14.428911 C1.32363636,14.428911 0,13.1389663 0,11.5431288 L0,8.65734659 C0,7.06150904 1.32363636,5.77156439 2.95454545,5.77156439 Z" fill-rule="nonzero"/></g></g> </g></g> </g></g></g></g></svg>