<?xml version="1.0" encoding="utf-8" ?><!DOCTYPE svg PUBLIC "-//W3C//DTD SVG 1.1//EN" "http://www.w3.org/Graphics/SVG/1.1/DTD/svg11.dtd"><svg width="280px" height="280px" viewBox="-6 0 274 280" version="1.1" xmlns="http://www.w3.org/2000/svg" xmlns:xlink="http://www.w3.org/1999/xlink"><desc>Py-Avataaars</desc> <g id="x36" stroke="none" stroke-width="1" fill="none" fill-rule="evenodd"><defs><circle id="x24" cx="120" cy="120" r="120"/><path id="x17" d="M12,160 C12,226.27417 65.72583,280 132,280 C198.27417,280 252,226.27417 252,160 L264,160 L264,-1.42108547e-14 L-3.19744231e-14,-1.42108547e-14 L-3.19744231e-14,160 L12,160 Z"/><path id="x19" d="M124,144.610951 L124,163 L128,163 L128,163 C167.764502,163 200,195.235498 200,235 L200,244 L0,244 L0,235 C-4.86974701e-15,195.235498 32.235498,163 72,163 L72,163 L76,163 L76,144.610951 C58.7626345,136.422372 46.3722246,119.687011 44.3051388,99.8812385 C38.4803105,99.0577866 34,94.0521096 34,88 L34,74 C34,68.0540074 38.3245733,63.1180731 44,62.1659169 L44,56 L44,56 C44,25.072054 69.072054,5.68137151e-15 100,0 L100,0 L100,0 C130.927946,-5.68137151e-15 156,25.072054 156,56 L156,62.1659169 C161.675427,63.1180731 166,68.0540074 166,74 L166,88 C166,94.0521096 161.51969,99.0577866 155.694861,99.8812385 C153.627775,119.687011 141.237365,136.422372 124,144.610951 Z"/></defs><g id="x34" transform="translate(-825,-1100)"><g transform="translate(825,1100)"> <g id="x35" stroke-width="1" fill-rule="evenodd" mask="url('#py-avataaars-path-7ee3ead4-488b-4f38-8096-bc0f906c8592')"><g id="x33" transform="translate(32,36)"><mask id="x20" fill="#FFFFFF"><use xlink:href="#x19"/></mask><use fill="#D0C6AC" xlink:href="#x19"/><g id="x14" mask="url('#x20')" fill="#614335"><g transform="translate(0,0)" id="x13"><rect x="0" y="0" width="264" height="280"/></g></g> <path id="x32" d="M156,79 L156,102 C156,132.927946 130.927946,158 100,158 C69.072054,158 44,132.927946 44,102 L44,79 L44,94 C44,124.927946 69.072054,150 100,150 C130.927946,150 156,124.927946 156,94 L156,79 Z" fill-opacity="0.1" fill="#000000" mask="url('#x20')"/></g><g id="x53" transform="translate(0,170)"><defs><path id="x25" d="M165.624032,29.2681342 C202.760022,32.1373245 232,63.1798426 232,101.051724 L232,110 L32,110 L32,101.051724 C32,62.8348009 61.7752018,31.5722494 99.3929298,29.1967444 C99.1342224,30.2735458 99,31.3767131 99,32.5 C99,44.3741221 113.998461,54 132.5,54 C151.001539,54 166,44.3741221 166,32.5 C166,31.4015235 165.871641,30.3222877 165.624025,29.2681336 Z"/></defs><mask id="x31" fill="#FFFFFF"><use xlink:href="#x25"/></mask><use id="x52" fill="#E6E6E6" fill-rule="evenodd" xlink:href="#x25"/><g id="py-avataaars-clothes-clothe-color-palette-pastel_green" mask="url('#x31')" fill-rule="evenodd" fill="#A7FFC4"><rect id="x54" x="0" y="0" width="264" height="110"/></g><g id="x51" mask="url('#x31'" fill-rule="evenodd" fill="#FFFFFF"><g transform="translate(77,58)" id="x50"><path d="M65.2820354,19.9288113 C64.9841617,22.7059411 59.588846,24.2025715 57.6102394,22.3766824 C56.6984983,21.5350479 56.6825881,19.8029182 56.4815012,18.6751632 C56.1014249,16.5420247 55.8256486,14.4172496 55.7306295,12.2519776 C55.6727342,10.9274596 55.3253621,9.86749314 56.7745135,9.67029008 C57.65797,9.55055964 58.5675014,10.137767 59.2896464,10.6026028 C61.736719,12.1758255 65.6201265,16.7414286 65.2820354,19.9288113 M52.8813831,14.0756657 C53.1659984,16.901216 54.2014853,21.8145656 51.9457767,24.1810024 C49.9296045,26.2960933 45.7863308,24.19905 45.1631825,21.7084809 C44.3897714,18.6188195 47.4383369,14.9274245 49.307782,12.8387447 C49.881874,12.1969544 51.151594,10.4256483 52.1442119,11.018578 C52.526056,11.2461539 52.8367463,13.6301981 52.8813831,14.0756657 M54.3212536,25.1062722 C54.9678252,23.5832306 61.2342228,28.1246236 58.2744891,30.2850536 C57.7918806,30.6376421 54.1148633,31.7513112 53.4099544,31.2274906 C51.9250051,30.1235056 53.8408548,26.2630794 54.3212536,25.1062722 M73.3250687,17.5267194 C72.8817937,2.05112066 53.065234,-2.31331777 42.4756895,6.50447654 C38.426551,9.87585667 36.113389,14.0039155 36.0073212,19.2826191 C35.9171635,23.7544627 36.6256081,27.9718792 40.0409914,31.0465744 C41.5219631,32.379896 42.5004386,33.1955596 43.2862243,35.0170469 C44.1095756,36.9234899 44.4852324,39.3524331 46.0280771,40.8495037 C46.8788292,41.6752915 48.1176128,42.3417322 49.2940816,41.8091079 C51.455655,40.8301355 50.7644465,37.8320326 51.4194152,36.1606486 C53.4559171,41.1294616 58.6302582,42.7141291 59.5694002,36.4097935 C60.6000257,38.2286397 63.2945899,40.610483 65.268335,38.6195243 C66.0806376,37.8003393 66.2030575,36.4705391 66.3409457,35.3929652 C66.5857855,33.4807998 66.1601884,32.7294032 67.6955199,31.4180909 C71.7349355,27.9683578 73.4691441,22.7464381 73.3250687,17.5267194"/></g></g></g><g id="x49" transform="translate(76,82)" fill="#000000"><g id="x41" transform="translate(2,52)" fill-opacity="0.7" fill="#000000"><path id="x40" d="M40.0582943,16.6539438 C40.7076459,23.6831146 46.7016363,28.3768187 54,28.3768187 C61.3416045,28.3768187 67.3633339,23.627332 67.9526838,16.5287605 C67.9840218,16.1513016 67.0772329,15.8529531 66.6289111,16.077395 C61.0902255,18.8502083 56.8805885,20.2366149 54,20.2366149 C51.1558456,20.2366149 47.0072148,18.8804569 41.5541074,16.168141 C41.0473376,15.9160792 40.0197139,16.2363147 40.0582943,16.6539438 Z" transform="translate(54.005357, 22.188409) scale(1, -1) translate(-54.005357, -22.188409)"/></g><g id="x39" transform="translate(28,40)" fill-opacity="0.16"><path id="x38" d="M16,8 C16,12.418278 21.372583,16 28,16 L28,16 C34.627417,16 40,12.418278 40,8"/></g><g id="x45" transform="translate(0,8)"><circle id="x43" fill-opacity="0.6" fill="#000000" fill-rule="evenodd" cx="30" cy="22" r="6"/><path id="x44" d="M25,27 C25,27 19,34.2706667 19,38.2706667 C19,41.5846667 21.686,44.2706667 25,44.2706667 C28.314,44.2706667 31,41.5846667 31,38.2706667 C31,34.2706667 25,27 25,27 Z" fill="#92D9FF" fill-rule="nonzero"/><circle id="x42" fill-opacity="0.6" fill="#000000" fill-rule="evenodd" cx="82" cy="22" r="6"/></g><g id="x48" fill-opacity="0.6" fill-rule="nonzero"><path id="x47" d="M15.5914402,14.1619718 C20.0874642,7.83556966 29.6031809,4.65350252 39.3473715,7.79575991 C40.3986323,8.13476518 41.5256656,7.55736801 41.8646708,6.50610724 C42.2036761,5.45484647 41.6262789,4.32781316 40.5750182,3.98880789 C29.1665516,0.309863172 17.8358054,4.09887835 12.3309495,11.8448183 C11.6910852,12.7451779 11.9022584,13.9937761 12.8026181,14.6336404 C13.7029777,15.2735046 14.9515759,15.0623314 15.5914402,14.1619718 Z"/><path id="x46" d="M73.6376405,21.1577995 C77.5525501,15.6490895 88.2853148,12.56006 97.5304219,14.8304032 C98.6031199,15.0938282 99.6862617,14.4377829 99.9496867,13.3650849 C100.213112,12.2923868 99.5570664,11.2092451 98.4843684,10.9458201 C87.7477584,8.30920485 75.3194947,11.8862211 70.3771498,18.840646 C69.7372855,19.7410057 69.9484587,20.9896038 70.8488184,21.6294681 C71.749178,22.2693324 72.9977762,22.0581591 73.6376405,21.1577995 Z" transform="translate(85.007549, 16.038421) scale(-1, 1) translate(-85.007549, -16.038421)"/></g></g><g id="x0"><defs><rect id="x22" x="0" y="0" width="264" height="280"/><path id="x21" d="M129.659138,38.3566287 C132.459581,45.3577056 134,52.9989608 134,61 L134,69 L2,69 L2,61 C2,52.9748603 3.54971254,45.3116754 6.36620203,38.2933809 C-0.0371821146,24.8304767 -1.28053094,13.7727805 2.63615554,5.12029235 C10.141056,2.84355825 18.8342301,4.64979084 28.7156778,10.5389901 C38.4862647,3.88774159 50.289117,-4.77047603e-15 63,-7.10542736e-15 L73,-7.10542736e-15 C85.7221104,-9.44244112e-15 97.5345852,3.89461262 107.310208,10.5566215 C117.203883,4.65339747 125.906912,2.84128775 133.419297,5.12029235 C137.342115,13.7863263 136.088729,24.8651051 129.659138,38.3566287 Z"/><path id="x23" d="M28.7156857,10.5389848 C18.758718,17.3171083 10.9122881,26.9651756 6.36620203,38.2933809 C-0.0371821146,24.8304767 -1.28053094,13.7727805 2.63615554,5.12029235 C10.1410556,2.84355836 18.8342292,4.64979066 28.7156763,10.5389892 Z M129.659138,38.3566287 C125.120833,27.0109143 117.273404,17.34646 107.310208,10.5566215 C117.203883,4.65339747 125.906912,2.84128775 133.419297,5.12029235 C137.342115,13.7863263 136.088729,24.8651051 129.659138,38.3566287 Z"/><path id="x18" d="M21.8615933,15.9591438 C17.3889306,20.0465694 13.5271638,24.7913314 10.4291788,30.040544 C7.50356643,21.9322189 7.00287124,16.3214118 8.92709323,13.2081228 C11.5782173,12.0615989 15.8897174,12.9786059 21.8615933,15.9591438 Z M125.352616,29.6737564 C122.278044,24.5465519 118.471613,19.9084198 114.077736,15.903773 C119.880509,13.0520429 124.083178,12.1889392 126.68574,13.3144617 C128.572308,16.3668294 128.127934,21.8199276 125.352616,29.6737564 Z"/><filter id="x37" x="-0.7%" y="-1.7%" width="101.4%" height="106.8%" filterUnits="objectBoundingBox" ><feOffset dx="0" dy="2" in="SourceAlpha" result="shadowOffsetOuter1"/><feColorMatrix values="0 0 0 0 0 0 0 0 0 0 0 0 0 0 0 0 0 0 0.1 0" type="matrix" in="shadowOffsetOuter1"/></filter><path id="x16" d="M67.2846026,61.4514246 C83.229708,49.8171415 105.159178,44 133.073012,44 C160.985408,44 182.871592,49.8165424 198.731564,61.4496271 L198.731562,61.4496305 C200.786183,62.956669 202.000006,65.3523289 202.000006,67.900394 L202.000004,98.3697692 C202.000004,100.578907 200.209144,102.369768 198.000006,102.369768 C197.244444,102.369768 196.504332,102.155773 195.865355,101.752558 C179.223261,91.2508526 158.536251,86 133.804323,86 C108.883259,86 87.640395,91.3314713 70.0757313,101.994414 L70.0757317,101.994414 C68.1873241,103.140806 65.7271332,102.539283 64.5807417,100.650875 C64.2008775,100.02514 64.0000054,99.3071624 64.0000054,98.5751499 L64,67.914014 C64,65.358892 65.2205159,62.9574773 67.2846026,61.4514246 Z"/></defs><mask id="x29" fill="#FFFFFF"><use xlink:href="#x22"/></mask><g id="x2"/><g id="x7" transform="translate(-1,0)"><g id="x6" stroke-width="1" fill-rule="evenodd" transform="translate(65,4)"><mask id="x30" fill="#FFFFFF"><use xlink:href="#x21"/></mask><use id="x4" fill="#D8D8D8" xlink:href="#x21"/><g id="x8" mask="url('#x30')" fill-rule="evenodd" fill="#FFFFFF"><rect id="x9" x="0" y="0" width="264" height="280"/></g> <mask id="x28" fill="#FFFFFF"><use xlink:href="#x23"/></mask><use id="x1" fill-opacity="0.24" fill="#000000" xlink:href="#x23"/><mask id="x27" fill="#FFFFFF"><use xlink:href="#x18"/></mask><use id="x3" fill-opacity="0.3" fill="#FFFFFF" xlink:href="#x18"/></g><g id="x5"><use fill="#000000" fill-opacity="1" filter="url('#x16')" xlink:href="#x16"/><use fill="#F4F4F4" fill-rule="evenodd" xlink:href="#x16"/></g><g id="x12" transform="translate(49,72)"><defs><path id="x15" d="M84.0002865,69.2970648 C77.2083681,65.7112456 67.5782013,65.1489138 62.3885276,67.1316942 C56.6144416,69.3374281 51.5052994,75.5829845 42.6388201,72.8283797 C42.2699314,72.7136458 41.9094725,73.0449523 42.0204089,73.408662 C43.3937943,77.9183313 51.0278347,81.0068878 53.6221945,81.1080652 C64.961124,81.549609 74.0949802,72.8302891 84.0002865,72.1614794 C93.9055921,72.8302891 103.03945,81.549609 114.378714,81.1080652 C116.972736,81.0068878 124.607113,77.9183313 125.980498,73.408662 C126.091098,73.0449523 125.730639,72.7136458 125.36175,72.8283797 C116.495271,75.5829845 111.386129,69.3374281 105.612044,67.1316942 C100.422371,65.1489138 90.7922044,65.7112456 84.0002865,69.2970648 Z"/></defs><mask id="x26" fill="#FFFFFF"><use xlink:href="#x15"/></mask><use id="x10" fill="#28354B" fill-rule="evenodd" xlink:href="#x15"/><g id="x55" mask="url('#x26')" fill="#B58143"><g transform="translate(-32,0)" id="x11"><rect x="0" y="0" width="264" height="244"/></g></g></g> </g></g> </g></g></g></g></svg>