<?xml version="1.0" encoding="utf-8" ?><!DOCTYPE svg PUBLIC "-//W3C//DTD SVG 1.1//EN" "http://www.w3.org/Graphics/SVG/1.1/DTD/svg11.dtd"><svg width="280px" height="280px" viewBox="-6 0 274 280" version="1.1" xmlns="http://www.w3.org/2000/svg" xmlns:xlink="http://www.w3.org/1999/xlink"><desc>Py-Avataaars</desc> <g id="x39" stroke="none" stroke-width="1" fill="none" fill-rule="evenodd"><defs><circle id="x27" cx="120" cy="120" r="120"/><path id="x20" d="M12,160 C12,226.27417 65.72583,280 132,280 C198.27417,280 252,226.27417 252,160 L264,160 L264,-1.42108547e-14 L-3.19744231e-14,-1.42108547e-14 L-3.19744231e-14,160 L12,160 Z"/><path id="x29" d="M124,144.610951 L124,163 L128,163 L128,163 C167.764502,163 200,195.235498 200,235 L200,244 L0,244 L0,235 C-4.86974701e-15,195.235498 32.235498,163 72,163 L72,163 L76,163 L76,144.610951 C58.7626345,136.422372 46.3722246,119.687011 44.3051388,99.8812385 C38.4803105,99.0577866 34,94.0521096 34,88 L34,74 C34,68.0540074 38.3245733,63.1180731 44,62.1659169 L44,56 L44,56 C44,25.072054 69.072054,5.68137151e-15 100,0 L100,0 L100,0 C130.927946,-5.68137151e-15 156,25.072054 156,56 L156,62.1659169 C161.675427,63.1180731 166,68.0540074 166,74 L166,88 C166,94.0521096 161.51969,99.0577866 155.694861,99.8812385 C153.627775,119.687011 141.237365,136.422372 124,144.610951 Z"/></defs><g id="x37" transform="translate(-825,-1100)"><g transform="translate(825,1100)"> <g id="x38" stroke-width="1" fill-rule="evenodd" mask="url('#py-avataaars-path-bace56af-9baf-4813-a719-cbc59f76cb02')"><g id="x36" transform="translate(32,36)"><mask id="x25" fill="#FFFFFF"><use xlink:href="#x29"/></mask><use fill="#D0C6AC" xlink:href="#x29"/><g id="x18" mask="url('#x25')" fill="#D08B5B"><g transform="translate(0,0)" id="x17"><rect x="0" y="0" width="264" height="280"/></g></g> <path id="x35" d="M156,79 L156,102 C156,132.927946 130.927946,158 100,158 C69.072054,158 44,132.927946 44,102 L44,79 L44,94 C44,124.927946 69.072054,150 100,150 C130.927946,150 156,124.927946 156,94 L156,79 Z" fill-opacity="0.1" fill="#000000" mask="url('#x25')"/></g><g id="x60" transform="translate(0,170)"><defs><path id="x21" d="M181.544255,32.3304167 C210.784209,41.4878872 232,68.7921987 232,101.051724 L232,110 L32,110 L32,101.051724 C32,68.3969699 53.7388273,40.8195914 83.5340368,32.0020332 C83.182234,33.4201865 83,34.8712315 83,36.3476251 C83,52.6289957 105.161905,65.8276544 132.5,65.8276544 C159.838095,65.8276544 182,52.6289957 182,36.3476251 C182,34.9849859 181.844766,33.6439396 181.544255,32.3304167 Z"/></defs><mask id="x32" fill="#FFFFFF"><use xlink:href="#x21"/></mask><use id="x59" fill="#E6E6E6" fill-rule="evenodd" xlink:href="#x21"/><g id="x61" mask="url('#x32')" fill-rule="evenodd" fill="#FF488E"><rect id="x62" x="0" y="0" width="264" height="110"/></g></g><g id="x58" transform="translate(76,82)" fill="#000000"><g id="x49" transform="translate(2,52)"><defs><path id="x23" d="M34.0082051,15.1361102 C35.1280248,29.123916 38.2345159,40.9925405 53.9961505,40.9999965 C69.757785,41.0074525 72.9169073,29.0566179 73.9942614,15.0063928 C74.0809675,13.8756222 73.1738581,12.9999965 72.0369872,12.9999965 C65.3505138,12.9999965 62.6703194,14.9936002 53.9894323,14.9999965 C45.3085452,15.0063928 40.7567994,12.9999965 36.0924943,12.9999965 C34.9490269,12.9999965 33.8961688,13.7366502 34.0082051,15.1361102 Z"/><rect id="x26" x="39" y="2" width="31" height="16" rx="5"/></defs><mask id="x31" fill="#FFFFFF"><use xlink:href="#x23" transform="translate(54.0, 27.0) scale(1, -1) translate(-54.0, -27.0)"/></mask><use id="x48" fill-opacity="0.7" fill="#000000" fill-rule="evenodd" transform="translate(54.0, 27.0) scale(1, -1) translate(-54.0, -27.0)" xlink:href="#x23"/><use id="x46" stroke-width="1" fill-rule="evenodd" mask="url('#x31')" fill="#FFFFFF" xlink:href="#x26"/><g id="x45" stroke-width="1" fill-rule="evenodd" mask="url('#x31')" fill="#FF4F6D"><g id="x47" transform="translate(38,32)"><circle cx="11" cy="11" r="11"/><circle cx="21" cy="11" r="11"/></g></g></g><g id="x44" transform="translate(28,40)" fill-opacity="0.16"><path id="x43" d="M16,8 C16,12.418278 21.372583,16 28,16 L28,16 C34.627417,16 40,12.418278 40,8"/></g><g id="x54" transform="translate(0,8)"><circle id="x51" fill="#FFFFFF" cx="30" cy="22" r="14"/><circle id="x50" fill="#FFFFFF" cx="82" cy="22" r="14"/><circle id="x53" fill-opacity="0.7" fill="#000000" cx="30" cy="14" r="6"/><circle id="x52" fill-opacity="0.7" fill="#000000" cx="82" cy="14" r="6"/></g><g id="x57" fill-opacity="0.6"><path id="x56" d="M22.7663531,1.57844898 L23.6772984,1.17582144 C28.9190996,-0.905265751 36.8645466,-0.0328729562 41.7227321,2.29911638 C42.2897848,2.57148957 41.9021563,3.4519421 41.3211012,3.40711006 C26.4021788,2.25602197 16.3582869,11.5525942 12.9460869,17.8470939 C12.8449215,18.0337142 12.5391523,18.05489 12.4635344,17.8808353 C10.156283,12.5620676 16.9134476,3.89614725 22.7663531,1.57844898 Z"/><path id="x55" d="M86.535177,12.0246305 C92.3421916,12.2928751 101.730304,16.5124899 101.488432,22.3684172 C101.480419,22.5600881 101.1989,22.6442368 101.06135,22.496811 C98.306449,19.5374968 78.7459953,16.5471364 71.8564209,18.1317995 C71.2258949,18.2770375 70.7468448,17.6550104 71.1462176,17.2056651 C74.5683263,13.3574126 81.3327077,11.7792465 86.535177,12.0246305 Z" transform="translate(86.246508, 17.285912) rotate(5.0) translate(-86.246508, -17.285912)"/></g></g><g id="x0" stroke-width="1" fill-rule="evenodd"><defs><rect id="x22" x="0" y="0" width="264" height="280"/><path id="x28" d="M180.665797,104.495381 C181.518431,106.144109 182,108.015816 182,110 L182,123 C182,129.018625 177.569129,134.002364 171.791419,134.867187 C170.048193,155.114792 157.530782,172.282984 140,180.610951 L140,190.054182 C143.832093,191.949549 148.058707,193 152.5,193 C160.121477,193 167.110765,189.906604 172.559029,184.758484 C174.020475,184.918263 175.501874,185 177,185 C195.390093,185 211.259672,172.683502 218.621514,154.88375 C224.900145,149.813883 229,141.454126 229,132 C229,130.214987 228.853847,128.468986 228.57447,126.776775 C230.785923,120.339137 232,113.331199 232,106 C232,93.1344627 228.26103,81.2644681 221.954258,71.7251464 C221.984605,71.1545437 222,70.5793265 222,70 C222,59.0433596 216.493437,49.5565783 208.470603,44.9571334 C201.160166,27.369138 185.740722,14.9905991 167.696954,14.0567347 C163.273738,9.07458291 157.201041,6 150.5,6 C149.549121,6 148.610894,6.0619088 147.688236,6.18239195 C137.909703,2.19640473 127.211351,0 116,0 C104.788649,0 94.0902965,2.19640473 84.3117637,6.18239195 C83.3891064,6.0619088 82.4508793,6 81.5,6 C74.7989589,6 68.7262617,9.07458291 64.3030458,14.0567347 C46.2592779,14.9905991 30.8398341,27.369138 23.5293968,44.9571334 C15.5065631,49.5565783 10,59.0433596 10,70 C10,70.5793265 10.0153947,71.1545437 10.0457422,71.7251464 C3.73896962,81.2644681 0,93.1344627 0,106 C0,113.331199 1.21407678,120.339137 3.42552978,126.776775 C3.14615333,128.468986 3,130.214987 3,132 C3,141.454126 7.0998554,149.813883 13.3784857,154.88375 C20.7403278,172.683502 36.6099075,185 55,185 C56.4981261,185 57.9795252,184.918263 59.4409604,184.758485 C64.8892346,189.906604 71.878523,193 79.5,193 C83.9412925,193 88.1679073,191.949549 92,190.054182 L92,180.610951 C74.4692178,172.282984 61.9518066,155.114792 60.2085808,134.867187 C54.4308707,134.002364 50,129.018625 50,123 L50,110 C50,108.017039 50.4809755,106.146415 51.3326281,104.498428 C54.034525,103.696079 57.0103265,101.444735 59.9905531,98.1675057 C59.9937016,98.1669748 59.9968506,98.1664452 60,98.1659169 L60,98.1571139 C66.866448,90.6014009 73.7548744,77.602262 77.3694073,64.3345491 C88.4864044,66.0717584 101.905207,67.0867832 116.353789,67.0867832 C130.513023,67.0867832 143.683308,66.1120054 154.66752,64.4380466 C158.288087,77.6642508 165.154277,90.6101259 172,98.1475774 L172,98.1659169 C172.006563,98.167018 172.013125,98.1681244 172.019685,98.1692362 C174.995621,101.441388 177.967097,103.690532 180.665797,104.495381 Z"/><path id="x19" d="M65.1802189,77.7372986 C67.3631845,76.1045334 80.4065113,75.4786511 82.757829,74.0894494 C83.4916461,73.6553857 84.0610723,73.215719 84.4997781,72.7800074 C84.938814,73.215719 85.5085703,73.6553857 86.2423874,74.0894494 C88.593375,75.4786511 101.636702,76.1045334 103.819667,77.7372986 C106.030032,79.3908276 107.643571,83.1846831 107.466966,86.15095 C107.255041,89.7101408 103.361486,98.2028927 93.6723269,99.1811016 C91.5576925,96.8281927 88.2368647,95.3104528 84.4997781,95.3104528 C80.7633517,95.3104528 77.4421938,96.8281927 75.3275594,99.1811016 C65.6387308,98.2028927 61.7451757,89.7101408 61.5332501,86.15095 C61.3566455,83.1846831 62.9701849,79.3908276 65.1802189,77.7372986 M103.141638,94.9063813 C103.142958,94.9057221 103.144609,94.905063 103.145929,94.9047334 C103.144278,94.905063 103.142958,94.9057221 103.141638,94.9063813 M65.8453747,94.9014375 C65.8493359,94.9030855 65.8565982,94.9057221 65.8618798,94.9076997 C65.8565982,94.9057221 65.8509864,94.9034151 65.8453747,94.9014375 M144.86259,55.9853335 C144.47439,50.0303878 143.277769,44.1519058 142.233986,38.2862777 C141.952739,36.7072349 140.423706,26 139.734783,26 C139.502391,35.1094058 138.701893,44.0803858 137.669664,53.1393651 C137.361018,55.8475668 137.037848,58.5564277 136.825262,61.2741874 C136.653609,63.4695546 136.959614,66.1220564 136.427819,68.2455739 C135.749129,70.9524573 132.348087,73.4783984 129.702978,74.410795 C123.102915,76.7373371 117.597802,67.1077689 111.960977,64.2911336 C104.643272,60.6347152 92.0637391,59.7639895 84.5816434,64.5297918 C76.9361472,59.7639895 64.356614,60.6347152 57.0389092,64.2911336 C51.4024147,67.1077689 45.8969708,76.7373371 39.2972383,74.410795 C36.6521296,73.4783984 33.2504268,70.9524573 32.572397,68.2455739 C32.0402723,66.1220564 32.346277,63.4695546 32.174954,61.2741874 C31.9623682,58.5564277 31.6388681,55.8475668 31.3302226,53.1393651 C30.2983232,44.0803858 29.4974953,35.1094058 29.2654335,26 C28.5761802,26 27.0468169,36.7072349 26.7658999,38.2862777 C25.7221169,44.1519058 24.5258266,50.0303878 24.1376265,55.9853335 C23.738533,62.1047422 24.2148704,68.1674622 25.4695887,74.1632765 C26.0687242,77.0277016 26.7685407,79.8756475 27.518863,82.7041478 C28.352701,85.8467429 27.198994,91.9661516 27.5723395,95.1921317 C28.2787581,101.29572 31.1542781,113.199679 34.3833375,118.45096 C35.9440605,120.989096 37.7734867,122.573742 39.816489,124.619148 C41.7825775,126.58809 42.6038717,129.640049 44.7260985,131.73687 C48.6820428,135.645092 54.4456266,137.971304 60.3656788,138.543134 C65.6773527,143.050212 74.505605,146 84.4997781,146 C94.4946114,146 103.322534,143.050212 108.634538,138.543134 C114.55393,137.971304 120.317843,135.645092 124.274118,131.73687 C126.396015,129.640049 127.217309,126.58809 129.183727,124.619148 C131.2264,122.573742 133.055826,120.989096 134.616879,118.45096 C137.845608,113.199679 140.721458,101.29572 141.427547,95.1921317 C141.800892,91.9661516 140.647185,85.8467429 141.481353,82.7041478 C142.231676,79.8756475 142.931162,77.0277016 143.530628,74.1632765 C144.784686,68.1674622 145.261353,62.1047422 144.86259,55.9853335 Z"/></defs><mask id="x33" fill="#FFFFFF"><use xlink:href="#x22"/></mask><g id="x2"/><g id="x4" mask="url('#x33')"><g transform="translate(-1,0)"><path id="x1" d="M67,109.777572 C76.0375502,108.717226 88.9217814,89.3309188 94.3694073,69.3345491 C105.486404,71.0717584 118.905207,72.0867832 133.353789,72.0867832 C147.513023,72.0867832 160.683308,71.1120054 171.66752,69.4380466 C177.129582,89.3913728 189.978479,108.706688 199,109.77655 L199,89 C199,66.1159733 187.353465,45.9521405 169.664405,34.1125124 C169.136033,36.5946509 168.784517,39.3353373 168.624132,42.297284 C158.284896,40.892676 146.228147,40.0867832 133.353789,40.0867832 C120.190372,40.0867832 107.88169,40.9292706 97.3896338,42.392803 C97.2315704,39.3922173 96.8778294,36.6175705 96.3431783,34.1074375 C78.6498638,45.9463781 67,66.1127033 67,89 L67,89 L67,109.777572 Z" fill-opacity="0.16" fill="#000000" fill-rule="evenodd"/><g id="x3" stroke-width="1" fill="none" fill-rule="evenodd" transform="translate(17,0)"><mask id="x34" fill="#FFFFFF"><use xlink:href="#x28"/></mask><use fill="#314756" xlink:href="#x28"/><g id="x5" mask="url('#x34')" fill="#ECDCBF"><g transform="translate(0,0) " id="x6"><rect x="0" y="0" width="264" height="280"/></g></g> </g><g id="x16" fill="none" transform="translate(62,85)" stroke-width="1"><defs><filter id="x42" x="-0.8%" y="-2.6%" width="101.6%" height="110.5%" filterUnits="objectBoundingBox"><feOffset in="SourceAlpha" dx="0" dy="2" result="shadowOffsetOuter1"/><feColorMatrix in="shadowOffsetOuter1" values="0 0 0 0 0 0 0 0 0 0 0 0 0 0 0 0 0 0 0.1 0" type="matrix" result="shadowMatrixOuter1"/><feMerge><feMergeNode in="shadowMatrixOuter1"/><feMergeNode in="SourceGraphic"/></feMerge></filter><path id="x30" d="M47.0104611,6.27728008 C49.5212682,6.30134922 50.7082016,6.72633117 51.1359635,9.39189846 C51.5693724,12.0919529 51.1479634,15.1275382 50.648202,17.7869984 C49.8855011,21.8478573 48.6170388,25.8264499 45.6643523,28.794498 C44.1089507,30.3575551 42.2119044,31.6034024 40.1941529,32.4540848 C39.1226305,32.9060098 37.9911085,33.2322006 36.8599395,33.4797175 C36.5292357,33.5519249 33.7060778,33.9478084 35.4375958,33.7466335 C31.3967988,34.2161613 27.0129452,34.1974808 23.6381438,31.5793333 C19.8980507,28.6777448 17.3367734,24.0862872 16.2105455,19.5127916 C15.5516086,16.8368063 14.1670294,10.4365709 16.6968952,8.29693227 C19.5948762,5.84547255 47.0104611,6.27728008 47.0104611,6.27728008 L47.0104611,6.27728008 Z"/><path id="x24" d="M78.9192315,6.27468008 C76.4084239,6.29910846 75.2214902,6.72373117 74.7937283,9.38929846 C74.3603192,12.0893529 74.7817283,15.1249382 75.2811369,17.7843984 C76.0441909,21.8452573 77.3126534,25.8238499 80.2653406,28.791898 C81.8207425,30.3549551 83.7177893,31.6008024 85.7355412,32.4518441 C86.8070638,32.9034098 87.938586,33.2296006 89.0697553,33.4771175 C89.4004591,33.5493249 92.2232647,33.9455676 90.4920992,33.7440335 C94.5328971,34.2135613 98.9167517,34.1948808 102.291554,31.5767333 C106.031648,28.6751448 108.592926,24.0840464 109.719154,19.5105508 C110.378091,16.8342063 111.762317,10.4343302 109.232804,8.29433227 C106.334822,5.84287255 78.9192315,6.27468008 78.9192315,6.27468008 L78.9192315,6.27468008 Z"/><linearGradient id="x40" x1="50%" y1="0%" x2="50%" y2="70.5058195%"><stop stop-color="#FFFFFF" stop-opacity="0.5" offset="0%"/><stop stop-color="#000000" stop-opacity="0.5" offset="100%"/></linearGradient><linearGradient id="x41" x1="50%" y1="0%" x2="50%" y2="100%"><stop stop-color="#FFFFFF" stop-opacity="0.5" offset="0%"/><stop stop-color="#000000" stop-opacity="0.5" offset="70.5058195%"/></linearGradient></defs><g id="x7" filter="url('#x42')" transform="translate(8,8)"><g id="x9"><use fill-opacity="0.7" fill="#000000" xlink:href="#x30"/><use fill="url('#x40')" style="mix-blend-mode: 'screen'" xlink:href="#x30"/></g><g id="x8"><use fill-opacity="0.7" fill="#000000" xlink:href="#x24"/><use fill="url('#x41')" style="mix-blend-mode: 'screen'" xlink:href="#x24"/></g><g id="x10" fill="#252C2F"><path id="x15" d="M46.2491397,7.27516667 C48.6207695,7.2975 49.7419096,7.69183333 50.1459601,10.1651667 C50.5553446,12.6705 50.1572949,15.4871667 49.6852359,17.9548333 C48.9648125,21.7228333 47.7666627,25.4145 44.9776475,28.1685 C43.5084639,29.6188333 41.7165732,30.7748333 39.8106684,31.5641667 C38.7985419,31.9835 37.7297416,32.2861667 36.6612747,32.5158333 C36.3489024,32.5828333 33.6822357,32.9501667 35.3177735,32.7635 C31.5009631,33.1991667 27.3601122,33.1818333 24.1723805,30.7525 C20.6396056,28.0601667 18.2203032,23.7998333 17.1565036,19.5561667 C16.5340925,17.0731667 15.2262624,11.1345 17.6158944,9.14916667 C20.3532365,6.8745 46.2491397,7.27516667 46.2491397,7.27516667 L46.2491397,7.27516667 Z M22.2178029,0.4905 C16.7774562,0.677833333 13.1466691,1.63383333 10.4633337,7.06916667 C5.54571911,17.0301667 13.9627711,31.9688333 23.352278,36.0395 C34.3293166,40.7991667 46.5921826,35.5318333 52.3955746,26.0058333 C55.4689587,20.9621667 57.0224862,13.3231667 56.9224737,7.50383333 C56.7951245,0.0765 51.6071427,-0.1295 45.5090472,0.0338333333 L22.2178029,0.4905 Z"/><path id="x14" d="M79.6805515,7.27256667 C77.3089217,7.29523333 76.1877816,7.68923333 75.7837311,10.1625667 C75.3743466,12.6679 75.7723963,15.4845667 76.244122,17.9522333 C76.9648787,21.7202333 78.1630285,25.4119 80.9520437,28.1659 C82.4212273,29.6162333 84.213118,30.7722333 86.1190228,31.5619 C87.1311493,31.9809 88.1999496,32.2835667 89.2684165,32.5132333 C89.5807888,32.5802333 92.2471221,32.9479 90.6119177,32.7609 C94.4287281,33.1965667 98.569579,33.1792333 101.757311,30.7499 C105.290086,28.0575667 107.709388,23.7975667 108.773188,19.5539 C109.395599,17.0705667 110.703095,11.1322333 108.313797,9.14656667 C105.576455,6.8719 79.6805515,7.27256667 79.6805515,7.27256667 L79.6805515,7.27256667 Z M103.711555,0.4879 C109.152235,0.675233333 112.783022,1.63156667 115.466357,7.06656667 C120.383639,17.0275667 111.96692,31.9662333 102.577413,36.0372333 C91.6003746,40.7965667 79.3375086,35.5292333 73.5337832,26.0035667 C70.4607325,20.9595667 68.907205,13.3205667 69.0068841,7.50123333 C69.1345667,0.0739 74.3225485,-0.1321 80.420644,0.0315666667 L103.711555,0.4879 Z"/><path id="x13" d="M13.1969483,4.9267 C9.78501392,5.11836667 5.88606327,5.16436667 2.69005822,6.63936667 C-0.69461078,8.20136667 -1.2176675,11.7387 3.04920921,12.2260333 C4.97094906,12.4457 6.89488267,12.0827 8.78716336,11.7450333 C10.336903,11.4683667 12.4419791,11.5580333 13.9064752,10.9657 C16.6355213,9.86236667 16.4603333,4.74003333 13.1969483,4.9267"/><path id="x12" d="M112.73467,4.9267 C116.146606,5.11836667 120.045559,5.16436667 123.241565,6.63936667 C126.626236,8.20136667 127.149293,11.7387 122.882414,12.2260333 C120.960673,12.4457 119.036739,12.0827 117.144457,11.7450333 C115.594717,11.4683667 113.489639,11.5580333 112.025143,10.9657 C109.295782,9.86236667 109.471283,4.74003333 112.73467,4.9267"/><path id="x11" d="M73.1094302,7.01263333 C71.1631869,4.71263333 66.0912197,3.38463333 62.8914864,3.38463333 C59.6914198,3.38463333 54.7681378,4.71263333 52.8222279,7.01263333 C51.8407719,8.1723 51.8074344,9.72396667 53.5083137,10.4509667 C55.6262451,11.3566333 57.5174814,9.7143 59.2126933,8.8553 C61.3809643,7.75663333 64.7120473,7.8773 66.7189648,8.8553 C68.4271783,9.68796667 70.3050797,11.3566333 72.4233444,10.4509667 C74.1242237,9.72396667 74.0908862,8.1723 73.1094302,7.01263333"/></g></g></g> </g></g></g> </g></g></g></g></svg>