<?xml version="1.0" encoding="utf-8" ?><!DOCTYPE svg PUBLIC "-//W3C//DTD SVG 1.1//EN" "http://www.w3.org/Graphics/SVG/1.1/DTD/svg11.dtd"><svg width="280px" height="280px" viewBox="-6 0 274 280" version="1.1" xmlns="http://www.w3.org/2000/svg" xmlns:xlink="http://www.w3.org/1999/xlink"><desc>Py-Avataaars</desc> <g id="x35" stroke="none" stroke-width="1" fill="none" fill-rule="evenodd"><defs><circle id="x18" cx="120" cy="120" r="120"/><path id="x25" d="M12,160 C12,226.27417 65.72583,280 132,280 C198.27417,280 252,226.27417 252,160 L264,160 L264,-1.42108547e-14 L-3.19744231e-14,-1.42108547e-14 L-3.19744231e-14,160 L12,160 Z"/><path id="x23" d="M124,144.610951 L124,163 L128,163 L128,163 C167.764502,163 200,195.235498 200,235 L200,244 L0,244 L0,235 C-4.86974701e-15,195.235498 32.235498,163 72,163 L72,163 L76,163 L76,144.610951 C58.7626345,136.422372 46.3722246,119.687011 44.3051388,99.8812385 C38.4803105,99.0577866 34,94.0521096 34,88 L34,74 C34,68.0540074 38.3245733,63.1180731 44,62.1659169 L44,56 L44,56 C44,25.072054 69.072054,5.68137151e-15 100,0 L100,0 L100,0 C130.927946,-5.68137151e-15 156,25.072054 156,56 L156,62.1659169 C161.675427,63.1180731 166,68.0540074 166,74 L166,88 C166,94.0521096 161.51969,99.0577866 155.694861,99.8812385 C153.627775,119.687011 141.237365,136.422372 124,144.610951 Z"/></defs><g id="x33" transform="translate(-825,-1100)"><g transform="translate(825,1100)"> <g id="x34" stroke-width="1" fill-rule="evenodd" mask="url('#py-avataaars-path-270b86a6-36e6-40ce-a1be-949ff5a527e5')"><g id="x32" transform="translate(32,36)"><mask id="x21" fill="#FFFFFF"><use xlink:href="#x23"/></mask><use fill="#D0C6AC" xlink:href="#x23"/><g id="x13" mask="url('#x21')" fill="#EDB98A"><g transform="translate(0,0)" id="x14"><rect x="0" y="0" width="264" height="280"/></g></g> <path id="x31" d="M156,79 L156,102 C156,132.927946 130.927946,158 100,158 C69.072054,158 44,132.927946 44,102 L44,79 L44,94 C44,124.927946 69.072054,150 100,150 C130.927946,150 156,124.927946 156,94 L156,79 Z" fill-opacity="0.1" fill="#000000" mask="url('#x21')"/></g><g id="x59" transform="translate(0,170)"><defs><path id="x24" d="M165.624032,29.2681342 C202.760022,32.1373245 232,63.1798426 232,101.051724 L232,110 L32,110 L32,101.051724 C32,62.8348009 61.7752018,31.5722494 99.3929298,29.1967444 C99.1342224,30.2735458 99,31.3767131 99,32.5 C99,44.3741221 113.998461,54 132.5,54 C151.001539,54 166,44.3741221 166,32.5 C166,31.4015235 165.871641,30.3222877 165.624025,29.2681336 Z"/></defs><mask id="x26" fill="#FFFFFF"><use xlink:href="#x24"/></mask><use id="x58" fill="#E6E6E6" fill-rule="evenodd" xlink:href="#x24"/><g id="py-avataaars-clothes-clothe-color-palette-blue_02" mask="url('#x26')" fill-rule="evenodd" fill="#5199E4"><rect id="x60" x="0" y="0" width="264" height="110"/></g><g id="py-avataaars-clothes-graphics-x0-outline" mask="url('#x26'" stroke-width="1" fill-rule="evenodd"><g transform="translate(77,58)" id="x0"><g transform="translate(36,1)"><path id="py-avataaars-clothes-graphics-x0-outline-boo1" d="M36.3353853,17.0393673 C36.1551375,18.0777567 35.8927571,19.1087846 35.3466862,20.0285256 C34.6274709,21.2401241 33.3213404,21.7355025 32.5643885,22.8466397 C31.3705799,24.5990841 32.9555173,27.1231756 31.7781352,28.6842237 C30.5119611,30.3630542 27.6359878,29.346749 26.5163205,31.5755188 C25.3358307,33.925968 27.0535122,37.0679834 25.5729054,39.4058749 C24.1038415,39.0369393 23.6514462,33.5197923 21.3841422,37.0389708 C19.9319488,39.2928559 20.9126566,40.513981 18.7354764,37.2741024 C17.9789685,36.1486754 17.1247893,35.1384326 15.6392989,35.8810671 C14.5955488,36.4024269 14.3806721,38.7178013 13.4297097,38.9672226 C11.0962556,39.5786511 11.0105713,33.3500473 10.2172146,32.1709255 C9.78124586,31.523123 9.3750224,31.1394645 8.59986813,30.8939404 C7.92815655,30.6808931 6.73124021,31.1087199 6.17495825,30.7934791 C5.13032022,30.2019696 4.98914092,28.23821 4.94962847,27.1963565 C4.8759311,25.2572791 5.52544468,23.2770647 4.98958488,21.3579064 C4.53896541,19.7461945 3.1027546,18.7545717 2.63348882,17.1753366 C0.0993647654,8.64045187 11.6836147,3.89495204 18.2986197,3.63037495 C26.0390634,3.32033043 37.3356273,7.85191686 36.3353853,17.0393673 M38.172936,11.7240091 C36.716747,8.28277481 33.5180147,5.54736808 30.2580159,3.71135026 C28.6748543,2.82018878 26.955841,2.16285976 25.1728973,1.77140691 C23.531577,1.41069869 21.6150014,1.64842836 20.0482663,1.19462018 C18.728373,0.811827785 17.9097107,-0.0477230086 16.3562944,0.00207464445 C14.238161,0.0696262433 12.0370069,1.17426809 10.1879133,2.08751375 C6.5279065,3.89538507 3.41663437,6.23630778 1.4618782,9.83126531 C-0.636277062,13.6895009 -0.437382953,17.1865952 1.81083082,20.7832848 C3.95648981,24.2167247 0.837226393,29.045365 3.97824385,32.3086268 C5.29902504,33.6808769 6.59938407,32.6801606 7.84957562,33.3409538 C8.81163708,33.8493229 8.77123671,36.8034063 9.03805671,37.6694524 C10.2385247,41.5623298 14.5524847,43.0692501 16.5436456,38.8602659 C17.4830651,41.2128802 21.1990108,43.6239527 22.9291232,40.5460247 C24.0106099,41.9455552 25.8832335,42.541395 27.3123409,41.3414881 C28.6557641,40.2130299 28.8040467,37.585879 28.8724166,35.9984164 C28.9261357,34.7604034 28.3747373,33.2339971 29.3261438,32.3402375 C30.3734455,31.3559761 32.5204364,31.7708122 33.6951548,30.5011885 C35.0359141,29.0518603 34.4849597,27.3552759 34.5879584,25.6288129 C34.6922891,23.8828639 35.0035051,24.3280116 36.2980926,23.0670485 C39.1833891,20.2567287 39.6717451,15.2600755 38.172936,11.7240091" fill="#FFFFFF"/><path id="py-avataaars-clothes-graphics-x0-outline-boo2" d="M14.4199416,28.1214878 C16.4409104,26.2992475 16.0109503,20.7236412 15.8441352,18.1620823 C15.5281264,13.3012213 12.4886458,14.7535905 10.6384079,17.7811955 C9.23849255,20.072024 5.8716471,23.7758196 7.38120621,26.6576793 C8.58337131,28.9535919 12.5610889,29.793746 14.4199416,28.1214878" fill="#FFFFFF"/><path id="py-avataaars-clothes-graphics-x0-outline-boo3" d="M27.7905585,19.2735023 C26.7563456,17.3532744 26.3690889,17.0619469 25.1393718,15.4887787 C24.3486011,14.4775769 23.2406052,12.6869687 21.7361817,13.0471169 C19.1541926,13.6660822 20.2075808,19.6585611 20.238428,21.4487472 C20.2617717,22.8065864 19.9608037,24.2138247 21.0892255,25.1768941 C22.2443259,26.1627631 24.1422588,26.073676 25.5295464,25.8676357 C29.7877025,25.2338929 29.5913646,22.6136348 27.7905585,19.2735023" fill="#FFFFFF"/><path id="py-avataaars-clothes-graphics-x0-outline-boo4" d="M19.2396436,31.8300192 C18.9563137,31.7944779 19.3174042,31.4678578 19.3591799,31.2433628 C19.5473771,31.8574625 19.6855263,31.8862554 19.2396436,31.8300192 M20.2848621,27.5191742 C17.6678865,24.7492021 12.711061,33.9166085 16.2049116,34.9450569 C17.0098167,35.1821488 17.604189,34.5815458 18.3598733,34.4767215 C19.4596896,34.3242088 20.3837174,34.9635023 21.3333895,33.9548492 C22.8244907,32.3712368 21.5203459,28.8566969 20.2848621,27.5191742" fill="#FFFFFF"/></g></g></g></g><g id="x52" transform="translate(76,82)" fill="#000000"><g id="x45" transform="translate(2,52)"><defs><path id="x17" d="M35.117844,15.1280772 C36.1757121,24.6198025 44.2259873,32 54,32 C63.8042055,32 71.8740075,24.574136 72.8917593,15.0400546 C72.9736685,14.272746 72.1167429,13 71.042767,13 C56.1487536,13 44.7379213,13 37.0868244,13 C36.0066168,13 35.0120058,14.1784435 35.117844,15.1280772 Z"/><rect id="x19" x="39" y="2" width="31" height="16" rx="5"/></defs><mask id="x29" fill="#FFFFFF"><use xlink:href="#x17" transform="translate(54.003637, 22.500000) scale(1, -1) translate(-54.003637, -22.500000)"/></mask><use id="x42" fill-opacity="0.7" fill="#000000" fill-rule="evenodd" transform="translate(54.003637, 22.500000) scale(1, -1) translate(-54.003637, -22.500000)" xlink:href="#x17"/><use id="x41" stroke-width="1" fill-rule="evenodd" mask="url('#x29')" fill="#FFFFFF" xlink:href="#x19"/><g id="x40" stroke-width="1" fill-rule="evenodd" mask="url('#x29')" fill="#FF4F6D"><g transform="translate(38,24)"><circle id="x44" cx="11" cy="11" r="11"/><circle id="x43" cx="21" cy="11" r="11"/></g></g></g><g id="x39" transform="translate(28,40)" fill-opacity="0.16"><path id="x38" d="M16,8 C16,12.418278 21.372583,16 28,16 L28,16 C34.627417,16 40,12.418278 40,8"/></g><g id="x48" transform="translate(0,8)" fill-opacity="0.6"><circle id="x47" cx="30" cy="22" r="6"/><path id="x46" d="M70.4123979,24.204889 C72.2589064,20.4060854 76.4166529,17.7575774 81.2498107,17.7575774 C86.065907,17.7575774 90.2113521,20.3874194 92.0675822,24.1647016 C92.618991,25.2867751 91.8343342,26.2050591 91.0428374,25.5246002 C88.5917368,23.4173607 85.1109468,22.1013658 81.2498107,22.1013658 C77.5094365,22.1013658 74.1259889,23.3363293 71.6897696,25.3292186 C70.7990233,26.0578718 69.8723316,25.3159619 70.4123979,24.204889 Z" transform="translate(81.252230, 21.757577) rotate(-4.0) translate(-81.252230, -21.757577)"/></g><g id="x51" fill-opacity="0.6" fill-rule="nonzero"><path id="x50" d="M15.9726042,19.4088529 C17.452356,11.0203704 30.0622688,5.22829657 39.2106453,8.9774793 C40.2254706,9.39337449 41.4016967,8.94600219 41.8378196,7.97824531 C42.2739426,7.01048842 41.8048116,5.88881678 40.7899862,5.47292159 C29.3457328,0.782843812 13.9550264,7.85221132 12.0280273,18.7760684 C11.84479,19.8148122 12.5792704,20.798534 13.6685352,20.9732726 C14.7578,21.1480113 15.7893668,20.4475967 15.9726042,19.4088529 Z" transform="translate(27.000414, 12.500000) scale(-1, -1) translate(-27.000414, -12.500000)"/><path id="x49" d="M73.9726042,19.4088529 C75.452356,11.0203704 88.0622688,5.22829657 97.2106453,8.9774793 C98.2254706,9.39337449 99.4016967,8.94600219 99.8378196,7.97824531 C100.273943,7.01048842 99.8048116,5.88881678 98.7899862,5.47292159 C87.3457328,0.782843812 71.9550264,7.85221132 70.0280273,18.7760684 C69.84479,19.8148122 70.5792704,20.798534 71.6685352,20.9732726 C72.7578,21.1480113 73.7893668,20.4475967 73.9726042,19.4088529 Z" transform="translate(85.000414, 12.500000) scale(1, -1) translate(-85.000414, -12.500000)"/></g></g><g id="x2" stroke-width="1" fill-rule="evenodd"><defs><rect id="x20" x="0" y="0" width="264" height="280"/><path id="x16" d="M156,180.610951 C173.530782,172.282984 186.048193,155.114792 187.791419,134.867187 C193.569129,134.002364 198,129.018625 198,123 L198,110 C198,104.054007 193.675427,99.1180731 188,98.1659169 L188,92 C188,84.0546578 186.345324,76.495786 183.361772,69.6491845 C173.434911,53 89.3126235,53.8033992 80.7098777,69.4854816 C77.6811789,76.3752214 76,83.9912805 76,92 L76,98.1659169 C70.3245733,99.1180731 66,104.054007 66,110 L66,123 C66,129.018625 70.4308707,134.002364 76.2085808,134.867187 C77.9518066,155.114792 90.4692178,172.282984 108,180.610951 L108,199 L104,199 L104,199 C64.235498,199 32,231.235498 32,271 L32,280 L232,280 L232,271 C232,231.235498 199.764502,199 160,199 L156,199 L156,180.610951 Z M0,5.68434189e-14 L264,5.68434189e-14 L264,280 L0,280 L0,5.68434189e-14 Z"/><filter id="x37" x="-0.8%" y="-2.0%" width="101.5%" height="108.0%" filterUnits="objectBoundingBox"><feOffset dx="0" dy="2" in="SourceAlpha" result="shadowOffsetOuter1"/><feColorMatrix values="0 0 0 0 0 0 0 0 0 0 0 0 0 0 0 0 0 0 0.16 0" type="matrix" in="shadowOffsetOuter1" result="shadowMatrixOuter1"/><feMerge><feMergeNode in="shadowMatrixOuter1"/><feMergeNode in="SourceGraphic"/></feMerge></filter></defs><mask id="x27" fill="#FFFFFF"><use xlink:href="#x20"/></mask><g id="x4"/><g id="x7" mask="url('#x27')"><g transform="translate(-1,0)"><g id="x6" stroke-width="1" fill-rule="evenodd" transform="translate(1,0)"><mask id="x30" fill="#FFFFFF"><use xlink:href="#x16"/></mask><g id="x3"/><path d="M123.182388,2 L141.817612,2 L141.817612,2 C160.609055,2 176.866947,15.0804442 180.890118,33.4361631 L190,75 L75,75 L84.1098821,33.4361631 L84.1098821,33.4361631 C88.1330533,15.0804442 104.390945,2 123.182388,2 Z" fill="#929598" mask="url('#x30')"/><ellipse id="x5" fill="#929598" mask="url('#x30')" cx="132" cy="87.5" rx="122" ry="57.5"/><ellipse id="x1" fill="#15232A" mask="url('#x30')" cx="132" cy="82" rx="62" ry="25"/></g><g id="x10" transform="translate(49,72)"><defs><path id="x22" d="M84.0002865,69.2970648 C77.2083681,65.7112456 67.5782013,65.1489138 62.3885276,67.1316942 C56.6144416,69.3374281 51.5052994,75.5829845 42.6388201,72.8283797 C42.2699314,72.7136458 41.9094725,73.0449523 42.0204089,73.408662 C43.3937943,77.9183313 51.0278347,81.0068878 53.6221945,81.1080652 C64.961124,81.549609 74.0949802,72.8302891 84.0002865,72.1614794 C93.9055921,72.8302891 103.03945,81.549609 114.378714,81.1080652 C116.972736,81.0068878 124.607113,77.9183313 125.980498,73.408662 C126.091098,73.0449523 125.730639,72.7136458 125.36175,72.8283797 C116.495271,75.5829845 111.386129,69.3374281 105.612044,67.1316942 C100.422371,65.1489138 90.7922044,65.7112456 84.0002865,69.2970648 Z"/></defs><mask id="x28" fill="#FFFFFF"><use xlink:href="#x22"/></mask><use id="x8" fill="#28354B" fill-rule="evenodd" xlink:href="#x22"/><g id="color-facial-hair-pastel_pink" mask="url('#x28')" fill="#F59797"><g transform="translate(-32,0)" id="x9"><rect x="0" y="0" width="264" height="244"/></g></g></g><g id="x12" fill="none" transform="translate(62,85)"><defs><path id="x15" d="M80.4646192,16.3941179 C84.3801509,8.45869677 92.552602,3 102,3 C110.919691,3 118.702887,7.86591082 122.839921,15.0880638 C123.050197,15.0306504 123.271519,15 123.5,15 L131.5,15 C132.880712,15 134,16.1192881 134,17.5 C134,18.8807119 132.880712,20 131.5,20 L124.963126,20 C125.637355,22.2145921 126,24.5649459 126,27 C126,40.254834 115.254834,51 102,51 C88.745166,51 78,40.254834 78,27 C78,25.5781066 78.1236513,24.1850936 78.3607874,22.8311273 C78.2762458,18.4553035 74.9135957,15 70.8624171,15 C67.1256697,15 63.9747186,17.9397535 63.4417635,21.8300629 C63.8073299,23.4951922 64,25.2250958 64,27 C64,40.254834 53.254834,51 40,51 C26.745166,51 16,40.254834 16,27 C16,24.5649459 16.3626451,22.2145921 17.0368738,20 L10.5,20 C9.11928813,20 8,18.8807119 8,17.5 C8,16.1192881 9.11928813,15 10.5,15 L10.5,15 L18.5,15 C18.728481,15 18.9498033,15.0306504 19.1600793,15.0880638 C23.2971127,7.86591082 31.0803092,3 40,3 C49.3521568,3 57.4549431,8.34919095 61.415666,16.15488 C63.4929212,13.0392725 66.9494432,11 70.8624171,11 C74.8746823,11 78.4070368,13.1440781 80.4646192,16.3941179 Z M40,47 C51.045695,47 60,38.045695 60,27 C60,15.954305 51.045695,7 40,7 C28.954305,7 20,15.954305 20,27 C20,38.045695 28.954305,47 40,47 Z M102,47 C113.045695,47 122,38.045695 122,27 C122,15.954305 113.045695,7 102,7 C90.954305,7 82,15.954305 82,27 C82,38.045695 90.954305,47 102,47 Z"/><filter id="x36" x="-0.8%" y="-2.1%" width="101.6%" height="108.3%" filterUnits="objectBoundingBox" ><feOffset in="SourceAlpha" dx="0" dy="2" result="shadowOffsetOuter1"/><feColorMatrix in="shadowOffsetOuter1" values="0 0 0 0 0 0 0 0 0 0 0 0 0 0 0 0 0 0 0.1 0" type="matrix"/></filter></defs><g id="x11"><use fill="#000000" fill-opacity="1" filter="url('#x36')" xlink:href="#x15"/><use fill="#252C2F" fill-rule="evenodd" xlink:href="#x15"/></g></g> </g></g></g> </g></g></g></g></svg>