<?xml version="1.0" encoding="utf-8" ?><!DOCTYPE svg PUBLIC "-//W3C//DTD SVG 1.1//EN" "http://www.w3.org/Graphics/SVG/1.1/DTD/svg11.dtd"><svg width="280px" height="280px" viewBox="-6 0 274 280" version="1.1" xmlns="http://www.w3.org/2000/svg" xmlns:xlink="http://www.w3.org/1999/xlink"><desc>Py-Avataaars</desc> <g id="x30" stroke="none" stroke-width="1" fill="none" fill-rule="evenodd"><defs><circle id="x20" cx="120" cy="120" r="120"/><path id="x13" d="M12,160 C12,226.27417 65.72583,280 132,280 C198.27417,280 252,226.27417 252,160 L264,160 L264,-1.42108547e-14 L-3.19744231e-14,-1.42108547e-14 L-3.19744231e-14,160 L12,160 Z"/><path id="x19" d="M124,144.610951 L124,163 L128,163 L128,163 C167.764502,163 200,195.235498 200,235 L200,244 L0,244 L0,235 C-4.86974701e-15,195.235498 32.235498,163 72,163 L72,163 L76,163 L76,144.610951 C58.7626345,136.422372 46.3722246,119.687011 44.3051388,99.8812385 C38.4803105,99.0577866 34,94.0521096 34,88 L34,74 C34,68.0540074 38.3245733,63.1180731 44,62.1659169 L44,56 L44,56 C44,25.072054 69.072054,5.68137151e-15 100,0 L100,0 L100,0 C130.927946,-5.68137151e-15 156,25.072054 156,56 L156,62.1659169 C161.675427,63.1180731 166,68.0540074 166,74 L166,88 C166,94.0521096 161.51969,99.0577866 155.694861,99.8812385 C153.627775,119.687011 141.237365,136.422372 124,144.610951 Z"/></defs><g id="x28" transform="translate(-825,-1100)"><g transform="translate(825,1100)"> <g id="x29" stroke-width="1" fill-rule="evenodd" mask="url('#py-avataaars-path-6d7278b5-46d5-4fcf-bf20-f3fdd8360566')"><g id="x27" transform="translate(32,36)"><mask id="x11" fill="#FFFFFF"><use xlink:href="#x19"/></mask><use fill="#D0C6AC" xlink:href="#x19"/><g id="x9" mask="url('#x11')" fill="#EDB98A"><g transform="translate(0,0)" id="x10"><rect x="0" y="0" width="264" height="280"/></g></g> <path id="x26" d="M156,79 L156,102 C156,132.927946 130.927946,158 100,158 C69.072054,158 44,132.927946 44,102 L44,79 L44,94 C44,124.927946 69.072054,150 100,150 C130.927946,150 156,124.927946 156,94 L156,79 Z" fill-opacity="0.1" fill="#000000" mask="url('#x11')"/></g><g id="x47" transform="translate(0,170)"><defs><path id="x12" d="M105.192402,29.0517235 L104,29.0517235 L104,29.0517235 C64.235498,29.0517235 32,61.2872215 32,101.051724 L32,110 L232,110 L232,101.051724 C232,61.2872215 199.764502,29.0517235 160,29.0517235 L160,29.0517235 L158.807598,29.0517235 C158.934638,30.0353144 159,31.0364513 159,32.0517235 C159,45.8588423 146.911688,57.0517235 132,57.0517235 C117.088312,57.0517235 105,45.8588423 105,32.0517235 C105,31.0364513 105.065362,30.0353144 105.192402,29.0517235 Z"/></defs><mask id="x22" fill="#FFFFFF"><use xlink:href="#x12"/></mask><use id="x46" fill="#E6E6E6" fill-rule="evenodd" xlink:href="#x12"/><g id="py-avataaars-clothes-clothe-color-palette-pastel_orange" mask="url('#x22')" fill-rule="evenodd" fill="#FFDEB5"><rect id="x48" x="0" y="0" width="264" height="110"/></g> <path id="x45" d="M156,22.2794906 C162.181647,26.8351858 166,33.1057265 166,40.027915 C166,47.2334941 161.862605,53.7329769 155.228997,58.3271669 L149.57933,53.8764929 L145,54.207887 L146,51.0567821 L145.922229,50.995516 C152.022491,47.8530505 156,42.7003578 156,36.8768102 L156,22.2794906 Z M108,21.5714994 C101.232748,26.1740081 97,32.7397769 97,40.027915 C97,47.4261549 101.361602,54.080035 108.308428,58.6915723 L114.42067,53.8764929 L119,54.207887 L118,51.0567821 L118.077771,50.995516 C111.977509,47.8530505 108,42.7003578 108,36.8768102 L108,21.5714994 Z" fill="#F2F2F2" fill-rule="evenodd"/></g><g id="x44" transform="translate(76,82)" fill="#000000"><g id="x37" transform="translate(2,52)"><defs><path id="x15" d="M34.0082051,15.1361102 C35.1280248,29.123916 38.2345159,40.9925405 53.9961505,40.9999965 C69.757785,41.0074525 72.9169073,29.0566179 73.9942614,15.0063928 C74.0809675,13.8756222 73.1738581,12.9999965 72.0369872,12.9999965 C65.3505138,12.9999965 62.6703194,14.9936002 53.9894323,14.9999965 C45.3085452,15.0063928 40.7567994,12.9999965 36.0924943,12.9999965 C34.9490269,12.9999965 33.8961688,13.7366502 34.0082051,15.1361102 Z"/><rect id="x16" x="39" y="2" width="31" height="16" rx="5"/></defs><mask id="x24" fill="#FFFFFF"><use xlink:href="#x15" transform="translate(54.0, 27.0) scale(1, -1) translate(-54.0, -27.0)"/></mask><use id="x36" fill-opacity="0.7" fill="#000000" fill-rule="evenodd" transform="translate(54.0, 27.0) scale(1, -1) translate(-54.0, -27.0)" xlink:href="#x15"/><use id="x34" stroke-width="1" fill-rule="evenodd" mask="url('#x24')" fill="#FFFFFF" xlink:href="#x16"/><g id="x33" stroke-width="1" fill-rule="evenodd" mask="url('#x24')" fill="#FF4F6D"><g id="x35" transform="translate(38,32)"><circle cx="11" cy="11" r="11"/><circle cx="21" cy="11" r="11"/></g></g></g><g id="x32" transform="translate(28,40)" fill-opacity="0.16"><path id="x31" d="M16,8 C16,12.418278 21.372583,16 28,16 L28,16 C34.627417,16 40,12.418278 40,8"/></g><g id="x40" transform="translate(0,8)" fill-opacity="0.6"><path id="x39" d="M16.1601674,32.4473116 C18.006676,28.648508 22.1644225,26 26.9975803,26 C31.8136766,26 35.9591217,28.629842 37.8153518,32.4071242 C38.3667605,33.5291977 37.5821037,34.4474817 36.790607,33.7670228 C34.3395063,31.6597833 30.8587163,30.3437884 26.9975803,30.3437884 C23.2572061,30.3437884 19.8737584,31.5787519 17.4375392,33.5716412 C16.5467928,34.3002944 15.6201012,33.5583844 16.1601674,32.4473116 Z" transform="translate(27,30) scale(1, -1) translate(-27,-30)"/><path id="x38" d="M74.1601674,32.4473116 C76.006676,28.648508 80.1644225,26 84.9975803,26 C89.8136766,26 93.9591217,28.629842 95.8153518,32.4071242 C96.3667605,33.5291977 95.5821037,34.4474817 94.790607,33.7670228 C92.3395063,31.6597833 88.8587163,30.3437884 84.9975803,30.3437884 C81.2572061,30.3437884 77.8737584,31.5787519 75.4375392,33.5716412 C74.5467928,34.3002944 73.6201012,33.5583844 74.1601674,32.4473116 Z" transform="translate(85,30) scale(1, -1) translate(-85,-30)"/></g><g id="x43" fill-opacity="0.6"><path id="x42" d="M36.3692975,6.87618545 C34.3991755,9.78053246 30.8236346,11.5165625 27.6315757,12.5601676 C23.6890255,13.8490851 9.08080143,15.9390364 12.5196198,23.9079177 C12.572332,24.029546 12.7390347,24.0312591 12.7920764,23.9096308 C13.9448284,21.2646433 30.256648,18.7865093 31.7648785,18.2064622 C36.2101722,16.4974987 40.1579937,12.7153722 40.9269343,7.66282939 C41.2794477,5.34640965 40.2901039,1.6143049 39.3791695,0.113308759 C39.2697915,-0.0669067099 39.0052417,-0.02339461 38.9498938,0.181831751 C38.5898029,1.51323348 37.5385221,5.15317482 36.3692975,6.87618545"/><path id="x41" d="M95.3692975,6.87618545 C93.3991755,9.78053246 89.8236346,11.5165625 86.6315757,12.5601676 C82.6890255,13.8490851 68.0808014,15.9390364 71.5196198,23.9079177 C71.572332,24.029546 71.7390347,24.0312591 71.7920764,23.9096308 C72.9448284,21.2646433 89.256648,18.7865093 90.7648785,18.2064622 C95.2101722,16.4974987 99.1579937,12.7153722 99.9269343,7.66282939 C100.279448,5.34640965 99.2901039,1.6143049 98.3791695,0.113308759 C98.2697915,-0.0669067099 98.0052417,-0.02339461 97.9498938,0.181831751 C97.5898029,1.51323348 96.5385221,5.15317482 95.3692975,6.87618545" transform="translate(85.5, 12.0) scale(-1, 1) translate(-85.5, -12.0)"/></g></g><g id="x0" stroke-width="1" fill-rule="evenodd"><defs><rect id="x14" x="0" y="0" width="264" height="280"/><path id="x17" d="M80.0203173,73.8104172 C78.0626651,79.5136273 77,85.6327143 77,92 L77,92 L77,98.1659169 C71.3245733,99.1180731 67,104.054007 67,110 L67,123 C67,129.018625 71.4308707,134.002364 77.2085808,134.867187 C78.9518066,155.114792 91.4692178,172.282984 109,180.610951 L109,191.55498 C104.295298,193.764912 99.0418843,195 93.5,195 C84.6936661,195 76.615743,191.881303 70.3104439,186.688122 C68.4019201,186.894245 66.4633102,187 64.5,187 C43.405572,187 25.1625605,174.791635 16.4510993,157.055039 C8.9342791,151.923647 4,143.288055 4,133.5 C4,131.385405 4.23029535,129.324599 4.66717333,127.341294 C2.29639351,121.011656 1,114.157223 1,107 C1,94.2436789 5.11811695,82.4491956 12.0974246,72.8734763 C12.0329017,72.0908558 12,71.2992702 12,70.5 C12,59.2025056 18.5734777,49.4403292 28.1042855,44.8296184 C36.5367477,26.7016558 54.5576512,13.9359054 75.6500672,13.049296 C80.7818839,8.06730831 87.7827378,5 95.5,5 C97.8269611,5 100.088787,5.27887473 102.253881,5.80502563 C111.775927,2.05800249 122.147627,0 133,0 C143.346018,0 153.255173,1.87043661 162.407758,5.29160393 C163.744126,5.09944416 165.11045,5 166.5,5 C174.217262,5 181.218116,8.06730831 186.349933,13.049296 C207.442349,13.9359054 225.463252,26.7016558 233.895715,44.8296184 C243.426522,49.4403292 250,59.2025056 250,70.5 C250,71.2992702 249.967098,72.0908558 249.902575,72.8734763 C256.881883,82.4491956 261,94.2436789 261,107 C261,114.157223 259.703606,121.011656 257.332827,127.341294 C257.769705,129.324599 258,131.385405 258,133.5 C258,143.288055 253.065721,151.923647 245.548901,157.055039 C236.837439,174.791635 218.594428,187 197.5,187 C195.53669,187 193.59808,186.894245 191.689556,186.688122 C185.384257,191.881303 177.306334,195 168.5,195 C164.481965,195 160.61557,194.350752 157,193.151442 L157,180.610951 C174.530782,172.282984 187.048193,155.114792 188.791419,134.867187 C194.569129,134.002364 199,129.018625 199,123 L199,110 C199,104.054007 194.675427,99.1180731 189,98.1659169 L189,92 C189,86.5585666 188.223906,81.2983998 186.776371,76.3241528 L188.153157,89.1947292 L176.812614,65.1945789 L131.676809,45.6707349 L101.563146,56.2283606 L80.0648273,76.419385 L80.0203173,73.8104172 Z"/></defs><mask id="x21" fill="#FFFFFF"><use xlink:href="#x14"/></mask><g id="x1"/><g id="x4" mask="url('#x21')"><g transform="translate(-1,0)"><mask id="x25" fill="#FFFFFF"><use xlink:href="#x17"/></mask><use id="x2" stroke="none" fill="#314756" fill-rule="evenodd" xlink:href="#x17"/><g id="x5-pastel_pink" mask="url('#x25')" fill="#F59797"><g transform="translate(0,0) " id="x5"><rect x="0" y="0" width="264" height="280"/></g></g> <path id="x3" d="M76.6313898,98.975 C76.2155465,96.423245 76,93.8109442 76,91.1521739 C76,62.3493236 101.295912,39 132.5,39 C163.704088,39 189,62.3493236 189,91.1521739 C189,93.8109442 188.784453,96.423245 188.36861,98.975 C184.279562,73.883217 160.823662,54.6456522 132.5,54.6456522 C104.176338,54.6456522 80.7204382,73.883217 76.6313898,98.975 Z" stroke="none" fill="#92D9FF" fill-rule="evenodd"/><g id="x8" transform="translate(49,72)"><defs><path id="x18" d="M84.0002865,69.2970648 C77.2083681,65.7112456 67.5782013,65.1489138 62.3885276,67.1316942 C56.6144416,69.3374281 51.5052994,75.5829845 42.6388201,72.8283797 C42.2699314,72.7136458 41.9094725,73.0449523 42.0204089,73.408662 C43.3937943,77.9183313 51.0278347,81.0068878 53.6221945,81.1080652 C64.961124,81.549609 74.0949802,72.8302891 84.0002865,72.1614794 C93.9055921,72.8302891 103.03945,81.549609 114.378714,81.1080652 C116.972736,81.0068878 124.607113,77.9183313 125.980498,73.408662 C126.091098,73.0449523 125.730639,72.7136458 125.36175,72.8283797 C116.495271,75.5829845 111.386129,69.3374281 105.612044,67.1316942 C100.422371,65.1489138 90.7922044,65.7112456 84.0002865,69.2970648 Z"/></defs><mask id="x23" fill="#FFFFFF"><use xlink:href="#x18"/></mask><use id="x6" fill="#28354B" fill-rule="evenodd" xlink:href="#x18"/><g id="x49" mask="url('#x23')" fill="#C93305"><g transform="translate(-32,0)" id="x7"><rect x="0" y="0" width="264" height="244"/></g></g></g> </g></g></g> </g></g></g></g></svg>