<?xml version="1.0" encoding="utf-8" ?><!DOCTYPE svg PUBLIC "-//W3C//DTD SVG 1.1//EN" "http://www.w3.org/Graphics/SVG/1.1/DTD/svg11.dtd"><svg width="280px" height="280px" viewBox="-6 0 274 280" version="1.1" xmlns="http://www.w3.org/2000/svg" xmlns:xlink="http://www.w3.org/1999/xlink"><desc>Py-Avataaars</desc> <g id="x35" stroke="none" stroke-width="1" fill="none" fill-rule="evenodd"><defs><circle id="x22" cx="120" cy="120" r="120"/><path id="x25" d="M12,160 C12,226.27417 65.72583,280 132,280 C198.27417,280 252,226.27417 252,160 L264,160 L264,-1.42108547e-14 L-3.19744231e-14,-1.42108547e-14 L-3.19744231e-14,160 L12,160 Z"/><path id="x19" d="M124,144.610951 L124,163 L128,163 L128,163 C167.764502,163 200,195.235498 200,235 L200,244 L0,244 L0,235 C-4.86974701e-15,195.235498 32.235498,163 72,163 L72,163 L76,163 L76,144.610951 C58.7626345,136.422372 46.3722246,119.687011 44.3051388,99.8812385 C38.4803105,99.0577866 34,94.0521096 34,88 L34,74 C34,68.0540074 38.3245733,63.1180731 44,62.1659169 L44,56 L44,56 C44,25.072054 69.072054,5.68137151e-15 100,0 L100,0 L100,0 C130.927946,-5.68137151e-15 156,25.072054 156,56 L156,62.1659169 C161.675427,63.1180731 166,68.0540074 166,74 L166,88 C166,94.0521096 161.51969,99.0577866 155.694861,99.8812385 C153.627775,119.687011 141.237365,136.422372 124,144.610951 Z"/></defs><g id="x33" transform="translate(-825,-1100)"><g transform="translate(825,1100)"> <g id="x34" stroke-width="1" fill-rule="evenodd" mask="url('#py-avataaars-path-1389b19b-e1b3-4796-9084-5cef5b273f9a')"><g id="x32" transform="translate(32,36)"><mask id="x21" fill="#FFFFFF"><use xlink:href="#x19"/></mask><use fill="#D0C6AC" xlink:href="#x19"/><g id="x17" mask="url('#x21')" fill="#FD9841"><g transform="translate(0,0)" id="x18"><rect x="0" y="0" width="264" height="280"/></g></g> <path id="x31" d="M156,79 L156,102 C156,132.927946 130.927946,158 100,158 C69.072054,158 44,132.927946 44,102 L44,79 L44,94 C44,124.927946 69.072054,150 100,150 C130.927946,150 156,124.927946 156,94 L156,79 Z" fill-opacity="0.1" fill="#000000" mask="url('#x21')"/></g><g id="x52" transform="translate(0,170)"><defs><path id="x23" d="M181.544255,32.3304167 C210.784209,41.4878872 232,68.7921987 232,101.051724 L232,110 L32,110 L32,101.051724 C32,68.3969699 53.7388273,40.8195914 83.5340368,32.0020332 C83.182234,33.4201865 83,34.8712315 83,36.3476251 C83,52.6289957 105.161905,65.8276544 132.5,65.8276544 C159.838095,65.8276544 182,52.6289957 182,36.3476251 C182,34.9849859 181.844766,33.6439396 181.544255,32.3304167 Z"/></defs><mask id="x29" fill="#FFFFFF"><use xlink:href="#x23"/></mask><use id="x51" fill="#E6E6E6" fill-rule="evenodd" xlink:href="#x23"/><g id="x53" mask="url('#x29')" fill-rule="evenodd" fill="#3C4F5C"><rect id="x54" x="0" y="0" width="264" height="110"/></g></g><g id="x50" transform="translate(76,82)" fill="#000000"><g id="x43" transform="translate(2,52)"><g id="x42" opacity="0.6" stroke-width="1" transform="translate(28,6)" fill-opacity="0.6" fill="#000000"><path id="x55" d="M16.1906378,10.106319 C16.0179484,4.99553347 11.7923466,0.797193688 6.29352385,0 C9.66004124,1.95870633 11.9804619,5.49520667 11.9804619,9.67694348 C11.9804619,15.344608 6.50694731,20.2451296 0.176591694,20.2451296 C0.11761218,20.2451296 0.0587475828,20.2447983 0,20.244138 L8.8963743e-11,20.244138 C1.35764479,20.7317259 2.83995964,21 4.39225962,21 C9.71395931,21 14.2131224,17.8469699 15.6863572,13.5136402 C18.1609431,15.6698775 21.8629994,17.0394229 26,17.0394229 C30.1370006,17.0394229 33.8390569,15.6698775 36.3136428,13.5136402 C37.7868776,17.8469699 42.2860407,21 47.6077404,21 C49.1600404,21 50.6423552,20.7317259 52,20.244138 L52,20.244138 C51.9412524,20.2447983 51.8823878,20.2451296 51.8234083,20.2451296 C45.4930527,20.2451296 40.0195381,15.344608 40.0195381,9.67694348 C40.0195381,5.49520667 42.3399588,1.95870633 45.7064761,0 C40.2076534,0.797193688 35.9820516,4.99553347 35.8093622,10.106319 C33.2452605,11.8422828 29.7948543,12.9056086 26,12.9056086 C22.2051457,12.9056086 18.7547395,11.8422828 16.1906378,10.106319 Z"/></g><circle id="x41" fill-opacity="0.2" fill="#FF4646" cx="17" cy="15" r="9"/><circle id="x40" fill-opacity="0.2" fill="#FF4646" cx="91" cy="15" r="9"/></g><g id="x39" transform="translate(28,40)" fill-opacity="0.16"><path id="x38" d="M16,8 C16,12.418278 21.372583,16 28,16 L28,16 C34.627417,16 40,12.418278 40,8"/></g><g id="x46" transform="translate(0,8)" fill-opacity="0.6"><path id="x45" d="M27.2409577,20.3455337 C26.462715,21.3574913 26,22.6247092 26,24 C26,27.3137085 28.6862915,30 32,30 C35.3137085,30 38,27.3137085 38,24 C38,23.7097898 37.9793961,23.4243919 37.9395713,23.1451894 C37.9474218,22.9227843 37.9097825,22.6709538 37.8153518,22.4071242 C37.7703692,22.2814477 37.7221152,22.1572512 37.6706873,22.0345685 C37.3370199,21.0717264 36.7650456,20.2202109 36.0253277,19.550585 C33.898886,17.3173253 30.5064735,16 26.9975803,16 C22.1644225,16 18.006676,18.648508 16.1601674,22.4473116 C15.6201012,23.5583844 16.5467928,24.3002944 17.4375392,23.5716412 C19.8737584,21.5787519 23.2572061,20.3437884 26.9975803,20.3437884 C27.0788767,20.3437884 27.1600045,20.3443718 27.2409577,20.3455337 Z"/><path id="x44" d="M85.2409577,20.3455337 C84.462715,21.3574913 84,22.6247092 84,24 C84,27.3137085 86.6862915,30 90,30 C93.3137085,30 96,27.3137085 96,24 C96,23.7097898 95.9793961,23.4243919 95.9395713,23.1451894 C95.9474218,22.9227843 95.9097825,22.6709538 95.8153518,22.4071242 C95.7703692,22.2814477 95.7221152,22.1572512 95.6706873,22.0345685 C95.3370199,21.0717264 94.7650456,20.2202109 94.0253277,19.550585 C91.898886,17.3173253 88.5064735,16 84.9975803,16 C80.1644225,16 76.006676,18.648508 74.1601674,22.4473116 C73.6201012,23.5583844 74.5467928,24.3002944 75.4375392,23.5716412 C77.8737584,21.5787519 81.2572061,20.3437884 84.9975803,20.3437884 C85.0788767,20.3437884 85.1600045,20.3443718 85.2409577,20.3455337 Z"/></g><g id="x49" fill-opacity="0.6"><path id="x48" d="M36.3692975,6.87618545 C34.3991755,9.78053246 30.8236346,11.5165625 27.6315757,12.5601676 C23.6890255,13.8490851 9.08080143,15.9390364 12.5196198,23.9079177 C12.572332,24.029546 12.7390347,24.0312591 12.7920764,23.9096308 C13.9448284,21.2646433 30.256648,18.7865093 31.7648785,18.2064622 C36.2101722,16.4974987 40.1579937,12.7153722 40.9269343,7.66282939 C41.2794477,5.34640965 40.2901039,1.6143049 39.3791695,0.113308759 C39.2697915,-0.0669067099 39.0052417,-0.02339461 38.9498938,0.181831751 C38.5898029,1.51323348 37.5385221,5.15317482 36.3692975,6.87618545"/><path id="x47" d="M95.3692975,6.87618545 C93.3991755,9.78053246 89.8236346,11.5165625 86.6315757,12.5601676 C82.6890255,13.8490851 68.0808014,15.9390364 71.5196198,23.9079177 C71.572332,24.029546 71.7390347,24.0312591 71.7920764,23.9096308 C72.9448284,21.2646433 89.256648,18.7865093 90.7648785,18.2064622 C95.2101722,16.4974987 99.1579937,12.7153722 99.9269343,7.66282939 C100.279448,5.34640965 99.2901039,1.6143049 98.3791695,0.113308759 C98.2697915,-0.0669067099 98.0052417,-0.02339461 97.9498938,0.181831751 C97.5898029,1.51323348 96.5385221,5.15317482 95.3692975,6.87618545" transform="translate(85.5, 12.0) scale(-1, 1) translate(-85.5, -12.0)"/></g></g><g id="x1" stroke-width="1" fill-rule="evenodd"><defs><rect id="x24" x="0" y="0" width="264" height="280"/><path id="x20" d="M156,180.610951 C173.530782,172.282984 186.048193,155.114792 187.791419,134.867187 C193.569129,134.002364 198,129.018625 198,123 L198,110 C198,104.054007 193.675427,99.1180731 188,98.1659169 L188,92 C188,84.0546578 186.345324,76.495786 183.361772,69.6491845 C173.434911,53 89.3126235,53.8033992 80.7098777,69.4854816 C77.6811789,76.3752214 76,83.9912805 76,92 L76,98.1659169 C70.3245733,99.1180731 66,104.054007 66,110 L66,123 C66,129.018625 70.4308707,134.002364 76.2085808,134.867187 C77.9518066,155.114792 90.4692178,172.282984 108,180.610951 L108,199 L104,199 L104,199 C64.235498,199 32,231.235498 32,271 L32,280 L232,280 L232,271 C232,231.235498 199.764502,199 160,199 L156,199 L156,180.610951 Z M0,5.68434189e-14 L264,5.68434189e-14 L264,280 L0,280 L0,5.68434189e-14 Z"/><filter id="x37" x="-0.8%" y="-2.0%" width="101.5%" height="108.0%" filterUnits="objectBoundingBox"><feOffset dx="0" dy="2" in="SourceAlpha" result="shadowOffsetOuter1"/><feColorMatrix values="0 0 0 0 0 0 0 0 0 0 0 0 0 0 0 0 0 0 0.16 0" type="matrix" in="shadowOffsetOuter1" result="shadowMatrixOuter1"/><feMerge><feMergeNode in="shadowMatrixOuter1"/><feMergeNode in="SourceGraphic"/></feMerge></filter></defs><mask id="x30" fill="#FFFFFF"><use xlink:href="#x24"/></mask><g id="x3"/><g id="x6" mask="url('#x30')"><g transform="translate(-1,0)"><g id="x5" stroke-width="1" fill-rule="evenodd" transform="translate(1,0)"><mask id="x28" fill="#FFFFFF"><use xlink:href="#x20"/></mask><g id="x2"/><path d="M123.182388,2 L141.817612,2 L141.817612,2 C160.609055,2 176.866947,15.0804442 180.890118,33.4361631 L190,75 L75,75 L84.1098821,33.4361631 L84.1098821,33.4361631 C88.1330533,15.0804442 104.390945,2 123.182388,2 Z" fill="#262E33" mask="url('#x28')"/><ellipse id="x4" fill="#262E33" mask="url('#x28')" cx="132" cy="87.5" rx="122" ry="57.5"/><ellipse id="x0" fill="#15232A" mask="url('#x28')" cx="132" cy="82" rx="62" ry="25"/></g><g id="x9" transform="translate(49,72)"><defs><path id="x26" d='M105.017591,94.1296214 C101.150441,99.7213834 98.257542,95.9467308 94.1374777,92.8762163 C91.6567227,91.0272796 87.9608129,88.7275108 84.5044337,88.8410391 C81.0477114,88.7275108 77.3518016,91.0272796 74.8710466,92.8762163 C70.7509822,95.9467308 67.8580835,99.7213834 63.9909333,94.1296214 C61.0884259,89.9323547 62.3028943,82.8739117 65.014944,78.9027173 C68.8738581,73.2512381 74.1088724,75.9847769 79.9622738,75.3400279 C81.5538829,75.1648137 83.1526985,74.7228407 84.5044337,74 C85.856169,74.7228407 87.4546414,75.1648137 89.0462504,75.3400279 C94.899995,75.9847769 100.134666,73.2512381 103.993923,78.9027173 C106.70563,82.8739117 107.920098,89.9323547 105.017591,94.1296214 M140.39109,26 C136.966521,40.0748212 135.393023,54.4337754 132.909944,68.6711471 C132.392536,71.6390145 131.826063,74.5963095 131.224594,77.5496398 C131.098329,78.1697764 130.973781,80.4725746 130.362704,80.7643064 C128.511632,81.6484223 124.739149,76.9466834 123.730409,75.8851496 C121.196893,73.219256 118.684993,70.5292442 115.599415,68.437233 C109.364783,64.2102603 102.065485,61.7108818 94.4700836,61.117837 C91.2922091,60.8693859 86.9951134,61.3025234 84.000116,63.1104016 C81.0051185,61.3025234 76.7080229,60.8693859 73.5298053,61.117837 C65.9344039,61.7108818 58.6351055,64.2102603 52.4004739,68.437233 C49.3148957,70.5292442 46.8033387,73.219256 44.2694796,75.8851496 C43.2607395,76.9466834 39.4882573,81.6484223 37.6371849,80.7643064 C37.0261079,80.4725746 36.9015594,78.1697764 36.7752954,77.5496398 C36.1738255,74.5963095 35.6073527,71.6390145 35.0899445,68.6711471 C32.6072086,54.4337754 31.0337113,40.0748212 27.6091415,26 C26.6127533,26 25.7385119,44.7478165 25.6273446,46.4945731 C25.174784,53.5889755 24.6463963,60.5254529 25.3216346,67.6261326 C26.485803,79.8749043 27.6993791,95.2339402 37.032627,104.58753 C45.4659003,113.039493 57.7103052,114.806417 68.2713185,120.141327 C69.631059,120.828202 71.4347824,121.676306 73.3798667,122.37111 C75.4289129,123.934171 79.4926946,125 84.1740722,125 C89.0846465,125 93.3155222,123.827456 95.2540874,122.137856 C96.9548781,121.49261 98.5180822,120.752874 99.7285704,120.141327 C110.288776,114.805245 122.533989,113.039493 130.967262,104.58753 C140.30051,95.2339402 141.514086,79.8749043 142.678597,67.6261326 C143.353493,60.5254529 142.825105,53.5889755 142.372887,46.4945731 C142.261377,44.7478165 141.387136,26 140.39109,26 Z' /></defs><mask id="x27" fill="#FFFFFF"><use xlink:href="#x26"/></mask><use id="x8" fill="#252E32" fill-rule="evenodd" xlink:href="#x26"/><g id="x56" mask="url('#x27')" fill="#B58143"><g transform="translate(-32,0)" id="x7"><rect x="0" y="0" width="264" height="244"/></g></g></g><g id="x16" fill="none" transform="translate(62,85)" stroke-width="1"><defs><filter id="x36" x="-0.8%" y="-2.4%" width="101.5%" height="109.8%" filterUnits="objectBoundingBox"><feOffset dx="0" dy="2" in="SourceAlpha" result="shadowOffsetOuter1"/><feColorMatrix values="0 0 0 0 0 0 0 0 0 0 0 0 0 0 0 0 0 0 0.2 0" type="matrix" in="shadowOffsetOuter1" result="shadowMatrixOuter1"/><feMerge><feMergeNode in="shadowMatrixOuter1"/><feMergeNode in="SourceGraphic"/></feMerge></filter></defs><g id="x10" filter="url('#x36')" transform="translate(8,8)" fill="#D6EAF2"><path id="x15" d="M46.2491397,7.27516667 C48.6207695,7.2975 49.7419096,7.69183333 50.1459601,10.1651667 C50.5553446,12.6705 50.1572949,15.4871667 49.6852359,17.9548333 C48.9648125,21.7228333 47.7666627,25.4145 44.9776475,28.1685 C43.5084639,29.6188333 41.7165732,30.7748333 39.8106684,31.5641667 C38.7985419,31.9835 37.7297416,32.2861667 36.6612747,32.5158333 C36.3489024,32.5828333 33.6822357,32.9501667 35.3177735,32.7635 C31.5009631,33.1991667 27.3601122,33.1818333 24.1723805,30.7525 C20.6396056,28.0601667 18.2203032,23.7998333 17.1565036,19.5561667 C16.5340925,17.0731667 15.2262624,11.1345 17.6158944,9.14916667 C20.3532365,6.8745 46.2491397,7.27516667 46.2491397,7.27516667 L46.2491397,7.27516667 Z M22.2178029,0.4905 C16.7774562,0.677833333 13.1466691,1.63383333 10.4633337,7.06916667 C5.54571911,17.0301667 13.9627711,31.9688333 23.352278,36.0395 C34.3293166,40.7991667 46.5921826,35.5318333 52.3955746,26.0058333 C55.4689587,20.9621667 57.0224862,13.3231667 56.9224737,7.50383333 C56.7951245,0.0765 51.6071427,-0.1295 45.5090472,0.0338333333 L22.2178029,0.4905 Z"/><path id="x14" d="M79.6805515,7.27256667 C77.3089217,7.29523333 76.1877816,7.68923333 75.7837311,10.1625667 C75.3743466,12.6679 75.7723963,15.4845667 76.244122,17.9522333 C76.9648787,21.7202333 78.1630285,25.4119 80.9520437,28.1659 C82.4212273,29.6162333 84.213118,30.7722333 86.1190228,31.5619 C87.1311493,31.9809 88.1999496,32.2835667 89.2684165,32.5132333 C89.5807888,32.5802333 92.2471221,32.9479 90.6119177,32.7609 C94.4287281,33.1965667 98.569579,33.1792333 101.757311,30.7499 C105.290086,28.0575667 107.709388,23.7975667 108.773188,19.5539 C109.395599,17.0705667 110.703095,11.1322333 108.313797,9.14656667 C105.576455,6.8719 79.6805515,7.27256667 79.6805515,7.27256667 L79.6805515,7.27256667 Z M103.711555,0.4879 C109.152235,0.675233333 112.783022,1.63156667 115.466357,7.06656667 C120.383639,17.0275667 111.96692,31.9662333 102.577413,36.0372333 C91.6003746,40.7965667 79.3375086,35.5292333 73.5337832,26.0035667 C70.4607325,20.9595667 68.907205,13.3205667 69.0068841,7.50123333 C69.1345667,0.0739 74.3225485,-0.1321 80.420644,0.0315666667 L103.711555,0.4879 Z"/><path id="x13" d="M13.1969483,4.9267 C9.78501392,5.11836667 5.88606327,5.16436667 2.69005822,6.63936667 C-0.69461078,8.20136667 -1.2176675,11.7387 3.04920921,12.2260333 C4.97094906,12.4457 6.89488267,12.0827 8.78716336,11.7450333 C10.336903,11.4683667 12.4419791,11.5580333 13.9064752,10.9657 C16.6355213,9.86236667 16.4603333,4.74003333 13.1969483,4.9267"/><path id="x12" d="M112.73467,4.9267 C116.146606,5.11836667 120.045559,5.16436667 123.241565,6.63936667 C126.626236,8.20136667 127.149293,11.7387 122.882414,12.2260333 C120.960673,12.4457 119.036739,12.0827 117.144457,11.7450333 C115.594717,11.4683667 113.489639,11.5580333 112.025143,10.9657 C109.295782,9.86236667 109.471283,4.74003333 112.73467,4.9267"/><path id="x11" d="M73.1094302,7.01263333 C71.1631869,4.71263333 66.0912197,3.38463333 62.8914864,3.38463333 C59.6914198,3.38463333 54.7681378,4.71263333 52.8222279,7.01263333 C51.8407719,8.1723 51.8074344,9.72396667 53.5083137,10.4509667 C55.6262451,11.3566333 57.5174814,9.7143 59.2126933,8.8553 C61.3809643,7.75663333 64.7120473,7.8773 66.7189648,8.8553 C68.4271783,9.68796667 70.3050797,11.3566333 72.4233444,10.4509667 C74.1242237,9.72396667 74.0908862,8.1723 73.1094302,7.01263333"/></g></g> </g></g></g> </g></g></g></g></svg>