<?xml version="1.0" encoding="utf-8" ?><!DOCTYPE svg PUBLIC "-//W3C//DTD SVG 1.1//EN" "http://www.w3.org/Graphics/SVG/1.1/DTD/svg11.dtd"><svg width="280px" height="280px" viewBox="-6 0 274 280" version="1.1" xmlns="http://www.w3.org/2000/svg" xmlns:xlink="http://www.w3.org/1999/xlink"><desc>Py-Avataaars</desc> <g id="x33" stroke="none" stroke-width="1" fill="none" fill-rule="evenodd"><defs><circle id="x21" cx="120" cy="120" r="120"/><path id="x19" d="M12,160 C12,226.27417 65.72583,280 132,280 C198.27417,280 252,226.27417 252,160 L264,160 L264,-1.42108547e-14 L-3.19744231e-14,-1.42108547e-14 L-3.19744231e-14,160 L12,160 Z"/><path id="x22" d="M124,144.610951 L124,163 L128,163 L128,163 C167.764502,163 200,195.235498 200,235 L200,244 L0,244 L0,235 C-4.86974701e-15,195.235498 32.235498,163 72,163 L72,163 L76,163 L76,144.610951 C58.7626345,136.422372 46.3722246,119.687011 44.3051388,99.8812385 C38.4803105,99.0577866 34,94.0521096 34,88 L34,74 C34,68.0540074 38.3245733,63.1180731 44,62.1659169 L44,56 L44,56 C44,25.072054 69.072054,5.68137151e-15 100,0 L100,0 L100,0 C130.927946,-5.68137151e-15 156,25.072054 156,56 L156,62.1659169 C161.675427,63.1180731 166,68.0540074 166,74 L166,88 C166,94.0521096 161.51969,99.0577866 155.694861,99.8812385 C153.627775,119.687011 141.237365,136.422372 124,144.610951 Z"/></defs><g id="x31" transform="translate(-825,-1100)"><g transform="translate(825,1100)"> <g id="x32" stroke-width="1" fill-rule="evenodd" mask="url('#py-avataaars-path-faff8e34-6997-4680-9ff8-a2e4eb06891f')"><g id="x30" transform="translate(32,36)"><mask id="x17" fill="#FFFFFF"><use xlink:href="#x22"/></mask><use fill="#D0C6AC" xlink:href="#x22"/><g id="x15" mask="url('#x17')" fill="#FD9841"><g transform="translate(0,0)" id="x16"><rect x="0" y="0" width="264" height="280"/></g></g> <path id="x29" d="M156,79 L156,102 C156,132.927946 130.927946,158 100,158 C69.072054,158 44,132.927946 44,102 L44,79 L44,94 C44,124.927946 69.072054,150 100,150 C130.927946,150 156,124.927946 156,94 L156,79 Z" fill-opacity="0.1" fill="#000000" mask="url('#x17')"/></g><g id="x47" transform="translate(0,170)"><defs><path id="x20" d="M181.544255,32.3304167 C210.784209,41.4878872 232,68.7921987 232,101.051724 L232,110 L32,110 L32,101.051724 C32,68.3969699 53.7388273,40.8195914 83.5340368,32.0020332 C83.182234,33.4201865 83,34.8712315 83,36.3476251 C83,52.6289957 105.161905,65.8276544 132.5,65.8276544 C159.838095,65.8276544 182,52.6289957 182,36.3476251 C182,34.9849859 181.844766,33.6439396 181.544255,32.3304167 Z"/></defs><mask id="x28" fill="#FFFFFF"><use xlink:href="#x20"/></mask><use id="x46" fill="#E6E6E6" fill-rule="evenodd" xlink:href="#x20"/><g id="py-avataaars-clothes-clothe-color-palette-blue_03" mask="url('#x28')" fill-rule="evenodd" fill="#25557C"><rect id="x48" x="0" y="0" width="264" height="110"/></g></g><g id="x45" transform="translate(76,82)" fill="#000000"><g id="x38" transform="translate(2,52)" fill-opacity="0.7"><path id="x37" d="M40,15 C40,22.7319865 46.2680135,29 54,29 L54,29 C61.7319865,29 68,22.7319865 68,15"/></g><g id="x36" transform="translate(28,40)" fill-opacity="0.16"><path id="x35" d="M16,8 C16,12.418278 21.372583,16 28,16 L28,16 C34.627417,16 40,12.418278 40,8"/></g><g id="x41" transform="translate(0,8)" fill-opacity="0.6" fill-rule="nonzero"><path id="x40" d="M29,25.2 L34.5,30.7 C35,31.1 35.7,31.1 36.1,30.7 L37.7,29.1 C38.1,28.6 38.1,27.9 37.7,27.5 L32.2,22 L37.7,16.5 C38.1,16 38.1,15.3 37.7,14.9 L36.1,13.3 C35.6,12.9 34.9,12.9 34.5,13.3 L29,18.8 L23.5,13.3 C23,12.9 22.3,12.9 21.9,13.3 L20.3,14.9 C19.9,15.3 19.9,16 20.3,16.5 L25.8,22 L20.3,27.5 C19.9,28 19.9,28.7 20.3,29.1 L21.9,30.7 C22.4,31.1 23.1,31.1 23.5,30.7 L29,25.2 Z"/><path id="x39" d="M83,25.2 L88.5,30.7 C89,31.1 89.7,31.1 90.1,30.7 L91.7,29.1 C92.1,28.6 92.1,27.9 91.7,27.5 L86.2,22 L91.7,16.5 C92.1,16 92.1,15.3 91.7,14.9 L90.1,13.3 C89.6,12.9 88.9,12.9 88.5,13.3 L83,18.8 L77.5,13.3 C77,12.9 76.3,12.9 75.9,13.3 L74.3,14.9 C73.9,15.3 73.9,16 74.3,16.5 L79.8,22 L74.3,27.5 C73.9,28 73.9,28.7 74.3,29.1 L75.9,30.7 C76.4,31.1 77.1,31.1 77.5,30.7 L83,25.2 Z"/></g><g id="x44" fill-opacity="0.6"><path id="x43" d="M26.0390934,6.21012364 C20.2775554,6.98346216 11.2929313,12.0052479 12.04426,17.8178111 C12.0689481,18.0080543 12.3567302,18.0673468 12.4809077,17.9084937 C14.9674041,14.7203351 34.1927973,10.0365481 41.1942673,11.0147151 C41.8350523,11.1044465 42.2580662,10.4430343 41.8210501,10.0302067 C38.0765663,6.49485426 31.2003792,5.51224825 26.0390934,6.21012364" transform="translate(27,12) rotate(5.0) translate(-27,-12)"/><path id="x42" d="M85.0390934,6.21012364 C79.2775554,6.98346216 70.2929313,12.0052479 71.04426,17.8178111 C71.0689481,18.0080543 71.3567302,18.0673468 71.4809077,17.9084937 C73.9674041,14.7203351 93.1927973,10.0365481 100.194267,11.0147151 C100.835052,11.1044465 101.258066,10.4430343 100.82105,10.0302067 C97.0765663,6.49485426 90.2003792,5.51224825 85.0390934,6.21012364" transform="translate(86,12) scale(-1, 1) rotate(5.0) translate(-86,-12)"/></g></g><g id="x0" stroke-width="1" fill-rule="evenodd"><defs><rect id="x24" x="0" y="0" width="264" height="280"/><path id="x18" d="M133.506381,81.3351151 C137.363649,83.3307002 140,87.3574737 140,92 L140,105 C140,111.018625 135.569129,116.002364 129.791419,116.867187 C128.048193,137.114792 115.530782,154.282984 98,162.610951 L98,162.610951 L98,181 L102,181 C119.490913,181 135.525121,187.236892 148,197.608051 L148,74 C148,53.5654643 139.717268,35.0654643 126.325902,21.6740982 C112.934536,8.28273213 94.4345357,-3.55271368e-15 74,0 C33.1309285,7.10542736e-15 -7.10542736e-15,33.1309285 0,74 L0,257.716445 C13.5691766,255.775526 24,244.105888 24,230 L24,184.423101 C30.9346808,182.200199 38.3271796,181 46,181 L50,181 L50,162.610951 C38.7726252,157.277407 29.6015372,148.317951 24,137.245847 L24,75.2659587 C33.1467898,72.2910056 42.777598,68.0170651 52.3415164,62.4953343 C67.7445474,53.6023901 80.4313947,42.9409152 89.0661426,32.3970356 C90.8310687,37.5951441 93.1752556,42.8009742 96.1104311,47.8848473 C104.877881,63.0705152 117.224186,74.2337047 130,79.9170491 L130,80.1659169 C130.400422,80.233095 130.794121,80.3201038 131.18005,80.4258987 C131.954509,80.7493055 132.730185,81.0524853 133.506381,81.3351151 Z"/></defs><mask id="x25" fill="#FFFFFF"><use xlink:href="#x24"/></mask><g id="x3"/><g id="x5" mask="url('#x25')"><g transform="translate(-1,0)"><g id="x4" stroke-width="1" fill="none" fill-rule="evenodd" transform="translate(59,18)"><mask id="x26" fill="#FFFFFF"><use xlink:href="#x18"/></mask><use id="x2" fill="#944F23" xlink:href="#x18"/><g id="x6-pastel_pink" mask="url('#x26')" fill="#F59797"><g transform="translate(0,0) " id="x6"><rect x="0" y="0" width="264" height="280"/></g></g></g><path id="x1" d="M192.506381,99.3351151 C197.3745,101.107702 202.263079,102.071957 207,102.148232 L207,102.148232 L207,92 C207,71.5654643 198.717268,53.0654643 185.325902,39.6740982 C198.717268,53.0654643 207,71.5654643 207,92 L207,215.608051 C194.525121,205.236892 178.490913,199 161,199 L157,199 L157,180.610951 L157,180.610951 C174.530782,172.282984 187.048193,155.114792 188.791419,134.867187 C194.569129,134.002364 199,129.018625 199,123 L199,110 C199,105.357474 196.363649,101.3307 192.506381,99.3351151 Z M190.18005,98.4258987 C189.794121,98.3201038 189.400422,98.233095 189,98.1659169 L189,97.9170491 C189.392974,98.0918644 189.786355,98.2614951 190.18005,98.4258987 Z M83,155.245847 C88.6015372,166.317951 97.7726252,175.277407 109,180.610951 L109,199 L105,199 C97.3271796,199 89.9346808,200.200199 83,202.423101 L83,155.245847 Z" fill-opacity="0.24" fill="#000000" fill-rule="evenodd"/><g id="x9" transform="translate(49,72)"><defs><path id="x23" d="M101.428403,98.1685688 C98.9148372,100.462621 96.23722,101.494309 92.8529444,100.772863 C92.2705777,100.648833 89.8963391,96.2345713 83.9998344,96.2345713 C78.1033297,96.2345713 75.7294253,100.648833 75.1467245,100.772863 C71.7624488,101.494309 69.0848316,100.462621 66.5712661,98.1685688 C61.8461772,93.855604 57.9166219,87.9081858 60.2778299,81.4191814 C61.5083844,78.0369425 63.5097479,74.3237342 67.1506257,73.2459109 C71.0384163,72.0955419 76.4968931,73.2439051 80.4147542,72.4582708 C81.6840664,72.2035248 83.0706538,71.7508657 83.9998344,71 C84.929015,71.7508657 86.3159365,72.2035248 87.5845805,72.4582708 C91.5027758,73.2439051 96.9612525,72.0955419 100.849043,73.2459109 C104.489921,74.3237342 106.491284,78.0369425 107.722173,81.4191814 C110.083381,87.9081858 106.153826,93.855604 101.428403,98.1685688 M140.081033,26 C136.670693,34.4002532 137.987774,44.8580348 137.356666,53.6758724 C136.844038,60.8431942 135.33712,71.5857526 128.972858,76.214531 C125.718361,78.5816138 119.79436,82.5598986 115.54187,81.4501943 C112.614539,80.6863848 112.302182,72.290096 108.455284,69.1469801 C104.09172,65.5823153 98.6429854,64.0160432 93.1491481,64.2578722 C90.7785381,64.3622683 85.9841367,64.3374908 83.9999331,66.1604584 C82.0157295,64.3374908 77.2216647,64.3622683 74.8510547,64.2578722 C69.3568808,64.0160432 63.9081467,65.5823153 59.5445817,69.1469801 C55.6976839,72.290096 55.3856641,80.6863848 52.4583326,81.4501943 C48.2058427,82.5598986 42.2818421,78.5816138 39.0270077,76.214531 C32.6624096,71.5857526 31.1561652,60.8431942 30.642864,53.6758724 C30.0120926,44.8580348 31.3291729,34.4002532 27.9188335,26 C26.2597768,26 27.3540339,42.1288693 27.3540339,42.1288693 L27.3540339,62.4851205 C27.3856735,77.7732046 36.935095,100.655445 58.1080116,109.393004 C63.2861266,111.52982 75.0153111,115 83.9999331,115 C92.9845551,115 104.71374,111.860188 109.891855,109.723371 C131.064771,100.985813 140.614193,77.7732046 140.646169,62.4851205 L140.646169,42.1288693 C140.646169,42.1288693 141.740089,26 140.081033,26"/></defs><mask id="x27" fill="#FFFFFF"><use xlink:href="#x23"/></mask><use id="x8" fill="#331B0C" fill-rule="evenodd" xlink:href="#x23"/><g id="x49" mask="url('#x27')" fill="#A55728"><g transform="translate(-32,0)" id="x7"><rect x="0" y="0" width="264" height="244"/></g></g></g><g id="x14" fill="none" transform="translate(62,85)" stroke-width="1"><defs><filter id="x34" x="-0.8%" y="-2.0%" width="101.5%" height="108.0%" filterUnits="objectBoundingBox"><feOffset dx="0" dy="2" in="SourceAlpha" result="shadowOffsetOuter1"/><feColorMatrix values="0 0 0 0 0 0 0 0 0 0 0 0 0 0 0 0 0 0 0.16 0" type="matrix" in="shadowOffsetOuter1" result="shadowMatrixOuter1"/><feMerge><feMergeNode in="shadowMatrixOuter1"/><feMergeNode in="SourceGraphic"/></feMerge></filter></defs><g id="x10" filter="url('#x34')" transform="translate(5,2)"><path id="x11" d="M66,11.1111111 C54.9625586,11.1111111 53.3705645,2.0266011 30.6705882,0.740740741 C7.98552275,-0.283199952 0.815225204,6.4494855 0.776470588,11.1111111 C0.813236892,15.4042795 -0.352293566,26.5612661 14.3647059,39.6296296 C29.1367705,55.1420807 44.2704162,49.8818301 49.6941176,44.8148148 C55.1352081,42.4731118 61.3403442,21.4596351 66,21.4814815 C70.6596558,21.5033279 76.8647919,42.4731118 82.3058824,44.8148148 C87.7295838,49.8818301 102.86323,55.1420807 117.635294,39.6296296 C132.352294,26.5612661 131.186763,15.4042795 131.223529,11.1111111 C131.184775,6.4494855 124.014477,-0.283199952 101.329412,0.740740741 C78.6294355,2.0266011 77.0374414,11.1111111 66,11.1111111 Z" fill="#F4F4F4" fill-rule="nonzero"/><path id="x12" d="M55.1294118,21.4814815 C55.5103632,13.8233491 42.2156493,5.64243259 27.9529412,5.92592593 C13.6973442,6.22450879 11.8417942,15.3786982 11.6470588,18.8888889 C11.2982286,27.0220633 20.014463,45.3037598 36.1058824,44.8148148 C52.1972736,44.305848 54.9092435,26.5344305 55.1294118,21.4814815 Z" fill="#2F383B" fill-rule="nonzero"/><path id="x13" d="M120.352941,21.4814815 C120.733893,13.8233491 107.439179,5.64243259 93.1764706,5.92592593 C78.9208736,6.22450879 77.0653236,15.3786982 76.8705882,18.8888889 C76.521758,27.0220633 85.2379924,45.3037598 101.329412,44.8148148 C117.420803,44.305848 120.132773,26.5344305 120.352941,21.4814815 Z" fill="#2F383B" fill-rule="nonzero" transform="translate(98.611765, 25.370370) scale(-1, 1) translate(-98.611765, -25.370370)"/></g></g> </g></g></g> </g></g></g></g></svg>