<?xml version="1.0" encoding="utf-8" ?><!DOCTYPE svg PUBLIC "-//W3C//DTD SVG 1.1//EN" "http://www.w3.org/Graphics/SVG/1.1/DTD/svg11.dtd"><svg width="280px" height="280px" viewBox="-6 0 274 280" version="1.1" xmlns="http://www.w3.org/2000/svg" xmlns:xlink="http://www.w3.org/1999/xlink"><desc>Py-Avataaars</desc> <g id="x33" stroke="none" stroke-width="1" fill="none" fill-rule="evenodd"><defs><circle id="x23" cx="120" cy="120" r="120"/><path id="x19" d="M12,160 C12,226.27417 65.72583,280 132,280 C198.27417,280 252,226.27417 252,160 L264,160 L264,-1.42108547e-14 L-3.19744231e-14,-1.42108547e-14 L-3.19744231e-14,160 L12,160 Z"/><path id="x21" d="M124,144.610951 L124,163 L128,163 L128,163 C167.764502,163 200,195.235498 200,235 L200,244 L0,244 L0,235 C-4.86974701e-15,195.235498 32.235498,163 72,163 L72,163 L76,163 L76,144.610951 C58.7626345,136.422372 46.3722246,119.687011 44.3051388,99.8812385 C38.4803105,99.0577866 34,94.0521096 34,88 L34,74 C34,68.0540074 38.3245733,63.1180731 44,62.1659169 L44,56 L44,56 C44,25.072054 69.072054,5.68137151e-15 100,0 L100,0 L100,0 C130.927946,-5.68137151e-15 156,25.072054 156,56 L156,62.1659169 C161.675427,63.1180731 166,68.0540074 166,74 L166,88 C166,94.0521096 161.51969,99.0577866 155.694861,99.8812385 C153.627775,119.687011 141.237365,136.422372 124,144.610951 Z"/></defs><g id="x31" transform="translate(-825,-1100)"><g transform="translate(825,1100)"> <g id="x32" stroke-width="1" fill-rule="evenodd" mask="url('#py-avataaars-path-98c25ec5-b29f-4ecb-9575-2a5cc7a70990')"><g id="x30" transform="translate(32,36)"><mask id="x17" fill="#FFFFFF"><use xlink:href="#x21"/></mask><use fill="#D0C6AC" xlink:href="#x21"/><g id="py-avataaars-skin-dark_brown" mask="url('#x17')" fill="#AE5D29"><g transform="translate(0,0)" id="x15"><rect x="0" y="0" width="264" height="280"/></g></g> <path id="x29" d="M156,79 L156,102 C156,132.927946 130.927946,158 100,158 C69.072054,158 44,132.927946 44,102 L44,79 L44,94 C44,124.927946 69.072054,150 100,150 C130.927946,150 156,124.927946 156,94 L156,79 Z" fill-opacity="0.1" fill="#000000" mask="url('#x17')"/></g><g id="x57" transform="translate(0,170)"><defs><path id="x18" d="M165.624032,29.2681342 C202.760022,32.1373245 232,63.1798426 232,101.051724 L232,110 L32,110 L32,101.051724 C32,62.8348009 61.7752018,31.5722494 99.3929298,29.1967444 C99.1342224,30.2735458 99,31.3767131 99,32.5 C99,44.3741221 113.998461,54 132.5,54 C151.001539,54 166,44.3741221 166,32.5 C166,31.4015235 165.871641,30.3222877 165.624025,29.2681336 Z"/></defs><mask id="x25" fill="#FFFFFF"><use xlink:href="#x18"/></mask><use id="x56" fill="#E6E6E6" fill-rule="evenodd" xlink:href="#x18"/><g id="x58" mask="url('#x25')" fill-rule="evenodd" fill="#262E33"><rect id="x59" x="0" y="0" width="264" height="110"/></g><g id="x55" mask="url('#x25'" stroke-width="1" fill-rule="evenodd"><g transform="translate(77,58)" id="x46"><g transform="translate(3,9)"><path id="x51" d="M102.565245,21.0710109 C99.4833509,20.4054313 97.3728781,24.6059197 100.65303,25.85541 C103.46796,26.9271503 105.497722,21.7103865 102.565245,21.0710109" fill="#FFFFFF"/><path id="x50" d="M101.191001,18 C104.847558,18 103.499462,12.0185653 103.512139,10.034892 C103.52569,7.89835492 105.057378,1.43936922 102.622588,0.300988793 C98.4060734,-1.67043963 99.5622709,6.62567562 99.5876242,8.26886181 C99.6156003,10.0850565 99.7546063,11.9885455 99.3594446,13.7770905 C99.009744,15.3574722 98.2303489,18 101.191001,18" fill="#FFFFFF"/><path id="x53" d="M96.057932,1.97392328 C94.9756601,1.35173361 93.2567577,1.65427333 92.0711316,1.60022061 C90.7220251,1.53916824 89.3807782,1.40539746 88.0356015,1.30662485 C85.8592683,1.14718875 83.080101,0.743543202 80.9175222,1.23857286 C79.6922049,1.51933595 78.5800664,2.46389764 79.1565707,3.84671419 C79.777482,5.33646958 81.4602301,4.95187859 82.7370279,4.87682696 C83.3217848,4.84221766 84.7703158,4.58750876 85.3421043,4.78816493 C86.3390991,5.13853549 85.9154647,4.67967061 86.1430012,5.85522022 C86.491969,7.66229234 86.2825097,9.85512207 86.2675764,11.6929148 C86.2420326,14.8668599 86.2322081,18.0567485 86.1650082,21.2287493 C86.1386784,22.4645735 85.7244756,23.8606116 86.9218911,24.6768466 C87.9196719,25.3569777 89.1379155,24.9023904 89.6550795,23.8835548 C90.1694927,22.8705522 89.6806234,20.8169375 89.6259989,19.6876632 C89.5599779,18.3406226 89.4900272,17.0122476 89.5293254,15.6628738 C89.6330726,12.0775058 89.8110933,8.49563763 89.8971563,4.90910305 C90.8399197,4.95537841 91.8188373,4.92737987 92.7525621,5.05842857 C93.4359574,5.15409023 94.4184119,5.59351169 95.0754775,5.55890239 C96.9743656,5.45818543 97.7689748,2.97175996 96.057932,1.97392328" fill="#FFFFFF"/><path id="x54" d="M67.7216119,8.81264097 C67.7100258,8.75972031 67.6397369,8.1691564 67.7216119,8.81264097 M67.6853088,8.53730013 C67.6887847,8.56222653 67.685695,8.5449698 67.6853088,8.53730013 M69.1169633,5.42725256 C72.533315,1.44593148 73.7004204,9.77441647 76.3625176,9.42199554 C80.623109,8.85827545 75.4217272,2.46944776 73.6942412,1.64649312 C70.1786354,-0.0289443454 67.0886252,1.72587411 65.4167525,4.9126183 C63.3188978,8.91234656 64.6466637,11.6208874 68.6751471,13.3572987 C70.1461943,13.9915796 75.714469,15.8848355 74.2051877,18.3157346 C73.4451402,19.5398125 70.6791544,19.6445033 69.5047111,19.402142 C67.1492591,18.916269 67.5161519,17.3159942 66.3699015,15.8288469 C65.3371947,14.4885737 63.3397528,14.8820273 63.028087,16.6100019 C62.7828481,17.9675319 64.198282,20.0348891 65.1433208,20.9897619 C67.3759602,23.2457927 71.1831493,23.4271802 74.0298516,22.3998291 C78.4155727,20.816811 78.9473743,16.6909168 75.8357368,13.4953526 C74.0870096,11.6995014 71.9026455,11.154572 69.7225296,10.0773681 C67.0781977,8.7712248 67.5725376,7.68673472 69.1169633,5.42725256" fill="#FFFFFF"/><path id="x52" d="M58.749962,20.5676943 C58.1855671,15.7434329 58.0538346,10.8505093 57.9696387,6.00460433 C57.9426476,4.45075032 58.6758373,0.798596322 56.5169562,0.139962235 C53.6023258,-0.749287073 53.9890632,2.83233897 54.0502966,4.30372379 C54.255348,9.21679823 54.8922562,14.0929294 55.1210758,19.0000333 C55.193992,20.5568726 54.6924419,23.5739018 56.9520358,23.9463193 C59.7027058,24.4000865 58.9598476,21.8648117 58.749962,20.5676943" fill="#FFFFFF"/><path id="x47" d="M49.4716454,4.67909741 C47.1120678,1.521124 42.3181606,1.01110068 39.382093,3.92183601 C37.3101733,5.97595969 36.00495,10.8410892 37.9661116,13.3252251 C40.0904751,16.016404 45.3211527,13.6574039 46.6913436,16.7080638 C48.3726748,20.4511421 43.9611374,21.8560762 41.6168232,19.3708027 C40.7738094,18.4774087 40.9581453,16.917382 39.7163241,16.3637507 C37.9539791,15.5788077 36.853443,17.2916519 37.2001979,18.7227508 C38.0479082,22.2235205 41.8524287,24.1130716 45.3011927,23.9947614 C49.0689244,23.8650751 50.7028996,21.0184245 50.4641631,17.5957699 C50.1342371,12.8603265 46.4792204,12.1186123 42.4747091,11.597213 C40.7761576,11.3761397 40.5534673,11.3966165 40.6583549,9.64547322 C40.7855505,7.52650643 42.0277631,5.07763608 44.6491681,5.58159221 C46.7551372,5.98657727 46.942604,9.15327227 49.1037564,9.30040167 C52.5998763,9.53853896 50.3604497,5.86712943 49.4716454,4.67909741" fill="#FFFFFF"/><path id="x48" d="M31.7209696,20.4381695 C30.3835461,20.7580967 28.7579173,20.5355712 27.3944988,20.5112208 C26.3407598,20.4924897 22.8201338,20.9379153 22.1329619,20.2148947 C21.3727026,19.4150766 21.6202201,16.9680453 21.5881973,15.9288437 C21.5422351,14.4753101 21.1839563,14.2599024 22.4595946,13.9298603 C23.2085518,13.7361807 24.3674009,13.8332078 25.1415996,13.7976187 C26.6572206,13.727939 28.606845,14.008531 30.0716062,13.7099572 C31.4414292,13.4304891 32.5739067,11.958599 31.3223797,10.7058628 C30.4355361,9.81763391 28.7797682,10.2949024 27.6909924,10.3200021 C25.6573553,10.3664552 23.6222112,10.3555912 21.5881973,10.3915549 C21.5964855,8.82376157 21.5448723,7.2454788 21.6669357,5.68105705 C24.5143291,5.82154032 27.4788884,6.56329201 30.3255283,6.42655496 C31.766555,6.35724988 33.3654353,5.43530497 32.6368221,3.69630934 C32.0121888,2.20606276 30.1149312,2.40985716 28.792954,2.35066687 C27.1398233,2.27611708 25.4848088,2.23790563 23.8313013,2.18096308 C22.6068996,2.13900541 20.8260543,1.73628668 19.6721027,2.28847961 C17.3095724,3.41833976 18.121445,7.29867513 18.1873743,9.39955568 C18.2706336,12.0657409 18.2721406,14.6678658 18.3644416,17.3561538 C18.4484544,19.7885748 18.3271445,22.9972128 21.2159792,23.6808981 C24.1051906,24.364958 27.4611816,23.7142395 30.4084109,23.8565959 C31.6166129,23.9150369 33.2693669,24.2671816 33.8631075,22.8608504 C34.4319834,21.512211 33.1326106,20.086774 31.7209696,20.4381695" fill="#FFFFFF"/><path id="x49" d="M8.41021607,5.87934286 C10.7314099,6.38056324 11.3520318,8.89406466 11.4306011,11.0286326 C11.4842397,12.4898438 11.613048,12.4018284 10.4273316,12.768689 C9.23708235,13.1371074 7.50704692,12.9377097 6.28808963,12.8851342 C3.74516418,12.7756991 4.0526421,12.6070678 4.00353629,9.93973422 C3.99220418,9.31505862 3.52947636,6.4362544 3.89625898,6.02967003 C4.37220759,5.5015777 7.73482232,5.8267673 8.41021607,5.87934286 M13.4870013,20.7181143 C12.1966517,19.2140637 10.9010138,17.7773878 9.45277018,16.4318428 C11.6107816,16.3722571 13.9557729,15.9594416 14.7229567,13.6130136 C15.3711534,11.6307201 14.8079476,8.6132722 14.05474,6.74080322 C13.0612917,4.27092005 10.9928039,2.62238402 8.42003723,2.26253349 C6.62389782,2.01172858 2.14242611,1.58956627 0.799948834,2.97327723 C-0.664537495,4.48161175 0.351952758,8.62222952 0.4422319,10.4701632 C0.602014649,13.7411422 0.486049391,16.987586 0.285471047,20.2550599 C0.220500284,21.3096868 -0.296621662,23.0423437 0.243919977,23.9918195 C0.843766325,25.0456674 2.30296434,25.3089347 3.21255502,24.5288691 C4.19693763,23.6845445 3.74176455,22.6513373 3.68132663,21.5678912 C3.58802559,19.8917044 3.75574082,18.1644997 3.85546339,16.4937651 C5.46348977,17.806207 7.10551249,19.0851563 8.61683821,20.5163799 C10.1096548,21.9300785 11.1809169,23.7184265 12.6076296,25.143419 C13.618076,26.1528699 15.4266807,26.5676327 15.9381366,24.6947742 C16.377067,23.0871303 14.3667507,21.7435326 13.4870013,20.7181143" fill="#FFFFFF"/></g></g></g></g><g id="x45" transform="translate(76,82)" fill="#000000"><g id="x38" transform="translate(2,52)" fill-opacity="0.6" fill-rule="nonzero" fill="#000000"><path id="x37" d="M40,16 C40,21.371763 46.1581544,25 54,25 C61.8418456,25 68,21.371763 68,16 C68,14.8954305 67.050301,14 66,14 C64.7072748,14 64.1302316,14.9051755 64,16 C62.7575758,18.9378973 59.6832595,20.7163149 54,21 C48.3167405,20.7163149 45.2424242,18.9378973 44,16 C43.8697684,14.9051755 43.2927252,14 42,14 C40.949699,14 40,14.8954305 40,16 Z"/></g><g id="x36" transform="translate(28,40)" fill-opacity="0.16"><path id="x35" d="M16,8 C16,12.418278 21.372583,16 28,16 L28,16 C34.627417,16 40,12.418278 40,8"/></g><g id="x41" transform="translate(0,8)" fill-opacity="0.6"><circle id="x40" cx="30" cy="22" r="6"/><circle id="x39" cx="82" cy="22" r="6"/></g><g id="x44" fill-opacity="0.6"><path id="x43" d="M38.5686071,10.7022978 C33.5865557,11.2384494 28.6553385,11.1338998 23.6562444,11.1010606 C19.8231061,11.0762636 15.91974,10.6892291 12.3246118,12.5091287 C11.6361455,12.8572921 7.8767609,14.9449324 8.00311195,16.0108688 C8.10389896,16.8633498 12.0128479,18.0636592 12.7165939,18.2838164 C16.4280826,19.4452548 19.9241869,18.9282036 23.6870976,18.5703225 C28.3024371,18.1316834 32.9139567,18.1745756 37.5322346,17.8739956 C40.6422336,17.6719334 45.4224171,16.9769469 46.8293214,13.1484895 C47.2530382,11.9954284 46.8152171,9.73353891 46.3074622,8.50642195 C46.1050066,8.01751871 45.5634602,7.84963624 45.1688335,8.14921095 C43.7560524,9.22218432 40.9851444,10.4425994 38.5686071,10.7022978" transform="translate(27.5, 13.500000) rotate(2.0) translate(-27.5, -13.500000)"/><path id="x42" d="M95.5686071,10.7022978 C90.5865557,11.2384494 85.6553385,11.1338998 80.6562444,11.1010606 C76.8231061,11.0762636 72.91974,10.6892291 69.3246118,12.5091287 C68.6361455,12.8572921 64.8767609,14.9449324 65.003112,16.0108688 C65.103899,16.8633498 69.0128479,18.0636592 69.7165939,18.2838164 C73.4280826,19.4452548 76.9241869,18.9282036 80.6870976,18.5703225 C85.3024371,18.1316834 89.9139567,18.1745756 94.5322346,17.8739956 C97.6422336,17.6719334 102.422417,16.9769469 103.829321,13.1484895 C104.253038,11.9954284 103.815217,9.73353891 103.307462,8.50642195 C103.105007,8.01751871 102.56346,7.84963624 102.168833,8.14921095 C100.756052,9.22218432 97.9851444,10.4425994 95.5686071,10.7022978" transform="translate(84.5, 13.500000) scale(-1, 1) rotate(2.0) translate(-84.5, -13.500000)"/></g></g><g id="x0" stroke-width="1" fill-rule="evenodd"><defs><rect id="x24" x="0" y="0" width="264" height="280"/><path id="x16" d="M21,157.540812 L21,69.046252 C21,65.5140485 21.3981158,62.0748299 22.1519234,58.7710202 C25.205041,38.7314193 36.7752683,22.8108863 50,13 C69.9046441,-1.75961713 103.441939,-6.01828252 115.047069,11.5221046 C123.698343,7.68103538 136.519049,11.1821114 146,20 C155.565156,29.4150438 163.19967,50.1973768 158.657409,67.2035172 C158.762104,68.4691962 158.815476,69.7490355 158.815476,71.0408963 L158.815476,92.8921195 C157.934142,87.9183006 153.988995,84.0029116 149,83.1659169 L149,83 C142.963851,61.4642087 125.229516,51.5800472 114.429684,41.777113 C97.5353566,60.6732583 44.8226408,60.7398069 27,98 L27,108 C27,114.018625 31.4308707,119.002364 37.2085808,119.867187 C38.9518066,140.114792 51.4692178,157.282984 69,165.610951 L69,166 C71.9303712,209.855112 62.358462,264.797432 0,248 C13.6057325,240.037752 20.8081123,189.055563 21,157.540812 Z M117,165.610951 C134.530782,157.282984 147.048193,140.114792 148.791419,119.867187 C153.87876,119.105701 157.921895,115.150816 158.815476,110.107881 L158.815476,111.47039 L158.815476,111.47039 C158.815476,127.298552 162.572711,142.900645 169.7782,156.993609 L196.726668,209.701177 C203.689761,223.320048 201.645562,239.173573 192.790715,250.468968 C189.966212,213.288807 158.90349,184 121,184 L121,184 L117,184 L117,165.610951 Z"/><path id="x22" d="M65.1802189,77.7372986 C67.3631845,76.1045334 80.4065113,75.4786511 82.757829,74.0894494 C83.4916461,73.6553857 84.0610723,73.215719 84.4997781,72.7800074 C84.938814,73.215719 85.5085703,73.6553857 86.2423874,74.0894494 C88.593375,75.4786511 101.636702,76.1045334 103.819667,77.7372986 C106.030032,79.3908276 107.643571,83.1846831 107.466966,86.15095 C107.255041,89.7101408 103.361486,98.2028927 93.6723269,99.1811016 C91.5576925,96.8281927 88.2368647,95.3104528 84.4997781,95.3104528 C80.7633517,95.3104528 77.4421938,96.8281927 75.3275594,99.1811016 C65.6387308,98.2028927 61.7451757,89.7101408 61.5332501,86.15095 C61.3566455,83.1846831 62.9701849,79.3908276 65.1802189,77.7372986 M103.141638,94.9063813 C103.142958,94.9057221 103.144609,94.905063 103.145929,94.9047334 C103.144278,94.905063 103.142958,94.9057221 103.141638,94.9063813 M65.8453747,94.9014375 C65.8493359,94.9030855 65.8565982,94.9057221 65.8618798,94.9076997 C65.8565982,94.9057221 65.8509864,94.9034151 65.8453747,94.9014375 M144.86259,55.9853335 C144.47439,50.0303878 143.277769,44.1519058 142.233986,38.2862777 C141.952739,36.7072349 140.423706,26 139.734783,26 C139.502391,35.1094058 138.701893,44.0803858 137.669664,53.1393651 C137.361018,55.8475668 137.037848,58.5564277 136.825262,61.2741874 C136.653609,63.4695546 136.959614,66.1220564 136.427819,68.2455739 C135.749129,70.9524573 132.348087,73.4783984 129.702978,74.410795 C123.102915,76.7373371 117.597802,67.1077689 111.960977,64.2911336 C104.643272,60.6347152 92.0637391,59.7639895 84.5816434,64.5297918 C76.9361472,59.7639895 64.356614,60.6347152 57.0389092,64.2911336 C51.4024147,67.1077689 45.8969708,76.7373371 39.2972383,74.410795 C36.6521296,73.4783984 33.2504268,70.9524573 32.572397,68.2455739 C32.0402723,66.1220564 32.346277,63.4695546 32.174954,61.2741874 C31.9623682,58.5564277 31.6388681,55.8475668 31.3302226,53.1393651 C30.2983232,44.0803858 29.4974953,35.1094058 29.2654335,26 C28.5761802,26 27.0468169,36.7072349 26.7658999,38.2862777 C25.7221169,44.1519058 24.5258266,50.0303878 24.1376265,55.9853335 C23.738533,62.1047422 24.2148704,68.1674622 25.4695887,74.1632765 C26.0687242,77.0277016 26.7685407,79.8756475 27.518863,82.7041478 C28.352701,85.8467429 27.198994,91.9661516 27.5723395,95.1921317 C28.2787581,101.29572 31.1542781,113.199679 34.3833375,118.45096 C35.9440605,120.989096 37.7734867,122.573742 39.816489,124.619148 C41.7825775,126.58809 42.6038717,129.640049 44.7260985,131.73687 C48.6820428,135.645092 54.4456266,137.971304 60.3656788,138.543134 C65.6773527,143.050212 74.505605,146 84.4997781,146 C94.4946114,146 103.322534,143.050212 108.634538,138.543134 C114.55393,137.971304 120.317843,135.645092 124.274118,131.73687 C126.396015,129.640049 127.217309,126.58809 129.183727,124.619148 C131.2264,122.573742 133.055826,120.989096 134.616879,118.45096 C137.845608,113.199679 140.721458,101.29572 141.427547,95.1921317 C141.800892,91.9661516 140.647185,85.8467429 141.481353,82.7041478 C142.231676,79.8756475 142.931162,77.0277016 143.530628,74.1632765 C144.784686,68.1674622 145.261353,62.1047422 144.86259,55.9853335 Z"/></defs><mask id="x26" fill="#FFFFFF"><use xlink:href="#x24"/></mask><g id="x2"/><g id="x4" mask="url('#x26')"><g transform="translate(-1,0)"><g id="x3" stroke-width="1" fill="none" fill-rule="evenodd" transform="translate(40,15)"><mask id="x27" fill="#FFFFFF"><use xlink:href="#x16"/></mask><use fill="#272C2E" xlink:href="#x16"/><g id="x5" mask="url('#x27')" fill="#724133"><g transform="translate(0,0) " id="x6"><rect x="0" y="0" width="264" height="280"/></g></g> </g><path id="x1" d="M67,113 C84.8226408,80.6646674 137.535357,80.6069148 154.429684,64.2083647 C165.207546,72.6982916 182.891727,79.2665518 188.963018,97.8687161 C182.891727,76.423995 165.207546,66.5601054 154.429684,56.777113 C137.535357,75.6732583 84.8226408,75.7398069 67,113 Z" fill-opacity="0.16" fill="#000000" fill-rule="evenodd"/><g id="x9" transform="translate(49,72)"><defs><path id="x20" d="M83.9980103,74.839711 C83.4569991,75.6087366 82.761047,76.2496937 81.949688,76.6891498 C73.0477917,81.5102869 63.8767499,77.3322546 58.8763101,77.6298353 C56.459601,77.7739966 53.3405442,79.4153191 52.2155358,77.6791014 C50.9768736,75.7669804 55.0680827,65.2207224 64.7214121,63.4643353 C71.7310704,62.1893309 81.4972391,63.6024033 83.9980103,66.9380109 C86.4987814,63.6024033 96.2649453,62.1893309 103.274279,63.4643353 C112.927938,65.2207224 117.019147,75.7669804 115.780485,77.6791014 C114.655476,79.4153191 111.53642,77.7739966 109.119711,77.6298353 C104.118941,77.3322546 94.948229,81.5102869 86.0463327,76.6891498 C85.2349736,76.2496937 84.5390216,75.6087366 83.9980103,74.839711 Z"/></defs><mask id="x28" fill="#FFFFFF"><use xlink:href="#x20"/></mask><use id="x7" fill="#28354B" fill-rule="evenodd" xlink:href="#x20"/><g id="color-facial-hair-brown_dark" mask="url('#x28')" fill="#4A312C"><g transform="translate(-32,0)" id="x8"><rect x="0" y="0" width="264" height="244"/></g></g></g><g id="x14" fill="none" transform="translate(62,85)" stroke-width="1"><defs><filter id="x34" x="-0.8%" y="-2.4%" width="101.5%" height="109.8%" filterUnits="objectBoundingBox"><feOffset dx="0" dy="2" in="SourceAlpha" result="shadowOffsetOuter1"/><feColorMatrix values="0 0 0 0 0 0 0 0 0 0 0 0 0 0 0 0 0 0 0.2 0" type="matrix" in="shadowOffsetOuter1" result="shadowMatrixOuter1"/><feMerge><feMergeNode in="shadowMatrixOuter1"/><feMergeNode in="SourceGraphic"/></feMerge></filter></defs><g id="x10" filter="url('#x34')" transform="translate(6,7)" fill="#252C2F"><path id="x13" d="M34,41 L31.2421498,41 C17.3147125,41 9,33.3359286 9,20.5 C9,10.127 10.8170058,0 32.5299306,0 L35.4700694,0 C57.1829942,0 59,10.127 59,20.5 C59,32.5686429 48.7212748,41 34,41 Z M32.3853606,6 C13,6 13,12.8410159 13,21.5015498 C13,28.5719428 16.116254,37 30.9709365,37 L34,37 C46.3649085,37 55,30.6270373 55,21.5015498 C55,12.8410159 55,6 35.6146394,6 L32.3853606,6 Z" fill-rule="nonzero"/><path id="x12" d="M96,41 L93.2421498,41 C79.3147125,41 71,33.3359286 71,20.5 C71,10.127 72.8170058,0 94.5299306,0 L97.4700694,0 C119.182994,0 121,10.127 121,20.5 C121,32.5686429 110.721275,41 96,41 Z M94.3853606,6 C75,6 75,12.8410159 75,21.5015498 C75,28.5719428 78.1194833,37 92.9709365,37 L96,37 C108.364909,37 117,30.6270373 117,21.5015498 C117,12.8410159 117,6 97.6146394,6 L94.3853606,6 Z" fill-rule="nonzero"/><path id="x11" d="M2.95454545,5.77156439 C3.64590909,5.09629136 11.2095455,0 32.5,0 C50.3513636,0 54.1302273,1.85267217 59.8502273,4.6518809 L60.2689233,4.85850899 C60.6666014,4.99901896 62.7002447,5.68982981 65.0790606,5.76579519 C67.2462948,5.67278567 69.1000195,5.08540191 69.641698,4.89719767 C76.1703915,1.7220864 82.5610971,0 97.5,0 C118.790455,0 126.354091,5.09629136 127.045455,5.77156439 C128.679318,5.77156439 130,7.06150904 130,8.65734659 L130,11.5431288 C130,13.1389663 128.679318,14.428911 127.045455,14.428911 C127.045455,14.428911 120.143997,14.428911 120.143997,17.3146932 C120.143997,20.2004754 118.181818,13.1389663 118.181818,11.5431288 L118.181818,8.73240251 C114.578575,7.35340151 108.128411,4.78617535 97.5,4.78617535 C85.6584651,4.78617535 79.7610984,6.88602813 74.7022935,8.97112368 L74.7588636,9.10752861 L74.7563667,11.0937608 L72.5391666,16.4436339 L69.8004908,15.3608351 C69.5558969,15.2641292 69.0281396,15.090392 68.2963505,14.9099044 C66.256272,14.4067419 64.1589087,14.253569 62.3040836,14.6343084 C61.6235903,14.7739931 60.9922286,14.9836085 60.4128127,15.266732 L57.7704824,16.5578701 L55.1266751,11.3962031 L55.2440909,9.10175705 L55.3248203,8.90683855 C50.9620526,6.87386374 46.9392639,4.78617535 32.5,4.78617535 C21.8721459,4.78617535 15.422131,7.3524397 11.8181818,8.7314671 L11.8181818,11.5431288 C11.8181818,13.1389663 8.86363636,20.2004754 8.86363636,17.3146932 C8.86363636,14.428911 2.95454545,14.428911 2.95454545,14.428911 C1.32363636,14.428911 0,13.1389663 0,11.5431288 L0,8.65734659 C0,7.06150904 1.32363636,5.77156439 2.95454545,5.77156439 Z" fill-rule="nonzero"/></g></g> </g></g></g> </g></g></g></g></svg>