<?xml version="1.0" encoding="utf-8" ?><!DOCTYPE svg PUBLIC "-//W3C//DTD SVG 1.1//EN" "http://www.w3.org/Graphics/SVG/1.1/DTD/svg11.dtd"><svg width="280px" height="280px" viewBox="-6 0 274 280" version="1.1" xmlns="http://www.w3.org/2000/svg" xmlns:xlink="http://www.w3.org/1999/xlink"><desc>Py-Avataaars</desc> <g id="x46" stroke="none" stroke-width="1" fill="none" fill-rule="evenodd"><defs><circle id="x23" cx="120" cy="120" r="120"/><path id="x25" d="M12,160 C12,226.27417 65.72583,280 132,280 C198.27417,280 252,226.27417 252,160 L264,160 L264,-1.42108547e-14 L-3.19744231e-14,-1.42108547e-14 L-3.19744231e-14,160 L12,160 Z"/><path id="x33" d="M124,144.610951 L124,163 L128,163 L128,163 C167.764502,163 200,195.235498 200,235 L200,244 L0,244 L0,235 C-4.86974701e-15,195.235498 32.235498,163 72,163 L72,163 L76,163 L76,144.610951 C58.7626345,136.422372 46.3722246,119.687011 44.3051388,99.8812385 C38.4803105,99.0577866 34,94.0521096 34,88 L34,74 C34,68.0540074 38.3245733,63.1180731 44,62.1659169 L44,56 L44,56 C44,25.072054 69.072054,5.68137151e-15 100,0 L100,0 L100,0 C130.927946,-5.68137151e-15 156,25.072054 156,56 L156,62.1659169 C161.675427,63.1180731 166,68.0540074 166,74 L166,88 C166,94.0521096 161.51969,99.0577866 155.694861,99.8812385 C153.627775,119.687011 141.237365,136.422372 124,144.610951 Z"/></defs><g id="x44" transform="translate(-825,-1100)"><g transform="translate(825,1100)"> <g id="x45" stroke-width="1" fill-rule="evenodd" mask="url('#py-avataaars-path-761c0fd7-7d1e-4df9-a0cf-cb2f6b38c7f4')"><g id="x43" transform="translate(32,36)"><mask id="x26" fill="#FFFFFF"><use xlink:href="#x33"/></mask><use fill="#D0C6AC" xlink:href="#x33"/><g id="x19" mask="url('#x26')" fill="#D08B5B"><g transform="translate(0,0)" id="x18"><rect x="0" y="0" width="264" height="280"/></g></g> <path id="x42" d="M156,79 L156,102 C156,132.927946 130.927946,158 100,158 C69.072054,158 44,132.927946 44,102 L44,79 L44,94 C44,124.927946 69.072054,150 100,150 C130.927946,150 156,124.927946 156,94 L156,79 Z" fill-opacity="0.1" fill="#000000" mask="url('#x26')"/></g><g id="x72" transform="translate(0,170)"><defs><path id="x30" d="M105.192402,29.0517235 L104,29.0517235 L104,29.0517235 C64.235498,29.0517235 32,61.2872215 32,101.051724 L32,110 L232,110 L232,101.051724 C232,61.2872215 199.764502,29.0517235 160,29.0517235 L160,29.0517235 L158.807598,29.0517235 C158.934638,30.0353144 159,31.0364513 159,32.0517235 C159,45.8588423 146.911688,57.0517235 132,57.0517235 C117.088312,57.0517235 105,45.8588423 105,32.0517235 C105,31.0364513 105.065362,30.0353144 105.192402,29.0517235 Z"/></defs><mask id="x40" fill="#FFFFFF"><use xlink:href="#x30"/></mask><use id="x69" fill="#E6E6E6" fill-rule="evenodd" xlink:href="#x30"/><g id="x67" mask="url('#x40')" fill-rule="evenodd" fill="#262E33"><rect id="x71" x="0" y="0" width="264" height="110"/></g><g id="x70" stroke-width="1" fill-rule="evenodd" transform="translate(32,28)"><path id="x65" d="M68.784807,1.12222847 C30.512317,2.80409739 1.24427139e-14,34.3646437 0,73.0517235 L0,82 L69.3616767,82 C65.9607412,69.9199941 64,55.7087296 64,40.5 C64,26.1729736 65.7399891,12.7311115 68.784807,1.12222847 Z M131.638323,82 L200,82 L200,73.0517235 C200,34.7067641 170.024954,3.36285166 132.228719,1.17384225 C135.265163,12.7709464 137,26.1942016 137,40.5 C137,55.7087296 135.039259,69.9199941 131.638323,82 Z" fill="#3A4C5A"/><path id="x66" d="M149,58 L158.555853,50.83311 L158.555853,50.83311 C159.998897,49.7508275 161.987779,49.7682725 163.411616,50.8757011 L170,56 L149,58 Z" fill="#E6E6E6"/><path id="x64" d="M69,1.13686838e-13 C65,19.3333333 66.6666667,46.6666667 74,82 L58,82 L44,46 L50,37 L44,31 L63,1 C65.027659,0.369238637 67.027659,0.0359053037 69,1.13686838e-13 Z" fill="#2F4351"/><path id="x63" d="M151,1.13686838e-13 C147,19.3333333 148.666667,46.6666667 156,82 L140,82 L126,46 L132,37 L126,31 L145,1 C147.027659,0.369238637 149.027659,0.0359053037 151,1.13686838e-13 Z" fill="#2F4351" transform="translate(141,41) scale(-1, 1) translate(-141,-41)"/></g><path id="x68" d="M156,21.5390062 C162.772319,26.1359565 167,32.6563196 167,39.8878801 C167,47.2887711 162.572015,53.9447688 155.520105,58.5564942 L149.57933,53.8764929 L145,54.207887 L146,51.0567821 L145.922229,50.995516 C152.022491,47.8530505 156,42.7003578 156,36.8768102 L156,21.5390062 Z M108,21.5390062 C101.227681,26.1359565 97,32.6563196 97,39.8878801 C97,47.2887711 101.427985,53.9447688 108.479895,58.5564942 L114.42067,53.8764929 L119,54.207887 L118,51.0567821 L118.077771,50.995516 C111.977509,47.8530505 108,42.7003578 108,36.8768102 L108,21.5390062 Z" fill="#F2F2F2" fill-rule="evenodd"/></g><g id="x62" transform="translate(76,82)" fill="#000000"><g id="x53" transform="translate(2,52)"><defs><path id="x28" d="M29,15.6086957 C30.410031,25.2313711 41.062182,33 54,33 C66.9681454,33 77.6461342,25.183301 79,14.7391304 C79.1012093,14.3397326 78.775269,13 76.826087,13 C56.838426,13 41.7395748,13 31.173913,13 C29.3833142,13 28.870211,14.2404669 29,15.6086957 Z"/><rect id="x29" x="39" y="2" width="31" height="16" rx="5"/></defs><mask id="x35" fill="#FFFFFF"><use xlink:href="#x28"/></mask><use id="x52" fill-opacity="0.7" fill="#000000" fill-rule="evenodd" xlink:href="#x28"/><use id="x51" stroke-width="1" fill-rule="evenodd" mask="url('#x35')" fill="#FFFFFF" xlink:href="#x29"/><path id="x50" d="M65.9841079,23.7466656 C65.9945954,23.8296335 66,23.9141856 66,24 L66,33 C66,39.0751322 61.0751322,44 55,44 L54,44 C47.9248678,44 43,39.0751322 43,33 L43,24 L43,24 C43,23.9141856 43.0054046,23.8296335 43.0158921,23.7466656 C43.0053561,23.6651805 43,23.5829271 43,23.5 C43,21.5670034 45.9101491,20 49.5,20 C51.510438,20 53.3076958,20.4914717 54.5,21.2634601 C55.6923042,20.4914717 57.489562,20 59.5,20 C63.0898509,20 66,21.5670034 66,23.5 C66,23.5829271 65.9946439,23.6651805 65.9841079,23.7466656 Z" fill="#FF4F6D" fill-rule="evenodd"/></g><g id="x49" transform="translate(28,40)" fill-opacity="0.16"><path id="x48" d="M16,8 C16,12.418278 21.372583,16 28,16 L28,16 C34.627417,16 40,12.418278 40,8"/></g><g id="x58" transform="translate(0,8)"><defs><path id="x32" d="M14,14.0481187 C23.6099827,14.0481187 28,18.4994466 28,11.5617716 C28,4.62409673 21.7319865,0 14,0 C6.2680135,0 0,4.62409673 0,11.5617716 C0,18.4994466 4.39001726,14.0481187 14,14.0481187 Z"/><path id="x27" d="M14,14.0481187 C23.6099827,14.0481187 28,18.4994466 28,11.5617716 C28,4.62409673 21.7319865,0 14,0 C6.2680135,0 0,4.62409673 0,11.5617716 C0,18.4994466 4.39001726,14.0481187 14,14.0481187 Z"/></defs><g id="x57" transform="translate(16,13)"><mask id="x41" fill="#FFFFFF"><use xlink:href="#x32"/></mask><use id="x54" fill="#FFFFFF" xlink:href="#x32"/><circle fill-opacity="0.7" fill="#000000" mask="url('#x41')" cx="14" cy="10" r="6"/></g><g id="x56" transform="translate(68,13)"><mask id="x37" fill="#FFFFFF"><use xlink:href="#x27"/></mask><use id="x55" fill="#FFFFFF" xlink:href="#x27"/><circle fill-opacity="0.7" fill="#000000" mask="url('#x37')" cx="14" cy="10" r="6"/></g></g><g id="x61" fill-opacity="0.6"><path id="x60" d="M44.8565785,12.2282877 C44.8578785,12.2192877 44.8578785,12.2192877 44.8565785,12.2282877 M17.5862288,7.89238094 C15.2441598,8.3302947 13.0866155,9.78806858 12.1523766,12.0987479 C11.8009169,12.967391 11.3917103,14.9243181 11.7083227,15.8073302 C11.8284629,16.14295 12.0332321,16.1008692 12.9555234,16.0430509 C14.643791,15.9369937 16.9330912,13.6622369 18.7484684,13.2557982 C21.2753939,12.6899315 23.9825295,13.1148447 26.4961798,13.6882381 C30.8109365,14.6725177 36.4854008,17.7875215 40.9461842,16.1699775 C41.2783949,16.0495512 45.6210294,12.9225732 44.3685187,12.2769925 C43.9238011,11.9068186 41.1370145,12.0854053 40.6216067,11.9988489 C38.2277647,11.5971998 35.7297127,10.9345131 33.373373,10.3265657 C28.2329017,9.00016592 22.9666484,6.88073171 17.5862288,7.89238094" transform="translate(28.094701, 12.127505) rotate(17.0) translate(-28.094701, -12.127505)"/><path id="x59" d="M100.918293,12.2094196 C100.919593,12.2004196 100.919593,12.2004196 100.918293,12.2094196 M73.5862288,7.89238094 C71.2441598,8.3302947 69.0866155,9.78806858 68.1523766,12.0987479 C67.8009169,12.967391 67.3917103,14.9243181 67.7083227,15.8073302 C67.8284629,16.14295 68.0332321,16.1008692 68.9555234,16.0430509 C70.643791,15.9369937 72.9330912,13.6622369 74.7484684,13.2557982 C77.2753939,12.6899315 79.9825295,13.1148447 82.4961798,13.6882381 C86.8109365,14.6725177 92.4854008,17.7875215 96.9461842,16.1699775 C97.2783949,16.0495512 101.621029,12.9225732 100.368519,12.2769925 C99.9238011,11.9068186 97.1370145,12.0854053 96.6216067,11.9988489 C94.2277647,11.5971998 91.7297127,10.9345131 89.373373,10.3265657 C84.2329017,9.00016592 78.9666484,6.88073171 73.5862288,7.89238094" transform="translate(84.094701, 12.127505) scale(-1, 1) rotate(17.0) translate(-84.094701, -12.127505)"/></g></g><g id="x1" stroke-width="1" fill-rule="evenodd"><defs><rect id="x20" x="0" y="0" width="264" height="280"/><path id="x31" d="M156,180.610951 C173.530782,172.282984 186.048193,155.114792 187.791419,134.867187 C193.569129,134.002364 198,129.018625 198,123 L198,110 C198,104.054007 193.675427,99.1180731 188,98.1659169 L188,92 C188,61.072054 162.927946,36 132,36 C101.072054,36 76,61.072054 76,92 L76,92 L76,98.1659169 C70.3245733,99.1180731 66,104.054007 66,110 L66,123 C66,129.018625 70.4308707,134.002364 76.2085808,134.867187 C77.9518066,155.114792 90.4692178,172.282984 108,180.610951 L108,199 L104,199 L104,199 C64.235498,199 32,231.235498 32,271 L32,280 L232,280 L232,271 C232,231.235498 199.764502,199 160,199 L156,199 L156,180.610951 Z M0,5.68434189e-14 L264,5.68434189e-14 L264,280 L0,280 L0,5.68434189e-14 Z"/><rect id="x22" x="0" y="0" width="112" height="150" rx="56"/><path id="x21" d="M65.1802189,77.7372986 C67.3631845,76.1045334 80.4065113,75.4786511 82.757829,74.0894494 C83.4916461,73.6553857 84.0610723,73.215719 84.4997781,72.7800074 C84.938814,73.215719 85.5085703,73.6553857 86.2423874,74.0894494 C88.593375,75.4786511 101.636702,76.1045334 103.819667,77.7372986 C106.030032,79.3908276 107.643571,83.1846831 107.466966,86.15095 C107.255041,89.7101408 103.361486,98.2028927 93.6723269,99.1811016 C91.5576925,96.8281927 88.2368647,95.3104528 84.4997781,95.3104528 C80.7633517,95.3104528 77.4421938,96.8281927 75.3275594,99.1811016 C65.6387308,98.2028927 61.7451757,89.7101408 61.5332501,86.15095 C61.3566455,83.1846831 62.9701849,79.3908276 65.1802189,77.7372986 M103.141638,94.9063813 C103.142958,94.9057221 103.144609,94.905063 103.145929,94.9047334 C103.144278,94.905063 103.142958,94.9057221 103.141638,94.9063813 M65.8453747,94.9014375 C65.8493359,94.9030855 65.8565982,94.9057221 65.8618798,94.9076997 C65.8565982,94.9057221 65.8509864,94.9034151 65.8453747,94.9014375 M144.86259,55.9853335 C144.47439,50.0303878 143.277769,44.1519058 142.233986,38.2862777 C141.952739,36.7072349 140.423706,26 139.734783,26 C139.502391,35.1094058 138.701893,44.0803858 137.669664,53.1393651 C137.361018,55.8475668 137.037848,58.5564277 136.825262,61.2741874 C136.653609,63.4695546 136.959614,66.1220564 136.427819,68.2455739 C135.749129,70.9524573 132.348087,73.4783984 129.702978,74.410795 C123.102915,76.7373371 117.597802,67.1077689 111.960977,64.2911336 C104.643272,60.6347152 92.0637391,59.7639895 84.5816434,64.5297918 C76.9361472,59.7639895 64.356614,60.6347152 57.0389092,64.2911336 C51.4024147,67.1077689 45.8969708,76.7373371 39.2972383,74.410795 C36.6521296,73.4783984 33.2504268,70.9524573 32.572397,68.2455739 C32.0402723,66.1220564 32.346277,63.4695546 32.174954,61.2741874 C31.9623682,58.5564277 31.6388681,55.8475668 31.3302226,53.1393651 C30.2983232,44.0803858 29.4974953,35.1094058 29.2654335,26 C28.5761802,26 27.0468169,36.7072349 26.7658999,38.2862777 C25.7221169,44.1519058 24.5258266,50.0303878 24.1376265,55.9853335 C23.738533,62.1047422 24.2148704,68.1674622 25.4695887,74.1632765 C26.0687242,77.0277016 26.7685407,79.8756475 27.518863,82.7041478 C28.352701,85.8467429 27.198994,91.9661516 27.5723395,95.1921317 C28.2787581,101.29572 31.1542781,113.199679 34.3833375,118.45096 C35.9440605,120.989096 37.7734867,122.573742 39.816489,124.619148 C41.7825775,126.58809 42.6038717,129.640049 44.7260985,131.73687 C48.6820428,135.645092 54.4456266,137.971304 60.3656788,138.543134 C65.6773527,143.050212 74.505605,146 84.4997781,146 C94.4946114,146 103.322534,143.050212 108.634538,138.543134 C114.55393,137.971304 120.317843,135.645092 124.274118,131.73687 C126.396015,129.640049 127.217309,126.58809 129.183727,124.619148 C131.2264,122.573742 133.055826,120.989096 134.616879,118.45096 C137.845608,113.199679 140.721458,101.29572 141.427547,95.1921317 C141.800892,91.9661516 140.647185,85.8467429 141.481353,82.7041478 C142.231676,79.8756475 142.931162,77.0277016 143.530628,74.1632765 C144.784686,68.1674622 145.261353,62.1047422 144.86259,55.9853335 Z"/></defs><mask id="x34" fill="#FFFFFF"><use xlink:href="#x20"/></mask><g id="x4"/><g id="x9" mask="url('#x34')"><g transform="translate(-1,0)"><g id="x8" stroke-width="1" fill="none" fill-rule="evenodd" transform="translate(1,0)"><mask id="x36" fill="#FFFFFF"><use xlink:href="#x31"/></mask><g id="x3"/><path id="x6" d="M116.179148,40 L146,40 C171.405098,40 192,60.5949015 192,86 L192,154.108712 C192,180.650314 210.758775,204.349179 222.609956,226.05167 C234.461138,247.754161 215.254522,268.242596 195.770735,276.769484 C190.902336,278.900091 185.645645,280 180.331438,280 L135.26309,280 C78.9108161,280 70.2166412,216.309596 67.6972794,146.504423 L70.2166412,84.1431398 C71.212998,59.4805095 91.4964003,40 116.179148,40 Z" fill="#CCB55A" mask="url('#x36')"/></g><g id="x5" stroke-width="1" fill="none" fill-rule="evenodd" transform="translate(77,36)"><mask id="x39" fill="#FFFFFF"><use xlink:href="#x22"/></mask><g id="x0"/><path id="x2" d="M98.8014742,19.9396383 C107.026909,29.4843994 112,41.9114359 112,55.5 L112,65.5 L112,61.5 C112,45.7605792 105.327989,31.5794902 94.657974,21.6307409 C63.9198041,32.6768506 38.0141969,32.8027026 16.9411526,22.0082968 C6.50516181,31.936614 -1.90326939e-15,45.958626 0,61.5 L0,61.5 L0,65.5 L0,55.5 C-1.66642407e-15,41.8926148 4.98687681,29.4499771 13.2327229,19.8999944 C9.3991564,16.860899 8.25944611,8.18718262 19.4671989,4.87682391 C31.3115751,1.37843003 29.3063159,-13.2020165 47.4575903,-15.9260752 C65.6088648,-18.6501339 63.9714902,-11.3745857 81.028596,-12.3495122 C98.0857017,-13.3244386 103.635746,-29.1131795 106.849606,-25.0739991 C119.588767,-9.06341321 116.420993,9.34036319 98.8014742,19.9396383 Z" fill-opacity="0.16" fill="#000000" mask="url('#x39')"/></g><path id="x7" d="M90.8779151,52.3613196 C113.02785,65.2272934 140.816672,65.2272934 174.244382,52.3613196 C188.77455,44.5891967 199.330608,29.0424257 182.951044,8.96303524 C180.782417,6.30455678 172.244382,15.6755614 155.351199,16.6504878 C138.458015,17.6254143 142.079654,13.3498661 124.102817,16.0739248 C106.12598,18.7979835 108.111968,33.37843 96.3814191,36.8768239 C84.6508698,40.3752178 86.5778198,49.8635735 90.8779151,52.3613196 Z" fill="#E0C863" fill-rule="evenodd"/><g id="x12" transform="translate(49,72)"><defs><path id="x24" d="M101.428403,98.1685688 C98.9148372,100.462621 96.23722,101.494309 92.8529444,100.772863 C92.2705777,100.648833 89.8963391,96.2345713 83.9998344,96.2345713 C78.1033297,96.2345713 75.7294253,100.648833 75.1467245,100.772863 C71.7624488,101.494309 69.0848316,100.462621 66.5712661,98.1685688 C61.8461772,93.855604 57.9166219,87.9081858 60.2778299,81.4191814 C61.5083844,78.0369425 63.5097479,74.3237342 67.1506257,73.2459109 C71.0384163,72.0955419 76.4968931,73.2439051 80.4147542,72.4582708 C81.6840664,72.2035248 83.0706538,71.7508657 83.9998344,71 C84.929015,71.7508657 86.3159365,72.2035248 87.5845805,72.4582708 C91.5027758,73.2439051 96.9612525,72.0955419 100.849043,73.2459109 C104.489921,74.3237342 106.491284,78.0369425 107.722173,81.4191814 C110.083381,87.9081858 106.153826,93.855604 101.428403,98.1685688 M140.081033,26 C136.670693,34.4002532 137.987774,44.8580348 137.356666,53.6758724 C136.844038,60.8431942 135.33712,71.5857526 128.972858,76.214531 C125.718361,78.5816138 119.79436,82.5598986 115.54187,81.4501943 C112.614539,80.6863848 112.302182,72.290096 108.455284,69.1469801 C104.09172,65.5823153 98.6429854,64.0160432 93.1491481,64.2578722 C90.7785381,64.3622683 85.9841367,64.3374908 83.9999331,66.1604584 C82.0157295,64.3374908 77.2216647,64.3622683 74.8510547,64.2578722 C69.3568808,64.0160432 63.9081467,65.5823153 59.5445817,69.1469801 C55.6976839,72.290096 55.3856641,80.6863848 52.4583326,81.4501943 C48.2058427,82.5598986 42.2818421,78.5816138 39.0270077,76.214531 C32.6624096,71.5857526 31.1561652,60.8431942 30.642864,53.6758724 C30.0120926,44.8580348 31.3291729,34.4002532 27.9188335,26 C26.2597768,26 27.3540339,42.1288693 27.3540339,42.1288693 L27.3540339,62.4851205 C27.3856735,77.7732046 36.935095,100.655445 58.1080116,109.393004 C63.2861266,111.52982 75.0153111,115 83.9999331,115 C92.9845551,115 104.71374,111.860188 109.891855,109.723371 C131.064771,100.985813 140.614193,77.7732046 140.646169,62.4851205 L140.646169,42.1288693 C140.646169,42.1288693 141.740089,26 140.081033,26"/></defs><mask id="x38" fill="#FFFFFF"><use xlink:href="#x24"/></mask><use id="x11" fill="#331B0C" fill-rule="evenodd" xlink:href="#x24"/><g id="color-facial-hair-pastel_pink" mask="url('#x38')" fill="#F59797"><g transform="translate(-32,0)" id="x10"><rect x="0" y="0" width="264" height="244"/></g></g></g><g id="x17" fill="none" transform="translate(62,85)" stroke-width="1"><defs><filter id="x47" x="-0.8%" y="-2.0%" width="101.5%" height="108.0%" filterUnits="objectBoundingBox"><feOffset dx="0" dy="2" in="SourceAlpha" result="shadowOffsetOuter1"/><feColorMatrix values="0 0 0 0 0 0 0 0 0 0 0 0 0 0 0 0 0 0 0.16 0" type="matrix" in="shadowOffsetOuter1" result="shadowMatrixOuter1"/><feMerge><feMergeNode in="shadowMatrixOuter1"/><feMergeNode in="SourceGraphic"/></feMerge></filter></defs><g id="x13" filter="url('#x47')" transform="translate(5,2)"><path id="x14" d="M66,11.1111111 C54.9625586,11.1111111 53.3705645,2.0266011 30.6705882,0.740740741 C7.98552275,-0.283199952 0.815225204,6.4494855 0.776470588,11.1111111 C0.813236892,15.4042795 -0.352293566,26.5612661 14.3647059,39.6296296 C29.1367705,55.1420807 44.2704162,49.8818301 49.6941176,44.8148148 C55.1352081,42.4731118 61.3403442,21.4596351 66,21.4814815 C70.6596558,21.5033279 76.8647919,42.4731118 82.3058824,44.8148148 C87.7295838,49.8818301 102.86323,55.1420807 117.635294,39.6296296 C132.352294,26.5612661 131.186763,15.4042795 131.223529,11.1111111 C131.184775,6.4494855 124.014477,-0.283199952 101.329412,0.740740741 C78.6294355,2.0266011 77.0374414,11.1111111 66,11.1111111 Z" fill="#F4F4F4" fill-rule="nonzero"/><path id="x15" d="M55.1294118,21.4814815 C55.5103632,13.8233491 42.2156493,5.64243259 27.9529412,5.92592593 C13.6973442,6.22450879 11.8417942,15.3786982 11.6470588,18.8888889 C11.2982286,27.0220633 20.014463,45.3037598 36.1058824,44.8148148 C52.1972736,44.305848 54.9092435,26.5344305 55.1294118,21.4814815 Z" fill="#2F383B" fill-rule="nonzero"/><path id="x16" d="M120.352941,21.4814815 C120.733893,13.8233491 107.439179,5.64243259 93.1764706,5.92592593 C78.9208736,6.22450879 77.0653236,15.3786982 76.8705882,18.8888889 C76.521758,27.0220633 85.2379924,45.3037598 101.329412,44.8148148 C117.420803,44.305848 120.132773,26.5344305 120.352941,21.4814815 Z" fill="#2F383B" fill-rule="nonzero" transform="translate(98.611765, 25.370370) scale(-1, 1) translate(-98.611765, -25.370370)"/></g></g> </g></g></g> </g></g></g></g></svg>