<?xml version="1.0" encoding="utf-8" ?><!DOCTYPE svg PUBLIC "-//W3C//DTD SVG 1.1//EN" "http://www.w3.org/Graphics/SVG/1.1/DTD/svg11.dtd"><svg width="280px" height="280px" viewBox="-6 0 274 280" version="1.1" xmlns="http://www.w3.org/2000/svg" xmlns:xlink="http://www.w3.org/1999/xlink"><desc>Py-Avataaars</desc> <g id="x31" stroke="none" stroke-width="1" fill="none" fill-rule="evenodd"><defs><circle id="x13" cx="120" cy="120" r="120"/><path id="x15" d="M12,160 C12,226.27417 65.72583,280 132,280 C198.27417,280 252,226.27417 252,160 L264,160 L264,-1.42108547e-14 L-3.19744231e-14,-1.42108547e-14 L-3.19744231e-14,160 L12,160 Z"/><path id="x16" d="M124,144.610951 L124,163 L128,163 L128,163 C167.764502,163 200,195.235498 200,235 L200,244 L0,244 L0,235 C-4.86974701e-15,195.235498 32.235498,163 72,163 L72,163 L76,163 L76,144.610951 C58.7626345,136.422372 46.3722246,119.687011 44.3051388,99.8812385 C38.4803105,99.0577866 34,94.0521096 34,88 L34,74 C34,68.0540074 38.3245733,63.1180731 44,62.1659169 L44,56 L44,56 C44,25.072054 69.072054,5.68137151e-15 100,0 L100,0 L100,0 C130.927946,-5.68137151e-15 156,25.072054 156,56 L156,62.1659169 C161.675427,63.1180731 166,68.0540074 166,74 L166,88 C166,94.0521096 161.51969,99.0577866 155.694861,99.8812385 C153.627775,119.687011 141.237365,136.422372 124,144.610951 Z"/></defs><g id="x29" transform="translate(-825,-1100)"><g transform="translate(825,1100)"> <g id="x30" stroke-width="1" fill-rule="evenodd" mask="url('#py-avataaars-path-a52fa70d-1474-4f75-8517-cb7a5de3dbc3')"><g id="x28" transform="translate(32,36)"><mask id="x12" fill="#FFFFFF"><use xlink:href="#x16"/></mask><use fill="#D0C6AC" xlink:href="#x16"/><g id="x10" mask="url('#x12')" fill="#FD9841"><g transform="translate(0,0)" id="x11"><rect x="0" y="0" width="264" height="280"/></g></g> <path id="x27" d="M156,79 L156,102 C156,132.927946 130.927946,158 100,158 C69.072054,158 44,132.927946 44,102 L44,79 L44,94 C44,124.927946 69.072054,150 100,150 C130.927946,150 156,124.927946 156,94 L156,79 Z" fill-opacity="0.1" fill="#000000" mask="url('#x12')"/></g><g id="x52" transform="translate(0,170)"><defs><path id="x14" d="M165.624032,29.2681342 C202.760022,32.1373245 232,63.1798426 232,101.051724 L232,110 L32,110 L32,101.051724 C32,62.8348009 61.7752018,31.5722494 99.3929298,29.1967444 C99.1342224,30.2735458 99,31.3767131 99,32.5 C99,44.3741221 113.998461,54 132.5,54 C151.001539,54 166,44.3741221 166,32.5 C166,31.4015235 165.871641,30.3222877 165.624025,29.2681336 Z"/></defs><mask id="x24" fill="#FFFFFF"><use xlink:href="#x14"/></mask><use id="x51" fill="#E6E6E6" fill-rule="evenodd" xlink:href="#x14"/><g id="py-avataaars-clothes-clothe-color-palette-pastel_orange" mask="url('#x24')" fill-rule="evenodd" fill="#FFDEB5"><rect id="x53" x="0" y="0" width="264" height="110"/></g><g id="x50" mask="url('#x24'" stroke-width="1" fill-rule="evenodd"><g transform="translate(77,58)" id="x46"><g transform="translate(35,1)"><path id="x49" d="M30.9332298,24.3911229 C26.8510636,25.7713262 22.3826909,27.7147062 20.0279438,31.464875 C18.1805823,34.4072634 18.056518,31.0097105 15.4771364,32.0578917 C12.9702973,33.0766532 13.6557418,37.2811459 12.7452506,39.3594362 C12.0367243,38.1679392 11.7020395,36.8427927 10.8096839,35.755105 C11.5033719,35.309607 12.1459503,34.7115469 12.6240715,34.0306915 C12.7802853,33.7116981 7.83173048,34.3791045 7.54774295,34.4602188 C6.13687312,34.8620076 4.80843799,35.231855 3.46021853,35.8900153 C3.8167486,35.3734898 4.16627171,34.8531817 4.51043656,34.3282505 C4.82039102,33.8562748 5.1253994,33.3800962 5.42463735,32.9009757 C5.63196061,32.2209608 6.00126805,32.2188594 6.53255966,32.8950918 C7.28147888,32.931236 7.71055147,33.2519105 8.49450544,33.0724504 C11.4098085,32.4054642 12.3380232,26.8489271 8.74469474,27.0851251 C10.3237313,24.2158656 11.7251212,21.3024766 12.9975007,18.2831768 C13.4999402,22.5742474 19.0774717,21.0961186 20.7166857,18.8076877 C22.8571026,15.8190684 20.1132637,10.1456931 16.2334747,10.6962614 C16.8142272,9.32068116 17.4036352,7.93375334 17.8825808,6.5182464 C18.9752527,8.1287638 20.8844403,8.90880562 22.421023,9.97463863 C24.031797,11.0917459 25.3940304,12.414791 26.5839752,13.9807586 C28.9704596,17.1210994 30.3767956,20.9881063 32.7987269,24.0334636 C32.1610946,24.0675064 31.539537,24.1868662 30.9332298,24.3911229 M39.9388082,20.0029673 C39.306534,14.2455357 34.7895249,8.40194655 30.4996233,4.82661475 C27.9499181,2.7020935 20.2587609,-2.55814545 17.1930146,1.48706068 C19.664819,2.55835735 22.3921709,2.81640998 24.8425422,3.97596569 C28.1630118,5.5482375 30.7646508,8.13506801 33.0114085,11.0312255 C36.1484608,15.075591 40.9816071,23.3139423 33.485408,25.4170292 C34.0030979,25.0791231 34.3035723,24.7080149 34.7132728,24.1086939 C33.706333,23.8762784 34.1131482,22.231298 33.7590912,21.1570594 C33.3473298,19.9063026 32.549362,18.6904293 31.874634,17.5745828 C30.8042195,15.803518 29.6278764,14.0408588 28.3707472,12.4038637 C26.692789,10.2179814 24.685092,8.49735037 22.3938196,7.00829423 C21.4874501,6.41948033 20.6190006,5.89749114 19.5774382,5.59320758 C18.2279822,5.19898385 18.6698322,5.67936522 18.3005247,4.44668058 C18.0692954,3.67420382 18.277443,2.68402141 18.0548693,1.85480669 C16.0817949,3.51323614 15.4400408,5.90967929 14.5555165,8.23635577 C13.5353871,10.9202712 12.4328231,13.5714048 11.3591111,16.2330453 C8.72367389,22.767997 5.32530354,28.6283975 1.46777192,34.479972 C0.796341323,35.4991538 -0.697375374,37.4299255 0.377573066,38.6537842 C1.33876162,39.7486166 2.7084141,38.9597489 3.76399039,38.5150914 C5.20041497,37.9107271 7.14917119,36.3506434 8.69894348,37.1680903 C10.6971605,38.2221554 9.75287108,42.1522045 12.9130052,41.9954397 C16.0265636,41.8407762 15.4404529,36.7154475 16.4395615,34.6775042 C18.7514425,36.3628316 20.615291,35.3171721 22.0187417,33.0665665 C23.6451783,30.4578814 25.7942508,29.4101204 28.5323192,28.1291035 C29.6521946,27.6050129 31.5663282,26.1899262 32.7327792,26.0138284 C33.6980895,25.8688314 34.6254798,26.8972594 35.915995,26.8506082 C39.0138909,26.7375526 40.3077034,22.5977832 39.9388082,20.0029673" fill="#FFFFFF"/><path id="x48" d="M18.5372079,22.8336349 C16.1119296,22.3885123 12.7302873,22.7596628 12.5083803,25.9869094 C12.3721811,27.9648021 13.9174686,29.8351772 15.5900451,30.6510203 C20.7121513,33.1501581 24.6988403,23.9625691 18.5372079,22.8336349" fill="#FFFFFF"/><path id="x47" d="M28.3362306,19.157604 C27.6856351,18.4518413 26.6326311,17.918164 25.6605301,18.1654572 C25.9719227,17.9508815 26.2293799,17.5642204 26.5251817,17.3262751 C23.3686979,15.0403008 21.3853086,20.8049502 23.1786599,23.0743534 C25.8964974,26.5139375 31.2158743,22.3078297 28.3362306,19.157604" fill="#FFFFFF"/></g></g></g></g><g id="x45" transform="translate(76,82)" fill="#000000"><g id="x38" transform="translate(2,52)"><defs><path id="x19" d="M34.0082051,15.1361102 C35.1280248,29.123916 38.2345159,40.9925405 53.9961505,40.9999965 C69.757785,41.0074525 72.9169073,29.0566179 73.9942614,15.0063928 C74.0809675,13.8756222 73.1738581,12.9999965 72.0369872,12.9999965 C65.3505138,12.9999965 62.6703194,14.9936002 53.9894323,14.9999965 C45.3085452,15.0063928 40.7567994,12.9999965 36.0924943,12.9999965 C34.9490269,12.9999965 33.8961688,13.7366502 34.0082051,15.1361102 Z"/><rect id="x20" x="39" y="2" width="31" height="16" rx="5"/></defs><mask id="x26" fill="#FFFFFF"><use xlink:href="#x19" transform="translate(54.0, 27.0) scale(1, -1) translate(-54.0, -27.0)"/></mask><use id="x37" fill-opacity="0.7" fill="#000000" fill-rule="evenodd" transform="translate(54.0, 27.0) scale(1, -1) translate(-54.0, -27.0)" xlink:href="#x19"/><use id="x35" stroke-width="1" fill-rule="evenodd" mask="url('#x26')" fill="#FFFFFF" xlink:href="#x20"/><g id="x34" stroke-width="1" fill-rule="evenodd" mask="url('#x26')" fill="#FF4F6D"><g id="x36" transform="translate(38,32)"><circle cx="11" cy="11" r="11"/><circle cx="21" cy="11" r="11"/></g></g></g><g id="x33" transform="translate(28,40)" fill-opacity="0.16"><path id="x32" d="M16,8 C16,12.418278 21.372583,16 28,16 L28,16 C34.627417,16 40,12.418278 40,8"/></g><g id="x41" transform="translate(0,8)" fill-opacity="0.8" fill-rule="nonzero" fill="#FF5353"><path id="x40" d="M35.9583333,10 C33.4074091,10 30.8837273,11.9797894 29.5,13.8206358 C28.1106364,11.9797894 25.5925909,10 23.0416667,10 C17.5523182,10 14,13.3341032 14,17.6412715 C14,23.3708668 18.4118636,26.771228 23.0416667,30.376724 C24.695,31.6133636 27.8223436,34.7777086 28.2083333,35.470905 C28.5943231,36.1641015 30.3143077,36.1885229 30.7916667,35.470905 C31.2690257,34.7532872 34.3021818,31.6133636 35.9583333,30.376724 C40.5853182,26.771228 45,23.3708668 45,17.6412715 C45,13.3341032 41.4476818,10 35.9583333,10 Z"/><path id="x39" d="M88.9583333,10 C86.4074091,10 83.8837273,11.9797894 82.5,13.8206358 C81.1106364,11.9797894 78.5925909,10 76.0416667,10 C70.5523182,10 67,13.3341032 67,17.6412715 C67,23.3708668 71.4118636,26.771228 76.0416667,30.376724 C77.695,31.6133636 80.8223436,34.7777086 81.2083333,35.470905 C81.5943231,36.1641015 83.3143077,36.1885229 83.7916667,35.470905 C84.2690257,34.7532872 87.3021818,31.6133636 88.9583333,30.376724 C93.5853182,26.771228 98,23.3708668 98,17.6412715 C98,13.3341032 94.4476818,10 88.9583333,10 Z"/></g><g id="x44" fill-opacity="0.6"><path id="x43" d="M22.7663531,5.57844898 L23.6772984,5.17582144 C28.9190996,3.09473425 36.8645466,3.96712704 41.7227321,6.29911638 C42.2897848,6.57148957 41.9021563,7.4519421 41.3211012,7.40711006 C26.4021788,6.25602197 16.3582869,15.5525942 12.9460869,21.8470939 C12.8449215,22.0337142 12.5391523,22.05489 12.4635344,21.8808353 C10.156283,16.5620676 16.9134476,7.89614725 22.7663531,5.57844898 Z" transform="translate(27,13) scale(-1, -1) translate(-27,-13)"/><path id="x42" d="M80.7663531,5.57844898 L81.6772984,5.17582144 C86.9190996,3.09473425 94.8645466,3.96712704 99.7227321,6.29911638 C100.289785,6.57148957 99.9021563,7.4519421 99.3211012,7.40711006 C84.4021788,6.25602197 74.3582869,15.5525942 70.9460869,21.8470939 C70.8449215,22.0337142 70.5391523,22.05489 70.4635344,21.8808353 C68.156283,16.5620676 74.9134476,7.89614725 80.7663531,5.57844898 Z" transform="translate(85,13) scale(1, -1) translate(-85,-13)"/></g></g><g id="x0" stroke-width="1" fill-rule="evenodd"><defs><rect id="x18" x="0" y="0" width="264" height="280"/><path id="x21" d="M148.859344,69 C148.952588,70.3212062 149,71.6550662 149,73 L149,111 C149,133.339168 135.919579,152.623239 117,161.610951 L117,170.317435 C135.145605,171.815797 152.721153,174.335027 163.000169,177 C172.952646,163.439362 185.884594,150.800081 186.000169,126 C186.085192,107.014914 158.324059,30.4276364 146.000169,15 C137.861928,4.81215989 117.30504,1.44935656 93.0001685,1 C68.6952966,0.550643437 48.9231015,6.50878211 41,16 C30.3189583,28.7950013 -0.0850232975,107.014914 4.92293245e-13,126 C0.115574613,150.800081 13.047523,163.439362 23,177 C33.2789946,174.335033 50.8544902,171.815807 69,170.317444 L69,161.610951 C50.0804213,152.623239 37,133.339168 37,111 L37,73 L37,73 C37,71.6550662 37.0474121,70.3212062 37.1406562,69 L65.3735517,69 L69.2529753,47.5561285 L72.058097,69 L148.859344,69 Z"/></defs><mask id="x25" fill="#FFFFFF"><use xlink:href="#x18"/></mask><g id="x2"/><g id="x5" mask="url('#x25')"><g transform="translate(-1,0)"><path id="x1" d="M69.0330562,76.212888 C81.9708809,43.1292208 95.6458945,26.5873873 110.058097,26.5873873 C110.596882,26.5873873 139.311316,26.3494141 158.112657,26.226792 C178.767149,35.5853581 193,55.3036503 193,78.114622 L193,93 L110.058097,93 L107.252975,69.820435 L103.373552,93 L69,93 L69,78.114622 C69,77.478246 69.0110772,76.844277 69.0330621,76.2128728 L69.0330562,76.212888 Z" fill-opacity="0.16" fill="#000000" fill-rule="evenodd"/><g id="x3" stroke-width="1" fill="none" fill-rule="evenodd" transform="translate(40,19)"><mask id="x23" fill="#FFFFFF"><use xlink:href="#x21"/></mask><use id="x4" fill="#E6E6E6" xlink:href="#x21"/><g id="x6-silver_gray" mask="url('#x23')" fill="#E8E1E1"><g transform="translate(0,0) " id="x6"><rect x="0" y="0" width="264" height="280"/></g></g> </g><g id="x9" transform="translate(49,72)"><defs><path id="x17" d="M101.428403,98.1685688 C98.9148372,100.462621 96.23722,101.494309 92.8529444,100.772863 C92.2705777,100.648833 89.8963391,96.2345713 83.9998344,96.2345713 C78.1033297,96.2345713 75.7294253,100.648833 75.1467245,100.772863 C71.7624488,101.494309 69.0848316,100.462621 66.5712661,98.1685688 C61.8461772,93.855604 57.9166219,87.9081858 60.2778299,81.4191814 C61.5083844,78.0369425 63.5097479,74.3237342 67.1506257,73.2459109 C71.0384163,72.0955419 76.4968931,73.2439051 80.4147542,72.4582708 C81.6840664,72.2035248 83.0706538,71.7508657 83.9998344,71 C84.929015,71.7508657 86.3159365,72.2035248 87.5845805,72.4582708 C91.5027758,73.2439051 96.9612525,72.0955419 100.849043,73.2459109 C104.489921,74.3237342 106.491284,78.0369425 107.722173,81.4191814 C110.083381,87.9081858 106.153826,93.855604 101.428403,98.1685688 M140.081033,26 C136.670693,34.4002532 137.987774,44.8580348 137.356666,53.6758724 C136.844038,60.8431942 135.33712,71.5857526 128.972858,76.214531 C125.718361,78.5816138 119.79436,82.5598986 115.54187,81.4501943 C112.614539,80.6863848 112.302182,72.290096 108.455284,69.1469801 C104.09172,65.5823153 98.6429854,64.0160432 93.1491481,64.2578722 C90.7785381,64.3622683 85.9841367,64.3374908 83.9999331,66.1604584 C82.0157295,64.3374908 77.2216647,64.3622683 74.8510547,64.2578722 C69.3568808,64.0160432 63.9081467,65.5823153 59.5445817,69.1469801 C55.6976839,72.290096 55.3856641,80.6863848 52.4583326,81.4501943 C48.2058427,82.5598986 42.2818421,78.5816138 39.0270077,76.214531 C32.6624096,71.5857526 31.1561652,60.8431942 30.642864,53.6758724 C30.0120926,44.8580348 31.3291729,34.4002532 27.9188335,26 C26.2597768,26 27.3540339,42.1288693 27.3540339,42.1288693 L27.3540339,62.4851205 C27.3856735,77.7732046 36.935095,100.655445 58.1080116,109.393004 C63.2861266,111.52982 75.0153111,115 83.9999331,115 C92.9845551,115 104.71374,111.860188 109.891855,109.723371 C131.064771,100.985813 140.614193,77.7732046 140.646169,62.4851205 L140.646169,42.1288693 C140.646169,42.1288693 141.740089,26 140.081033,26"/></defs><mask id="x22" fill="#FFFFFF"><use xlink:href="#x17"/></mask><use id="x8" fill="#331B0C" fill-rule="evenodd" xlink:href="#x17"/><g id="color-facial-hair-blonde_golden" mask="url('#x22')" fill="#D6B370"><g transform="translate(-32,0)" id="x7"><rect x="0" y="0" width="264" height="244"/></g></g></g> </g></g></g> </g></g></g></g></svg>