<?xml version="1.0" encoding="utf-8" ?><!DOCTYPE svg PUBLIC "-//W3C//DTD SVG 1.1//EN" "http://www.w3.org/Graphics/SVG/1.1/DTD/svg11.dtd"><svg width="280px" height="280px" viewBox="-6 0 274 280" version="1.1" xmlns="http://www.w3.org/2000/svg" xmlns:xlink="http://www.w3.org/1999/xlink"><desc>Py-Avataaars</desc> <g id="x43" stroke="none" stroke-width="1" fill="none" fill-rule="evenodd"><defs><circle id="x31" cx="120" cy="120" r="120"/><path id="x22" d="M12,160 C12,226.27417 65.72583,280 132,280 C198.27417,280 252,226.27417 252,160 L264,160 L264,-1.42108547e-14 L-3.19744231e-14,-1.42108547e-14 L-3.19744231e-14,160 L12,160 Z"/><path id="x32" d="M124,144.610951 L124,163 L128,163 L128,163 C167.764502,163 200,195.235498 200,235 L200,244 L0,244 L0,235 C-4.86974701e-15,195.235498 32.235498,163 72,163 L72,163 L76,163 L76,144.610951 C58.7626345,136.422372 46.3722246,119.687011 44.3051388,99.8812385 C38.4803105,99.0577866 34,94.0521096 34,88 L34,74 C34,68.0540074 38.3245733,63.1180731 44,62.1659169 L44,56 L44,56 C44,25.072054 69.072054,5.68137151e-15 100,0 L100,0 L100,0 C130.927946,-5.68137151e-15 156,25.072054 156,56 L156,62.1659169 C161.675427,63.1180731 166,68.0540074 166,74 L166,88 C166,94.0521096 161.51969,99.0577866 155.694861,99.8812385 C153.627775,119.687011 141.237365,136.422372 124,144.610951 Z"/></defs><g id="x41" transform="translate(-825,-1100)"><g transform="translate(825,1100)"> <g id="x42" stroke-width="1" fill-rule="evenodd" mask="url('#py-avataaars-path-f1b0726d-8db1-4dcb-92ea-6716097d30ff')"><g id="x40" transform="translate(32,36)"><mask id="x23" fill="#FFFFFF"><use xlink:href="#x32"/></mask><use fill="#D0C6AC" xlink:href="#x32"/><g id="x18" mask="url('#x23')" fill="#FD9841"><g transform="translate(0,0)" id="x19"><rect x="0" y="0" width="264" height="280"/></g></g> <path id="x39" d="M156,79 L156,102 C156,132.927946 130.927946,158 100,158 C69.072054,158 44,132.927946 44,102 L44,79 L44,94 C44,124.927946 69.072054,150 100,150 C130.927946,150 156,124.927946 156,94 L156,79 Z" fill-opacity="0.1" fill="#000000" mask="url('#x23')"/></g><g id="x65" transform="translate(0,170)"><defs><path id="x26" d="M165.624032,29.2681342 C202.760022,32.1373245 232,63.1798426 232,101.051724 L232,110 L32,110 L32,101.051724 C32,62.8348009 61.7752018,31.5722494 99.3929298,29.1967444 C99.1342224,30.2735458 99,31.3767131 99,32.5 C99,44.3741221 113.998461,54 132.5,54 C151.001539,54 166,44.3741221 166,32.5 C166,31.4015235 165.871641,30.3222877 165.624025,29.2681336 Z"/></defs><mask id="x34" fill="#FFFFFF"><use xlink:href="#x26"/></mask><use id="x64" fill="#E6E6E6" fill-rule="evenodd" xlink:href="#x26"/><g id="x66" mask="url('#x34')" fill-rule="evenodd" fill="#FFFFFF"><rect id="x67" x="0" y="0" width="264" height="110"/></g><g id="x63" mask="url('#x34'" stroke-width="1" fill-rule="evenodd"><defs><polygon id="x27" points="47.8916289 0.430054064 47.8916289 41.9204613 0.45345556 41.9204613 0.45345556 0.430054064 47.8916289 0.430054064"/></defs><g transform="translate(77,58)" id="x61"><g transform="translate(31,1)"><mask id="x37" fill="#FFFFFF"><use xlink:href="#x27"/></mask><path id="x62" d="M34.4465814,31.5861741 C33.968066,34.4016565 30.3675711,38.9307388 27.2995299,35.97048 C23.8326433,32.6262918 31.5245196,31.1602447 28.7810969,28.3763859 C27.5974268,27.1761741 24.3685608,27.83928 22.7791175,27.96528 C21.289633,28.0833741 18.9133856,28.4198682 19.4834474,30.5900329 C19.9159423,32.2398918 21.1926433,31.5342918 21.8715711,32.4815153 C22.4069938,33.2301035 22.1798598,35.9887624 21.3826639,36.7492094 C20.3796124,37.7053271 19.193468,37.4123153 17.7975093,36.7996094 C14.6057567,35.39928 13.1212206,31.4868565 15.2228289,28.5829271 C19.3780454,22.8417741 35.2897979,21.5244565 34.4465814,31.5861741 M14.9853031,14.7244094 C15.9695505,14.2811859 17.132932,14.5213271 17.7173443,15.5110447 C18.5189938,16.8669035 17.3595711,18.6842682 15.7424165,18.4668565 C14.0347052,18.2365976 13.1726845,15.5481035 14.9853031,14.7244094 M32.9472,16.3787153 C32.0911175,19.3854212 27.3109113,16.0012094 30.0112825,14.08848 C31.5626227,12.9900565 33.4583753,14.5801271 32.9472,16.3787153 M47.8267052,23.16888 C47.5911588,20.7887153 46.9270763,18.5231859 45.7389526,16.4385035 C45.1164371,15.3460094 44.3464577,14.3276329 43.5492619,13.35768 C43.2483959,12.9930212 42.6432,12.34968 42.5264165,12.1446212 C41.8173031,10.90488 41.888066,11.7834212 42.2789938,10.3598682 C42.8950763,8.11657412 44.2262103,6.28043294 43.1627876,3.87062118 C42.1735918,1.62930353 39.5078598,0.576832941 37.1791175,0.443915294 C36.0914474,0.382150588 35.0017979,0.525938824 33.9720247,0.892574118 C32.9368082,1.26069176 31.9708701,2.53255059 31.0717361,2.79393882 C30.3740041,2.99702118 28.3872,2.33391529 27.6305814,2.28549176 C26.2356124,2.19605647 24.8332206,2.23558588 23.4387464,2.31859765 C21.8087258,2.41544471 18.0632412,3.58205647 16.5257567,3.19565647 C15.5108289,2.94069176 14.3172619,1.41485647 13.1449732,1.03191529 C11.852932,0.610432941 10.4673649,0.467632941 9.17829278,0.954338824 C6.89260206,1.81805647 5.17845773,4.50605647 5.12501443,6.89560941 C5.09680825,8.15066824 5.78018969,9.01092706 5.91528247,10.1469035 C6.11816907,11.8619859 6.35223093,10.5026682 5.42835464,11.8718682 C4.9577567,12.5690682 4.13284948,13.1822682 3.60385979,13.8537741 C0.778787629,17.4405741 -0.278696907,22.73208 0.974746392,27.0733976 C4.13284948,38.0131624 14.6423753,42.4676329 25.4136742,41.86728 C34.6648082,41.3509271 48.9782103,34.1491624 47.8267052,23.16888" fill="#FFFFFF" mask="url('#x37')"/></g></g></g></g><g id="x60" transform="translate(76,82)" fill="#000000"><g id="x53" transform="translate(2,52)"><defs><path id="x29" d="M34.0082051,15.1361102 C35.1280248,29.123916 38.2345159,40.9925405 53.9961505,40.9999965 C69.757785,41.0074525 72.9169073,29.0566179 73.9942614,15.0063928 C74.0809675,13.8756222 73.1738581,12.9999965 72.0369872,12.9999965 C65.3505138,12.9999965 62.6703194,14.9936002 53.9894323,14.9999965 C45.3085452,15.0063928 40.7567994,12.9999965 36.0924943,12.9999965 C34.9490269,12.9999965 33.8961688,13.7366502 34.0082051,15.1361102 Z"/><rect id="x24" x="39" y="2" width="31" height="16" rx="5"/></defs><mask id="x38" fill="#FFFFFF"><use xlink:href="#x29" transform="translate(54.0, 27.0) scale(1, -1) translate(-54.0, -27.0)"/></mask><use id="x52" fill-opacity="0.7" fill="#000000" fill-rule="evenodd" transform="translate(54.0, 27.0) scale(1, -1) translate(-54.0, -27.0)" xlink:href="#x29"/><use id="x50" stroke-width="1" fill-rule="evenodd" mask="url('#x38')" fill="#FFFFFF" xlink:href="#x24"/><g id="x49" stroke-width="1" fill-rule="evenodd" mask="url('#x38')" fill="#FF4F6D"><g id="x51" transform="translate(38,32)"><circle cx="11" cy="11" r="11"/><circle cx="21" cy="11" r="11"/></g></g></g><g id="x48" transform="translate(28,40)" fill-opacity="0.16"><path id="x47" d="M16,8 C16,12.418278 21.372583,16 28,16 L28,16 C34.627417,16 40,12.418278 40,8"/></g><g id="x56" transform="translate(0,8)" fill-opacity="0.6"><path id="x55" d="M16.1601674,32.4473116 C18.006676,28.648508 22.1644225,26 26.9975803,26 C31.8136766,26 35.9591217,28.629842 37.8153518,32.4071242 C38.3667605,33.5291977 37.5821037,34.4474817 36.790607,33.7670228 C34.3395063,31.6597833 30.8587163,30.3437884 26.9975803,30.3437884 C23.2572061,30.3437884 19.8737584,31.5787519 17.4375392,33.5716412 C16.5467928,34.3002944 15.6201012,33.5583844 16.1601674,32.4473116 Z" transform="translate(27,30) scale(1, -1) translate(-27,-30)"/><path id="x54" d="M74.1601674,32.4473116 C76.006676,28.648508 80.1644225,26 84.9975803,26 C89.8136766,26 93.9591217,28.629842 95.8153518,32.4071242 C96.3667605,33.5291977 95.5821037,34.4474817 94.790607,33.7670228 C92.3395063,31.6597833 88.8587163,30.3437884 84.9975803,30.3437884 C81.2572061,30.3437884 77.8737584,31.5787519 75.4375392,33.5716412 C74.5467928,34.3002944 73.6201012,33.5583844 74.1601674,32.4473116 Z" transform="translate(85,30) scale(1, -1) translate(-85,-30)"/></g><g id="x59" fill-opacity="0.6"><path id="x58" d="M22.7663531,1.57844898 L23.6772984,1.17582144 C28.9190996,-0.905265751 36.8645466,-0.0328729562 41.7227321,2.29911638 C42.2897848,2.57148957 41.9021563,3.4519421 41.3211012,3.40711006 C26.4021788,2.25602197 16.3582869,11.5525942 12.9460869,17.8470939 C12.8449215,18.0337142 12.5391523,18.05489 12.4635344,17.8808353 C10.156283,12.5620676 16.9134476,3.89614725 22.7663531,1.57844898 Z"/><path id="x57" d="M86.535177,12.0246305 C92.3421916,12.2928751 101.730304,16.5124899 101.488432,22.3684172 C101.480419,22.5600881 101.1989,22.6442368 101.06135,22.496811 C98.306449,19.5374968 78.7459953,16.5471364 71.8564209,18.1317995 C71.2258949,18.2770375 70.7468448,17.6550104 71.1462176,17.2056651 C74.5683263,13.3574126 81.3327077,11.7792465 86.535177,12.0246305 Z" transform="translate(86.246508, 17.285912) rotate(5.0) translate(-86.246508, -17.285912)"/></g></g><g id="x0" stroke-width="1" fill-rule="evenodd"><defs><rect id="x28" x="0" y="0" width="264" height="280"/><path id="x30" d="M1,64 C1.34685629,65.488448 2.67275588,65.2226722 3,64 C2.53726005,62.445722 6.29594493,35.2480719 16,28 C19.618222,25.4833872 39.0082164,23.2319099 58.3126144,23.245568 C77.4086061,23.2590787 96.4208396,25.5105561 100,28 C109.704055,35.2480719 113.46274,62.445722 113,64 C113.327244,65.2226722 114.653144,65.488448 115,64 C115.719178,53.7019177 115,0.274362825 58,1 C1,1.72563718 0.280821545,53.7019177 1,64 Z"/><filter id="x46" x="-0.8%" y="-2.0%" width="101.5%" height="108.0%" filterUnits="objectBoundingBox"><feOffset dx="0" dy="2" in="SourceAlpha" result="shadowOffsetOuter1"/><feColorMatrix values="0 0 0 0 0 0 0 0 0 0 0 0 0 0 0 0 0 0 0.16 0" type="matrix" in="shadowOffsetOuter1" result="shadowMatrixOuter1"/><feMerge><feMergeNode in="shadowMatrixOuter1"/><feMergeNode in="SourceGraphic"/></feMerge></filter></defs><mask id="x35" fill="#FFFFFF"><use xlink:href="#x28"/></mask><g id="x1"/><g id="x4" mask="url('#x35')"><g transform="translate(-1,0)"><g id="x9" transform="translate(49,72)"><defs><path id="x25" d="M83.9980103,74.839711 C83.4569991,75.6087366 82.761047,76.2496937 81.949688,76.6891498 C73.0477917,81.5102869 63.8767499,77.3322546 58.8763101,77.6298353 C56.459601,77.7739966 53.3405442,79.4153191 52.2155358,77.6791014 C50.9768736,75.7669804 55.0680827,65.2207224 64.7214121,63.4643353 C71.7310704,62.1893309 81.4972391,63.6024033 83.9980103,66.9380109 C86.4987814,63.6024033 96.2649453,62.1893309 103.274279,63.4643353 C112.927938,65.2207224 117.019147,75.7669804 115.780485,77.6791014 C114.655476,79.4153191 111.53642,77.7739966 109.119711,77.6298353 C104.118941,77.3322546 94.948229,81.5102869 86.0463327,76.6891498 C85.2349736,76.2496937 84.5390216,75.6087366 83.9980103,74.839711 Z"/></defs><mask id="x33" fill="#FFFFFF"><use xlink:href="#x25"/></mask><use id="x7" fill="#28354B" fill-rule="evenodd" xlink:href="#x25"/><g id="color-facial-hair-blonde_golden" mask="url('#x33')" fill="#D6B370"><g transform="translate(-32,0)" id="x8"><rect x="0" y="0" width="264" height="244"/></g></g></g> <g id="x2" stroke-width="1" fill-rule="evenodd" transform="translate(75,34)"><mask id="x36" fill="#FFFFFF"><use xlink:href="#x30"/></mask><use id="x3" fill="#28354B" xlink:href="#x30"/><g id="x5" mask="url('#x36')" fill="#724133"><g transform="translate(0,0) " id="x6"><rect x="0" y="0" width="264" height="280"/></g></g> </g><g id="x17" fill="none" transform="translate(62,85)" stroke-width="1"><defs><filter id="x45" x="-0.8%" y="-2.4%" width="101.6%" height="109.8%" filterUnits="objectBoundingBox"><feOffset dx="0" dy="2" in="SourceAlpha" result="shadowOffsetOuter1"/><feColorMatrix values="0 0 0 0 0 0 0 0 0 0 0 0 0 0 0 0 0 0 0.2 0" type="matrix" in="shadowOffsetOuter1" result="shadowMatrixOuter1"/><feMerge><feMergeNode in="shadowMatrixOuter1"/><feMergeNode in="SourceGraphic"/></feMerge></filter><linearGradient x1="50%" y1="0%" x2="50%" y2="100%" id="x44"><stop stop-color="#FFFFFF" stop-opacity="0.5" offset="0%"/><stop stop-color="#000000" stop-opacity="0.5" offset="70.5058195%"/></linearGradient><path id="x21" d="M44.9178864,17.5714286 C44.9178864,27.2737857 36.66775,35.1428571 22.9204545,35.1428571 L20.1704091,35.1428571 C6.42311364,35.1428571 0.923022727,27.2708571 0.923022727,17.5714286 L0.923022727,17.5714286 C0.923022727,7.86614286 2.20715909,0 21.4545455,0 L24.3863636,0 C43.63375,0 44.9178864,7.86614286 44.9178864,17.5714286 L44.9178864,17.5714286 Z"/><path id="x20" d="M106.486068,17.5714286 C106.486068,27.2737857 98.2388636,35.1428571 84.4886364,35.1428571 L81.7385909,35.1428571 C67.9912955,35.1428571 62.4912045,27.2708571 62.4912045,17.5714286 L62.4912045,17.5714286 C62.4912045,7.86614286 63.7753409,0 83.0227273,0 L85.9545455,0 C105.199,0 106.486068,7.86614286 106.486068,17.5714286 L106.486068,17.5714286 Z"/></defs><g id="x10" filter="url('#x45')" transform="translate(7,7)"><g id="x12" transform="translate(10.795455, 2.928571)" fill-rule="nonzero"><g id="x14"><use fill-opacity="0.7" fill="#000000" fill-rule="evenodd" xlink:href="#x21"/><use fill="url('#x44')" fill-rule="evenodd" style="mix-blend-mode: 'screen'" xlink:href="#x21"/></g><g id="x13"><use fill-opacity="0.7" fill="#000000" fill-rule="evenodd" xlink:href="#x20"/><use fill="url('#x44')" fill-rule="evenodd" style="mix-blend-mode: 'screen'" xlink:href="#x20"/></g></g><path id="x16" d="M33.7159091,41 L30.9658636,41 C17.0778409,41 8.78665909,33.3359286 8.78665909,20.5 C8.78665909,10.127 10.5985227,0 32.25,0 L35.1818182,0 C56.8332955,0 58.6451591,10.127 58.6451591,20.5 C58.6451591,32.5686429 48.3955227,41 33.7159091,41 Z M32.25,5.85421429 C14.6502955,5.85421429 14.6502955,12.3175714 14.6502955,20.5 C14.6502955,27.1800714 17.4795,35.1428571 30.9658636,35.1428571 L33.7159091,35.1428571 C44.9418409,35.1428571 52.7815227,29.1217143 52.7815227,20.5 C52.7815227,12.3175714 52.7815227,5.85421429 35.1818182,5.85421429 L32.25,5.85421429 Z" fill="#252C2F" fill-rule="nonzero"/><path id="x15" d="M95.2840909,41 L92.5340455,41 C78.6460227,41 70.3548409,33.3359286 70.3548409,20.5 C70.3548409,10.127 72.1667045,0 93.8181818,0 L96.75,0 C118.401477,0 120.213341,10.127 120.213341,20.5 C120.213341,32.5686429 109.963705,41 95.2840909,41 Z M93.8181818,5.85421429 C76.2184773,5.85421429 76.2184773,12.3175714 76.2184773,20.5 C76.2184773,27.1800714 79.0506136,35.1428571 92.5340455,35.1428571 L95.2840909,35.1428571 C106.510023,35.1428571 114.349705,29.1217143 114.349705,20.5 C114.349705,12.3175714 114.349705,5.85421429 96.75,5.85421429 L93.8181818,5.85421429 Z" fill="#252C2F" fill-rule="nonzero"/><path id="x11" d="M2.93181818,5.85714286 C3.61786364,5.17185714 11.1233182,0 32.25,0 C49.9640455,0 53.7138409,1.88014286 59.3898409,4.72085714 L59.8053162,4.93054903 C60.1999353,5.07314243 62.2179351,5.77419634 64.5784525,5.85128811 C66.7290156,5.75689949 68.5684809,5.16080623 69.1059926,4.96981137 C75.5844654,1.74762081 81.9260118,0 96.75,0 C117.876682,0 125.382136,5.17185714 126.068182,5.85714286 C127.689477,5.85714286 129,7.16621429 129,8.78571429 L129,11.7142857 C129,13.3337857 127.689477,14.6428571 126.068182,14.6428571 C126.068182,14.6428571 120.204545,14.6428571 120.204545,17.5714286 C120.204545,20.5 117.272727,13.3337857 117.272727,11.7142857 L117.272727,8.8618831 C113.697201,7.46243482 107.296654,5.85714286 96.75,5.85714286 C84.9995538,5.85714286 79.1475515,6.98813142 74.1276604,9.10414393 L74.1837955,9.24257143 L71.6878772,10.2500422 L74.1813177,11.2582547 L71.981173,16.6874536 L69.263564,15.5885995 C69.0208516,15.4904597 68.4971539,15.3141463 67.770994,15.1309826 C65.7466083,14.6203594 63.6653786,14.4649153 61.8248214,14.8513001 C61.1495627,14.993056 60.5230576,15.2057795 59.9480988,15.4931011 L57.3260941,16.8033836 L54.7026238,11.5651815 L57.3246285,10.2548989 L57.3310023,10.251716 L54.8191364,9.23671429 L54.8992448,9.03890561 C50.5700368,6.97578666 46.5781927,5.85714286 32.25,5.85714286 C21.7038986,5.85714286 15.3034993,7.46145875 11.7272727,8.86093383 L11.7272727,11.7142857 C11.7272727,13.3337857 8.79545455,20.5 8.79545455,17.5714286 C8.79545455,14.6428571 2.93181818,14.6428571 2.93181818,14.6428571 C1.31345455,14.6428571 0,13.3337857 0,11.7142857 L0,8.78571429 C0,7.16621429 1.31345455,5.85714286 2.93181818,5.85714286 Z" fill="#252C2F" fill-rule="nonzero"/></g></g> </g></g></g> </g></g></g></g></svg>