<?xml version="1.0" encoding="utf-8" ?><!DOCTYPE svg PUBLIC "-//W3C//DTD SVG 1.1//EN" "http://www.w3.org/Graphics/SVG/1.1/DTD/svg11.dtd"><svg width="280px" height="280px" viewBox="-6 0 274 280" version="1.1" xmlns="http://www.w3.org/2000/svg" xmlns:xlink="http://www.w3.org/1999/xlink"><desc>Py-Avataaars</desc> <g id="x36" stroke="none" stroke-width="1" fill="none" fill-rule="evenodd"><defs><circle id="x20" cx="120" cy="120" r="120"/><path id="x25" d="M12,160 C12,226.27417 65.72583,280 132,280 C198.27417,280 252,226.27417 252,160 L264,160 L264,-1.42108547e-14 L-3.19744231e-14,-1.42108547e-14 L-3.19744231e-14,160 L12,160 Z"/><path id="x21" d="M124,144.610951 L124,163 L128,163 L128,163 C167.764502,163 200,195.235498 200,235 L200,244 L0,244 L0,235 C-4.86974701e-15,195.235498 32.235498,163 72,163 L72,163 L76,163 L76,144.610951 C58.7626345,136.422372 46.3722246,119.687011 44.3051388,99.8812385 C38.4803105,99.0577866 34,94.0521096 34,88 L34,74 C34,68.0540074 38.3245733,63.1180731 44,62.1659169 L44,56 L44,56 C44,25.072054 69.072054,5.68137151e-15 100,0 L100,0 L100,0 C130.927946,-5.68137151e-15 156,25.072054 156,56 L156,62.1659169 C161.675427,63.1180731 166,68.0540074 166,74 L166,88 C166,94.0521096 161.51969,99.0577866 155.694861,99.8812385 C153.627775,119.687011 141.237365,136.422372 124,144.610951 Z"/></defs><g id="x34" transform="translate(-825,-1100)"><g transform="translate(825,1100)"> <g id="x35" stroke-width="1" fill-rule="evenodd" mask="url('#py-avataaars-path-ca04d419-beec-485b-a43a-8d0a351d1045')"><g id="x33" transform="translate(32,36)"><mask id="x19" fill="#FFFFFF"><use xlink:href="#x21"/></mask><use fill="#D0C6AC" xlink:href="#x21"/><g id="x15" mask="url('#x19')" fill="#FD9841"><g transform="translate(0,0)" id="x16"><rect x="0" y="0" width="264" height="280"/></g></g> <path id="x32" d="M156,79 L156,102 C156,132.927946 130.927946,158 100,158 C69.072054,158 44,132.927946 44,102 L44,79 L44,94 C44,124.927946 69.072054,150 100,150 C130.927946,150 156,124.927946 156,94 L156,79 Z" fill-opacity="0.1" fill="#000000" mask="url('#x19')"/></g><g id="x55" transform="translate(0,170)"><defs><path id="x22" d="M171.319631,29.9364358 C205.706337,35.3665707 232,65.13854 232,101.051724 L232,110 L32,110 L32,101.051724 C32,65.1380521 58.2943778,35.3657617 92.6817711,29.9362145 C93.5835973,35.0053598 96.116393,39.8238432 100.236125,43.5389794 L100.236125,43.5389794 L129.321203,69.7676333 C130.843316,71.1402598 133.156684,71.1402598 134.678797,69.7676333 L134.678797,69.7676333 L163.763875,43.5389794 C164.189462,43.1551884 164.601167,42.7562772 164.998197,42.3430127 C168.414164,38.7873666 170.517305,34.4520434 171.319628,29.9364354 Z"/></defs><mask id="x27" fill="#FFFFFF"><use xlink:href="#x22"/></mask><use id="x54" fill="#E6E6E6" fill-rule="evenodd" xlink:href="#x22"/><g id="py-avataaars-clothes-clothe-color-palette-pastel_orange" mask="url('#x27')" fill-rule="evenodd" fill="#FFDEB5"><rect id="x56" x="0" y="0" width="264" height="110"/></g></g><g id="x53" transform="translate(76,82)" fill="#000000"><g id="x44" transform="translate(2,52)"><defs><path id="x17" d="M34.0082051,15.1361102 C35.1280248,29.123916 38.2345159,40.9925405 53.9961505,40.9999965 C69.757785,41.0074525 72.9169073,29.0566179 73.9942614,15.0063928 C74.0809675,13.8756222 73.1738581,12.9999965 72.0369872,12.9999965 C65.3505138,12.9999965 62.6703194,14.9936002 53.9894323,14.9999965 C45.3085452,15.0063928 40.7567994,12.9999965 36.0924943,12.9999965 C34.9490269,12.9999965 33.8961688,13.7366502 34.0082051,15.1361102 Z"/><rect id="x26" x="39" y="2" width="31" height="16" rx="5"/></defs><mask id="x28" fill="#FFFFFF"><use xlink:href="#x17" transform="translate(54.0, 27.0) scale(1, -1) translate(-54.0, -27.0)"/></mask><use id="x43" fill-opacity="0.7" fill="#000000" fill-rule="evenodd" transform="translate(54.0, 27.0) scale(1, -1) translate(-54.0, -27.0)" xlink:href="#x17"/><use id="x41" stroke-width="1" fill-rule="evenodd" mask="url('#x28')" fill="#FFFFFF" xlink:href="#x26"/><g id="x40" stroke-width="1" fill-rule="evenodd" mask="url('#x28')" fill="#FF4F6D"><g id="x42" transform="translate(38,32)"><circle cx="11" cy="11" r="11"/><circle cx="21" cy="11" r="11"/></g></g></g><g id="x39" transform="translate(28,40)" fill-opacity="0.16"><path id="x38" d="M16,8 C16,12.418278 21.372583,16 28,16 L28,16 C34.627417,16 40,12.418278 40,8"/></g><g id="x49" transform="translate(0,8)"><circle id="x45" fill="#FFFFFF" cx="30" cy="22" r="14"/><circle id="x48" fill="#FFFFFF" cx="82" cy="22" r="14"/><circle id="x47" fill-opacity="0.7" fill="#000000" cx="30" cy="22" r="6"/><circle id="x46" fill-opacity="0.7" fill="#000000" cx="82" cy="22" r="6"/></g><g id="x52" fill-opacity="0.6"><path id="x51" d="M22.7663531,5.57844898 L23.6772984,5.17582144 C28.9190996,3.09473425 36.8645466,3.96712704 41.7227321,6.29911638 C42.2897848,6.57148957 41.9021563,7.4519421 41.3211012,7.40711006 C26.4021788,6.25602197 16.3582869,15.5525942 12.9460869,21.8470939 C12.8449215,22.0337142 12.5391523,22.05489 12.4635344,21.8808353 C10.156283,16.5620676 16.9134476,7.89614725 22.7663531,5.57844898 Z" transform="translate(27,13) scale(-1, -1) translate(-27,-13)"/><path id="x50" d="M80.7663531,5.57844898 L81.6772984,5.17582144 C86.9190996,3.09473425 94.8645466,3.96712704 99.7227321,6.29911638 C100.289785,6.57148957 99.9021563,7.4519421 99.3211012,7.40711006 C84.4021788,6.25602197 74.3582869,15.5525942 70.9460869,21.8470939 C70.8449215,22.0337142 70.5391523,22.05489 70.4635344,21.8808353 C68.156283,16.5620676 74.9134476,7.89614725 80.7663531,5.57844898 Z" transform="translate(85,13) scale(1, -1) translate(-85,-13)"/></g></g><g id="x0" stroke-width="1" fill-rule="evenodd"><defs><rect id="x24" x="0" y="0" width="264" height="280"/><path id="x18" d="M38,79.3595521 L38,111 C38,133.339168 51.0804213,152.623239 70,161.610951 L70,174.74565 C50.3625813,177.434228 34.6409914,182.163507 23.3845374,181.000327 C9.16164761,179.530612 1.49623627,150.795665 1,126 C0.382878875,95.1640258 29.3189583,30.7950013 40,18 C47.9231015,8.50878211 69.6952966,0.550643437 94.0001685,1 C118.30504,1.44935656 140.861928,6.81215989 149.000169,17 C161.324059,32.4276364 186.868727,91.0786423 187.000169,126 C187.093514,150.800049 177.46255,175.65995 164.000169,177 C152.920532,178.102871 137.475571,175.511343 118,173.997342 L118,161.610951 C136.919579,152.623239 150,133.339168 150,111 L150,82.9882378 C140.478735,78.1305678 131.863294,72.248172 124.153679,65.3410505 C127.362309,70.6368571 130.848786,75.1475352 134.61311,78.8730846 C107.596314,71.2928169 86.1055278,58.4501118 70.1407506,40.3449693 C62.1597317,56.8095313 51.4461487,69.8143919 38.0000014,79.3595511 Z"/></defs><mask id="x29" fill="#FFFFFF"><use xlink:href="#x24"/></mask><g id="x1"/><g id="x4" mask="url('#x29')"><g transform="translate(-1,0)"><g id="x2" stroke-width="1" fill-rule="evenodd" transform="translate(39,19)"><mask id="x30" fill="#FFFFFF"><use xlink:href="#x18"/></mask><use id="x3" fill="#E6E6E6" xlink:href="#x18"/><g id="x5" mask="url('#x30')" fill="#724133"><g transform="translate(0,0) " id="x6"><rect x="0" y="0" width="264" height="280"/></g></g> </g><g id="x9" transform="translate(49,72)"><defs><path id="x23" d="M101.428403,98.1685688 C98.9148372,100.462621 96.23722,101.494309 92.8529444,100.772863 C92.2705777,100.648833 89.8963391,96.2345713 83.9998344,96.2345713 C78.1033297,96.2345713 75.7294253,100.648833 75.1467245,100.772863 C71.7624488,101.494309 69.0848316,100.462621 66.5712661,98.1685688 C61.8461772,93.855604 57.9166219,87.9081858 60.2778299,81.4191814 C61.5083844,78.0369425 63.5097479,74.3237342 67.1506257,73.2459109 C71.0384163,72.0955419 76.4968931,73.2439051 80.4147542,72.4582708 C81.6840664,72.2035248 83.0706538,71.7508657 83.9998344,71 C84.929015,71.7508657 86.3159365,72.2035248 87.5845805,72.4582708 C91.5027758,73.2439051 96.9612525,72.0955419 100.849043,73.2459109 C104.489921,74.3237342 106.491284,78.0369425 107.722173,81.4191814 C110.083381,87.9081858 106.153826,93.855604 101.428403,98.1685688 M140.081033,26 C136.670693,34.4002532 137.987774,44.8580348 137.356666,53.6758724 C136.844038,60.8431942 135.33712,71.5857526 128.972858,76.214531 C125.718361,78.5816138 119.79436,82.5598986 115.54187,81.4501943 C112.614539,80.6863848 112.302182,72.290096 108.455284,69.1469801 C104.09172,65.5823153 98.6429854,64.0160432 93.1491481,64.2578722 C90.7785381,64.3622683 85.9841367,64.3374908 83.9999331,66.1604584 C82.0157295,64.3374908 77.2216647,64.3622683 74.8510547,64.2578722 C69.3568808,64.0160432 63.9081467,65.5823153 59.5445817,69.1469801 C55.6976839,72.290096 55.3856641,80.6863848 52.4583326,81.4501943 C48.2058427,82.5598986 42.2818421,78.5816138 39.0270077,76.214531 C32.6624096,71.5857526 31.1561652,60.8431942 30.642864,53.6758724 C30.0120926,44.8580348 31.3291729,34.4002532 27.9188335,26 C26.2597768,26 27.3540339,42.1288693 27.3540339,42.1288693 L27.3540339,62.4851205 C27.3856735,77.7732046 36.935095,100.655445 58.1080116,109.393004 C63.2861266,111.52982 75.0153111,115 83.9999331,115 C92.9845551,115 104.71374,111.860188 109.891855,109.723371 C131.064771,100.985813 140.614193,77.7732046 140.646169,62.4851205 L140.646169,42.1288693 C140.646169,42.1288693 141.740089,26 140.081033,26"/></defs><mask id="x31" fill="#FFFFFF"><use xlink:href="#x23"/></mask><use id="x8" fill="#331B0C" fill-rule="evenodd" xlink:href="#x23"/><g id="x57" mask="url('#x31')" fill="#2C1B18"><g transform="translate(-32,0)" id="x7"><rect x="0" y="0" width="264" height="244"/></g></g></g><g id="x14" fill="none" transform="translate(62,85)" stroke-width="1"><defs><filter id="x37" x="-0.8%" y="-2.0%" width="101.5%" height="108.0%" filterUnits="objectBoundingBox"><feOffset dx="0" dy="2" in="SourceAlpha" result="shadowOffsetOuter1"/><feColorMatrix values="0 0 0 0 0 0 0 0 0 0 0 0 0 0 0 0 0 0 0.16 0" type="matrix" in="shadowOffsetOuter1" result="shadowMatrixOuter1"/><feMerge><feMergeNode in="shadowMatrixOuter1"/><feMergeNode in="SourceGraphic"/></feMerge></filter></defs><g id="x10" filter="url('#x37')" transform="translate(5,2)"><path id="x11" d="M66,11.1111111 C54.9625586,11.1111111 53.3705645,2.0266011 30.6705882,0.740740741 C7.98552275,-0.283199952 0.815225204,6.4494855 0.776470588,11.1111111 C0.813236892,15.4042795 -0.352293566,26.5612661 14.3647059,39.6296296 C29.1367705,55.1420807 44.2704162,49.8818301 49.6941176,44.8148148 C55.1352081,42.4731118 61.3403442,21.4596351 66,21.4814815 C70.6596558,21.5033279 76.8647919,42.4731118 82.3058824,44.8148148 C87.7295838,49.8818301 102.86323,55.1420807 117.635294,39.6296296 C132.352294,26.5612661 131.186763,15.4042795 131.223529,11.1111111 C131.184775,6.4494855 124.014477,-0.283199952 101.329412,0.740740741 C78.6294355,2.0266011 77.0374414,11.1111111 66,11.1111111 Z" fill="#F4F4F4" fill-rule="nonzero"/><path id="x12" d="M55.1294118,21.4814815 C55.5103632,13.8233491 42.2156493,5.64243259 27.9529412,5.92592593 C13.6973442,6.22450879 11.8417942,15.3786982 11.6470588,18.8888889 C11.2982286,27.0220633 20.014463,45.3037598 36.1058824,44.8148148 C52.1972736,44.305848 54.9092435,26.5344305 55.1294118,21.4814815 Z" fill="#2F383B" fill-rule="nonzero"/><path id="x13" d="M120.352941,21.4814815 C120.733893,13.8233491 107.439179,5.64243259 93.1764706,5.92592593 C78.9208736,6.22450879 77.0653236,15.3786982 76.8705882,18.8888889 C76.521758,27.0220633 85.2379924,45.3037598 101.329412,44.8148148 C117.420803,44.305848 120.132773,26.5344305 120.352941,21.4814815 Z" fill="#2F383B" fill-rule="nonzero" transform="translate(98.611765, 25.370370) scale(-1, 1) translate(-98.611765, -25.370370)"/></g></g> </g></g></g> </g></g></g></g></svg>