<?xml version="1.0" encoding="utf-8" ?><!DOCTYPE svg PUBLIC "-//W3C//DTD SVG 1.1//EN" "http://www.w3.org/Graphics/SVG/1.1/DTD/svg11.dtd"><svg width="280px" height="280px" viewBox="-6 0 274 280" version="1.1" xmlns="http://www.w3.org/2000/svg" xmlns:xlink="http://www.w3.org/1999/xlink"><desc>Py-Avataaars</desc> <g id="x32" stroke="none" stroke-width="1" fill="none" fill-rule="evenodd"><defs><circle id="x17" cx="120" cy="120" r="120"/><path id="x20" d="M12,160 C12,226.27417 65.72583,280 132,280 C198.27417,280 252,226.27417 252,160 L264,160 L264,-1.42108547e-14 L-3.19744231e-14,-1.42108547e-14 L-3.19744231e-14,160 L12,160 Z"/><path id="x19" d="M124,144.610951 L124,163 L128,163 L128,163 C167.764502,163 200,195.235498 200,235 L200,244 L0,244 L0,235 C-4.86974701e-15,195.235498 32.235498,163 72,163 L72,163 L76,163 L76,144.610951 C58.7626345,136.422372 46.3722246,119.687011 44.3051388,99.8812385 C38.4803105,99.0577866 34,94.0521096 34,88 L34,74 C34,68.0540074 38.3245733,63.1180731 44,62.1659169 L44,56 L44,56 C44,25.072054 69.072054,5.68137151e-15 100,0 L100,0 L100,0 C130.927946,-5.68137151e-15 156,25.072054 156,56 L156,62.1659169 C161.675427,63.1180731 166,68.0540074 166,74 L166,88 C166,94.0521096 161.51969,99.0577866 155.694861,99.8812385 C153.627775,119.687011 141.237365,136.422372 124,144.610951 Z"/></defs><g id="x30" transform="translate(-825,-1100)"><g transform="translate(825,1100)"> <g id="x31" stroke-width="1" fill-rule="evenodd" mask="url('#py-avataaars-path-af082d01-2b94-45f1-9423-9fd7df142cda')"><g id="x29" transform="translate(32,36)"><mask id="x21" fill="#FFFFFF"><use xlink:href="#x19"/></mask><use fill="#D0C6AC" xlink:href="#x19"/><g id="x14" mask="url('#x21')" fill="#FD9841"><g transform="translate(0,0)" id="x15"><rect x="0" y="0" width="264" height="280"/></g></g> <path id="x28" d="M156,79 L156,102 C156,132.927946 130.927946,158 100,158 C69.072054,158 44,132.927946 44,102 L44,79 L44,94 C44,124.927946 69.072054,150 100,150 C130.927946,150 156,124.927946 156,94 L156,79 Z" fill-opacity="0.1" fill="#000000" mask="url('#x21')"/></g><g id="x52" transform="translate(0,170)"><defs><path id="x23" d="M108,13.0708856 C90.0813006,15.075938 76.2798424,20.5518341 76.004203,34.6449676 C50.1464329,45.5680933 32,71.1646257 32,100.999485 L32,100.999485 L32,110 L232,110 L232,100.999485 C232,71.1646257 213.853567,45.5680933 187.995797,34.6449832 C187.720158,20.5518341 173.918699,15.075938 156,13.0708856 L156,32 L156,32 C156,45.254834 145.254834,56 132,56 L132,56 C118.745166,56 108,45.254834 108,32 L108,13.0708856 Z"/></defs><mask id="x25" fill="#FFFFFF"><use xlink:href="#x23"/></mask><use id="x51" fill="#B7C1DB" fill-rule="evenodd" xlink:href="#x23"/><g id="x53" mask="url('#x25')" fill-rule="evenodd" fill="#FF488E"><rect id="x54" x="0" y="0" width="264" height="110"/></g> <path id="x49" d="M102,61.7390531 L102,110 L95,110 L95,58.1502625 C97.2037542,59.4600576 99.5467694,60.6607878 102,61.7390531 Z M169,58.1502625 L169,98.5 C169,100.432997 167.432997,102 165.5,102 C163.567003,102 162,100.432997 162,98.5 L162,61.7390531 C164.453231,60.6607878 166.796246,59.4600576 169,58.1502625 Z" fill="#F4F4F4" fill-rule="evenodd" mask="url('#x25')"/><path id="x50" d="M90.9601329,12.7243537 C75.9093095,15.5711782 65.5,21.2428847 65.5,32.3076923 C65.5,52.0200095 98.5376807,68 132,68 C165.462319,68 198.5,52.0200095 198.5,32.3076923 C198.5,21.2428847 188.09069,15.5711782 173.039867,12.7243537 C182.124921,16.0744598 188,21.7060546 188,31.0769231 C188,51.4689754 160.178795,68 132,68 C103.821205,68 76,51.4689754 76,31.0769231 C76,21.7060546 81.8750795,16.0744598 90.9601329,12.7243537 Z" fill-opacity="0.16" fill="#000000" fill-rule="evenodd" mask="url('#x25')"/></g><g id="x48" transform="translate(76,82)" fill="#000000"><g id="x41" transform="translate(2,52)"><g id="x40" opacity="0.6" stroke-width="1" transform="translate(28,6)" fill-opacity="0.6" fill="#000000"><path id="x55" d="M16.1906378,10.106319 C16.0179484,4.99553347 11.7923466,0.797193688 6.29352385,0 C9.66004124,1.95870633 11.9804619,5.49520667 11.9804619,9.67694348 C11.9804619,15.344608 6.50694731,20.2451296 0.176591694,20.2451296 C0.11761218,20.2451296 0.0587475828,20.2447983 0,20.244138 L8.8963743e-11,20.244138 C1.35764479,20.7317259 2.83995964,21 4.39225962,21 C9.71395931,21 14.2131224,17.8469699 15.6863572,13.5136402 C18.1609431,15.6698775 21.8629994,17.0394229 26,17.0394229 C30.1370006,17.0394229 33.8390569,15.6698775 36.3136428,13.5136402 C37.7868776,17.8469699 42.2860407,21 47.6077404,21 C49.1600404,21 50.6423552,20.7317259 52,20.244138 L52,20.244138 C51.9412524,20.2447983 51.8823878,20.2451296 51.8234083,20.2451296 C45.4930527,20.2451296 40.0195381,15.344608 40.0195381,9.67694348 C40.0195381,5.49520667 42.3399588,1.95870633 45.7064761,0 C40.2076534,0.797193688 35.9820516,4.99553347 35.8093622,10.106319 C33.2452605,11.8422828 29.7948543,12.9056086 26,12.9056086 C22.2051457,12.9056086 18.7547395,11.8422828 16.1906378,10.106319 Z"/></g><circle id="x39" fill-opacity="0.2" fill="#FF4646" cx="17" cy="15" r="9"/><circle id="x38" fill-opacity="0.2" fill="#FF4646" cx="91" cy="15" r="9"/></g><g id="x37" transform="translate(28,40)" fill-opacity="0.16"><path id="x36" d="M16,8 C16,12.418278 21.372583,16 28,16 L28,16 C34.627417,16 40,12.418278 40,8"/></g><g id="x44" transform="translate(0,8)"><circle id="x56" fill="#FFFFFF" cx="82" cy="22" r="12"/><circle id="x42" fill-opacity="0.7" fill="#000000" cx="82" cy="22" r="6"/><path id="x43" d="M16.1601674,25.4473116 C18.006676,21.648508 22.1644225,19 26.9975803,19 C31.8136766,19 35.9591217,21.629842 37.8153518,25.4071242 C38.3667605,26.5291977 37.5821037,27.4474817 36.790607,26.7670228 C34.3395063,24.6597833 30.8587163,23.3437884 26.9975803,23.3437884 C23.2572061,23.3437884 19.8737584,24.5787519 17.4375392,26.5716412 C16.5467928,27.3002944 15.6201012,26.5583844 16.1601674,25.4473116 Z" fill-opacity="0.6" fill="#000000"/></g><g id="x47" fill-opacity="0.6"><path id="x46" d="M26.0390934,6.21012364 C20.2775554,6.98346216 11.2929313,12.0052479 12.04426,17.8178111 C12.0689481,18.0080543 12.3567302,18.0673468 12.4809077,17.9084937 C14.9674041,14.7203351 34.1927973,10.0365481 41.1942673,11.0147151 C41.8350523,11.1044465 42.2580662,10.4430343 41.8210501,10.0302067 C38.0765663,6.49485426 31.2003792,5.51224825 26.0390934,6.21012364" transform="translate(27,12) rotate(5.0) translate(-27,-12)"/><path id="x45" d="M85.0390934,6.21012364 C79.2775554,6.98346216 70.2929313,12.0052479 71.04426,17.8178111 C71.0689481,18.0080543 71.3567302,18.0673468 71.4809077,17.9084937 C73.9674041,14.7203351 93.1927973,10.0365481 100.194267,11.0147151 C100.835052,11.1044465 101.258066,10.4430343 100.82105,10.0302067 C97.0765663,6.49485426 90.2003792,5.51224825 85.0390934,6.21012364" transform="translate(86,12) scale(-1, 1) rotate(5.0) translate(-86,-12)"/></g></g><g id="x0" stroke-width="1" fill-rule="evenodd"><defs><rect id="x22" x="0" y="0" width="264" height="280"/><filter id="x34" x="-0.8%" y="-2.0%" width="101.5%" height="108.0%" filterUnits="objectBoundingBox"><feOffset dx="0" dy="2" in="SourceAlpha" result="shadowOffsetOuter1"/><feColorMatrix values="0 0 0 0 0 0 0 0 0 0 0 0 0 0 0 0 0 0 0.16 0" type="matrix" in="shadowOffsetOuter1" result="shadowMatrixOuter1"/><feMerge><feMergeNode in="shadowMatrixOuter1"/><feMergeNode in="SourceGraphic"/></feMerge></filter></defs><mask id="x27" fill="#FFFFFF"><use xlink:href="#x22"/></mask><g id="x1"/><g id="x2" mask="url('#x27')"><g transform="translate(-1,0)"><g id="x5" transform="translate(49,72)"><defs><path id="x24" d="M101.428403,98.1685688 C98.9148372,100.462621 96.23722,101.494309 92.8529444,100.772863 C92.2705777,100.648833 89.8963391,96.2345713 83.9998344,96.2345713 C78.1033297,96.2345713 75.7294253,100.648833 75.1467245,100.772863 C71.7624488,101.494309 69.0848316,100.462621 66.5712661,98.1685688 C61.8461772,93.855604 57.9166219,87.9081858 60.2778299,81.4191814 C61.5083844,78.0369425 63.5097479,74.3237342 67.1506257,73.2459109 C71.0384163,72.0955419 76.4968931,73.2439051 80.4147542,72.4582708 C81.6840664,72.2035248 83.0706538,71.7508657 83.9998344,71 C84.929015,71.7508657 86.3159365,72.2035248 87.5845805,72.4582708 C91.5027758,73.2439051 96.9612525,72.0955419 100.849043,73.2459109 C104.489921,74.3237342 106.491284,78.0369425 107.722173,81.4191814 C110.083381,87.9081858 106.153826,93.855604 101.428403,98.1685688 M140.081033,26 C136.670693,34.4002532 137.987774,44.8580348 137.356666,53.6758724 C136.844038,60.8431942 135.33712,71.5857526 128.972858,76.214531 C125.718361,78.5816138 119.79436,82.5598986 115.54187,81.4501943 C112.614539,80.6863848 112.302182,72.290096 108.455284,69.1469801 C104.09172,65.5823153 98.6429854,64.0160432 93.1491481,64.2578722 C90.7785381,64.3622683 85.9841367,64.3374908 83.9999331,66.1604584 C82.0157295,64.3374908 77.2216647,64.3622683 74.8510547,64.2578722 C69.3568808,64.0160432 63.9081467,65.5823153 59.5445817,69.1469801 C55.6976839,72.290096 55.3856641,80.6863848 52.4583326,81.4501943 C48.2058427,82.5598986 42.2818421,78.5816138 39.0270077,76.214531 C32.6624096,71.5857526 31.1561652,60.8431942 30.642864,53.6758724 C30.0120926,44.8580348 31.3291729,34.4002532 27.9188335,26 C26.2597768,26 27.3540339,42.1288693 27.3540339,42.1288693 L27.3540339,62.4851205 C27.3856735,77.7732046 36.935095,100.655445 58.1080116,109.393004 C63.2861266,111.52982 75.0153111,115 83.9999331,115 C92.9845551,115 104.71374,111.860188 109.891855,109.723371 C131.064771,100.985813 140.614193,77.7732046 140.646169,62.4851205 L140.646169,42.1288693 C140.646169,42.1288693 141.740089,26 140.081033,26"/></defs><mask id="x26" fill="#FFFFFF"><use xlink:href="#x24"/></mask><use id="x4" fill="#331B0C" fill-rule="evenodd" xlink:href="#x24"/><g id="color-facial-hair-silver_gray" mask="url('#x26')" fill="#E8E1E1"><g transform="translate(-32,0)" id="x3"><rect x="0" y="0" width="264" height="244"/></g></g></g><g id="x13" fill="none" transform="translate(62,85)" stroke-width="1"><defs><filter id="x35" x="-0.8%" y="-2.4%" width="101.6%" height="109.8%" filterUnits="objectBoundingBox"><feOffset dx="0" dy="2" in="SourceAlpha" result="shadowOffsetOuter1"/><feColorMatrix values="0 0 0 0 0 0 0 0 0 0 0 0 0 0 0 0 0 0 0.2 0" type="matrix" in="shadowOffsetOuter1" result="shadowMatrixOuter1"/><feMerge><feMergeNode in="shadowMatrixOuter1"/><feMergeNode in="SourceGraphic"/></feMerge></filter><linearGradient x1="50%" y1="0%" x2="50%" y2="100%" id="x33"><stop stop-color="#FFFFFF" stop-opacity="0.5" offset="0%"/><stop stop-color="#000000" stop-opacity="0.5" offset="70.5058195%"/></linearGradient><path id="x16" d="M44.9178864,17.5714286 C44.9178864,27.2737857 36.66775,35.1428571 22.9204545,35.1428571 L20.1704091,35.1428571 C6.42311364,35.1428571 0.923022727,27.2708571 0.923022727,17.5714286 L0.923022727,17.5714286 C0.923022727,7.86614286 2.20715909,0 21.4545455,0 L24.3863636,0 C43.63375,0 44.9178864,7.86614286 44.9178864,17.5714286 L44.9178864,17.5714286 Z"/><path id="x18" d="M106.486068,17.5714286 C106.486068,27.2737857 98.2388636,35.1428571 84.4886364,35.1428571 L81.7385909,35.1428571 C67.9912955,35.1428571 62.4912045,27.2708571 62.4912045,17.5714286 L62.4912045,17.5714286 C62.4912045,7.86614286 63.7753409,0 83.0227273,0 L85.9545455,0 C105.199,0 106.486068,7.86614286 106.486068,17.5714286 L106.486068,17.5714286 Z"/></defs><g id="x6" filter="url('#x35')" transform="translate(7,7)"><g id="x8" transform="translate(10.795455, 2.928571)" fill-rule="nonzero"><g id="x10"><use fill-opacity="0.7" fill="#000000" fill-rule="evenodd" xlink:href="#x16"/><use fill="url('#x33')" fill-rule="evenodd" style="mix-blend-mode: 'screen'" xlink:href="#x16"/></g><g id="x9"><use fill-opacity="0.7" fill="#000000" fill-rule="evenodd" xlink:href="#x18"/><use fill="url('#x33')" fill-rule="evenodd" style="mix-blend-mode: 'screen'" xlink:href="#x18"/></g></g><path id="x12" d="M33.7159091,41 L30.9658636,41 C17.0778409,41 8.78665909,33.3359286 8.78665909,20.5 C8.78665909,10.127 10.5985227,0 32.25,0 L35.1818182,0 C56.8332955,0 58.6451591,10.127 58.6451591,20.5 C58.6451591,32.5686429 48.3955227,41 33.7159091,41 Z M32.25,5.85421429 C14.6502955,5.85421429 14.6502955,12.3175714 14.6502955,20.5 C14.6502955,27.1800714 17.4795,35.1428571 30.9658636,35.1428571 L33.7159091,35.1428571 C44.9418409,35.1428571 52.7815227,29.1217143 52.7815227,20.5 C52.7815227,12.3175714 52.7815227,5.85421429 35.1818182,5.85421429 L32.25,5.85421429 Z" fill="#252C2F" fill-rule="nonzero"/><path id="x11" d="M95.2840909,41 L92.5340455,41 C78.6460227,41 70.3548409,33.3359286 70.3548409,20.5 C70.3548409,10.127 72.1667045,0 93.8181818,0 L96.75,0 C118.401477,0 120.213341,10.127 120.213341,20.5 C120.213341,32.5686429 109.963705,41 95.2840909,41 Z M93.8181818,5.85421429 C76.2184773,5.85421429 76.2184773,12.3175714 76.2184773,20.5 C76.2184773,27.1800714 79.0506136,35.1428571 92.5340455,35.1428571 L95.2840909,35.1428571 C106.510023,35.1428571 114.349705,29.1217143 114.349705,20.5 C114.349705,12.3175714 114.349705,5.85421429 96.75,5.85421429 L93.8181818,5.85421429 Z" fill="#252C2F" fill-rule="nonzero"/><path id="x7" d="M2.93181818,5.85714286 C3.61786364,5.17185714 11.1233182,0 32.25,0 C49.9640455,0 53.7138409,1.88014286 59.3898409,4.72085714 L59.8053162,4.93054903 C60.1999353,5.07314243 62.2179351,5.77419634 64.5784525,5.85128811 C66.7290156,5.75689949 68.5684809,5.16080623 69.1059926,4.96981137 C75.5844654,1.74762081 81.9260118,0 96.75,0 C117.876682,0 125.382136,5.17185714 126.068182,5.85714286 C127.689477,5.85714286 129,7.16621429 129,8.78571429 L129,11.7142857 C129,13.3337857 127.689477,14.6428571 126.068182,14.6428571 C126.068182,14.6428571 120.204545,14.6428571 120.204545,17.5714286 C120.204545,20.5 117.272727,13.3337857 117.272727,11.7142857 L117.272727,8.8618831 C113.697201,7.46243482 107.296654,5.85714286 96.75,5.85714286 C84.9995538,5.85714286 79.1475515,6.98813142 74.1276604,9.10414393 L74.1837955,9.24257143 L71.6878772,10.2500422 L74.1813177,11.2582547 L71.981173,16.6874536 L69.263564,15.5885995 C69.0208516,15.4904597 68.4971539,15.3141463 67.770994,15.1309826 C65.7466083,14.6203594 63.6653786,14.4649153 61.8248214,14.8513001 C61.1495627,14.993056 60.5230576,15.2057795 59.9480988,15.4931011 L57.3260941,16.8033836 L54.7026238,11.5651815 L57.3246285,10.2548989 L57.3310023,10.251716 L54.8191364,9.23671429 L54.8992448,9.03890561 C50.5700368,6.97578666 46.5781927,5.85714286 32.25,5.85714286 C21.7038986,5.85714286 15.3034993,7.46145875 11.7272727,8.86093383 L11.7272727,11.7142857 C11.7272727,13.3337857 8.79545455,20.5 8.79545455,17.5714286 C8.79545455,14.6428571 2.93181818,14.6428571 2.93181818,14.6428571 C1.31345455,14.6428571 0,13.3337857 0,11.7142857 L0,8.78571429 C0,7.16621429 1.31345455,5.85714286 2.93181818,5.85714286 Z" fill="#252C2F" fill-rule="nonzero"/></g></g> </g></g></g> </g></g></g></g></svg>